G04 #@! TF.FileFunction,Copper,L4,Bot,Signal*
%FSLAX46Y46*%
G04 Gerber Fmt 4.6, Leading zero omitted, Abs format (unit mm)*
G04 Created by KiCad (PCBNEW 4.0.2-stable) date 7/7/2016 4:53:19 PM*
%MOMM*%
G01*
G04 APERTURE LIST*
%ADD10C,0.100000*%
%ADD11C,1.900000*%
%ADD12R,2.235200X2.235200*%
%ADD13R,1.727200X2.032000*%
%ADD14O,1.727200X2.032000*%
%ADD15C,0.457200*%
%ADD16C,0.600000*%
%ADD17C,0.250000*%
%ADD18C,0.254000*%
G04 APERTURE END LIST*
D10*
D11*
X162560000Y-76200000D03*
X160020000Y-76200000D03*
X157480000Y-76200000D03*
X154940000Y-76200000D03*
X152400000Y-76200000D03*
X149860000Y-76200000D03*
X147320000Y-76200000D03*
X144780000Y-76200000D03*
X142240000Y-76200000D03*
X139700000Y-76200000D03*
X137160000Y-76200000D03*
X134620000Y-76200000D03*
X132080000Y-76200000D03*
X132080000Y-91440000D03*
X134620000Y-91440000D03*
X137160000Y-91440000D03*
X139700000Y-91440000D03*
X142240000Y-91440000D03*
X144780000Y-91440000D03*
X147320000Y-91440000D03*
X149860000Y-91440000D03*
X152400000Y-91440000D03*
X154940000Y-91440000D03*
X157480000Y-91440000D03*
X160020000Y-91440000D03*
X162560000Y-91440000D03*
X165100000Y-91440000D03*
X165100000Y-76200000D03*
D12*
X171831000Y-82550000D03*
X173101000Y-86106000D03*
X173736000Y-89662000D03*
X171577000Y-95758000D03*
D13*
X155067000Y-72009000D03*
D14*
X152527000Y-72009000D03*
X149987000Y-72009000D03*
X147447000Y-72009000D03*
X144907000Y-72009000D03*
X142367000Y-72009000D03*
D12*
X171577000Y-98552000D03*
X171577000Y-92964000D03*
D15*
X133477000Y-103886000D03*
X167513000Y-93853000D03*
X130429000Y-78359000D03*
X141605000Y-98044000D03*
X162687000Y-79756000D03*
X141351000Y-69723000D03*
X137033000Y-85090000D03*
D16*
X124968000Y-95250000D03*
X169291000Y-82550000D03*
X140462000Y-94996000D03*
D15*
X164719000Y-93980000D03*
X160528000Y-79629000D03*
X140081000Y-88900000D03*
X168148000Y-88773000D03*
X159385000Y-84836000D03*
X140335000Y-80010000D03*
D16*
X145605500Y-107886500D03*
X162179000Y-111506000D03*
X148082000Y-94107000D03*
X151447500Y-107759500D03*
X171704000Y-89662000D03*
X137287000Y-98425000D03*
X133604000Y-107950000D03*
X126619000Y-103124000D03*
X127635000Y-95885000D03*
X129921000Y-100330000D03*
X131445000Y-108331000D03*
X127635000Y-94869000D03*
D15*
X137795000Y-101981000D03*
X132080000Y-102870000D03*
X143764000Y-98044000D03*
X133096000Y-95250000D03*
D16*
X151511000Y-99568000D03*
X137414000Y-99568000D03*
X133096000Y-96901000D03*
X126492000Y-95377000D03*
X127254000Y-97409000D03*
X148971000Y-98425000D03*
D15*
X155532000Y-97536000D03*
D16*
X127508000Y-90551000D03*
X127635000Y-98933000D03*
D15*
X150368000Y-96901000D03*
X148082000Y-98171000D03*
X145923000Y-96139000D03*
D17*
X140462000Y-94996000D02*
X140335000Y-94996000D01*
X130683000Y-95377000D02*
X134620000Y-91440000D01*
X130683000Y-99822000D02*
X130683000Y-95377000D01*
X130175000Y-100330000D02*
X130683000Y-99822000D01*
X129921000Y-100330000D02*
X130175000Y-100330000D01*
X128778000Y-105664000D02*
X131445000Y-108331000D01*
X128778000Y-96012000D02*
X128778000Y-105664000D01*
X127635000Y-94869000D02*
X128778000Y-96012000D01*
D18*
X132969000Y-101981000D02*
X137795000Y-101981000D01*
X132080000Y-102870000D02*
X132969000Y-101981000D01*
X143764000Y-98044000D02*
X142875000Y-98044000D01*
X142875000Y-98044000D02*
X141986000Y-97155000D01*
X135001000Y-97155000D02*
X141986000Y-97155000D01*
X133096000Y-95250000D02*
X135001000Y-97155000D01*
D17*
X137414000Y-99568000D02*
X151511000Y-99568000D01*
X135763000Y-99568000D02*
X137414000Y-99568000D01*
X133096000Y-96901000D02*
X135763000Y-99568000D01*
X126492000Y-96647000D02*
X126492000Y-95377000D01*
X127254000Y-97409000D02*
X126492000Y-96647000D01*
D18*
X148971000Y-98425000D02*
X154643000Y-98425000D01*
X154643000Y-98425000D02*
X155532000Y-97536000D01*
X160020000Y-91440000D02*
X160020000Y-93048000D01*
X160020000Y-93048000D02*
X155532000Y-97536000D01*
D17*
X160020000Y-93091000D02*
X160020000Y-91440000D01*
X159004000Y-94107000D02*
X160020000Y-93091000D01*
D18*
X154940000Y-76200000D02*
X154940000Y-77343000D01*
X169926000Y-86106000D02*
X173101000Y-86106000D01*
X167640000Y-83820000D02*
X169926000Y-86106000D01*
X167640000Y-80264000D02*
X167640000Y-83820000D01*
X166116000Y-78740000D02*
X167640000Y-80264000D01*
X156337000Y-78740000D02*
X166116000Y-78740000D01*
X154940000Y-77343000D02*
X156337000Y-78740000D01*
D17*
X127508000Y-90424000D02*
X127508000Y-90551000D01*
X126619000Y-90424000D02*
X127508000Y-90424000D01*
X125603000Y-91440000D02*
X126619000Y-90424000D01*
X125603000Y-93599000D02*
X125603000Y-91440000D01*
X125603000Y-96393000D02*
X125603000Y-93599000D01*
X125603000Y-96393000D02*
X125603000Y-96393000D01*
X125603000Y-98044000D02*
X125603000Y-96393000D01*
X126111000Y-98552000D02*
X125603000Y-98044000D01*
X127254000Y-98552000D02*
X126111000Y-98552000D01*
X127635000Y-98933000D02*
X127254000Y-98552000D01*
D18*
X162560000Y-76200000D02*
X162560000Y-76073000D01*
X162560000Y-76073000D02*
X156210000Y-69723000D01*
X156210000Y-69723000D02*
X152273000Y-69723000D01*
X152273000Y-69723000D02*
X149987000Y-72009000D01*
X149606000Y-96139000D02*
X145923000Y-96139000D01*
X150368000Y-96901000D02*
X149606000Y-96139000D01*
X147955000Y-98171000D02*
X148082000Y-98171000D01*
X145923000Y-96139000D02*
X147955000Y-98171000D01*
D17*
X134620000Y-76200000D02*
X134620000Y-76962000D01*
X132080000Y-76200000D02*
X132080000Y-76327000D01*
M02*
