G04 #@! TF.FileFunction,Copper,L2,Inr,Plane*
%FSLAX46Y46*%
G04 Gerber Fmt 4.6, Leading zero omitted, Abs format (unit mm)*
G04 Created by KiCad (PCBNEW 4.0.2-stable) date 7/7/2016 4:53:18 PM*
%MOMM*%
G01*
G04 APERTURE LIST*
%ADD10C,0.100000*%
%ADD11C,1.900000*%
%ADD12R,2.235200X2.235200*%
%ADD13R,1.727200X2.032000*%
%ADD14O,1.727200X2.032000*%
%ADD15C,0.457200*%
%ADD16C,0.600000*%
%ADD17C,0.254000*%
G04 APERTURE END LIST*
D10*
D11*
X162560000Y-76200000D03*
X160020000Y-76200000D03*
X157480000Y-76200000D03*
X154940000Y-76200000D03*
X152400000Y-76200000D03*
X149860000Y-76200000D03*
X147320000Y-76200000D03*
X144780000Y-76200000D03*
X142240000Y-76200000D03*
X139700000Y-76200000D03*
X137160000Y-76200000D03*
X134620000Y-76200000D03*
X132080000Y-76200000D03*
X132080000Y-91440000D03*
X134620000Y-91440000D03*
X137160000Y-91440000D03*
X139700000Y-91440000D03*
X142240000Y-91440000D03*
X144780000Y-91440000D03*
X147320000Y-91440000D03*
X149860000Y-91440000D03*
X152400000Y-91440000D03*
X154940000Y-91440000D03*
X157480000Y-91440000D03*
X160020000Y-91440000D03*
X162560000Y-91440000D03*
X165100000Y-91440000D03*
X165100000Y-76200000D03*
D12*
X171831000Y-82550000D03*
X173101000Y-86106000D03*
X173736000Y-89662000D03*
X171577000Y-95758000D03*
D13*
X155067000Y-72009000D03*
D14*
X152527000Y-72009000D03*
X149987000Y-72009000D03*
X147447000Y-72009000D03*
X144907000Y-72009000D03*
X142367000Y-72009000D03*
D12*
X171577000Y-98552000D03*
X171577000Y-92964000D03*
D15*
X133477000Y-103886000D03*
X167513000Y-93853000D03*
X130429000Y-78359000D03*
X141605000Y-98044000D03*
X162687000Y-79756000D03*
X141351000Y-69723000D03*
X137033000Y-85090000D03*
D16*
X124968000Y-95250000D03*
X169291000Y-82550000D03*
X140462000Y-94996000D03*
D15*
X164719000Y-93980000D03*
X160528000Y-79629000D03*
X140081000Y-88900000D03*
X168148000Y-88773000D03*
X159385000Y-84836000D03*
X140335000Y-80010000D03*
D16*
X145605500Y-107886500D03*
X162179000Y-111506000D03*
X148082000Y-94107000D03*
X151447500Y-107759500D03*
X171704000Y-89662000D03*
X137287000Y-98425000D03*
X133604000Y-107950000D03*
X126619000Y-103124000D03*
X127635000Y-95885000D03*
X129921000Y-100330000D03*
X131445000Y-108331000D03*
X127635000Y-94869000D03*
D15*
X137795000Y-101981000D03*
X132080000Y-102870000D03*
X143764000Y-98044000D03*
X133096000Y-95250000D03*
D16*
X151511000Y-99568000D03*
X137414000Y-99568000D03*
X133096000Y-96901000D03*
X126492000Y-95377000D03*
X127254000Y-97409000D03*
X148971000Y-98425000D03*
D15*
X155532000Y-97536000D03*
D16*
X127508000Y-90551000D03*
X127635000Y-98933000D03*
D15*
X150368000Y-96901000D03*
X148082000Y-98171000D03*
X145923000Y-96139000D03*
D17*
G36*
X158038454Y-69899414D02*
X165094319Y-74613993D01*
X164722539Y-74628648D01*
X164255792Y-74821981D01*
X164163255Y-75083650D01*
X165100000Y-76020395D01*
X165114143Y-76006253D01*
X165293748Y-76185858D01*
X165279605Y-76200000D01*
X166216350Y-77136745D01*
X166478019Y-77044208D01*
X166696188Y-76452602D01*
X166686483Y-76206394D01*
X170092109Y-81303272D01*
X170065960Y-81432400D01*
X170065960Y-82002868D01*
X169821327Y-81757808D01*
X169477799Y-81615162D01*
X169105833Y-81614838D01*
X168762057Y-81756883D01*
X168498808Y-82019673D01*
X168356162Y-82363201D01*
X168355838Y-82735167D01*
X168497883Y-83078943D01*
X168760673Y-83342192D01*
X169104201Y-83484838D01*
X169476167Y-83485162D01*
X169819943Y-83343117D01*
X170065960Y-83097529D01*
X170065960Y-83667600D01*
X170110238Y-83902917D01*
X170249310Y-84119041D01*
X170461510Y-84264031D01*
X170713400Y-84315040D01*
X171610139Y-84315040D01*
X171638171Y-84455965D01*
X171531959Y-84524310D01*
X171386969Y-84736510D01*
X171335960Y-84988400D01*
X171335960Y-87223600D01*
X171380238Y-87458917D01*
X171519310Y-87675041D01*
X171731510Y-87820031D01*
X171983400Y-87871040D01*
X172317471Y-87871040D01*
X172351195Y-88040580D01*
X172207073Y-88184701D01*
X172110400Y-88418090D01*
X172110400Y-89376250D01*
X172269150Y-89535000D01*
X172648453Y-89535000D01*
X172698977Y-89789000D01*
X172269150Y-89789000D01*
X172110400Y-89947750D01*
X172110400Y-90905910D01*
X172207073Y-91139299D01*
X172279174Y-91211400D01*
X171862750Y-91211400D01*
X171704000Y-91370150D01*
X171704000Y-92837000D01*
X171724000Y-92837000D01*
X171724000Y-93091000D01*
X171704000Y-93091000D01*
X171704000Y-93111000D01*
X171450000Y-93111000D01*
X171450000Y-93091000D01*
X169983150Y-93091000D01*
X169824400Y-93249750D01*
X169824400Y-94207910D01*
X169885530Y-94355491D01*
X169862969Y-94388510D01*
X169811960Y-94640400D01*
X169811960Y-96875600D01*
X169856238Y-97110917D01*
X169883228Y-97152860D01*
X169862969Y-97182510D01*
X169811960Y-97434400D01*
X169811960Y-99669600D01*
X169856238Y-99904917D01*
X169995310Y-100121041D01*
X170207510Y-100266031D01*
X170459400Y-100317040D01*
X171766866Y-100317040D01*
X171400586Y-102158454D01*
X166048466Y-110168466D01*
X158038454Y-115520586D01*
X156884421Y-115750137D01*
X156992954Y-115587705D01*
X157047000Y-115316000D01*
X157047000Y-100076000D01*
X156992954Y-99804295D01*
X156839046Y-99573954D01*
X156608705Y-99420046D01*
X156337000Y-99366000D01*
X152527000Y-99366000D01*
X152445874Y-99382137D01*
X152304117Y-99039057D01*
X152041327Y-98775808D01*
X151697799Y-98633162D01*
X151325833Y-98632838D01*
X150982057Y-98774883D01*
X150718808Y-99037673D01*
X150576162Y-99381201D01*
X150576161Y-99382144D01*
X150495000Y-99366000D01*
X146685000Y-99366000D01*
X146413295Y-99420046D01*
X146182954Y-99573954D01*
X146029046Y-99804295D01*
X145975000Y-100076000D01*
X145975000Y-115316000D01*
X146029046Y-115587705D01*
X146182954Y-115818046D01*
X146413295Y-115971954D01*
X146685000Y-116026000D01*
X150495000Y-116026000D01*
X150766705Y-115971954D01*
X150997046Y-115818046D01*
X151150954Y-115587705D01*
X151205000Y-115316000D01*
X151205000Y-100453341D01*
X151324201Y-100502838D01*
X151696167Y-100503162D01*
X151817000Y-100453235D01*
X151817000Y-115316000D01*
X151871046Y-115587705D01*
X152024954Y-115818046D01*
X152255295Y-115971954D01*
X152527000Y-116026000D01*
X155497566Y-116026000D01*
X148590000Y-117400000D01*
X141682434Y-116026000D01*
X144653000Y-116026000D01*
X144924705Y-115971954D01*
X145155046Y-115818046D01*
X145308954Y-115587705D01*
X145363000Y-115316000D01*
X145363000Y-100076000D01*
X145308954Y-99804295D01*
X145155046Y-99573954D01*
X144924705Y-99420046D01*
X144653000Y-99366000D01*
X140843000Y-99366000D01*
X140571295Y-99420046D01*
X140340954Y-99573954D01*
X140187046Y-99804295D01*
X140133000Y-100076000D01*
X140133000Y-115316000D01*
X140187046Y-115587705D01*
X140295579Y-115750137D01*
X139141546Y-115520586D01*
X131131534Y-110168466D01*
X130027503Y-108516167D01*
X130509838Y-108516167D01*
X130651883Y-108859943D01*
X130914673Y-109123192D01*
X131258201Y-109265838D01*
X131630167Y-109266162D01*
X131973943Y-109124117D01*
X132237192Y-108861327D01*
X132379838Y-108517799D01*
X132380162Y-108145833D01*
X132238117Y-107802057D01*
X131975327Y-107538808D01*
X131631799Y-107396162D01*
X131259833Y-107395838D01*
X130916057Y-107537883D01*
X130652808Y-107800673D01*
X130510162Y-108144201D01*
X130509838Y-108516167D01*
X130027503Y-108516167D01*
X126369131Y-103041027D01*
X131216250Y-103041027D01*
X131347449Y-103358551D01*
X131590171Y-103601698D01*
X131907466Y-103733450D01*
X132251027Y-103733750D01*
X132568551Y-103602551D01*
X132724070Y-103447304D01*
X132613550Y-103713466D01*
X132613250Y-104057027D01*
X132744449Y-104374551D01*
X132987171Y-104617698D01*
X133304466Y-104749450D01*
X133648027Y-104749750D01*
X133965551Y-104618551D01*
X134208698Y-104375829D01*
X134340450Y-104058534D01*
X134340750Y-103714973D01*
X134209551Y-103397449D01*
X133966829Y-103154302D01*
X133649534Y-103022550D01*
X133305973Y-103022250D01*
X132988449Y-103153449D01*
X132832930Y-103308696D01*
X132943450Y-103042534D01*
X132943750Y-102698973D01*
X132812551Y-102381449D01*
X132583531Y-102152027D01*
X136931250Y-102152027D01*
X137062449Y-102469551D01*
X137305171Y-102712698D01*
X137622466Y-102844450D01*
X137966027Y-102844750D01*
X138283551Y-102713551D01*
X138526698Y-102470829D01*
X138658450Y-102153534D01*
X138658750Y-101809973D01*
X138527551Y-101492449D01*
X138284829Y-101249302D01*
X137967534Y-101117550D01*
X137623973Y-101117250D01*
X137306449Y-101248449D01*
X137063302Y-101491171D01*
X136931550Y-101808466D01*
X136931250Y-102152027D01*
X132583531Y-102152027D01*
X132569829Y-102138302D01*
X132252534Y-102006550D01*
X131908973Y-102006250D01*
X131591449Y-102137449D01*
X131348302Y-102380171D01*
X131216550Y-102697466D01*
X131216250Y-103041027D01*
X126369131Y-103041027D01*
X125779414Y-102158454D01*
X125452545Y-100515167D01*
X128985838Y-100515167D01*
X129127883Y-100858943D01*
X129390673Y-101122192D01*
X129734201Y-101264838D01*
X130106167Y-101265162D01*
X130449943Y-101123117D01*
X130713192Y-100860327D01*
X130855838Y-100516799D01*
X130856162Y-100144833D01*
X130714117Y-99801057D01*
X130666311Y-99753167D01*
X136478838Y-99753167D01*
X136620883Y-100096943D01*
X136883673Y-100360192D01*
X137227201Y-100502838D01*
X137599167Y-100503162D01*
X137942943Y-100361117D01*
X138206192Y-100098327D01*
X138348838Y-99754799D01*
X138349162Y-99382833D01*
X138207117Y-99039057D01*
X137944327Y-98775808D01*
X137600799Y-98633162D01*
X137228833Y-98632838D01*
X136885057Y-98774883D01*
X136621808Y-99037673D01*
X136479162Y-99381201D01*
X136478838Y-99753167D01*
X130666311Y-99753167D01*
X130451327Y-99537808D01*
X130107799Y-99395162D01*
X129735833Y-99394838D01*
X129392057Y-99536883D01*
X129128808Y-99799673D01*
X128986162Y-100143201D01*
X128985838Y-100515167D01*
X125452545Y-100515167D01*
X124871522Y-97594167D01*
X126318838Y-97594167D01*
X126460883Y-97937943D01*
X126723673Y-98201192D01*
X126950351Y-98295317D01*
X126842808Y-98402673D01*
X126700162Y-98746201D01*
X126699838Y-99118167D01*
X126841883Y-99461943D01*
X127104673Y-99725192D01*
X127448201Y-99867838D01*
X127820167Y-99868162D01*
X128163943Y-99726117D01*
X128427192Y-99463327D01*
X128569838Y-99119799D01*
X128570162Y-98747833D01*
X128428117Y-98404057D01*
X128239417Y-98215027D01*
X140741250Y-98215027D01*
X140872449Y-98532551D01*
X141115171Y-98775698D01*
X141432466Y-98907450D01*
X141776027Y-98907750D01*
X142093551Y-98776551D01*
X142336698Y-98533829D01*
X142468450Y-98216534D01*
X142468451Y-98215027D01*
X142900250Y-98215027D01*
X143031449Y-98532551D01*
X143274171Y-98775698D01*
X143591466Y-98907450D01*
X143935027Y-98907750D01*
X144252551Y-98776551D01*
X144495698Y-98533829D01*
X144575340Y-98342027D01*
X147218250Y-98342027D01*
X147349449Y-98659551D01*
X147592171Y-98902698D01*
X147909466Y-99034450D01*
X148253027Y-99034750D01*
X148256937Y-99033135D01*
X148440673Y-99217192D01*
X148784201Y-99359838D01*
X149156167Y-99360162D01*
X149499943Y-99218117D01*
X149763192Y-98955327D01*
X149905838Y-98611799D01*
X149906162Y-98239833D01*
X149764117Y-97896057D01*
X149501327Y-97632808D01*
X149157799Y-97490162D01*
X148785833Y-97489838D01*
X148670038Y-97537683D01*
X148571829Y-97439302D01*
X148254534Y-97307550D01*
X147910973Y-97307250D01*
X147593449Y-97438449D01*
X147350302Y-97681171D01*
X147218550Y-97998466D01*
X147218250Y-98342027D01*
X144575340Y-98342027D01*
X144627450Y-98216534D01*
X144627750Y-97872973D01*
X144496551Y-97555449D01*
X144253829Y-97312302D01*
X143936534Y-97180550D01*
X143592973Y-97180250D01*
X143275449Y-97311449D01*
X143032302Y-97554171D01*
X142900550Y-97871466D01*
X142900250Y-98215027D01*
X142468451Y-98215027D01*
X142468750Y-97872973D01*
X142337551Y-97555449D01*
X142094829Y-97312302D01*
X141777534Y-97180550D01*
X141433973Y-97180250D01*
X141116449Y-97311449D01*
X140873302Y-97554171D01*
X140741550Y-97871466D01*
X140741250Y-98215027D01*
X128239417Y-98215027D01*
X128165327Y-98140808D01*
X127938649Y-98046683D01*
X128046192Y-97939327D01*
X128188838Y-97595799D01*
X128189162Y-97223833D01*
X128132280Y-97086167D01*
X132160838Y-97086167D01*
X132302883Y-97429943D01*
X132565673Y-97693192D01*
X132909201Y-97835838D01*
X133281167Y-97836162D01*
X133624943Y-97694117D01*
X133888192Y-97431327D01*
X134030838Y-97087799D01*
X134030851Y-97072027D01*
X149504250Y-97072027D01*
X149635449Y-97389551D01*
X149878171Y-97632698D01*
X150195466Y-97764450D01*
X150539027Y-97764750D01*
X150678726Y-97707027D01*
X154668250Y-97707027D01*
X154799449Y-98024551D01*
X155042171Y-98267698D01*
X155359466Y-98399450D01*
X155703027Y-98399750D01*
X156020551Y-98268551D01*
X156263698Y-98025829D01*
X156395450Y-97708534D01*
X156395750Y-97364973D01*
X156264551Y-97047449D01*
X156021829Y-96804302D01*
X155704534Y-96672550D01*
X155360973Y-96672250D01*
X155043449Y-96803449D01*
X154800302Y-97046171D01*
X154668550Y-97363466D01*
X154668250Y-97707027D01*
X150678726Y-97707027D01*
X150856551Y-97633551D01*
X151099698Y-97390829D01*
X151231450Y-97073534D01*
X151231750Y-96729973D01*
X151100551Y-96412449D01*
X150857829Y-96169302D01*
X150540534Y-96037550D01*
X150196973Y-96037250D01*
X149879449Y-96168449D01*
X149636302Y-96411171D01*
X149504550Y-96728466D01*
X149504250Y-97072027D01*
X134030851Y-97072027D01*
X134031162Y-96715833D01*
X133889117Y-96372057D01*
X133827196Y-96310027D01*
X145059250Y-96310027D01*
X145190449Y-96627551D01*
X145433171Y-96870698D01*
X145750466Y-97002450D01*
X146094027Y-97002750D01*
X146411551Y-96871551D01*
X146654698Y-96628829D01*
X146786450Y-96311534D01*
X146786750Y-95967973D01*
X146655551Y-95650449D01*
X146412829Y-95407302D01*
X146095534Y-95275550D01*
X145751973Y-95275250D01*
X145434449Y-95406449D01*
X145191302Y-95649171D01*
X145059550Y-95966466D01*
X145059250Y-96310027D01*
X133827196Y-96310027D01*
X133626327Y-96108808D01*
X133453086Y-96036872D01*
X133584551Y-95982551D01*
X133827698Y-95739829D01*
X133959450Y-95422534D01*
X133959660Y-95181167D01*
X139526838Y-95181167D01*
X139668883Y-95524943D01*
X139931673Y-95788192D01*
X140275201Y-95930838D01*
X140647167Y-95931162D01*
X140990943Y-95789117D01*
X141254192Y-95526327D01*
X141396838Y-95182799D01*
X141397162Y-94810833D01*
X141255117Y-94467057D01*
X140992327Y-94203808D01*
X140648799Y-94061162D01*
X140276833Y-94060838D01*
X139933057Y-94202883D01*
X139669808Y-94465673D01*
X139527162Y-94809201D01*
X139526838Y-95181167D01*
X133959660Y-95181167D01*
X133959750Y-95078973D01*
X133828551Y-94761449D01*
X133585829Y-94518302D01*
X133268534Y-94386550D01*
X132924973Y-94386250D01*
X132607449Y-94517449D01*
X132364302Y-94760171D01*
X132232550Y-95077466D01*
X132232250Y-95421027D01*
X132363449Y-95738551D01*
X132606171Y-95981698D01*
X132738981Y-96036845D01*
X132567057Y-96107883D01*
X132303808Y-96370673D01*
X132161162Y-96714201D01*
X132160838Y-97086167D01*
X128132280Y-97086167D01*
X128047117Y-96880057D01*
X127784327Y-96616808D01*
X127440799Y-96474162D01*
X127068833Y-96473838D01*
X126725057Y-96615883D01*
X126461808Y-96878673D01*
X126319162Y-97222201D01*
X126318838Y-97594167D01*
X124871522Y-97594167D01*
X124574081Y-96098834D01*
X124781201Y-96184838D01*
X125153167Y-96185162D01*
X125496943Y-96043117D01*
X125680040Y-95860339D01*
X125698883Y-95905943D01*
X125961673Y-96169192D01*
X126305201Y-96311838D01*
X126677167Y-96312162D01*
X127020943Y-96170117D01*
X127284192Y-95907327D01*
X127344965Y-95760970D01*
X127448201Y-95803838D01*
X127820167Y-95804162D01*
X128163943Y-95662117D01*
X128427192Y-95399327D01*
X128569838Y-95055799D01*
X128570162Y-94683833D01*
X128428117Y-94340057D01*
X128165327Y-94076808D01*
X128038217Y-94024027D01*
X166649250Y-94024027D01*
X166780449Y-94341551D01*
X167023171Y-94584698D01*
X167340466Y-94716450D01*
X167684027Y-94716750D01*
X168001551Y-94585551D01*
X168244698Y-94342829D01*
X168376450Y-94025534D01*
X168376750Y-93681973D01*
X168245551Y-93364449D01*
X168002829Y-93121302D01*
X167685534Y-92989550D01*
X167341973Y-92989250D01*
X167024449Y-93120449D01*
X166781302Y-93363171D01*
X166649550Y-93680466D01*
X166649250Y-94024027D01*
X128038217Y-94024027D01*
X127821799Y-93934162D01*
X127449833Y-93933838D01*
X127106057Y-94075883D01*
X126842808Y-94338673D01*
X126782035Y-94485030D01*
X126678799Y-94442162D01*
X126306833Y-94441838D01*
X125963057Y-94583883D01*
X125779960Y-94766661D01*
X125761117Y-94721057D01*
X125498327Y-94457808D01*
X125154799Y-94315162D01*
X124782833Y-94314838D01*
X124439057Y-94456883D01*
X124279216Y-94616446D01*
X123900000Y-92710000D01*
X124090181Y-91753893D01*
X130494725Y-91753893D01*
X130735519Y-92336657D01*
X131180997Y-92782914D01*
X131763341Y-93024724D01*
X132393893Y-93025275D01*
X132976657Y-92784481D01*
X133350261Y-92411529D01*
X133720997Y-92782914D01*
X134303341Y-93024724D01*
X134933893Y-93025275D01*
X135516657Y-92784481D01*
X135890261Y-92411529D01*
X136260997Y-92782914D01*
X136843341Y-93024724D01*
X137473893Y-93025275D01*
X138056657Y-92784481D01*
X138430261Y-92411529D01*
X138800997Y-92782914D01*
X139383341Y-93024724D01*
X140013893Y-93025275D01*
X140596657Y-92784481D01*
X140970261Y-92411529D01*
X141340997Y-92782914D01*
X141923341Y-93024724D01*
X142553893Y-93025275D01*
X143136657Y-92784481D01*
X143510261Y-92411529D01*
X143880997Y-92782914D01*
X144463341Y-93024724D01*
X145093893Y-93025275D01*
X145676657Y-92784481D01*
X146050261Y-92411529D01*
X146420997Y-92782914D01*
X147003341Y-93024724D01*
X147633893Y-93025275D01*
X148216657Y-92784481D01*
X148590261Y-92411529D01*
X148960997Y-92782914D01*
X149543341Y-93024724D01*
X150173893Y-93025275D01*
X150756657Y-92784481D01*
X151130261Y-92411529D01*
X151500997Y-92782914D01*
X152083341Y-93024724D01*
X152713893Y-93025275D01*
X153296657Y-92784481D01*
X153670261Y-92411529D01*
X154040997Y-92782914D01*
X154623341Y-93024724D01*
X155253893Y-93025275D01*
X155836657Y-92784481D01*
X156210261Y-92411529D01*
X156580997Y-92782914D01*
X157163341Y-93024724D01*
X157793893Y-93025275D01*
X158376657Y-92784481D01*
X158750261Y-92411529D01*
X159120997Y-92782914D01*
X159703341Y-93024724D01*
X160333893Y-93025275D01*
X160916657Y-92784481D01*
X161145186Y-92556350D01*
X161623255Y-92556350D01*
X161715792Y-92818019D01*
X162307398Y-93036188D01*
X162937461Y-93011352D01*
X163404208Y-92818019D01*
X163496745Y-92556350D01*
X162560000Y-91619605D01*
X161623255Y-92556350D01*
X161145186Y-92556350D01*
X161356116Y-92345789D01*
X161443650Y-92376745D01*
X162380395Y-91440000D01*
X162739605Y-91440000D01*
X163676350Y-92376745D01*
X163764439Y-92345593D01*
X164200997Y-92782914D01*
X164783341Y-93024724D01*
X165413893Y-93025275D01*
X165996657Y-92784481D01*
X166442914Y-92339003D01*
X166684724Y-91756659D01*
X166684755Y-91720090D01*
X169824400Y-91720090D01*
X169824400Y-92678250D01*
X169983150Y-92837000D01*
X171450000Y-92837000D01*
X171450000Y-91370150D01*
X171291250Y-91211400D01*
X170333091Y-91211400D01*
X170099702Y-91308073D01*
X169921073Y-91486701D01*
X169824400Y-91720090D01*
X166684755Y-91720090D01*
X166685275Y-91126107D01*
X166444481Y-90543343D01*
X165999003Y-90097086D01*
X165416659Y-89855276D01*
X164786107Y-89854725D01*
X164203343Y-90095519D01*
X163763884Y-90534211D01*
X163676350Y-90503255D01*
X162739605Y-91440000D01*
X162380395Y-91440000D01*
X161443650Y-90503255D01*
X161355561Y-90534407D01*
X161145172Y-90323650D01*
X161623255Y-90323650D01*
X162560000Y-91260395D01*
X163496745Y-90323650D01*
X163404208Y-90061981D01*
X162812602Y-89843812D01*
X162182539Y-89868648D01*
X161715792Y-90061981D01*
X161623255Y-90323650D01*
X161145172Y-90323650D01*
X160919003Y-90097086D01*
X160336659Y-89855276D01*
X159706107Y-89854725D01*
X159123343Y-90095519D01*
X158749739Y-90468471D01*
X158379003Y-90097086D01*
X157796659Y-89855276D01*
X157166107Y-89854725D01*
X156583343Y-90095519D01*
X156209739Y-90468471D01*
X155839003Y-90097086D01*
X155256659Y-89855276D01*
X154626107Y-89854725D01*
X154043343Y-90095519D01*
X153669739Y-90468471D01*
X153299003Y-90097086D01*
X152716659Y-89855276D01*
X152086107Y-89854725D01*
X151503343Y-90095519D01*
X151129739Y-90468471D01*
X150759003Y-90097086D01*
X150176659Y-89855276D01*
X149546107Y-89854725D01*
X148963343Y-90095519D01*
X148589739Y-90468471D01*
X148219003Y-90097086D01*
X147636659Y-89855276D01*
X147006107Y-89854725D01*
X146423343Y-90095519D01*
X146049739Y-90468471D01*
X145679003Y-90097086D01*
X145096659Y-89855276D01*
X144466107Y-89854725D01*
X143883343Y-90095519D01*
X143509739Y-90468471D01*
X143139003Y-90097086D01*
X142556659Y-89855276D01*
X141926107Y-89854725D01*
X141343343Y-90095519D01*
X140969739Y-90468471D01*
X140599003Y-90097086D01*
X140016659Y-89855276D01*
X139386107Y-89854725D01*
X138803343Y-90095519D01*
X138429739Y-90468471D01*
X138059003Y-90097086D01*
X137476659Y-89855276D01*
X136846107Y-89854725D01*
X136263343Y-90095519D01*
X135889739Y-90468471D01*
X135519003Y-90097086D01*
X134936659Y-89855276D01*
X134306107Y-89854725D01*
X133723343Y-90095519D01*
X133349739Y-90468471D01*
X132979003Y-90097086D01*
X132396659Y-89855276D01*
X131766107Y-89854725D01*
X131183343Y-90095519D01*
X130737086Y-90540997D01*
X130495276Y-91123341D01*
X130494725Y-91753893D01*
X124090181Y-91753893D01*
X124292619Y-90736167D01*
X126572838Y-90736167D01*
X126714883Y-91079943D01*
X126977673Y-91343192D01*
X127321201Y-91485838D01*
X127693167Y-91486162D01*
X128036943Y-91344117D01*
X128300192Y-91081327D01*
X128442838Y-90737799D01*
X128443162Y-90365833D01*
X128301117Y-90022057D01*
X128038327Y-89758808D01*
X127694799Y-89616162D01*
X127322833Y-89615838D01*
X126979057Y-89757883D01*
X126715808Y-90020673D01*
X126573162Y-90364201D01*
X126572838Y-90736167D01*
X124292619Y-90736167D01*
X125381692Y-85261027D01*
X136169250Y-85261027D01*
X136300449Y-85578551D01*
X136543171Y-85821698D01*
X136860466Y-85953450D01*
X137204027Y-85953750D01*
X137521551Y-85822551D01*
X137764698Y-85579829D01*
X137896450Y-85262534D01*
X137896750Y-84918973D01*
X137765551Y-84601449D01*
X137522829Y-84358302D01*
X137205534Y-84226550D01*
X136861973Y-84226250D01*
X136544449Y-84357449D01*
X136301302Y-84600171D01*
X136169550Y-84917466D01*
X136169250Y-85261027D01*
X125381692Y-85261027D01*
X125779414Y-83261546D01*
X128007468Y-79927027D01*
X161823250Y-79927027D01*
X161954449Y-80244551D01*
X162197171Y-80487698D01*
X162514466Y-80619450D01*
X162858027Y-80619750D01*
X163175551Y-80488551D01*
X163418698Y-80245829D01*
X163550450Y-79928534D01*
X163550750Y-79584973D01*
X163419551Y-79267449D01*
X163176829Y-79024302D01*
X162859534Y-78892550D01*
X162515973Y-78892250D01*
X162198449Y-79023449D01*
X161955302Y-79266171D01*
X161823550Y-79583466D01*
X161823250Y-79927027D01*
X128007468Y-79927027D01*
X128940914Y-78530027D01*
X129565250Y-78530027D01*
X129696449Y-78847551D01*
X129939171Y-79090698D01*
X130256466Y-79222450D01*
X130600027Y-79222750D01*
X130917551Y-79091551D01*
X131160698Y-78848829D01*
X131292450Y-78531534D01*
X131292750Y-78187973D01*
X131161551Y-77870449D01*
X130918829Y-77627302D01*
X130601534Y-77495550D01*
X130257973Y-77495250D01*
X129940449Y-77626449D01*
X129697302Y-77869171D01*
X129565550Y-78186466D01*
X129565250Y-78530027D01*
X128940914Y-78530027D01*
X130494996Y-76204181D01*
X130494725Y-76513893D01*
X130735519Y-77096657D01*
X131180997Y-77542914D01*
X131763341Y-77784724D01*
X132393893Y-77785275D01*
X132976657Y-77544481D01*
X133350261Y-77171529D01*
X133720997Y-77542914D01*
X134303341Y-77784724D01*
X134933893Y-77785275D01*
X135516657Y-77544481D01*
X135890261Y-77171529D01*
X136260997Y-77542914D01*
X136843341Y-77784724D01*
X137473893Y-77785275D01*
X138056657Y-77544481D01*
X138430261Y-77171529D01*
X138800997Y-77542914D01*
X139383341Y-77784724D01*
X140013893Y-77785275D01*
X140596657Y-77544481D01*
X140970261Y-77171529D01*
X141340997Y-77542914D01*
X141923341Y-77784724D01*
X142553893Y-77785275D01*
X143136657Y-77544481D01*
X143510261Y-77171529D01*
X143880997Y-77542914D01*
X144463341Y-77784724D01*
X145093893Y-77785275D01*
X145676657Y-77544481D01*
X146050261Y-77171529D01*
X146420997Y-77542914D01*
X147003341Y-77784724D01*
X147633893Y-77785275D01*
X148216657Y-77544481D01*
X148590261Y-77171529D01*
X148960997Y-77542914D01*
X149543341Y-77784724D01*
X150173893Y-77785275D01*
X150756657Y-77544481D01*
X151130261Y-77171529D01*
X151500997Y-77542914D01*
X152083341Y-77784724D01*
X152713893Y-77785275D01*
X153296657Y-77544481D01*
X153670261Y-77171529D01*
X154040997Y-77542914D01*
X154623341Y-77784724D01*
X155253893Y-77785275D01*
X155836657Y-77544481D01*
X156210261Y-77171529D01*
X156580997Y-77542914D01*
X157163341Y-77784724D01*
X157793893Y-77785275D01*
X158376657Y-77544481D01*
X158750261Y-77171529D01*
X159120997Y-77542914D01*
X159703341Y-77784724D01*
X160333893Y-77785275D01*
X160916657Y-77544481D01*
X161290261Y-77171529D01*
X161660997Y-77542914D01*
X162243341Y-77784724D01*
X162873893Y-77785275D01*
X163456657Y-77544481D01*
X163685186Y-77316350D01*
X164163255Y-77316350D01*
X164255792Y-77578019D01*
X164847398Y-77796188D01*
X165477461Y-77771352D01*
X165944208Y-77578019D01*
X166036745Y-77316350D01*
X165100000Y-76379605D01*
X164163255Y-77316350D01*
X163685186Y-77316350D01*
X163896116Y-77105789D01*
X163983650Y-77136745D01*
X164920395Y-76200000D01*
X163983650Y-75263255D01*
X163895561Y-75294407D01*
X163459003Y-74857086D01*
X162876659Y-74615276D01*
X162246107Y-74614725D01*
X161663343Y-74855519D01*
X161289739Y-75228471D01*
X160919003Y-74857086D01*
X160336659Y-74615276D01*
X159706107Y-74614725D01*
X159123343Y-74855519D01*
X158749739Y-75228471D01*
X158379003Y-74857086D01*
X157796659Y-74615276D01*
X157166107Y-74614725D01*
X156583343Y-74855519D01*
X156209739Y-75228471D01*
X155839003Y-74857086D01*
X155256659Y-74615276D01*
X154626107Y-74614725D01*
X154043343Y-74855519D01*
X153669739Y-75228471D01*
X153299003Y-74857086D01*
X152716659Y-74615276D01*
X152086107Y-74614725D01*
X151503343Y-74855519D01*
X151129739Y-75228471D01*
X150759003Y-74857086D01*
X150176659Y-74615276D01*
X149546107Y-74614725D01*
X148963343Y-74855519D01*
X148589739Y-75228471D01*
X148219003Y-74857086D01*
X147636659Y-74615276D01*
X147006107Y-74614725D01*
X146423343Y-74855519D01*
X146049739Y-75228471D01*
X145679003Y-74857086D01*
X145096659Y-74615276D01*
X144466107Y-74614725D01*
X143883343Y-74855519D01*
X143509739Y-75228471D01*
X143139003Y-74857086D01*
X142556659Y-74615276D01*
X141926107Y-74614725D01*
X141343343Y-74855519D01*
X140969739Y-75228471D01*
X140599003Y-74857086D01*
X140016659Y-74615276D01*
X139386107Y-74614725D01*
X138803343Y-74855519D01*
X138429739Y-75228471D01*
X138059003Y-74857086D01*
X137476659Y-74615276D01*
X136846107Y-74614725D01*
X136263343Y-74855519D01*
X135889739Y-75228471D01*
X135519003Y-74857086D01*
X134936659Y-74615276D01*
X134306107Y-74614725D01*
X133723343Y-74855519D01*
X133349739Y-75228471D01*
X132979003Y-74857086D01*
X132396659Y-74615276D01*
X132084170Y-74615003D01*
X139141546Y-69899414D01*
X140487479Y-69631691D01*
X140487250Y-69894027D01*
X140618449Y-70211551D01*
X140861171Y-70454698D01*
X141178466Y-70586450D01*
X141522027Y-70586750D01*
X141656854Y-70531040D01*
X141307330Y-70764585D01*
X140982474Y-71250766D01*
X140868400Y-71824255D01*
X140868400Y-72193745D01*
X140982474Y-72767234D01*
X141307330Y-73253415D01*
X141793511Y-73578271D01*
X142367000Y-73692345D01*
X142940489Y-73578271D01*
X143426670Y-73253415D01*
X143633461Y-72943931D01*
X144004964Y-73359732D01*
X144532209Y-73613709D01*
X144547974Y-73616358D01*
X144780000Y-73495217D01*
X144780000Y-72136000D01*
X144760000Y-72136000D01*
X144760000Y-71882000D01*
X144780000Y-71882000D01*
X144780000Y-70522783D01*
X145034000Y-70522783D01*
X145034000Y-71882000D01*
X145054000Y-71882000D01*
X145054000Y-72136000D01*
X145034000Y-72136000D01*
X145034000Y-73495217D01*
X145266026Y-73616358D01*
X145281791Y-73613709D01*
X145809036Y-73359732D01*
X146180539Y-72943931D01*
X146387330Y-73253415D01*
X146873511Y-73578271D01*
X147447000Y-73692345D01*
X148020489Y-73578271D01*
X148506670Y-73253415D01*
X148717000Y-72938634D01*
X148927330Y-73253415D01*
X149413511Y-73578271D01*
X149987000Y-73692345D01*
X150560489Y-73578271D01*
X151046670Y-73253415D01*
X151257000Y-72938634D01*
X151467330Y-73253415D01*
X151953511Y-73578271D01*
X152527000Y-73692345D01*
X153100489Y-73578271D01*
X153586670Y-73253415D01*
X153601500Y-73231220D01*
X153665073Y-73384698D01*
X153843701Y-73563327D01*
X154077090Y-73660000D01*
X154781250Y-73660000D01*
X154940000Y-73501250D01*
X154940000Y-72136000D01*
X155194000Y-72136000D01*
X155194000Y-73501250D01*
X155352750Y-73660000D01*
X156056910Y-73660000D01*
X156290299Y-73563327D01*
X156468927Y-73384698D01*
X156565600Y-73151309D01*
X156565600Y-72294750D01*
X156406850Y-72136000D01*
X155194000Y-72136000D01*
X154940000Y-72136000D01*
X154920000Y-72136000D01*
X154920000Y-71882000D01*
X154940000Y-71882000D01*
X154940000Y-70516750D01*
X155194000Y-70516750D01*
X155194000Y-71882000D01*
X156406850Y-71882000D01*
X156565600Y-71723250D01*
X156565600Y-70866691D01*
X156468927Y-70633302D01*
X156290299Y-70454673D01*
X156056910Y-70358000D01*
X155352750Y-70358000D01*
X155194000Y-70516750D01*
X154940000Y-70516750D01*
X154781250Y-70358000D01*
X154077090Y-70358000D01*
X153843701Y-70454673D01*
X153665073Y-70633302D01*
X153601500Y-70786780D01*
X153586670Y-70764585D01*
X153100489Y-70439729D01*
X152527000Y-70325655D01*
X151953511Y-70439729D01*
X151467330Y-70764585D01*
X151257000Y-71079366D01*
X151046670Y-70764585D01*
X150560489Y-70439729D01*
X149987000Y-70325655D01*
X149413511Y-70439729D01*
X148927330Y-70764585D01*
X148717000Y-71079366D01*
X148506670Y-70764585D01*
X148020489Y-70439729D01*
X147447000Y-70325655D01*
X146873511Y-70439729D01*
X146387330Y-70764585D01*
X146180539Y-71074069D01*
X145809036Y-70658268D01*
X145281791Y-70404291D01*
X145266026Y-70401642D01*
X145034000Y-70522783D01*
X144780000Y-70522783D01*
X144547974Y-70401642D01*
X144532209Y-70404291D01*
X144004964Y-70658268D01*
X143633461Y-71074069D01*
X143426670Y-70764585D01*
X142940489Y-70439729D01*
X142367000Y-70325655D01*
X141870802Y-70424355D01*
X142082698Y-70212829D01*
X142214450Y-69895534D01*
X142214750Y-69551973D01*
X142114006Y-69308155D01*
X148590000Y-68020000D01*
X158038454Y-69899414D01*
X158038454Y-69899414D01*
G37*
X158038454Y-69899414D02*
X165094319Y-74613993D01*
X164722539Y-74628648D01*
X164255792Y-74821981D01*
X164163255Y-75083650D01*
X165100000Y-76020395D01*
X165114143Y-76006253D01*
X165293748Y-76185858D01*
X165279605Y-76200000D01*
X166216350Y-77136745D01*
X166478019Y-77044208D01*
X166696188Y-76452602D01*
X166686483Y-76206394D01*
X170092109Y-81303272D01*
X170065960Y-81432400D01*
X170065960Y-82002868D01*
X169821327Y-81757808D01*
X169477799Y-81615162D01*
X169105833Y-81614838D01*
X168762057Y-81756883D01*
X168498808Y-82019673D01*
X168356162Y-82363201D01*
X168355838Y-82735167D01*
X168497883Y-83078943D01*
X168760673Y-83342192D01*
X169104201Y-83484838D01*
X169476167Y-83485162D01*
X169819943Y-83343117D01*
X170065960Y-83097529D01*
X170065960Y-83667600D01*
X170110238Y-83902917D01*
X170249310Y-84119041D01*
X170461510Y-84264031D01*
X170713400Y-84315040D01*
X171610139Y-84315040D01*
X171638171Y-84455965D01*
X171531959Y-84524310D01*
X171386969Y-84736510D01*
X171335960Y-84988400D01*
X171335960Y-87223600D01*
X171380238Y-87458917D01*
X171519310Y-87675041D01*
X171731510Y-87820031D01*
X171983400Y-87871040D01*
X172317471Y-87871040D01*
X172351195Y-88040580D01*
X172207073Y-88184701D01*
X172110400Y-88418090D01*
X172110400Y-89376250D01*
X172269150Y-89535000D01*
X172648453Y-89535000D01*
X172698977Y-89789000D01*
X172269150Y-89789000D01*
X172110400Y-89947750D01*
X172110400Y-90905910D01*
X172207073Y-91139299D01*
X172279174Y-91211400D01*
X171862750Y-91211400D01*
X171704000Y-91370150D01*
X171704000Y-92837000D01*
X171724000Y-92837000D01*
X171724000Y-93091000D01*
X171704000Y-93091000D01*
X171704000Y-93111000D01*
X171450000Y-93111000D01*
X171450000Y-93091000D01*
X169983150Y-93091000D01*
X169824400Y-93249750D01*
X169824400Y-94207910D01*
X169885530Y-94355491D01*
X169862969Y-94388510D01*
X169811960Y-94640400D01*
X169811960Y-96875600D01*
X169856238Y-97110917D01*
X169883228Y-97152860D01*
X169862969Y-97182510D01*
X169811960Y-97434400D01*
X169811960Y-99669600D01*
X169856238Y-99904917D01*
X169995310Y-100121041D01*
X170207510Y-100266031D01*
X170459400Y-100317040D01*
X171766866Y-100317040D01*
X171400586Y-102158454D01*
X166048466Y-110168466D01*
X158038454Y-115520586D01*
X156884421Y-115750137D01*
X156992954Y-115587705D01*
X157047000Y-115316000D01*
X157047000Y-100076000D01*
X156992954Y-99804295D01*
X156839046Y-99573954D01*
X156608705Y-99420046D01*
X156337000Y-99366000D01*
X152527000Y-99366000D01*
X152445874Y-99382137D01*
X152304117Y-99039057D01*
X152041327Y-98775808D01*
X151697799Y-98633162D01*
X151325833Y-98632838D01*
X150982057Y-98774883D01*
X150718808Y-99037673D01*
X150576162Y-99381201D01*
X150576161Y-99382144D01*
X150495000Y-99366000D01*
X146685000Y-99366000D01*
X146413295Y-99420046D01*
X146182954Y-99573954D01*
X146029046Y-99804295D01*
X145975000Y-100076000D01*
X145975000Y-115316000D01*
X146029046Y-115587705D01*
X146182954Y-115818046D01*
X146413295Y-115971954D01*
X146685000Y-116026000D01*
X150495000Y-116026000D01*
X150766705Y-115971954D01*
X150997046Y-115818046D01*
X151150954Y-115587705D01*
X151205000Y-115316000D01*
X151205000Y-100453341D01*
X151324201Y-100502838D01*
X151696167Y-100503162D01*
X151817000Y-100453235D01*
X151817000Y-115316000D01*
X151871046Y-115587705D01*
X152024954Y-115818046D01*
X152255295Y-115971954D01*
X152527000Y-116026000D01*
X155497566Y-116026000D01*
X148590000Y-117400000D01*
X141682434Y-116026000D01*
X144653000Y-116026000D01*
X144924705Y-115971954D01*
X145155046Y-115818046D01*
X145308954Y-115587705D01*
X145363000Y-115316000D01*
X145363000Y-100076000D01*
X145308954Y-99804295D01*
X145155046Y-99573954D01*
X144924705Y-99420046D01*
X144653000Y-99366000D01*
X140843000Y-99366000D01*
X140571295Y-99420046D01*
X140340954Y-99573954D01*
X140187046Y-99804295D01*
X140133000Y-100076000D01*
X140133000Y-115316000D01*
X140187046Y-115587705D01*
X140295579Y-115750137D01*
X139141546Y-115520586D01*
X131131534Y-110168466D01*
X130027503Y-108516167D01*
X130509838Y-108516167D01*
X130651883Y-108859943D01*
X130914673Y-109123192D01*
X131258201Y-109265838D01*
X131630167Y-109266162D01*
X131973943Y-109124117D01*
X132237192Y-108861327D01*
X132379838Y-108517799D01*
X132380162Y-108145833D01*
X132238117Y-107802057D01*
X131975327Y-107538808D01*
X131631799Y-107396162D01*
X131259833Y-107395838D01*
X130916057Y-107537883D01*
X130652808Y-107800673D01*
X130510162Y-108144201D01*
X130509838Y-108516167D01*
X130027503Y-108516167D01*
X126369131Y-103041027D01*
X131216250Y-103041027D01*
X131347449Y-103358551D01*
X131590171Y-103601698D01*
X131907466Y-103733450D01*
X132251027Y-103733750D01*
X132568551Y-103602551D01*
X132724070Y-103447304D01*
X132613550Y-103713466D01*
X132613250Y-104057027D01*
X132744449Y-104374551D01*
X132987171Y-104617698D01*
X133304466Y-104749450D01*
X133648027Y-104749750D01*
X133965551Y-104618551D01*
X134208698Y-104375829D01*
X134340450Y-104058534D01*
X134340750Y-103714973D01*
X134209551Y-103397449D01*
X133966829Y-103154302D01*
X133649534Y-103022550D01*
X133305973Y-103022250D01*
X132988449Y-103153449D01*
X132832930Y-103308696D01*
X132943450Y-103042534D01*
X132943750Y-102698973D01*
X132812551Y-102381449D01*
X132583531Y-102152027D01*
X136931250Y-102152027D01*
X137062449Y-102469551D01*
X137305171Y-102712698D01*
X137622466Y-102844450D01*
X137966027Y-102844750D01*
X138283551Y-102713551D01*
X138526698Y-102470829D01*
X138658450Y-102153534D01*
X138658750Y-101809973D01*
X138527551Y-101492449D01*
X138284829Y-101249302D01*
X137967534Y-101117550D01*
X137623973Y-101117250D01*
X137306449Y-101248449D01*
X137063302Y-101491171D01*
X136931550Y-101808466D01*
X136931250Y-102152027D01*
X132583531Y-102152027D01*
X132569829Y-102138302D01*
X132252534Y-102006550D01*
X131908973Y-102006250D01*
X131591449Y-102137449D01*
X131348302Y-102380171D01*
X131216550Y-102697466D01*
X131216250Y-103041027D01*
X126369131Y-103041027D01*
X125779414Y-102158454D01*
X125452545Y-100515167D01*
X128985838Y-100515167D01*
X129127883Y-100858943D01*
X129390673Y-101122192D01*
X129734201Y-101264838D01*
X130106167Y-101265162D01*
X130449943Y-101123117D01*
X130713192Y-100860327D01*
X130855838Y-100516799D01*
X130856162Y-100144833D01*
X130714117Y-99801057D01*
X130666311Y-99753167D01*
X136478838Y-99753167D01*
X136620883Y-100096943D01*
X136883673Y-100360192D01*
X137227201Y-100502838D01*
X137599167Y-100503162D01*
X137942943Y-100361117D01*
X138206192Y-100098327D01*
X138348838Y-99754799D01*
X138349162Y-99382833D01*
X138207117Y-99039057D01*
X137944327Y-98775808D01*
X137600799Y-98633162D01*
X137228833Y-98632838D01*
X136885057Y-98774883D01*
X136621808Y-99037673D01*
X136479162Y-99381201D01*
X136478838Y-99753167D01*
X130666311Y-99753167D01*
X130451327Y-99537808D01*
X130107799Y-99395162D01*
X129735833Y-99394838D01*
X129392057Y-99536883D01*
X129128808Y-99799673D01*
X128986162Y-100143201D01*
X128985838Y-100515167D01*
X125452545Y-100515167D01*
X124871522Y-97594167D01*
X126318838Y-97594167D01*
X126460883Y-97937943D01*
X126723673Y-98201192D01*
X126950351Y-98295317D01*
X126842808Y-98402673D01*
X126700162Y-98746201D01*
X126699838Y-99118167D01*
X126841883Y-99461943D01*
X127104673Y-99725192D01*
X127448201Y-99867838D01*
X127820167Y-99868162D01*
X128163943Y-99726117D01*
X128427192Y-99463327D01*
X128569838Y-99119799D01*
X128570162Y-98747833D01*
X128428117Y-98404057D01*
X128239417Y-98215027D01*
X140741250Y-98215027D01*
X140872449Y-98532551D01*
X141115171Y-98775698D01*
X141432466Y-98907450D01*
X141776027Y-98907750D01*
X142093551Y-98776551D01*
X142336698Y-98533829D01*
X142468450Y-98216534D01*
X142468451Y-98215027D01*
X142900250Y-98215027D01*
X143031449Y-98532551D01*
X143274171Y-98775698D01*
X143591466Y-98907450D01*
X143935027Y-98907750D01*
X144252551Y-98776551D01*
X144495698Y-98533829D01*
X144575340Y-98342027D01*
X147218250Y-98342027D01*
X147349449Y-98659551D01*
X147592171Y-98902698D01*
X147909466Y-99034450D01*
X148253027Y-99034750D01*
X148256937Y-99033135D01*
X148440673Y-99217192D01*
X148784201Y-99359838D01*
X149156167Y-99360162D01*
X149499943Y-99218117D01*
X149763192Y-98955327D01*
X149905838Y-98611799D01*
X149906162Y-98239833D01*
X149764117Y-97896057D01*
X149501327Y-97632808D01*
X149157799Y-97490162D01*
X148785833Y-97489838D01*
X148670038Y-97537683D01*
X148571829Y-97439302D01*
X148254534Y-97307550D01*
X147910973Y-97307250D01*
X147593449Y-97438449D01*
X147350302Y-97681171D01*
X147218550Y-97998466D01*
X147218250Y-98342027D01*
X144575340Y-98342027D01*
X144627450Y-98216534D01*
X144627750Y-97872973D01*
X144496551Y-97555449D01*
X144253829Y-97312302D01*
X143936534Y-97180550D01*
X143592973Y-97180250D01*
X143275449Y-97311449D01*
X143032302Y-97554171D01*
X142900550Y-97871466D01*
X142900250Y-98215027D01*
X142468451Y-98215027D01*
X142468750Y-97872973D01*
X142337551Y-97555449D01*
X142094829Y-97312302D01*
X141777534Y-97180550D01*
X141433973Y-97180250D01*
X141116449Y-97311449D01*
X140873302Y-97554171D01*
X140741550Y-97871466D01*
X140741250Y-98215027D01*
X128239417Y-98215027D01*
X128165327Y-98140808D01*
X127938649Y-98046683D01*
X128046192Y-97939327D01*
X128188838Y-97595799D01*
X128189162Y-97223833D01*
X128132280Y-97086167D01*
X132160838Y-97086167D01*
X132302883Y-97429943D01*
X132565673Y-97693192D01*
X132909201Y-97835838D01*
X133281167Y-97836162D01*
X133624943Y-97694117D01*
X133888192Y-97431327D01*
X134030838Y-97087799D01*
X134030851Y-97072027D01*
X149504250Y-97072027D01*
X149635449Y-97389551D01*
X149878171Y-97632698D01*
X150195466Y-97764450D01*
X150539027Y-97764750D01*
X150678726Y-97707027D01*
X154668250Y-97707027D01*
X154799449Y-98024551D01*
X155042171Y-98267698D01*
X155359466Y-98399450D01*
X155703027Y-98399750D01*
X156020551Y-98268551D01*
X156263698Y-98025829D01*
X156395450Y-97708534D01*
X156395750Y-97364973D01*
X156264551Y-97047449D01*
X156021829Y-96804302D01*
X155704534Y-96672550D01*
X155360973Y-96672250D01*
X155043449Y-96803449D01*
X154800302Y-97046171D01*
X154668550Y-97363466D01*
X154668250Y-97707027D01*
X150678726Y-97707027D01*
X150856551Y-97633551D01*
X151099698Y-97390829D01*
X151231450Y-97073534D01*
X151231750Y-96729973D01*
X151100551Y-96412449D01*
X150857829Y-96169302D01*
X150540534Y-96037550D01*
X150196973Y-96037250D01*
X149879449Y-96168449D01*
X149636302Y-96411171D01*
X149504550Y-96728466D01*
X149504250Y-97072027D01*
X134030851Y-97072027D01*
X134031162Y-96715833D01*
X133889117Y-96372057D01*
X133827196Y-96310027D01*
X145059250Y-96310027D01*
X145190449Y-96627551D01*
X145433171Y-96870698D01*
X145750466Y-97002450D01*
X146094027Y-97002750D01*
X146411551Y-96871551D01*
X146654698Y-96628829D01*
X146786450Y-96311534D01*
X146786750Y-95967973D01*
X146655551Y-95650449D01*
X146412829Y-95407302D01*
X146095534Y-95275550D01*
X145751973Y-95275250D01*
X145434449Y-95406449D01*
X145191302Y-95649171D01*
X145059550Y-95966466D01*
X145059250Y-96310027D01*
X133827196Y-96310027D01*
X133626327Y-96108808D01*
X133453086Y-96036872D01*
X133584551Y-95982551D01*
X133827698Y-95739829D01*
X133959450Y-95422534D01*
X133959660Y-95181167D01*
X139526838Y-95181167D01*
X139668883Y-95524943D01*
X139931673Y-95788192D01*
X140275201Y-95930838D01*
X140647167Y-95931162D01*
X140990943Y-95789117D01*
X141254192Y-95526327D01*
X141396838Y-95182799D01*
X141397162Y-94810833D01*
X141255117Y-94467057D01*
X140992327Y-94203808D01*
X140648799Y-94061162D01*
X140276833Y-94060838D01*
X139933057Y-94202883D01*
X139669808Y-94465673D01*
X139527162Y-94809201D01*
X139526838Y-95181167D01*
X133959660Y-95181167D01*
X133959750Y-95078973D01*
X133828551Y-94761449D01*
X133585829Y-94518302D01*
X133268534Y-94386550D01*
X132924973Y-94386250D01*
X132607449Y-94517449D01*
X132364302Y-94760171D01*
X132232550Y-95077466D01*
X132232250Y-95421027D01*
X132363449Y-95738551D01*
X132606171Y-95981698D01*
X132738981Y-96036845D01*
X132567057Y-96107883D01*
X132303808Y-96370673D01*
X132161162Y-96714201D01*
X132160838Y-97086167D01*
X128132280Y-97086167D01*
X128047117Y-96880057D01*
X127784327Y-96616808D01*
X127440799Y-96474162D01*
X127068833Y-96473838D01*
X126725057Y-96615883D01*
X126461808Y-96878673D01*
X126319162Y-97222201D01*
X126318838Y-97594167D01*
X124871522Y-97594167D01*
X124574081Y-96098834D01*
X124781201Y-96184838D01*
X125153167Y-96185162D01*
X125496943Y-96043117D01*
X125680040Y-95860339D01*
X125698883Y-95905943D01*
X125961673Y-96169192D01*
X126305201Y-96311838D01*
X126677167Y-96312162D01*
X127020943Y-96170117D01*
X127284192Y-95907327D01*
X127344965Y-95760970D01*
X127448201Y-95803838D01*
X127820167Y-95804162D01*
X128163943Y-95662117D01*
X128427192Y-95399327D01*
X128569838Y-95055799D01*
X128570162Y-94683833D01*
X128428117Y-94340057D01*
X128165327Y-94076808D01*
X128038217Y-94024027D01*
X166649250Y-94024027D01*
X166780449Y-94341551D01*
X167023171Y-94584698D01*
X167340466Y-94716450D01*
X167684027Y-94716750D01*
X168001551Y-94585551D01*
X168244698Y-94342829D01*
X168376450Y-94025534D01*
X168376750Y-93681973D01*
X168245551Y-93364449D01*
X168002829Y-93121302D01*
X167685534Y-92989550D01*
X167341973Y-92989250D01*
X167024449Y-93120449D01*
X166781302Y-93363171D01*
X166649550Y-93680466D01*
X166649250Y-94024027D01*
X128038217Y-94024027D01*
X127821799Y-93934162D01*
X127449833Y-93933838D01*
X127106057Y-94075883D01*
X126842808Y-94338673D01*
X126782035Y-94485030D01*
X126678799Y-94442162D01*
X126306833Y-94441838D01*
X125963057Y-94583883D01*
X125779960Y-94766661D01*
X125761117Y-94721057D01*
X125498327Y-94457808D01*
X125154799Y-94315162D01*
X124782833Y-94314838D01*
X124439057Y-94456883D01*
X124279216Y-94616446D01*
X123900000Y-92710000D01*
X124090181Y-91753893D01*
X130494725Y-91753893D01*
X130735519Y-92336657D01*
X131180997Y-92782914D01*
X131763341Y-93024724D01*
X132393893Y-93025275D01*
X132976657Y-92784481D01*
X133350261Y-92411529D01*
X133720997Y-92782914D01*
X134303341Y-93024724D01*
X134933893Y-93025275D01*
X135516657Y-92784481D01*
X135890261Y-92411529D01*
X136260997Y-92782914D01*
X136843341Y-93024724D01*
X137473893Y-93025275D01*
X138056657Y-92784481D01*
X138430261Y-92411529D01*
X138800997Y-92782914D01*
X139383341Y-93024724D01*
X140013893Y-93025275D01*
X140596657Y-92784481D01*
X140970261Y-92411529D01*
X141340997Y-92782914D01*
X141923341Y-93024724D01*
X142553893Y-93025275D01*
X143136657Y-92784481D01*
X143510261Y-92411529D01*
X143880997Y-92782914D01*
X144463341Y-93024724D01*
X145093893Y-93025275D01*
X145676657Y-92784481D01*
X146050261Y-92411529D01*
X146420997Y-92782914D01*
X147003341Y-93024724D01*
X147633893Y-93025275D01*
X148216657Y-92784481D01*
X148590261Y-92411529D01*
X148960997Y-92782914D01*
X149543341Y-93024724D01*
X150173893Y-93025275D01*
X150756657Y-92784481D01*
X151130261Y-92411529D01*
X151500997Y-92782914D01*
X152083341Y-93024724D01*
X152713893Y-93025275D01*
X153296657Y-92784481D01*
X153670261Y-92411529D01*
X154040997Y-92782914D01*
X154623341Y-93024724D01*
X155253893Y-93025275D01*
X155836657Y-92784481D01*
X156210261Y-92411529D01*
X156580997Y-92782914D01*
X157163341Y-93024724D01*
X157793893Y-93025275D01*
X158376657Y-92784481D01*
X158750261Y-92411529D01*
X159120997Y-92782914D01*
X159703341Y-93024724D01*
X160333893Y-93025275D01*
X160916657Y-92784481D01*
X161145186Y-92556350D01*
X161623255Y-92556350D01*
X161715792Y-92818019D01*
X162307398Y-93036188D01*
X162937461Y-93011352D01*
X163404208Y-92818019D01*
X163496745Y-92556350D01*
X162560000Y-91619605D01*
X161623255Y-92556350D01*
X161145186Y-92556350D01*
X161356116Y-92345789D01*
X161443650Y-92376745D01*
X162380395Y-91440000D01*
X162739605Y-91440000D01*
X163676350Y-92376745D01*
X163764439Y-92345593D01*
X164200997Y-92782914D01*
X164783341Y-93024724D01*
X165413893Y-93025275D01*
X165996657Y-92784481D01*
X166442914Y-92339003D01*
X166684724Y-91756659D01*
X166684755Y-91720090D01*
X169824400Y-91720090D01*
X169824400Y-92678250D01*
X169983150Y-92837000D01*
X171450000Y-92837000D01*
X171450000Y-91370150D01*
X171291250Y-91211400D01*
X170333091Y-91211400D01*
X170099702Y-91308073D01*
X169921073Y-91486701D01*
X169824400Y-91720090D01*
X166684755Y-91720090D01*
X166685275Y-91126107D01*
X166444481Y-90543343D01*
X165999003Y-90097086D01*
X165416659Y-89855276D01*
X164786107Y-89854725D01*
X164203343Y-90095519D01*
X163763884Y-90534211D01*
X163676350Y-90503255D01*
X162739605Y-91440000D01*
X162380395Y-91440000D01*
X161443650Y-90503255D01*
X161355561Y-90534407D01*
X161145172Y-90323650D01*
X161623255Y-90323650D01*
X162560000Y-91260395D01*
X163496745Y-90323650D01*
X163404208Y-90061981D01*
X162812602Y-89843812D01*
X162182539Y-89868648D01*
X161715792Y-90061981D01*
X161623255Y-90323650D01*
X161145172Y-90323650D01*
X160919003Y-90097086D01*
X160336659Y-89855276D01*
X159706107Y-89854725D01*
X159123343Y-90095519D01*
X158749739Y-90468471D01*
X158379003Y-90097086D01*
X157796659Y-89855276D01*
X157166107Y-89854725D01*
X156583343Y-90095519D01*
X156209739Y-90468471D01*
X155839003Y-90097086D01*
X155256659Y-89855276D01*
X154626107Y-89854725D01*
X154043343Y-90095519D01*
X153669739Y-90468471D01*
X153299003Y-90097086D01*
X152716659Y-89855276D01*
X152086107Y-89854725D01*
X151503343Y-90095519D01*
X151129739Y-90468471D01*
X150759003Y-90097086D01*
X150176659Y-89855276D01*
X149546107Y-89854725D01*
X148963343Y-90095519D01*
X148589739Y-90468471D01*
X148219003Y-90097086D01*
X147636659Y-89855276D01*
X147006107Y-89854725D01*
X146423343Y-90095519D01*
X146049739Y-90468471D01*
X145679003Y-90097086D01*
X145096659Y-89855276D01*
X144466107Y-89854725D01*
X143883343Y-90095519D01*
X143509739Y-90468471D01*
X143139003Y-90097086D01*
X142556659Y-89855276D01*
X141926107Y-89854725D01*
X141343343Y-90095519D01*
X140969739Y-90468471D01*
X140599003Y-90097086D01*
X140016659Y-89855276D01*
X139386107Y-89854725D01*
X138803343Y-90095519D01*
X138429739Y-90468471D01*
X138059003Y-90097086D01*
X137476659Y-89855276D01*
X136846107Y-89854725D01*
X136263343Y-90095519D01*
X135889739Y-90468471D01*
X135519003Y-90097086D01*
X134936659Y-89855276D01*
X134306107Y-89854725D01*
X133723343Y-90095519D01*
X133349739Y-90468471D01*
X132979003Y-90097086D01*
X132396659Y-89855276D01*
X131766107Y-89854725D01*
X131183343Y-90095519D01*
X130737086Y-90540997D01*
X130495276Y-91123341D01*
X130494725Y-91753893D01*
X124090181Y-91753893D01*
X124292619Y-90736167D01*
X126572838Y-90736167D01*
X126714883Y-91079943D01*
X126977673Y-91343192D01*
X127321201Y-91485838D01*
X127693167Y-91486162D01*
X128036943Y-91344117D01*
X128300192Y-91081327D01*
X128442838Y-90737799D01*
X128443162Y-90365833D01*
X128301117Y-90022057D01*
X128038327Y-89758808D01*
X127694799Y-89616162D01*
X127322833Y-89615838D01*
X126979057Y-89757883D01*
X126715808Y-90020673D01*
X126573162Y-90364201D01*
X126572838Y-90736167D01*
X124292619Y-90736167D01*
X125381692Y-85261027D01*
X136169250Y-85261027D01*
X136300449Y-85578551D01*
X136543171Y-85821698D01*
X136860466Y-85953450D01*
X137204027Y-85953750D01*
X137521551Y-85822551D01*
X137764698Y-85579829D01*
X137896450Y-85262534D01*
X137896750Y-84918973D01*
X137765551Y-84601449D01*
X137522829Y-84358302D01*
X137205534Y-84226550D01*
X136861973Y-84226250D01*
X136544449Y-84357449D01*
X136301302Y-84600171D01*
X136169550Y-84917466D01*
X136169250Y-85261027D01*
X125381692Y-85261027D01*
X125779414Y-83261546D01*
X128007468Y-79927027D01*
X161823250Y-79927027D01*
X161954449Y-80244551D01*
X162197171Y-80487698D01*
X162514466Y-80619450D01*
X162858027Y-80619750D01*
X163175551Y-80488551D01*
X163418698Y-80245829D01*
X163550450Y-79928534D01*
X163550750Y-79584973D01*
X163419551Y-79267449D01*
X163176829Y-79024302D01*
X162859534Y-78892550D01*
X162515973Y-78892250D01*
X162198449Y-79023449D01*
X161955302Y-79266171D01*
X161823550Y-79583466D01*
X161823250Y-79927027D01*
X128007468Y-79927027D01*
X128940914Y-78530027D01*
X129565250Y-78530027D01*
X129696449Y-78847551D01*
X129939171Y-79090698D01*
X130256466Y-79222450D01*
X130600027Y-79222750D01*
X130917551Y-79091551D01*
X131160698Y-78848829D01*
X131292450Y-78531534D01*
X131292750Y-78187973D01*
X131161551Y-77870449D01*
X130918829Y-77627302D01*
X130601534Y-77495550D01*
X130257973Y-77495250D01*
X129940449Y-77626449D01*
X129697302Y-77869171D01*
X129565550Y-78186466D01*
X129565250Y-78530027D01*
X128940914Y-78530027D01*
X130494996Y-76204181D01*
X130494725Y-76513893D01*
X130735519Y-77096657D01*
X131180997Y-77542914D01*
X131763341Y-77784724D01*
X132393893Y-77785275D01*
X132976657Y-77544481D01*
X133350261Y-77171529D01*
X133720997Y-77542914D01*
X134303341Y-77784724D01*
X134933893Y-77785275D01*
X135516657Y-77544481D01*
X135890261Y-77171529D01*
X136260997Y-77542914D01*
X136843341Y-77784724D01*
X137473893Y-77785275D01*
X138056657Y-77544481D01*
X138430261Y-77171529D01*
X138800997Y-77542914D01*
X139383341Y-77784724D01*
X140013893Y-77785275D01*
X140596657Y-77544481D01*
X140970261Y-77171529D01*
X141340997Y-77542914D01*
X141923341Y-77784724D01*
X142553893Y-77785275D01*
X143136657Y-77544481D01*
X143510261Y-77171529D01*
X143880997Y-77542914D01*
X144463341Y-77784724D01*
X145093893Y-77785275D01*
X145676657Y-77544481D01*
X146050261Y-77171529D01*
X146420997Y-77542914D01*
X147003341Y-77784724D01*
X147633893Y-77785275D01*
X148216657Y-77544481D01*
X148590261Y-77171529D01*
X148960997Y-77542914D01*
X149543341Y-77784724D01*
X150173893Y-77785275D01*
X150756657Y-77544481D01*
X151130261Y-77171529D01*
X151500997Y-77542914D01*
X152083341Y-77784724D01*
X152713893Y-77785275D01*
X153296657Y-77544481D01*
X153670261Y-77171529D01*
X154040997Y-77542914D01*
X154623341Y-77784724D01*
X155253893Y-77785275D01*
X155836657Y-77544481D01*
X156210261Y-77171529D01*
X156580997Y-77542914D01*
X157163341Y-77784724D01*
X157793893Y-77785275D01*
X158376657Y-77544481D01*
X158750261Y-77171529D01*
X159120997Y-77542914D01*
X159703341Y-77784724D01*
X160333893Y-77785275D01*
X160916657Y-77544481D01*
X161290261Y-77171529D01*
X161660997Y-77542914D01*
X162243341Y-77784724D01*
X162873893Y-77785275D01*
X163456657Y-77544481D01*
X163685186Y-77316350D01*
X164163255Y-77316350D01*
X164255792Y-77578019D01*
X164847398Y-77796188D01*
X165477461Y-77771352D01*
X165944208Y-77578019D01*
X166036745Y-77316350D01*
X165100000Y-76379605D01*
X164163255Y-77316350D01*
X163685186Y-77316350D01*
X163896116Y-77105789D01*
X163983650Y-77136745D01*
X164920395Y-76200000D01*
X163983650Y-75263255D01*
X163895561Y-75294407D01*
X163459003Y-74857086D01*
X162876659Y-74615276D01*
X162246107Y-74614725D01*
X161663343Y-74855519D01*
X161289739Y-75228471D01*
X160919003Y-74857086D01*
X160336659Y-74615276D01*
X159706107Y-74614725D01*
X159123343Y-74855519D01*
X158749739Y-75228471D01*
X158379003Y-74857086D01*
X157796659Y-74615276D01*
X157166107Y-74614725D01*
X156583343Y-74855519D01*
X156209739Y-75228471D01*
X155839003Y-74857086D01*
X155256659Y-74615276D01*
X154626107Y-74614725D01*
X154043343Y-74855519D01*
X153669739Y-75228471D01*
X153299003Y-74857086D01*
X152716659Y-74615276D01*
X152086107Y-74614725D01*
X151503343Y-74855519D01*
X151129739Y-75228471D01*
X150759003Y-74857086D01*
X150176659Y-74615276D01*
X149546107Y-74614725D01*
X148963343Y-74855519D01*
X148589739Y-75228471D01*
X148219003Y-74857086D01*
X147636659Y-74615276D01*
X147006107Y-74614725D01*
X146423343Y-74855519D01*
X146049739Y-75228471D01*
X145679003Y-74857086D01*
X145096659Y-74615276D01*
X144466107Y-74614725D01*
X143883343Y-74855519D01*
X143509739Y-75228471D01*
X143139003Y-74857086D01*
X142556659Y-74615276D01*
X141926107Y-74614725D01*
X141343343Y-74855519D01*
X140969739Y-75228471D01*
X140599003Y-74857086D01*
X140016659Y-74615276D01*
X139386107Y-74614725D01*
X138803343Y-74855519D01*
X138429739Y-75228471D01*
X138059003Y-74857086D01*
X137476659Y-74615276D01*
X136846107Y-74614725D01*
X136263343Y-74855519D01*
X135889739Y-75228471D01*
X135519003Y-74857086D01*
X134936659Y-74615276D01*
X134306107Y-74614725D01*
X133723343Y-74855519D01*
X133349739Y-75228471D01*
X132979003Y-74857086D01*
X132396659Y-74615276D01*
X132084170Y-74615003D01*
X139141546Y-69899414D01*
X140487479Y-69631691D01*
X140487250Y-69894027D01*
X140618449Y-70211551D01*
X140861171Y-70454698D01*
X141178466Y-70586450D01*
X141522027Y-70586750D01*
X141656854Y-70531040D01*
X141307330Y-70764585D01*
X140982474Y-71250766D01*
X140868400Y-71824255D01*
X140868400Y-72193745D01*
X140982474Y-72767234D01*
X141307330Y-73253415D01*
X141793511Y-73578271D01*
X142367000Y-73692345D01*
X142940489Y-73578271D01*
X143426670Y-73253415D01*
X143633461Y-72943931D01*
X144004964Y-73359732D01*
X144532209Y-73613709D01*
X144547974Y-73616358D01*
X144780000Y-73495217D01*
X144780000Y-72136000D01*
X144760000Y-72136000D01*
X144760000Y-71882000D01*
X144780000Y-71882000D01*
X144780000Y-70522783D01*
X145034000Y-70522783D01*
X145034000Y-71882000D01*
X145054000Y-71882000D01*
X145054000Y-72136000D01*
X145034000Y-72136000D01*
X145034000Y-73495217D01*
X145266026Y-73616358D01*
X145281791Y-73613709D01*
X145809036Y-73359732D01*
X146180539Y-72943931D01*
X146387330Y-73253415D01*
X146873511Y-73578271D01*
X147447000Y-73692345D01*
X148020489Y-73578271D01*
X148506670Y-73253415D01*
X148717000Y-72938634D01*
X148927330Y-73253415D01*
X149413511Y-73578271D01*
X149987000Y-73692345D01*
X150560489Y-73578271D01*
X151046670Y-73253415D01*
X151257000Y-72938634D01*
X151467330Y-73253415D01*
X151953511Y-73578271D01*
X152527000Y-73692345D01*
X153100489Y-73578271D01*
X153586670Y-73253415D01*
X153601500Y-73231220D01*
X153665073Y-73384698D01*
X153843701Y-73563327D01*
X154077090Y-73660000D01*
X154781250Y-73660000D01*
X154940000Y-73501250D01*
X154940000Y-72136000D01*
X155194000Y-72136000D01*
X155194000Y-73501250D01*
X155352750Y-73660000D01*
X156056910Y-73660000D01*
X156290299Y-73563327D01*
X156468927Y-73384698D01*
X156565600Y-73151309D01*
X156565600Y-72294750D01*
X156406850Y-72136000D01*
X155194000Y-72136000D01*
X154940000Y-72136000D01*
X154920000Y-72136000D01*
X154920000Y-71882000D01*
X154940000Y-71882000D01*
X154940000Y-70516750D01*
X155194000Y-70516750D01*
X155194000Y-71882000D01*
X156406850Y-71882000D01*
X156565600Y-71723250D01*
X156565600Y-70866691D01*
X156468927Y-70633302D01*
X156290299Y-70454673D01*
X156056910Y-70358000D01*
X155352750Y-70358000D01*
X155194000Y-70516750D01*
X154940000Y-70516750D01*
X154781250Y-70358000D01*
X154077090Y-70358000D01*
X153843701Y-70454673D01*
X153665073Y-70633302D01*
X153601500Y-70786780D01*
X153586670Y-70764585D01*
X153100489Y-70439729D01*
X152527000Y-70325655D01*
X151953511Y-70439729D01*
X151467330Y-70764585D01*
X151257000Y-71079366D01*
X151046670Y-70764585D01*
X150560489Y-70439729D01*
X149987000Y-70325655D01*
X149413511Y-70439729D01*
X148927330Y-70764585D01*
X148717000Y-71079366D01*
X148506670Y-70764585D01*
X148020489Y-70439729D01*
X147447000Y-70325655D01*
X146873511Y-70439729D01*
X146387330Y-70764585D01*
X146180539Y-71074069D01*
X145809036Y-70658268D01*
X145281791Y-70404291D01*
X145266026Y-70401642D01*
X145034000Y-70522783D01*
X144780000Y-70522783D01*
X144547974Y-70401642D01*
X144532209Y-70404291D01*
X144004964Y-70658268D01*
X143633461Y-71074069D01*
X143426670Y-70764585D01*
X142940489Y-70439729D01*
X142367000Y-70325655D01*
X141870802Y-70424355D01*
X142082698Y-70212829D01*
X142214450Y-69895534D01*
X142214750Y-69551973D01*
X142114006Y-69308155D01*
X148590000Y-68020000D01*
X158038454Y-69899414D01*
M02*
