G04 #@! TF.FileFunction,Legend,Top*
%FSLAX46Y46*%
G04 Gerber Fmt 4.6, Leading zero omitted, Abs format (unit mm)*
G04 Created by KiCad (PCBNEW 4.0.2-stable) date 7/28/2016 11:05:09 PM*
%MOMM*%
G01*
G04 APERTURE LIST*
%ADD10C,0.100000*%
%ADD11C,0.300000*%
%ADD12C,0.150000*%
G04 APERTURE END LIST*
D10*
D11*
X155094714Y-111303143D02*
X155166143Y-111374572D01*
X155237571Y-111588858D01*
X155237571Y-111731715D01*
X155166143Y-111946000D01*
X155023286Y-112088858D01*
X154880429Y-112160286D01*
X154594714Y-112231715D01*
X154380429Y-112231715D01*
X154094714Y-112160286D01*
X153951857Y-112088858D01*
X153809000Y-111946000D01*
X153737571Y-111731715D01*
X153737571Y-111588858D01*
X153809000Y-111374572D01*
X153880429Y-111303143D01*
X153737571Y-110660286D02*
X154951857Y-110660286D01*
X155094714Y-110588858D01*
X155166143Y-110517429D01*
X155237571Y-110374572D01*
X155237571Y-110088858D01*
X155166143Y-109946000D01*
X155094714Y-109874572D01*
X154951857Y-109803143D01*
X153737571Y-109803143D01*
X153737571Y-109303143D02*
X153737571Y-108446000D01*
X155237571Y-108874571D02*
X153737571Y-108874571D01*
X153737571Y-106517429D02*
X153737571Y-106231715D01*
X153809000Y-106088857D01*
X153951857Y-105946000D01*
X154237571Y-105874572D01*
X154737571Y-105874572D01*
X155023286Y-105946000D01*
X155166143Y-106088857D01*
X155237571Y-106231715D01*
X155237571Y-106517429D01*
X155166143Y-106660286D01*
X155023286Y-106803143D01*
X154737571Y-106874572D01*
X154237571Y-106874572D01*
X153951857Y-106803143D01*
X153809000Y-106660286D01*
X153737571Y-106517429D01*
X153737571Y-105231714D02*
X154951857Y-105231714D01*
X155094714Y-105160286D01*
X155166143Y-105088857D01*
X155237571Y-104946000D01*
X155237571Y-104660286D01*
X155166143Y-104517428D01*
X155094714Y-104446000D01*
X154951857Y-104374571D01*
X153737571Y-104374571D01*
X153737571Y-103874571D02*
X153737571Y-103017428D01*
X155237571Y-103445999D02*
X153737571Y-103445999D01*
X149379714Y-111303143D02*
X149451143Y-111374572D01*
X149522571Y-111588858D01*
X149522571Y-111731715D01*
X149451143Y-111946000D01*
X149308286Y-112088858D01*
X149165429Y-112160286D01*
X148879714Y-112231715D01*
X148665429Y-112231715D01*
X148379714Y-112160286D01*
X148236857Y-112088858D01*
X148094000Y-111946000D01*
X148022571Y-111731715D01*
X148022571Y-111588858D01*
X148094000Y-111374572D01*
X148165429Y-111303143D01*
X148022571Y-110660286D02*
X149236857Y-110660286D01*
X149379714Y-110588858D01*
X149451143Y-110517429D01*
X149522571Y-110374572D01*
X149522571Y-110088858D01*
X149451143Y-109946000D01*
X149379714Y-109874572D01*
X149236857Y-109803143D01*
X148022571Y-109803143D01*
X148022571Y-109303143D02*
X148022571Y-108446000D01*
X149522571Y-108874571D02*
X148022571Y-108874571D01*
X148022571Y-106517429D02*
X148022571Y-106231715D01*
X148094000Y-106088857D01*
X148236857Y-105946000D01*
X148522571Y-105874572D01*
X149022571Y-105874572D01*
X149308286Y-105946000D01*
X149451143Y-106088857D01*
X149522571Y-106231715D01*
X149522571Y-106517429D01*
X149451143Y-106660286D01*
X149308286Y-106803143D01*
X149022571Y-106874572D01*
X148522571Y-106874572D01*
X148236857Y-106803143D01*
X148094000Y-106660286D01*
X148022571Y-106517429D01*
X148022571Y-105231714D02*
X149236857Y-105231714D01*
X149379714Y-105160286D01*
X149451143Y-105088857D01*
X149522571Y-104946000D01*
X149522571Y-104660286D01*
X149451143Y-104517428D01*
X149379714Y-104446000D01*
X149236857Y-104374571D01*
X148022571Y-104374571D01*
X148022571Y-103874571D02*
X148022571Y-103017428D01*
X149522571Y-103445999D02*
X148022571Y-103445999D01*
X143283714Y-111176143D02*
X143355143Y-111247572D01*
X143426571Y-111461858D01*
X143426571Y-111604715D01*
X143355143Y-111819000D01*
X143212286Y-111961858D01*
X143069429Y-112033286D01*
X142783714Y-112104715D01*
X142569429Y-112104715D01*
X142283714Y-112033286D01*
X142140857Y-111961858D01*
X141998000Y-111819000D01*
X141926571Y-111604715D01*
X141926571Y-111461858D01*
X141998000Y-111247572D01*
X142069429Y-111176143D01*
X141926571Y-110533286D02*
X143140857Y-110533286D01*
X143283714Y-110461858D01*
X143355143Y-110390429D01*
X143426571Y-110247572D01*
X143426571Y-109961858D01*
X143355143Y-109819000D01*
X143283714Y-109747572D01*
X143140857Y-109676143D01*
X141926571Y-109676143D01*
X141926571Y-109176143D02*
X141926571Y-108319000D01*
X143426571Y-108747571D02*
X141926571Y-108747571D01*
X141926571Y-106390429D02*
X141926571Y-106104715D01*
X141998000Y-105961857D01*
X142140857Y-105819000D01*
X142426571Y-105747572D01*
X142926571Y-105747572D01*
X143212286Y-105819000D01*
X143355143Y-105961857D01*
X143426571Y-106104715D01*
X143426571Y-106390429D01*
X143355143Y-106533286D01*
X143212286Y-106676143D01*
X142926571Y-106747572D01*
X142426571Y-106747572D01*
X142140857Y-106676143D01*
X141998000Y-106533286D01*
X141926571Y-106390429D01*
X141926571Y-105104714D02*
X143140857Y-105104714D01*
X143283714Y-105033286D01*
X143355143Y-104961857D01*
X143426571Y-104819000D01*
X143426571Y-104533286D01*
X143355143Y-104390428D01*
X143283714Y-104319000D01*
X143140857Y-104247571D01*
X141926571Y-104247571D01*
X141926571Y-103747571D02*
X141926571Y-102890428D01*
X143426571Y-103318999D02*
X141926571Y-103318999D01*
D12*
X165100000Y-88900000D02*
X134620000Y-88900000D01*
X134620000Y-88900000D02*
X134620000Y-78740000D01*
X134620000Y-78740000D02*
X165100000Y-78740000D01*
X165100000Y-78740000D02*
X165100000Y-88900000D01*
X137887000Y-95662000D02*
X137887000Y-96362000D01*
X136687000Y-96362000D02*
X136687000Y-95662000D01*
X128047000Y-91221000D02*
X128747000Y-91221000D01*
X128747000Y-92421000D02*
X128047000Y-92421000D01*
X161579000Y-109570000D02*
X161579000Y-108870000D01*
X162779000Y-108870000D02*
X162779000Y-109570000D01*
X143248000Y-99608000D02*
X142248000Y-99608000D01*
X142248000Y-98258000D02*
X143248000Y-98258000D01*
X137041000Y-103592000D02*
X138041000Y-103592000D01*
X138041000Y-104942000D02*
X137041000Y-104942000D01*
X134247000Y-105878000D02*
X135247000Y-105878000D01*
X135247000Y-107228000D02*
X134247000Y-107228000D01*
X152036000Y-106803000D02*
X152036000Y-106303000D01*
X150986000Y-106303000D02*
X150986000Y-106803000D01*
X139740000Y-100338000D02*
X139740000Y-101338000D01*
X138390000Y-101338000D02*
X138390000Y-100338000D01*
X138390000Y-96512000D02*
X138390000Y-95512000D01*
X139740000Y-95512000D02*
X139740000Y-96512000D01*
X135676000Y-100084000D02*
X135676000Y-101084000D01*
X134326000Y-101084000D02*
X134326000Y-100084000D01*
X124293000Y-95877000D02*
X124293000Y-94877000D01*
X125643000Y-94877000D02*
X125643000Y-95877000D01*
X125690000Y-100957000D02*
X125690000Y-99957000D01*
X127040000Y-99957000D02*
X127040000Y-100957000D01*
X125770000Y-90432000D02*
X125770000Y-91432000D01*
X124420000Y-91432000D02*
X124420000Y-90432000D01*
X129707000Y-100973000D02*
X129707000Y-101973000D01*
X128357000Y-101973000D02*
X128357000Y-100973000D01*
X129675000Y-105497000D02*
X130675000Y-105497000D01*
X130675000Y-106847000D02*
X129675000Y-106847000D01*
X163330000Y-97369000D02*
X164330000Y-97369000D01*
X164330000Y-98719000D02*
X163330000Y-98719000D01*
X138188000Y-110668000D02*
X138188000Y-113368000D01*
X139688000Y-110668000D02*
X139688000Y-113368000D01*
X138788000Y-112168000D02*
X139038000Y-112168000D01*
X139038000Y-112168000D02*
X138888000Y-112018000D01*
X139288000Y-111918000D02*
X138588000Y-111918000D01*
X138938000Y-112268000D02*
X138938000Y-112618000D01*
X138938000Y-111918000D02*
X139288000Y-112268000D01*
X139288000Y-112268000D02*
X138588000Y-112268000D01*
X138588000Y-112268000D02*
X138938000Y-111918000D01*
X158889000Y-95428000D02*
X158889000Y-98128000D01*
X160389000Y-95428000D02*
X160389000Y-98128000D01*
X159489000Y-96928000D02*
X159739000Y-96928000D01*
X159739000Y-96928000D02*
X159589000Y-96778000D01*
X159989000Y-96678000D02*
X159289000Y-96678000D01*
X159639000Y-97028000D02*
X159639000Y-97378000D01*
X159639000Y-96678000D02*
X159989000Y-97028000D01*
X159989000Y-97028000D02*
X159289000Y-97028000D01*
X159289000Y-97028000D02*
X159639000Y-96678000D01*
X157365000Y-110668000D02*
X157365000Y-113368000D01*
X158865000Y-110668000D02*
X158865000Y-113368000D01*
X157965000Y-112168000D02*
X158215000Y-112168000D01*
X158215000Y-112168000D02*
X158065000Y-112018000D01*
X158465000Y-111918000D02*
X157765000Y-111918000D01*
X158115000Y-112268000D02*
X158115000Y-112618000D01*
X158115000Y-111918000D02*
X158465000Y-112268000D01*
X158465000Y-112268000D02*
X157765000Y-112268000D01*
X157765000Y-112268000D02*
X158115000Y-111918000D01*
X144930500Y-106735500D02*
X144930500Y-105735500D01*
X146280500Y-105735500D02*
X146280500Y-106735500D01*
X153797000Y-73279000D02*
X141097000Y-73279000D01*
X141097000Y-73279000D02*
X141097000Y-70739000D01*
X141097000Y-70739000D02*
X153797000Y-70739000D01*
X156617000Y-73559000D02*
X155067000Y-73559000D01*
X153797000Y-73279000D02*
X153797000Y-70739000D01*
X155067000Y-70459000D02*
X156617000Y-70459000D01*
X156617000Y-70459000D02*
X156617000Y-73559000D01*
X143550000Y-94496000D02*
X143550000Y-95496000D01*
X142200000Y-95496000D02*
X142200000Y-94496000D01*
X145328000Y-94496000D02*
X145328000Y-95496000D01*
X143978000Y-95496000D02*
X143978000Y-94496000D01*
X154932000Y-98973000D02*
X153932000Y-98973000D01*
X153932000Y-97623000D02*
X154932000Y-97623000D01*
X154932000Y-97576000D02*
X153932000Y-97576000D01*
X153932000Y-96226000D02*
X154932000Y-96226000D01*
X131786000Y-84193000D02*
X131786000Y-83193000D01*
X133136000Y-83193000D02*
X133136000Y-84193000D01*
X168267000Y-96306000D02*
X167267000Y-96306000D01*
X167267000Y-94956000D02*
X168267000Y-94956000D01*
X164480240Y-96168160D02*
X164480240Y-96119900D01*
X163779200Y-93369180D02*
X164480240Y-93369180D01*
X164480240Y-93369180D02*
X164480240Y-93618100D01*
X164480240Y-96168160D02*
X164480240Y-96368820D01*
X164480240Y-96368820D02*
X163779200Y-96368820D01*
X137699000Y-88300000D02*
X138399000Y-88300000D01*
X138399000Y-89500000D02*
X137699000Y-89500000D01*
X161767000Y-79340000D02*
X161067000Y-79340000D01*
X161067000Y-78140000D02*
X161767000Y-78140000D01*
X136084000Y-87574000D02*
X136084000Y-80574000D01*
X141284000Y-87574000D02*
X141284000Y-80574000D01*
X141284000Y-80574000D02*
X140284000Y-80574000D01*
X163636000Y-80320000D02*
X163636000Y-87320000D01*
X158436000Y-80320000D02*
X158436000Y-87320000D01*
X158436000Y-87320000D02*
X159436000Y-87320000D01*
X131415840Y-103520240D02*
X131464100Y-103520240D01*
X134214820Y-102819200D02*
X134214820Y-103520240D01*
X134214820Y-103520240D02*
X133965900Y-103520240D01*
X131415840Y-103520240D02*
X131215180Y-103520240D01*
X131215180Y-103520240D02*
X131215180Y-102819200D01*
X129693000Y-83159000D02*
X129693000Y-84709000D01*
X126593000Y-84709000D02*
X126593000Y-83159000D01*
X126593000Y-83159000D02*
X129693000Y-83159000D01*
X126873000Y-85979000D02*
X129413000Y-85979000D01*
X168555000Y-102590000D02*
X168555000Y-104140000D01*
X165455000Y-104140000D02*
X165455000Y-102590000D01*
X165455000Y-102590000D02*
X168555000Y-102590000D01*
X165735000Y-105410000D02*
X168275000Y-105410000D01*
X149463000Y-67613000D02*
X147463000Y-67613000D01*
X147463000Y-70563000D02*
X149463000Y-70563000D01*
X169799000Y-87249000D02*
X169799000Y-92329000D01*
X169799000Y-92329000D02*
X172339000Y-92329000D01*
X172339000Y-92329000D02*
X172339000Y-87249000D01*
X172619000Y-84429000D02*
X172619000Y-85979000D01*
X172339000Y-87249000D02*
X169799000Y-87249000D01*
X169519000Y-85979000D02*
X169519000Y-84429000D01*
X169519000Y-84429000D02*
X172619000Y-84429000D01*
X172339000Y-97790000D02*
X172339000Y-92710000D01*
X172339000Y-92710000D02*
X169799000Y-92710000D01*
X169799000Y-92710000D02*
X169799000Y-97790000D01*
X169519000Y-100610000D02*
X169519000Y-99060000D01*
X169799000Y-97790000D02*
X172339000Y-97790000D01*
X172619000Y-99060000D02*
X172619000Y-100610000D01*
X172619000Y-100610000D02*
X169519000Y-100610000D01*
X138676000Y-79415000D02*
X137676000Y-79415000D01*
X137676000Y-78065000D02*
X138676000Y-78065000D01*
X160782143Y-73219571D02*
X160782143Y-74433857D01*
X160853571Y-74576714D01*
X160925000Y-74648143D01*
X161067857Y-74719571D01*
X161353571Y-74719571D01*
X161496429Y-74648143D01*
X161567857Y-74576714D01*
X161639286Y-74433857D01*
X161639286Y-73219571D01*
X162210715Y-73219571D02*
X163139286Y-73219571D01*
X162639286Y-73791000D01*
X162853572Y-73791000D01*
X162996429Y-73862429D01*
X163067858Y-73933857D01*
X163139286Y-74076714D01*
X163139286Y-74433857D01*
X163067858Y-74576714D01*
X162996429Y-74648143D01*
X162853572Y-74719571D01*
X162425000Y-74719571D01*
X162282143Y-74648143D01*
X162210715Y-74576714D01*
X137120334Y-93702143D02*
X137072715Y-93749762D01*
X136929858Y-93797381D01*
X136834620Y-93797381D01*
X136691762Y-93749762D01*
X136596524Y-93654524D01*
X136548905Y-93559286D01*
X136501286Y-93368810D01*
X136501286Y-93225952D01*
X136548905Y-93035476D01*
X136596524Y-92940238D01*
X136691762Y-92845000D01*
X136834620Y-92797381D01*
X136929858Y-92797381D01*
X137072715Y-92845000D01*
X137120334Y-92892619D01*
X138072715Y-93797381D02*
X137501286Y-93797381D01*
X137787000Y-93797381D02*
X137787000Y-92797381D01*
X137691762Y-92940238D01*
X137596524Y-93035476D01*
X137501286Y-93083095D01*
X128357334Y-90781143D02*
X128309715Y-90828762D01*
X128166858Y-90876381D01*
X128071620Y-90876381D01*
X127928762Y-90828762D01*
X127833524Y-90733524D01*
X127785905Y-90638286D01*
X127738286Y-90447810D01*
X127738286Y-90304952D01*
X127785905Y-90114476D01*
X127833524Y-90019238D01*
X127928762Y-89924000D01*
X128071620Y-89876381D01*
X128166858Y-89876381D01*
X128309715Y-89924000D01*
X128357334Y-89971619D01*
X128738286Y-89971619D02*
X128785905Y-89924000D01*
X128881143Y-89876381D01*
X129119239Y-89876381D01*
X129214477Y-89924000D01*
X129262096Y-89971619D01*
X129309715Y-90066857D01*
X129309715Y-90162095D01*
X129262096Y-90304952D01*
X128690667Y-90876381D01*
X129309715Y-90876381D01*
X161885334Y-107037143D02*
X161837715Y-107084762D01*
X161694858Y-107132381D01*
X161599620Y-107132381D01*
X161456762Y-107084762D01*
X161361524Y-106989524D01*
X161313905Y-106894286D01*
X161266286Y-106703810D01*
X161266286Y-106560952D01*
X161313905Y-106370476D01*
X161361524Y-106275238D01*
X161456762Y-106180000D01*
X161599620Y-106132381D01*
X161694858Y-106132381D01*
X161837715Y-106180000D01*
X161885334Y-106227619D01*
X162218667Y-106132381D02*
X162837715Y-106132381D01*
X162504381Y-106513333D01*
X162647239Y-106513333D01*
X162742477Y-106560952D01*
X162790096Y-106608571D01*
X162837715Y-106703810D01*
X162837715Y-106941905D01*
X162790096Y-107037143D01*
X162742477Y-107084762D01*
X162647239Y-107132381D01*
X162361524Y-107132381D01*
X162266286Y-107084762D01*
X162218667Y-107037143D01*
X145629334Y-99258381D02*
X145296000Y-98782190D01*
X145057905Y-99258381D02*
X145057905Y-98258381D01*
X145438858Y-98258381D01*
X145534096Y-98306000D01*
X145581715Y-98353619D01*
X145629334Y-98448857D01*
X145629334Y-98591714D01*
X145581715Y-98686952D01*
X145534096Y-98734571D01*
X145438858Y-98782190D01*
X145057905Y-98782190D01*
X146581715Y-99258381D02*
X146010286Y-99258381D01*
X146296000Y-99258381D02*
X146296000Y-98258381D01*
X146200762Y-98401238D01*
X146105524Y-98496476D01*
X146010286Y-98544095D01*
X137755334Y-106624381D02*
X137422000Y-106148190D01*
X137183905Y-106624381D02*
X137183905Y-105624381D01*
X137564858Y-105624381D01*
X137660096Y-105672000D01*
X137707715Y-105719619D01*
X137755334Y-105814857D01*
X137755334Y-105957714D01*
X137707715Y-106052952D01*
X137660096Y-106100571D01*
X137564858Y-106148190D01*
X137183905Y-106148190D01*
X138088667Y-105624381D02*
X138707715Y-105624381D01*
X138374381Y-106005333D01*
X138517239Y-106005333D01*
X138612477Y-106052952D01*
X138660096Y-106100571D01*
X138707715Y-106195810D01*
X138707715Y-106433905D01*
X138660096Y-106529143D01*
X138612477Y-106576762D01*
X138517239Y-106624381D01*
X138231524Y-106624381D01*
X138136286Y-106576762D01*
X138088667Y-106529143D01*
X134834334Y-108783381D02*
X134501000Y-108307190D01*
X134262905Y-108783381D02*
X134262905Y-107783381D01*
X134643858Y-107783381D01*
X134739096Y-107831000D01*
X134786715Y-107878619D01*
X134834334Y-107973857D01*
X134834334Y-108116714D01*
X134786715Y-108211952D01*
X134739096Y-108259571D01*
X134643858Y-108307190D01*
X134262905Y-108307190D01*
X135691477Y-108116714D02*
X135691477Y-108783381D01*
X135453381Y-107735762D02*
X135215286Y-108450048D01*
X135834334Y-108450048D01*
X152026881Y-109323166D02*
X151550690Y-109656500D01*
X152026881Y-109894595D02*
X151026881Y-109894595D01*
X151026881Y-109513642D01*
X151074500Y-109418404D01*
X151122119Y-109370785D01*
X151217357Y-109323166D01*
X151360214Y-109323166D01*
X151455452Y-109370785D01*
X151503071Y-109418404D01*
X151550690Y-109513642D01*
X151550690Y-109894595D01*
X151026881Y-108418404D02*
X151026881Y-108894595D01*
X151503071Y-108942214D01*
X151455452Y-108894595D01*
X151407833Y-108799357D01*
X151407833Y-108561261D01*
X151455452Y-108466023D01*
X151503071Y-108418404D01*
X151598310Y-108370785D01*
X151836405Y-108370785D01*
X151931643Y-108418404D01*
X151979262Y-108466023D01*
X152026881Y-108561261D01*
X152026881Y-108799357D01*
X151979262Y-108894595D01*
X151931643Y-108942214D01*
X141168381Y-99099666D02*
X140692190Y-99433000D01*
X141168381Y-99671095D02*
X140168381Y-99671095D01*
X140168381Y-99290142D01*
X140216000Y-99194904D01*
X140263619Y-99147285D01*
X140358857Y-99099666D01*
X140501714Y-99099666D01*
X140596952Y-99147285D01*
X140644571Y-99194904D01*
X140692190Y-99290142D01*
X140692190Y-99671095D01*
X140168381Y-98242523D02*
X140168381Y-98433000D01*
X140216000Y-98528238D01*
X140263619Y-98575857D01*
X140406476Y-98671095D01*
X140596952Y-98718714D01*
X140977905Y-98718714D01*
X141073143Y-98671095D01*
X141120762Y-98623476D01*
X141168381Y-98528238D01*
X141168381Y-98337761D01*
X141120762Y-98242523D01*
X141073143Y-98194904D01*
X140977905Y-98147285D01*
X140739810Y-98147285D01*
X140644571Y-98194904D01*
X140596952Y-98242523D01*
X140549333Y-98337761D01*
X140549333Y-98528238D01*
X140596952Y-98623476D01*
X140644571Y-98671095D01*
X140739810Y-98718714D01*
X139406334Y-93924381D02*
X139073000Y-93448190D01*
X138834905Y-93924381D02*
X138834905Y-92924381D01*
X139215858Y-92924381D01*
X139311096Y-92972000D01*
X139358715Y-93019619D01*
X139406334Y-93114857D01*
X139406334Y-93257714D01*
X139358715Y-93352952D01*
X139311096Y-93400571D01*
X139215858Y-93448190D01*
X138834905Y-93448190D01*
X139739667Y-92924381D02*
X140406334Y-92924381D01*
X139977762Y-93924381D01*
X136977381Y-101004666D02*
X136501190Y-101338000D01*
X136977381Y-101576095D02*
X135977381Y-101576095D01*
X135977381Y-101195142D01*
X136025000Y-101099904D01*
X136072619Y-101052285D01*
X136167857Y-101004666D01*
X136310714Y-101004666D01*
X136405952Y-101052285D01*
X136453571Y-101099904D01*
X136501190Y-101195142D01*
X136501190Y-101576095D01*
X136405952Y-100433238D02*
X136358333Y-100528476D01*
X136310714Y-100576095D01*
X136215476Y-100623714D01*
X136167857Y-100623714D01*
X136072619Y-100576095D01*
X136025000Y-100528476D01*
X135977381Y-100433238D01*
X135977381Y-100242761D01*
X136025000Y-100147523D01*
X136072619Y-100099904D01*
X136167857Y-100052285D01*
X136215476Y-100052285D01*
X136310714Y-100099904D01*
X136358333Y-100147523D01*
X136405952Y-100242761D01*
X136405952Y-100433238D01*
X136453571Y-100528476D01*
X136501190Y-100576095D01*
X136596429Y-100623714D01*
X136786905Y-100623714D01*
X136882143Y-100576095D01*
X136929762Y-100528476D01*
X136977381Y-100433238D01*
X136977381Y-100242761D01*
X136929762Y-100147523D01*
X136882143Y-100099904D01*
X136786905Y-100052285D01*
X136596429Y-100052285D01*
X136501190Y-100099904D01*
X136453571Y-100147523D01*
X136405952Y-100242761D01*
X124928334Y-98496381D02*
X124595000Y-98020190D01*
X124356905Y-98496381D02*
X124356905Y-97496381D01*
X124737858Y-97496381D01*
X124833096Y-97544000D01*
X124880715Y-97591619D01*
X124928334Y-97686857D01*
X124928334Y-97829714D01*
X124880715Y-97924952D01*
X124833096Y-97972571D01*
X124737858Y-98020190D01*
X124356905Y-98020190D01*
X125404524Y-98496381D02*
X125595000Y-98496381D01*
X125690239Y-98448762D01*
X125737858Y-98401143D01*
X125833096Y-98258286D01*
X125880715Y-98067810D01*
X125880715Y-97686857D01*
X125833096Y-97591619D01*
X125785477Y-97544000D01*
X125690239Y-97496381D01*
X125499762Y-97496381D01*
X125404524Y-97544000D01*
X125356905Y-97591619D01*
X125309286Y-97686857D01*
X125309286Y-97924952D01*
X125356905Y-98020190D01*
X125404524Y-98067810D01*
X125499762Y-98115429D01*
X125690239Y-98115429D01*
X125785477Y-98067810D01*
X125833096Y-98020190D01*
X125880715Y-97924952D01*
X128214381Y-104147857D02*
X127738190Y-104481191D01*
X128214381Y-104719286D02*
X127214381Y-104719286D01*
X127214381Y-104338333D01*
X127262000Y-104243095D01*
X127309619Y-104195476D01*
X127404857Y-104147857D01*
X127547714Y-104147857D01*
X127642952Y-104195476D01*
X127690571Y-104243095D01*
X127738190Y-104338333D01*
X127738190Y-104719286D01*
X128214381Y-103195476D02*
X128214381Y-103766905D01*
X128214381Y-103481191D02*
X127214381Y-103481191D01*
X127357238Y-103576429D01*
X127452476Y-103671667D01*
X127500095Y-103766905D01*
X127214381Y-102576429D02*
X127214381Y-102481190D01*
X127262000Y-102385952D01*
X127309619Y-102338333D01*
X127404857Y-102290714D01*
X127595333Y-102243095D01*
X127833429Y-102243095D01*
X128023905Y-102290714D01*
X128119143Y-102338333D01*
X128166762Y-102385952D01*
X128214381Y-102481190D01*
X128214381Y-102576429D01*
X128166762Y-102671667D01*
X128119143Y-102719286D01*
X128023905Y-102766905D01*
X127833429Y-102814524D01*
X127595333Y-102814524D01*
X127404857Y-102766905D01*
X127309619Y-102719286D01*
X127262000Y-102671667D01*
X127214381Y-102576429D01*
X124833143Y-88844381D02*
X124499809Y-88368190D01*
X124261714Y-88844381D02*
X124261714Y-87844381D01*
X124642667Y-87844381D01*
X124737905Y-87892000D01*
X124785524Y-87939619D01*
X124833143Y-88034857D01*
X124833143Y-88177714D01*
X124785524Y-88272952D01*
X124737905Y-88320571D01*
X124642667Y-88368190D01*
X124261714Y-88368190D01*
X125785524Y-88844381D02*
X125214095Y-88844381D01*
X125499809Y-88844381D02*
X125499809Y-87844381D01*
X125404571Y-87987238D01*
X125309333Y-88082476D01*
X125214095Y-88130095D01*
X126737905Y-88844381D02*
X126166476Y-88844381D01*
X126452190Y-88844381D02*
X126452190Y-87844381D01*
X126356952Y-87987238D01*
X126261714Y-88082476D01*
X126166476Y-88130095D01*
X129405143Y-99512381D02*
X129071809Y-99036190D01*
X128833714Y-99512381D02*
X128833714Y-98512381D01*
X129214667Y-98512381D01*
X129309905Y-98560000D01*
X129357524Y-98607619D01*
X129405143Y-98702857D01*
X129405143Y-98845714D01*
X129357524Y-98940952D01*
X129309905Y-98988571D01*
X129214667Y-99036190D01*
X128833714Y-99036190D01*
X130357524Y-99512381D02*
X129786095Y-99512381D01*
X130071809Y-99512381D02*
X130071809Y-98512381D01*
X129976571Y-98655238D01*
X129881333Y-98750476D01*
X129786095Y-98798095D01*
X130738476Y-98607619D02*
X130786095Y-98560000D01*
X130881333Y-98512381D01*
X131119429Y-98512381D01*
X131214667Y-98560000D01*
X131262286Y-98607619D01*
X131309905Y-98702857D01*
X131309905Y-98798095D01*
X131262286Y-98940952D01*
X130690857Y-99512381D01*
X131309905Y-99512381D01*
X130040143Y-108275381D02*
X129706809Y-107799190D01*
X129468714Y-108275381D02*
X129468714Y-107275381D01*
X129849667Y-107275381D01*
X129944905Y-107323000D01*
X129992524Y-107370619D01*
X130040143Y-107465857D01*
X130040143Y-107608714D01*
X129992524Y-107703952D01*
X129944905Y-107751571D01*
X129849667Y-107799190D01*
X129468714Y-107799190D01*
X130992524Y-108275381D02*
X130421095Y-108275381D01*
X130706809Y-108275381D02*
X130706809Y-107275381D01*
X130611571Y-107418238D01*
X130516333Y-107513476D01*
X130421095Y-107561095D01*
X131325857Y-107275381D02*
X131944905Y-107275381D01*
X131611571Y-107656333D01*
X131754429Y-107656333D01*
X131849667Y-107703952D01*
X131897286Y-107751571D01*
X131944905Y-107846810D01*
X131944905Y-108084905D01*
X131897286Y-108180143D01*
X131849667Y-108227762D01*
X131754429Y-108275381D01*
X131468714Y-108275381D01*
X131373476Y-108227762D01*
X131325857Y-108180143D01*
X163441143Y-100274381D02*
X163107809Y-99798190D01*
X162869714Y-100274381D02*
X162869714Y-99274381D01*
X163250667Y-99274381D01*
X163345905Y-99322000D01*
X163393524Y-99369619D01*
X163441143Y-99464857D01*
X163441143Y-99607714D01*
X163393524Y-99702952D01*
X163345905Y-99750571D01*
X163250667Y-99798190D01*
X162869714Y-99798190D01*
X164393524Y-100274381D02*
X163822095Y-100274381D01*
X164107809Y-100274381D02*
X164107809Y-99274381D01*
X164012571Y-99417238D01*
X163917333Y-99512476D01*
X163822095Y-99560095D01*
X165250667Y-99607714D02*
X165250667Y-100274381D01*
X165012571Y-99226762D02*
X164774476Y-99941048D01*
X165393524Y-99941048D01*
X148971095Y-93432381D02*
X148971095Y-94241905D01*
X149018714Y-94337143D01*
X149066333Y-94384762D01*
X149161571Y-94432381D01*
X149352048Y-94432381D01*
X149447286Y-94384762D01*
X149494905Y-94337143D01*
X149542524Y-94241905D01*
X149542524Y-93432381D01*
X149971095Y-93527619D02*
X150018714Y-93480000D01*
X150113952Y-93432381D01*
X150352048Y-93432381D01*
X150447286Y-93480000D01*
X150494905Y-93527619D01*
X150542524Y-93622857D01*
X150542524Y-93718095D01*
X150494905Y-93860952D01*
X149923476Y-94432381D01*
X150542524Y-94432381D01*
X132334095Y-92924381D02*
X132334095Y-93733905D01*
X132381714Y-93829143D01*
X132429333Y-93876762D01*
X132524571Y-93924381D01*
X132715048Y-93924381D01*
X132810286Y-93876762D01*
X132857905Y-93829143D01*
X132905524Y-93733905D01*
X132905524Y-92924381D01*
X133905524Y-93924381D02*
X133334095Y-93924381D01*
X133619809Y-93924381D02*
X133619809Y-92924381D01*
X133524571Y-93067238D01*
X133429333Y-93162476D01*
X133334095Y-93210095D01*
X138326905Y-110053381D02*
X138326905Y-109053381D01*
X138565000Y-109053381D01*
X138707858Y-109101000D01*
X138803096Y-109196238D01*
X138850715Y-109291476D01*
X138898334Y-109481952D01*
X138898334Y-109624810D01*
X138850715Y-109815286D01*
X138803096Y-109910524D01*
X138707858Y-110005762D01*
X138565000Y-110053381D01*
X138326905Y-110053381D01*
X139850715Y-110053381D02*
X139279286Y-110053381D01*
X139565000Y-110053381D02*
X139565000Y-109053381D01*
X139469762Y-109196238D01*
X139374524Y-109291476D01*
X139279286Y-109339095D01*
X159027905Y-100274381D02*
X159027905Y-99274381D01*
X159266000Y-99274381D01*
X159408858Y-99322000D01*
X159504096Y-99417238D01*
X159551715Y-99512476D01*
X159599334Y-99702952D01*
X159599334Y-99845810D01*
X159551715Y-100036286D01*
X159504096Y-100131524D01*
X159408858Y-100226762D01*
X159266000Y-100274381D01*
X159027905Y-100274381D01*
X159980286Y-99369619D02*
X160027905Y-99322000D01*
X160123143Y-99274381D01*
X160361239Y-99274381D01*
X160456477Y-99322000D01*
X160504096Y-99369619D01*
X160551715Y-99464857D01*
X160551715Y-99560095D01*
X160504096Y-99702952D01*
X159932667Y-100274381D01*
X160551715Y-100274381D01*
X159408905Y-114117381D02*
X159408905Y-113117381D01*
X159647000Y-113117381D01*
X159789858Y-113165000D01*
X159885096Y-113260238D01*
X159932715Y-113355476D01*
X159980334Y-113545952D01*
X159980334Y-113688810D01*
X159932715Y-113879286D01*
X159885096Y-113974524D01*
X159789858Y-114069762D01*
X159647000Y-114117381D01*
X159408905Y-114117381D01*
X160313667Y-113117381D02*
X160932715Y-113117381D01*
X160599381Y-113498333D01*
X160742239Y-113498333D01*
X160837477Y-113545952D01*
X160885096Y-113593571D01*
X160932715Y-113688810D01*
X160932715Y-113926905D01*
X160885096Y-114022143D01*
X160837477Y-114069762D01*
X160742239Y-114117381D01*
X160456524Y-114117381D01*
X160361286Y-114069762D01*
X160313667Y-114022143D01*
X146121381Y-104052666D02*
X145645190Y-104386000D01*
X146121381Y-104624095D02*
X145121381Y-104624095D01*
X145121381Y-104243142D01*
X145169000Y-104147904D01*
X145216619Y-104100285D01*
X145311857Y-104052666D01*
X145454714Y-104052666D01*
X145549952Y-104100285D01*
X145597571Y-104147904D01*
X145645190Y-104243142D01*
X145645190Y-104624095D01*
X145216619Y-103671714D02*
X145169000Y-103624095D01*
X145121381Y-103528857D01*
X145121381Y-103290761D01*
X145169000Y-103195523D01*
X145216619Y-103147904D01*
X145311857Y-103100285D01*
X145407095Y-103100285D01*
X145549952Y-103147904D01*
X146121381Y-103719333D01*
X146121381Y-103100285D01*
X139088905Y-72461381D02*
X139088905Y-71461381D01*
X139469858Y-71461381D01*
X139565096Y-71509000D01*
X139612715Y-71556619D01*
X139660334Y-71651857D01*
X139660334Y-71794714D01*
X139612715Y-71889952D01*
X139565096Y-71937571D01*
X139469858Y-71985190D01*
X139088905Y-71985190D01*
X140041286Y-71556619D02*
X140088905Y-71509000D01*
X140184143Y-71461381D01*
X140422239Y-71461381D01*
X140517477Y-71509000D01*
X140565096Y-71556619D01*
X140612715Y-71651857D01*
X140612715Y-71747095D01*
X140565096Y-71889952D01*
X139993667Y-72461381D01*
X140612715Y-72461381D01*
X141930381Y-95257857D02*
X141454190Y-95591191D01*
X141930381Y-95829286D02*
X140930381Y-95829286D01*
X140930381Y-95448333D01*
X140978000Y-95353095D01*
X141025619Y-95305476D01*
X141120857Y-95257857D01*
X141263714Y-95257857D01*
X141358952Y-95305476D01*
X141406571Y-95353095D01*
X141454190Y-95448333D01*
X141454190Y-95829286D01*
X141025619Y-94876905D02*
X140978000Y-94829286D01*
X140930381Y-94734048D01*
X140930381Y-94495952D01*
X140978000Y-94400714D01*
X141025619Y-94353095D01*
X141120857Y-94305476D01*
X141216095Y-94305476D01*
X141358952Y-94353095D01*
X141930381Y-94924524D01*
X141930381Y-94305476D01*
X141930381Y-93353095D02*
X141930381Y-93924524D01*
X141930381Y-93638810D02*
X140930381Y-93638810D01*
X141073238Y-93734048D01*
X141168476Y-93829286D01*
X141216095Y-93924524D01*
X146629381Y-94749857D02*
X146153190Y-95083191D01*
X146629381Y-95321286D02*
X145629381Y-95321286D01*
X145629381Y-94940333D01*
X145677000Y-94845095D01*
X145724619Y-94797476D01*
X145819857Y-94749857D01*
X145962714Y-94749857D01*
X146057952Y-94797476D01*
X146105571Y-94845095D01*
X146153190Y-94940333D01*
X146153190Y-95321286D01*
X145724619Y-94368905D02*
X145677000Y-94321286D01*
X145629381Y-94226048D01*
X145629381Y-93987952D01*
X145677000Y-93892714D01*
X145724619Y-93845095D01*
X145819857Y-93797476D01*
X145915095Y-93797476D01*
X146057952Y-93845095D01*
X146629381Y-94416524D01*
X146629381Y-93797476D01*
X145724619Y-93416524D02*
X145677000Y-93368905D01*
X145629381Y-93273667D01*
X145629381Y-93035571D01*
X145677000Y-92940333D01*
X145724619Y-92892714D01*
X145819857Y-92845095D01*
X145915095Y-92845095D01*
X146057952Y-92892714D01*
X146629381Y-93464143D01*
X146629381Y-92845095D01*
X150487143Y-98750381D02*
X150153809Y-98274190D01*
X149915714Y-98750381D02*
X149915714Y-97750381D01*
X150296667Y-97750381D01*
X150391905Y-97798000D01*
X150439524Y-97845619D01*
X150487143Y-97940857D01*
X150487143Y-98083714D01*
X150439524Y-98178952D01*
X150391905Y-98226571D01*
X150296667Y-98274190D01*
X149915714Y-98274190D01*
X150868095Y-97845619D02*
X150915714Y-97798000D01*
X151010952Y-97750381D01*
X151249048Y-97750381D01*
X151344286Y-97798000D01*
X151391905Y-97845619D01*
X151439524Y-97940857D01*
X151439524Y-98036095D01*
X151391905Y-98178952D01*
X150820476Y-98750381D01*
X151439524Y-98750381D01*
X151772857Y-97750381D02*
X152391905Y-97750381D01*
X152058571Y-98131333D01*
X152201429Y-98131333D01*
X152296667Y-98178952D01*
X152344286Y-98226571D01*
X152391905Y-98321810D01*
X152391905Y-98559905D01*
X152344286Y-98655143D01*
X152296667Y-98702762D01*
X152201429Y-98750381D01*
X151915714Y-98750381D01*
X151820476Y-98702762D01*
X151772857Y-98655143D01*
X153916143Y-95702381D02*
X153582809Y-95226190D01*
X153344714Y-95702381D02*
X153344714Y-94702381D01*
X153725667Y-94702381D01*
X153820905Y-94750000D01*
X153868524Y-94797619D01*
X153916143Y-94892857D01*
X153916143Y-95035714D01*
X153868524Y-95130952D01*
X153820905Y-95178571D01*
X153725667Y-95226190D01*
X153344714Y-95226190D01*
X154297095Y-94797619D02*
X154344714Y-94750000D01*
X154439952Y-94702381D01*
X154678048Y-94702381D01*
X154773286Y-94750000D01*
X154820905Y-94797619D01*
X154868524Y-94892857D01*
X154868524Y-94988095D01*
X154820905Y-95130952D01*
X154249476Y-95702381D01*
X154868524Y-95702381D01*
X155725667Y-95035714D02*
X155725667Y-95702381D01*
X155487571Y-94654762D02*
X155249476Y-95369048D01*
X155868524Y-95369048D01*
X131389381Y-84335857D02*
X130913190Y-84669191D01*
X131389381Y-84907286D02*
X130389381Y-84907286D01*
X130389381Y-84526333D01*
X130437000Y-84431095D01*
X130484619Y-84383476D01*
X130579857Y-84335857D01*
X130722714Y-84335857D01*
X130817952Y-84383476D01*
X130865571Y-84431095D01*
X130913190Y-84526333D01*
X130913190Y-84907286D01*
X130484619Y-83954905D02*
X130437000Y-83907286D01*
X130389381Y-83812048D01*
X130389381Y-83573952D01*
X130437000Y-83478714D01*
X130484619Y-83431095D01*
X130579857Y-83383476D01*
X130675095Y-83383476D01*
X130817952Y-83431095D01*
X131389381Y-84002524D01*
X131389381Y-83383476D01*
X130389381Y-82478714D02*
X130389381Y-82954905D01*
X130865571Y-83002524D01*
X130817952Y-82954905D01*
X130770333Y-82859667D01*
X130770333Y-82621571D01*
X130817952Y-82526333D01*
X130865571Y-82478714D01*
X130960810Y-82431095D01*
X131198905Y-82431095D01*
X131294143Y-82478714D01*
X131341762Y-82526333D01*
X131389381Y-82621571D01*
X131389381Y-82859667D01*
X131341762Y-82954905D01*
X131294143Y-83002524D01*
X166997143Y-97607381D02*
X166663809Y-97131190D01*
X166425714Y-97607381D02*
X166425714Y-96607381D01*
X166806667Y-96607381D01*
X166901905Y-96655000D01*
X166949524Y-96702619D01*
X166997143Y-96797857D01*
X166997143Y-96940714D01*
X166949524Y-97035952D01*
X166901905Y-97083571D01*
X166806667Y-97131190D01*
X166425714Y-97131190D01*
X167378095Y-96702619D02*
X167425714Y-96655000D01*
X167520952Y-96607381D01*
X167759048Y-96607381D01*
X167854286Y-96655000D01*
X167901905Y-96702619D01*
X167949524Y-96797857D01*
X167949524Y-96893095D01*
X167901905Y-97035952D01*
X167330476Y-97607381D01*
X167949524Y-97607381D01*
X168806667Y-96607381D02*
X168616190Y-96607381D01*
X168520952Y-96655000D01*
X168473333Y-96702619D01*
X168378095Y-96845476D01*
X168330476Y-97035952D01*
X168330476Y-97416905D01*
X168378095Y-97512143D01*
X168425714Y-97559762D01*
X168520952Y-97607381D01*
X168711429Y-97607381D01*
X168806667Y-97559762D01*
X168854286Y-97512143D01*
X168901905Y-97416905D01*
X168901905Y-97178810D01*
X168854286Y-97083571D01*
X168806667Y-97035952D01*
X168711429Y-96988333D01*
X168520952Y-96988333D01*
X168425714Y-97035952D01*
X168378095Y-97083571D01*
X168330476Y-97178810D01*
X159893095Y-93559381D02*
X159893095Y-94368905D01*
X159940714Y-94464143D01*
X159988333Y-94511762D01*
X160083571Y-94559381D01*
X160274048Y-94559381D01*
X160369286Y-94511762D01*
X160416905Y-94464143D01*
X160464524Y-94368905D01*
X160464524Y-93559381D01*
X161369286Y-93892714D02*
X161369286Y-94559381D01*
X161131190Y-93511762D02*
X160893095Y-94226048D01*
X161512143Y-94226048D01*
X141184334Y-89257143D02*
X141136715Y-89304762D01*
X140993858Y-89352381D01*
X140898620Y-89352381D01*
X140755762Y-89304762D01*
X140660524Y-89209524D01*
X140612905Y-89114286D01*
X140565286Y-88923810D01*
X140565286Y-88780952D01*
X140612905Y-88590476D01*
X140660524Y-88495238D01*
X140755762Y-88400000D01*
X140898620Y-88352381D01*
X140993858Y-88352381D01*
X141136715Y-88400000D01*
X141184334Y-88447619D01*
X142089096Y-88352381D02*
X141612905Y-88352381D01*
X141565286Y-88828571D01*
X141612905Y-88780952D01*
X141708143Y-88733333D01*
X141946239Y-88733333D01*
X142041477Y-88780952D01*
X142089096Y-88828571D01*
X142136715Y-88923810D01*
X142136715Y-89161905D01*
X142089096Y-89257143D01*
X142041477Y-89304762D01*
X141946239Y-89352381D01*
X141708143Y-89352381D01*
X141612905Y-89304762D01*
X141565286Y-89257143D01*
X163790334Y-78208143D02*
X163742715Y-78255762D01*
X163599858Y-78303381D01*
X163504620Y-78303381D01*
X163361762Y-78255762D01*
X163266524Y-78160524D01*
X163218905Y-78065286D01*
X163171286Y-77874810D01*
X163171286Y-77731952D01*
X163218905Y-77541476D01*
X163266524Y-77446238D01*
X163361762Y-77351000D01*
X163504620Y-77303381D01*
X163599858Y-77303381D01*
X163742715Y-77351000D01*
X163790334Y-77398619D01*
X164647477Y-77303381D02*
X164457000Y-77303381D01*
X164361762Y-77351000D01*
X164314143Y-77398619D01*
X164218905Y-77541476D01*
X164171286Y-77731952D01*
X164171286Y-78112905D01*
X164218905Y-78208143D01*
X164266524Y-78255762D01*
X164361762Y-78303381D01*
X164552239Y-78303381D01*
X164647477Y-78255762D01*
X164695096Y-78208143D01*
X164742715Y-78112905D01*
X164742715Y-77874810D01*
X164695096Y-77779571D01*
X164647477Y-77731952D01*
X164552239Y-77684333D01*
X164361762Y-77684333D01*
X164266524Y-77731952D01*
X164218905Y-77779571D01*
X164171286Y-77874810D01*
X134834381Y-84708905D02*
X135643905Y-84708905D01*
X135739143Y-84661286D01*
X135786762Y-84613667D01*
X135834381Y-84518429D01*
X135834381Y-84327952D01*
X135786762Y-84232714D01*
X135739143Y-84185095D01*
X135643905Y-84137476D01*
X134834381Y-84137476D01*
X134834381Y-83185095D02*
X134834381Y-83661286D01*
X135310571Y-83708905D01*
X135262952Y-83661286D01*
X135215333Y-83566048D01*
X135215333Y-83327952D01*
X135262952Y-83232714D01*
X135310571Y-83185095D01*
X135405810Y-83137476D01*
X135643905Y-83137476D01*
X135739143Y-83185095D01*
X135786762Y-83232714D01*
X135834381Y-83327952D01*
X135834381Y-83566048D01*
X135786762Y-83661286D01*
X135739143Y-83708905D01*
X163988381Y-84581905D02*
X164797905Y-84581905D01*
X164893143Y-84534286D01*
X164940762Y-84486667D01*
X164988381Y-84391429D01*
X164988381Y-84200952D01*
X164940762Y-84105714D01*
X164893143Y-84058095D01*
X164797905Y-84010476D01*
X163988381Y-84010476D01*
X163988381Y-83105714D02*
X163988381Y-83296191D01*
X164036000Y-83391429D01*
X164083619Y-83439048D01*
X164226476Y-83534286D01*
X164416952Y-83581905D01*
X164797905Y-83581905D01*
X164893143Y-83534286D01*
X164940762Y-83486667D01*
X164988381Y-83391429D01*
X164988381Y-83200952D01*
X164940762Y-83105714D01*
X164893143Y-83058095D01*
X164797905Y-83010476D01*
X164559810Y-83010476D01*
X164464571Y-83058095D01*
X164416952Y-83105714D01*
X164369333Y-83200952D01*
X164369333Y-83391429D01*
X164416952Y-83486667D01*
X164464571Y-83534286D01*
X164559810Y-83581905D01*
X132619762Y-105667619D02*
X132524524Y-105620000D01*
X132429286Y-105524762D01*
X132286429Y-105381905D01*
X132191190Y-105334286D01*
X132095952Y-105334286D01*
X132143571Y-105572381D02*
X132048333Y-105524762D01*
X131953095Y-105429524D01*
X131905476Y-105239048D01*
X131905476Y-104905714D01*
X131953095Y-104715238D01*
X132048333Y-104620000D01*
X132143571Y-104572381D01*
X132334048Y-104572381D01*
X132429286Y-104620000D01*
X132524524Y-104715238D01*
X132572143Y-104905714D01*
X132572143Y-105239048D01*
X132524524Y-105429524D01*
X132429286Y-105524762D01*
X132334048Y-105572381D01*
X132143571Y-105572381D01*
X133524524Y-105572381D02*
X132953095Y-105572381D01*
X133238809Y-105572381D02*
X133238809Y-104572381D01*
X133143571Y-104715238D01*
X133048333Y-104810476D01*
X132953095Y-104858095D01*
X143724334Y-69445143D02*
X143676715Y-69492762D01*
X143533858Y-69540381D01*
X143438620Y-69540381D01*
X143295762Y-69492762D01*
X143200524Y-69397524D01*
X143152905Y-69302286D01*
X143105286Y-69111810D01*
X143105286Y-68968952D01*
X143152905Y-68778476D01*
X143200524Y-68683238D01*
X143295762Y-68588000D01*
X143438620Y-68540381D01*
X143533858Y-68540381D01*
X143676715Y-68588000D01*
X143724334Y-68635619D01*
X144581477Y-68873714D02*
X144581477Y-69540381D01*
X144343381Y-68492762D02*
X144105286Y-69207048D01*
X144724334Y-69207048D01*
X170076905Y-84018381D02*
X170076905Y-83018381D01*
X170457858Y-83018381D01*
X170553096Y-83066000D01*
X170600715Y-83113619D01*
X170648334Y-83208857D01*
X170648334Y-83351714D01*
X170600715Y-83446952D01*
X170553096Y-83494571D01*
X170457858Y-83542190D01*
X170076905Y-83542190D01*
X171600715Y-84018381D02*
X171029286Y-84018381D01*
X171315000Y-84018381D02*
X171315000Y-83018381D01*
X171219762Y-83161238D01*
X171124524Y-83256476D01*
X171029286Y-83304095D01*
X170203905Y-102179381D02*
X170203905Y-101179381D01*
X170584858Y-101179381D01*
X170680096Y-101227000D01*
X170727715Y-101274619D01*
X170775334Y-101369857D01*
X170775334Y-101512714D01*
X170727715Y-101607952D01*
X170680096Y-101655571D01*
X170584858Y-101703190D01*
X170203905Y-101703190D01*
X171108667Y-101179381D02*
X171727715Y-101179381D01*
X171394381Y-101560333D01*
X171537239Y-101560333D01*
X171632477Y-101607952D01*
X171680096Y-101655571D01*
X171727715Y-101750810D01*
X171727715Y-101988905D01*
X171680096Y-102084143D01*
X171632477Y-102131762D01*
X171537239Y-102179381D01*
X171251524Y-102179381D01*
X171156286Y-102131762D01*
X171108667Y-102084143D01*
X140962143Y-79192381D02*
X140628809Y-78716190D01*
X140390714Y-79192381D02*
X140390714Y-78192381D01*
X140771667Y-78192381D01*
X140866905Y-78240000D01*
X140914524Y-78287619D01*
X140962143Y-78382857D01*
X140962143Y-78525714D01*
X140914524Y-78620952D01*
X140866905Y-78668571D01*
X140771667Y-78716190D01*
X140390714Y-78716190D01*
X141914524Y-79192381D02*
X141343095Y-79192381D01*
X141628809Y-79192381D02*
X141628809Y-78192381D01*
X141533571Y-78335238D01*
X141438333Y-78430476D01*
X141343095Y-78478095D01*
X142819286Y-78192381D02*
X142343095Y-78192381D01*
X142295476Y-78668571D01*
X142343095Y-78620952D01*
X142438333Y-78573333D01*
X142676429Y-78573333D01*
X142771667Y-78620952D01*
X142819286Y-78668571D01*
X142866905Y-78763810D01*
X142866905Y-79001905D01*
X142819286Y-79097143D01*
X142771667Y-79144762D01*
X142676429Y-79192381D01*
X142438333Y-79192381D01*
X142343095Y-79144762D01*
X142295476Y-79097143D01*
M02*
