G04 #@! TF.FileFunction,Soldermask,Bot*
%FSLAX46Y46*%
G04 Gerber Fmt 4.6, Leading zero omitted, Abs format (unit mm)*
G04 Created by KiCad (PCBNEW 4.0.2-stable) date Friday, June 24, 2016 'pmt' 01:13:37 pm*
%MOMM*%
G01*
G04 APERTURE LIST*
%ADD10C,0.100000*%
%ADD11R,2.032000X1.727200*%
%ADD12O,2.032000X1.727200*%
%ADD13C,1.500000*%
%ADD14C,2.500000*%
%ADD15C,1.524000*%
%ADD16C,2.032000*%
G04 APERTURE END LIST*
D10*
D11*
X78105000Y-79375000D03*
D12*
X78105000Y-81915000D03*
X78105000Y-84455000D03*
X78105000Y-86995000D03*
X78105000Y-89535000D03*
X78105000Y-92075000D03*
D11*
X78105000Y-116205000D03*
D12*
X78105000Y-118745000D03*
X78105000Y-121285000D03*
X78105000Y-123825000D03*
X78105000Y-126365000D03*
X78105000Y-128905000D03*
D11*
X65405000Y-116205000D03*
D12*
X65405000Y-118745000D03*
X65405000Y-121285000D03*
X65405000Y-123825000D03*
X65405000Y-126365000D03*
X65405000Y-128905000D03*
D11*
X78105000Y-97790000D03*
D12*
X78105000Y-100330000D03*
X78105000Y-102870000D03*
X78105000Y-105410000D03*
X78105000Y-107950000D03*
X78105000Y-110490000D03*
D11*
X65405000Y-97790000D03*
D12*
X65405000Y-100330000D03*
X65405000Y-102870000D03*
X65405000Y-105410000D03*
X65405000Y-107950000D03*
X65405000Y-110490000D03*
D11*
X214630000Y-128905000D03*
D12*
X214630000Y-126365000D03*
X214630000Y-123825000D03*
X214630000Y-121285000D03*
X214630000Y-118745000D03*
X214630000Y-116205000D03*
D11*
X201930000Y-128905000D03*
D12*
X201930000Y-126365000D03*
X201930000Y-123825000D03*
X201930000Y-121285000D03*
X201930000Y-118745000D03*
X201930000Y-116205000D03*
D11*
X201930000Y-110490000D03*
D12*
X201930000Y-107950000D03*
X201930000Y-105410000D03*
X201930000Y-102870000D03*
X201930000Y-100330000D03*
X201930000Y-97790000D03*
D11*
X214630000Y-110490000D03*
D12*
X214630000Y-107950000D03*
X214630000Y-105410000D03*
X214630000Y-102870000D03*
X214630000Y-100330000D03*
X214630000Y-97790000D03*
D11*
X214630000Y-92075000D03*
D12*
X214630000Y-89535000D03*
X214630000Y-86995000D03*
X214630000Y-84455000D03*
X214630000Y-81915000D03*
X214630000Y-79375000D03*
D11*
X201930000Y-92075000D03*
D12*
X201930000Y-89535000D03*
X201930000Y-86995000D03*
X201930000Y-84455000D03*
X201930000Y-81915000D03*
X201930000Y-79375000D03*
D11*
X201930000Y-73660000D03*
D12*
X201930000Y-71120000D03*
X201930000Y-68580000D03*
X201930000Y-66040000D03*
X201930000Y-63500000D03*
X201930000Y-60960000D03*
D11*
X214630000Y-73660000D03*
D12*
X214630000Y-71120000D03*
X214630000Y-68580000D03*
X214630000Y-66040000D03*
X214630000Y-63500000D03*
X214630000Y-60960000D03*
D11*
X65405000Y-79375000D03*
D12*
X65405000Y-81915000D03*
X65405000Y-84455000D03*
X65405000Y-86995000D03*
X65405000Y-89535000D03*
X65405000Y-92075000D03*
D11*
X78105000Y-60960000D03*
D12*
X78105000Y-63500000D03*
X78105000Y-66040000D03*
X78105000Y-68580000D03*
X78105000Y-71120000D03*
X78105000Y-73660000D03*
D11*
X65405000Y-60960000D03*
D12*
X65405000Y-63500000D03*
X65405000Y-66040000D03*
X65405000Y-68580000D03*
X65405000Y-71120000D03*
X65405000Y-73660000D03*
D11*
X140335000Y-64135000D03*
D12*
X140335000Y-66675000D03*
X140335000Y-69215000D03*
X140335000Y-71755000D03*
X140335000Y-74295000D03*
X140335000Y-76835000D03*
X140335000Y-79375000D03*
X140335000Y-81915000D03*
X140335000Y-84455000D03*
X140335000Y-86995000D03*
X140335000Y-89535000D03*
X140335000Y-92075000D03*
D13*
X136525000Y-92075000D03*
X136525000Y-89535000D03*
X136525000Y-86995000D03*
X124460000Y-87630000D03*
X132080000Y-115570000D03*
X148590000Y-74295000D03*
D14*
X85725000Y-61595000D03*
X85725000Y-128270000D03*
X194945000Y-61595000D03*
X194945000Y-128270000D03*
D15*
X128270000Y-87630000D03*
X128270000Y-85090000D03*
X128270000Y-80010000D03*
X128270000Y-77470000D03*
X128905000Y-70180200D03*
X128905000Y-66319400D03*
D16*
X128905000Y-61595000D03*
X104140000Y-92710000D03*
D15*
X104140000Y-66370200D03*
X104140000Y-70231000D03*
X104140000Y-75006200D03*
X104140000Y-78867000D03*
X104140000Y-83642200D03*
X104140000Y-87503000D03*
X151765000Y-66675000D03*
X151765000Y-69215000D03*
X151765000Y-74295000D03*
X151765000Y-76835000D03*
X151130000Y-84124800D03*
X151130000Y-87985600D03*
D16*
X151130000Y-92710000D03*
X175895000Y-61595000D03*
D15*
X175895000Y-87934800D03*
X175895000Y-84074000D03*
X175895000Y-79298800D03*
X175895000Y-75438000D03*
X175895000Y-70662800D03*
X175895000Y-66802000D03*
X151765000Y-102235000D03*
X151765000Y-104775000D03*
X151765000Y-109855000D03*
X151765000Y-112395000D03*
X151130000Y-119684800D03*
X151130000Y-123545600D03*
D16*
X151130000Y-128270000D03*
X175895000Y-97155000D03*
D15*
X175895000Y-123494800D03*
X175895000Y-119634000D03*
X175895000Y-114858800D03*
X175895000Y-110998000D03*
X175895000Y-106222800D03*
X175895000Y-102362000D03*
X128270000Y-123190000D03*
X128270000Y-120650000D03*
X128270000Y-115570000D03*
X128270000Y-113030000D03*
X128905000Y-105740200D03*
X128905000Y-101879400D03*
D16*
X128905000Y-97155000D03*
X104140000Y-128270000D03*
D15*
X104140000Y-101930200D03*
X104140000Y-105791000D03*
X104140000Y-110566200D03*
X104140000Y-114427000D03*
X104140000Y-119202200D03*
X104140000Y-123063000D03*
M02*
