M48
;DRILL file {KiCad 4.0.2-stable} date Friday, June 24, 2016 'pmt' 01:24:17 pm
;FORMAT={-:-/ absolute / inch / decimal}
FMAT,2
INCH,TZ
T1C0.016
T2C0.027
T3C0.030
T4C0.040
T5C0.060
T6C0.098
%
G90
G05
M72
T1
X5.2Y-4.725
X5.225Y-4.475
X5.275Y-3.675
X5.275Y-4.3
X5.275Y-4.35
X5.275Y-4.4
X5.45Y-3.7
X5.5Y-4.35
X5.55Y-4.125
X5.55Y-4.175
X5.6Y-4.075
X5.75Y-3.525
X5.8Y-3.025
X6.125Y-3.25
T2
X3.5Y-2.85
X3.525Y-3.2
X3.525Y-4.25
X3.525Y-4.6
X3.55Y-2.775
X3.575Y-3.125
X3.575Y-4.175
X3.6Y-4.525
X4.75Y-2.8
X5.45Y-4.775
X5.475Y-4.625
X5.6Y-4.625
X5.725Y-4.875
X5.825Y-4.525
X6.275Y-4.475
X7.45Y-3.
X7.4516Y-3.2266
X7.475Y-4.325
X7.475Y-4.4
X7.5Y-2.925
X7.5Y-4.675
X7.5Y-4.75
X7.55Y-3.3
T3
X4.1Y-2.613
X4.1Y-2.765
X4.1Y-2.953
X4.1Y-3.105
X4.1Y-3.293
X4.1Y-3.445
X4.1Y-4.013
X4.1Y-4.165
X4.1Y-4.353
X4.1Y-4.505
X4.1Y-4.693
X4.1Y-4.845
X5.05Y-3.05
X5.05Y-3.15
X5.05Y-3.35
X5.05Y-3.45
X5.05Y-4.45
X5.05Y-4.55
X5.05Y-4.75
X5.05Y-4.85
X5.075Y-2.611
X5.075Y-2.763
X5.075Y-4.011
X5.075Y-4.163
X5.95Y-3.312
X5.95Y-3.464
X5.95Y-4.712
X5.95Y-4.864
X5.975Y-2.625
X5.975Y-2.725
X5.975Y-2.925
X5.975Y-3.025
X5.975Y-4.025
X5.975Y-4.125
X5.975Y-4.325
X5.975Y-4.425
X6.925Y-2.63
X6.925Y-2.782
X6.925Y-2.97
X6.925Y-3.122
X6.925Y-3.31
X6.925Y-3.462
X6.925Y-4.03
X6.925Y-4.182
X6.925Y-4.37
X6.925Y-4.522
X6.925Y-4.71
X6.925Y-4.862
T4
X2.575Y-2.4
X2.575Y-2.5
X2.575Y-2.6
X2.575Y-2.7
X2.575Y-2.8
X2.575Y-2.9
X2.575Y-3.125
X2.575Y-3.225
X2.575Y-3.325
X2.575Y-3.425
X2.575Y-3.525
X2.575Y-3.625
X2.575Y-3.85
X2.575Y-3.95
X2.575Y-4.05
X2.575Y-4.15
X2.575Y-4.25
X2.575Y-4.35
X2.575Y-4.575
X2.575Y-4.675
X2.575Y-4.775
X2.575Y-4.875
X2.575Y-4.975
X2.575Y-5.075
X3.075Y-2.4
X3.075Y-2.5
X3.075Y-2.6
X3.075Y-2.7
X3.075Y-2.8
X3.075Y-2.9
X3.075Y-3.125
X3.075Y-3.225
X3.075Y-3.325
X3.075Y-3.425
X3.075Y-3.525
X3.075Y-3.625
X3.075Y-3.85
X3.075Y-3.95
X3.075Y-4.05
X3.075Y-4.15
X3.075Y-4.25
X3.075Y-4.35
X3.075Y-4.575
X3.075Y-4.675
X3.075Y-4.775
X3.075Y-4.875
X3.075Y-4.975
X3.075Y-5.075
X5.525Y-2.525
X5.525Y-2.625
X5.525Y-2.725
X5.525Y-2.825
X5.525Y-2.925
X5.525Y-3.025
X5.525Y-3.125
X5.525Y-3.225
X5.525Y-3.325
X5.525Y-3.425
X5.525Y-3.525
X5.525Y-3.625
X7.95Y-2.4
X7.95Y-2.5
X7.95Y-2.6
X7.95Y-2.7
X7.95Y-2.8
X7.95Y-2.9
X7.95Y-3.125
X7.95Y-3.225
X7.95Y-3.325
X7.95Y-3.425
X7.95Y-3.525
X7.95Y-3.625
X7.95Y-3.85
X7.95Y-3.95
X7.95Y-4.05
X7.95Y-4.15
X7.95Y-4.25
X7.95Y-4.35
X7.95Y-4.575
X7.95Y-4.675
X7.95Y-4.775
X7.95Y-4.875
X7.95Y-4.975
X7.95Y-5.075
X8.45Y-2.4
X8.45Y-2.5
X8.45Y-2.6
X8.45Y-2.7
X8.45Y-2.8
X8.45Y-2.9
X8.45Y-3.125
X8.45Y-3.225
X8.45Y-3.325
X8.45Y-3.425
X8.45Y-3.525
X8.45Y-3.625
X8.45Y-3.85
X8.45Y-3.95
X8.45Y-4.05
X8.45Y-4.15
X8.45Y-4.25
X8.45Y-4.35
X8.45Y-4.575
X8.45Y-4.675
X8.45Y-4.775
X8.45Y-4.875
X8.45Y-4.975
X8.45Y-5.075
T5
X4.1Y-3.65
X4.1Y-5.05
X5.075Y-2.425
X5.075Y-3.825
X5.95Y-3.65
X5.95Y-5.05
X6.925Y-2.425
X6.925Y-3.825
T6
X3.375Y-2.425
X3.375Y-5.05
X7.675Y-2.425
X7.675Y-5.05
T0
M30
