G04 #@! TF.FileFunction,Copper,L1,Top,Signal*
%FSLAX46Y46*%
G04 Gerber Fmt 4.6, Leading zero omitted, Abs format (unit mm)*
G04 Created by KiCad (PCBNEW 4.0.2-stable) date Friday, June 24, 2016 'pmt' 01:13:37 pm*
%MOMM*%
G01*
G04 APERTURE LIST*
%ADD10C,0.100000*%
%ADD11R,3.500000X3.500000*%
%ADD12R,2.032000X1.727200*%
%ADD13O,2.032000X1.727200*%
%ADD14R,1.200000X0.750000*%
%ADD15R,0.750000X1.200000*%
%ADD16R,1.200000X0.900000*%
%ADD17R,0.650000X1.060000*%
%ADD18R,1.270000X0.406400*%
%ADD19C,1.500000*%
%ADD20R,0.900000X1.200000*%
%ADD21C,1.524000*%
%ADD22C,2.032000*%
%ADD23C,0.889000*%
%ADD24C,0.600000*%
%ADD25C,0.609600*%
%ADD26C,0.406400*%
%ADD27C,0.254000*%
G04 APERTURE END LIST*
D10*
D11*
X96748600Y-67310000D03*
X89941400Y-67310000D03*
X96748600Y-76200000D03*
X89941400Y-76200000D03*
X96748600Y-85090000D03*
X89941400Y-85090000D03*
X96748600Y-102870000D03*
X89941400Y-102870000D03*
X96748600Y-111760000D03*
X89941400Y-111760000D03*
X96748600Y-120650000D03*
X89941400Y-120650000D03*
X183286400Y-123825000D03*
X190093600Y-123825000D03*
X183286400Y-114935000D03*
X190093600Y-114935000D03*
X183286400Y-106045000D03*
X190093600Y-106045000D03*
X183286400Y-88265000D03*
X190093600Y-88265000D03*
X183286400Y-79375000D03*
X190093600Y-79375000D03*
X183286400Y-70485000D03*
X190093600Y-70485000D03*
D12*
X78105000Y-79375000D03*
D13*
X78105000Y-81915000D03*
X78105000Y-84455000D03*
X78105000Y-86995000D03*
X78105000Y-89535000D03*
X78105000Y-92075000D03*
D12*
X78105000Y-116205000D03*
D13*
X78105000Y-118745000D03*
X78105000Y-121285000D03*
X78105000Y-123825000D03*
X78105000Y-126365000D03*
X78105000Y-128905000D03*
D12*
X65405000Y-116205000D03*
D13*
X65405000Y-118745000D03*
X65405000Y-121285000D03*
X65405000Y-123825000D03*
X65405000Y-126365000D03*
X65405000Y-128905000D03*
D12*
X78105000Y-97790000D03*
D13*
X78105000Y-100330000D03*
X78105000Y-102870000D03*
X78105000Y-105410000D03*
X78105000Y-107950000D03*
X78105000Y-110490000D03*
D12*
X65405000Y-97790000D03*
D13*
X65405000Y-100330000D03*
X65405000Y-102870000D03*
X65405000Y-105410000D03*
X65405000Y-107950000D03*
X65405000Y-110490000D03*
D12*
X214630000Y-128905000D03*
D13*
X214630000Y-126365000D03*
X214630000Y-123825000D03*
X214630000Y-121285000D03*
X214630000Y-118745000D03*
X214630000Y-116205000D03*
D12*
X201930000Y-128905000D03*
D13*
X201930000Y-126365000D03*
X201930000Y-123825000D03*
X201930000Y-121285000D03*
X201930000Y-118745000D03*
X201930000Y-116205000D03*
D12*
X201930000Y-110490000D03*
D13*
X201930000Y-107950000D03*
X201930000Y-105410000D03*
X201930000Y-102870000D03*
X201930000Y-100330000D03*
X201930000Y-97790000D03*
D12*
X214630000Y-110490000D03*
D13*
X214630000Y-107950000D03*
X214630000Y-105410000D03*
X214630000Y-102870000D03*
X214630000Y-100330000D03*
X214630000Y-97790000D03*
D12*
X214630000Y-92075000D03*
D13*
X214630000Y-89535000D03*
X214630000Y-86995000D03*
X214630000Y-84455000D03*
X214630000Y-81915000D03*
X214630000Y-79375000D03*
D12*
X201930000Y-92075000D03*
D13*
X201930000Y-89535000D03*
X201930000Y-86995000D03*
X201930000Y-84455000D03*
X201930000Y-81915000D03*
X201930000Y-79375000D03*
D12*
X201930000Y-73660000D03*
D13*
X201930000Y-71120000D03*
X201930000Y-68580000D03*
X201930000Y-66040000D03*
X201930000Y-63500000D03*
X201930000Y-60960000D03*
D12*
X214630000Y-73660000D03*
D13*
X214630000Y-71120000D03*
X214630000Y-68580000D03*
X214630000Y-66040000D03*
X214630000Y-63500000D03*
X214630000Y-60960000D03*
D12*
X65405000Y-79375000D03*
D13*
X65405000Y-81915000D03*
X65405000Y-84455000D03*
X65405000Y-86995000D03*
X65405000Y-89535000D03*
X65405000Y-92075000D03*
D12*
X78105000Y-60960000D03*
D13*
X78105000Y-63500000D03*
X78105000Y-66040000D03*
X78105000Y-68580000D03*
X78105000Y-71120000D03*
X78105000Y-73660000D03*
D12*
X65405000Y-60960000D03*
D13*
X65405000Y-63500000D03*
X65405000Y-66040000D03*
X65405000Y-68580000D03*
X65405000Y-71120000D03*
X65405000Y-73660000D03*
D14*
X143190000Y-126365000D03*
X141290000Y-126365000D03*
D15*
X146050000Y-120965000D03*
X146050000Y-119065000D03*
D14*
X136845000Y-114300000D03*
X138745000Y-114300000D03*
X144460000Y-114300000D03*
X142560000Y-114300000D03*
D12*
X140335000Y-64135000D03*
D13*
X140335000Y-66675000D03*
X140335000Y-69215000D03*
X140335000Y-71755000D03*
X140335000Y-74295000D03*
X140335000Y-76835000D03*
X140335000Y-79375000D03*
X140335000Y-81915000D03*
X140335000Y-84455000D03*
X140335000Y-86995000D03*
X140335000Y-89535000D03*
X140335000Y-92075000D03*
D16*
X143340000Y-123825000D03*
X141140000Y-123825000D03*
X138260000Y-123825000D03*
X136060000Y-123825000D03*
D17*
X143190000Y-118915000D03*
X142240000Y-118915000D03*
X141290000Y-118915000D03*
X141290000Y-121115000D03*
X143190000Y-121115000D03*
D18*
X137668000Y-105029000D03*
X137668000Y-105664000D03*
X137668000Y-106324400D03*
X137668000Y-106984800D03*
X137668000Y-107619800D03*
X137668000Y-108280200D03*
X137668000Y-108940600D03*
X137668000Y-109575600D03*
X137668000Y-110236000D03*
X137668000Y-110871000D03*
X143002000Y-110871000D03*
X143002000Y-110236000D03*
X143002000Y-109575600D03*
X143002000Y-108940600D03*
X143002000Y-108280200D03*
X143002000Y-107619800D03*
X143002000Y-106984800D03*
X143002000Y-106324400D03*
X143002000Y-105664000D03*
X143002000Y-105029000D03*
D19*
X145415000Y-129540000D03*
X134620000Y-116840000D03*
X142240000Y-129540000D03*
D20*
X143510000Y-99525000D03*
X143510000Y-97325000D03*
X136525000Y-99525000D03*
X136525000Y-97325000D03*
X140970000Y-99525000D03*
X140970000Y-97325000D03*
X145415000Y-99525000D03*
X145415000Y-97325000D03*
X134620000Y-99525000D03*
X134620000Y-97325000D03*
X139065000Y-99525000D03*
X139065000Y-97325000D03*
D16*
X92245000Y-63500000D03*
X94445000Y-63500000D03*
X92245000Y-72390000D03*
X94445000Y-72390000D03*
X92245000Y-81280000D03*
X94445000Y-81280000D03*
X92245000Y-99060000D03*
X94445000Y-99060000D03*
X92245000Y-107950000D03*
X94445000Y-107950000D03*
X92245000Y-116840000D03*
X94445000Y-116840000D03*
X187790000Y-127635000D03*
X185590000Y-127635000D03*
X187790000Y-118745000D03*
X185590000Y-118745000D03*
X187790000Y-109855000D03*
X185590000Y-109855000D03*
X187790000Y-92075000D03*
X185590000Y-92075000D03*
X187790000Y-83185000D03*
X185590000Y-83185000D03*
X187790000Y-74295000D03*
X185590000Y-74295000D03*
D19*
X143510000Y-101600000D03*
X134620000Y-101600000D03*
X139065000Y-101600000D03*
D21*
X128270000Y-87630000D03*
X128270000Y-85090000D03*
X128270000Y-80010000D03*
X128270000Y-77470000D03*
X128905000Y-70180200D03*
X128905000Y-66319400D03*
D22*
X128905000Y-61595000D03*
X104140000Y-92710000D03*
D21*
X104140000Y-66370200D03*
X104140000Y-70231000D03*
X104140000Y-75006200D03*
X104140000Y-78867000D03*
X104140000Y-83642200D03*
X104140000Y-87503000D03*
X151765000Y-66675000D03*
X151765000Y-69215000D03*
X151765000Y-74295000D03*
X151765000Y-76835000D03*
X151130000Y-84124800D03*
X151130000Y-87985600D03*
D22*
X151130000Y-92710000D03*
X175895000Y-61595000D03*
D21*
X175895000Y-87934800D03*
X175895000Y-84074000D03*
X175895000Y-79298800D03*
X175895000Y-75438000D03*
X175895000Y-70662800D03*
X175895000Y-66802000D03*
X151765000Y-102235000D03*
X151765000Y-104775000D03*
X151765000Y-109855000D03*
X151765000Y-112395000D03*
X151130000Y-119684800D03*
X151130000Y-123545600D03*
D22*
X151130000Y-128270000D03*
X175895000Y-97155000D03*
D21*
X175895000Y-123494800D03*
X175895000Y-119634000D03*
X175895000Y-114858800D03*
X175895000Y-110998000D03*
X175895000Y-106222800D03*
X175895000Y-102362000D03*
X128270000Y-123190000D03*
X128270000Y-120650000D03*
X128270000Y-115570000D03*
X128270000Y-113030000D03*
X128905000Y-105740200D03*
X128905000Y-101879400D03*
D22*
X128905000Y-97155000D03*
X104140000Y-128270000D03*
D21*
X104140000Y-101930200D03*
X104140000Y-105791000D03*
X104140000Y-110566200D03*
X104140000Y-114427000D03*
X104140000Y-119202200D03*
X104140000Y-123063000D03*
D23*
X88900000Y-72390000D03*
X89535000Y-81280000D03*
X89535000Y-107950000D03*
X89535000Y-116840000D03*
X190500000Y-118745000D03*
X189865000Y-109855000D03*
X189270000Y-81955000D03*
X190500000Y-74295000D03*
D24*
X155575000Y-82550000D03*
D23*
X120650000Y-71120000D03*
D24*
X138430000Y-93980000D03*
X133985000Y-93345000D03*
X142240000Y-103505000D03*
D23*
X139065000Y-117475000D03*
X142240000Y-117475000D03*
X159385000Y-113665000D03*
X190500000Y-120650000D03*
X189865000Y-111760000D03*
X90170000Y-70485000D03*
X90805000Y-79375000D03*
X90805000Y-106045000D03*
X145415000Y-123825000D03*
X138430000Y-121285000D03*
X147955000Y-114935000D03*
X91440000Y-114935000D03*
X191770000Y-83820000D03*
X189230000Y-76200000D03*
D24*
X140970000Y-104775000D03*
X140970000Y-106045000D03*
X132715000Y-113665000D03*
X132080000Y-120015000D03*
X133985000Y-111760000D03*
X133985000Y-110490000D03*
X133985000Y-109220000D03*
X146050000Y-89535000D03*
X139700000Y-110490000D03*
X147320000Y-76835000D03*
D25*
X96748600Y-67310000D02*
X103200200Y-67310000D01*
X103200200Y-67310000D02*
X104140000Y-66370200D01*
X96748600Y-65553600D02*
X94695000Y-63500000D01*
X96748600Y-67310000D02*
X96748600Y-65553600D01*
X96926400Y-67487800D02*
X96748600Y-67310000D01*
X78105000Y-60960000D02*
X78740000Y-60960000D01*
X78740000Y-60960000D02*
X81280000Y-63500000D01*
X83185000Y-67310000D02*
X89941400Y-67310000D01*
X81280000Y-65405000D02*
X83185000Y-67310000D01*
X81280000Y-63500000D02*
X81280000Y-65405000D01*
X78105000Y-79375000D02*
X81915000Y-79375000D01*
X83185000Y-74066400D02*
X89941400Y-67310000D01*
X83185000Y-78105000D02*
X83185000Y-74066400D01*
X81915000Y-79375000D02*
X83185000Y-78105000D01*
X89941400Y-67310000D02*
X89941400Y-65553600D01*
X89941400Y-65553600D02*
X91995000Y-63500000D01*
X65405000Y-79375000D02*
X78105000Y-79375000D01*
X78105000Y-60960000D02*
X65405000Y-60960000D01*
X89535000Y-67310000D02*
X89941400Y-67310000D01*
X96748600Y-76200000D02*
X102946200Y-76200000D01*
X102946200Y-76200000D02*
X104140000Y-75006200D01*
X96748600Y-76200000D02*
X96748600Y-74443600D01*
X96748600Y-74443600D02*
X94695000Y-72390000D01*
X96824800Y-76123800D02*
X96748600Y-76200000D01*
X91995000Y-72390000D02*
X88900000Y-72390000D01*
X78105000Y-84455000D02*
X84455000Y-84455000D01*
X85725000Y-80416400D02*
X85725000Y-83185000D01*
X85725000Y-80416400D02*
X89941400Y-76200000D01*
X84455000Y-84455000D02*
X85725000Y-83185000D01*
X89941400Y-76200000D02*
X89941400Y-74443600D01*
X89941400Y-74443600D02*
X91995000Y-72390000D01*
X65405000Y-66040000D02*
X78105000Y-66040000D01*
X65405000Y-84455000D02*
X78105000Y-84455000D01*
X96748600Y-85090000D02*
X102692200Y-85090000D01*
X102692200Y-85090000D02*
X104140000Y-83642200D01*
X96748600Y-85090000D02*
X96748600Y-83333600D01*
X96748600Y-83333600D02*
X94695000Y-81280000D01*
X97078800Y-84759800D02*
X96748600Y-85090000D01*
X89535000Y-81280000D02*
X91995000Y-81280000D01*
X89941400Y-85090000D02*
X89941400Y-86588600D01*
X89941400Y-86588600D02*
X86995000Y-89535000D01*
X86995000Y-89535000D02*
X78105000Y-89535000D01*
X89941400Y-85090000D02*
X89941400Y-83333600D01*
X89941400Y-83333600D02*
X91995000Y-81280000D01*
X65405000Y-89535000D02*
X78105000Y-89535000D01*
X65405000Y-71120000D02*
X78105000Y-71120000D01*
X96748600Y-102870000D02*
X103200200Y-102870000D01*
X103200200Y-102870000D02*
X104140000Y-101930200D01*
X96926400Y-103047800D02*
X96748600Y-102870000D01*
X96748600Y-102870000D02*
X96748600Y-101113600D01*
X96748600Y-101113600D02*
X94695000Y-99060000D01*
X78105000Y-97790000D02*
X90725000Y-97790000D01*
X90725000Y-97790000D02*
X91995000Y-99060000D01*
X78105000Y-116205000D02*
X82550000Y-116205000D01*
X85090000Y-107950000D02*
X85090000Y-113665000D01*
X85090000Y-113665000D02*
X82550000Y-116205000D01*
X85090000Y-107950000D02*
X89941400Y-103098600D01*
X89941400Y-102870000D02*
X89941400Y-103098600D01*
X78105000Y-116205000D02*
X65405000Y-116205000D01*
X65405000Y-97790000D02*
X78105000Y-97790000D01*
X89941400Y-102870000D02*
X89941400Y-101113600D01*
X89941400Y-101113600D02*
X91995000Y-99060000D01*
X96748600Y-111760000D02*
X102946200Y-111760000D01*
X102946200Y-111760000D02*
X104140000Y-110566200D01*
X96748600Y-111760000D02*
X96748600Y-110003600D01*
X96748600Y-110003600D02*
X94695000Y-107950000D01*
X89535000Y-107950000D02*
X91995000Y-107950000D01*
X78105000Y-121285000D02*
X83820000Y-121285000D01*
X85725000Y-116840000D02*
X85725000Y-119380000D01*
X85725000Y-119380000D02*
X83820000Y-121285000D01*
X85725000Y-116840000D02*
X89941400Y-112623600D01*
X78105000Y-121285000D02*
X65405000Y-121285000D01*
X89941400Y-111760000D02*
X89941400Y-112623600D01*
X65405000Y-102870000D02*
X78105000Y-102870000D01*
X89941400Y-111760000D02*
X89941400Y-110003600D01*
X89941400Y-110003600D02*
X91995000Y-107950000D01*
X96748600Y-120650000D02*
X102692200Y-120650000D01*
X102692200Y-120650000D02*
X104140000Y-119202200D01*
X96748600Y-120650000D02*
X96748600Y-118893600D01*
X96748600Y-118893600D02*
X94695000Y-116840000D01*
X89941400Y-120650000D02*
X86995000Y-120650000D01*
X80645000Y-123825000D02*
X78105000Y-126365000D01*
X83820000Y-123825000D02*
X80645000Y-123825000D01*
X86995000Y-120650000D02*
X83820000Y-123825000D01*
X90805000Y-118110000D02*
X90805000Y-118030000D01*
X89535000Y-116840000D02*
X90805000Y-118110000D01*
X78105000Y-126365000D02*
X65405000Y-126365000D01*
X65405000Y-107950000D02*
X78105000Y-107950000D01*
X89941400Y-120650000D02*
X89941400Y-118893600D01*
X89941400Y-118893600D02*
X90805000Y-118030000D01*
X90805000Y-118030000D02*
X91995000Y-116840000D01*
X183286400Y-123825000D02*
X183286400Y-125581400D01*
X183286400Y-125581400D02*
X185340000Y-127635000D01*
X175895000Y-123647200D02*
X183108600Y-123647200D01*
X183108600Y-123647200D02*
X183286400Y-123825000D01*
X190093600Y-123825000D02*
X197485000Y-123825000D01*
X200660000Y-128905000D02*
X201930000Y-128905000D01*
X199390000Y-127635000D02*
X200660000Y-128905000D01*
X199390000Y-125730000D02*
X199390000Y-127635000D01*
X197485000Y-123825000D02*
X199390000Y-125730000D01*
X196215000Y-121285000D02*
X196215000Y-113030000D01*
X196215000Y-121285000D02*
X193675000Y-123825000D01*
X190093600Y-123825000D02*
X193675000Y-123825000D01*
X198755000Y-110490000D02*
X201930000Y-110490000D01*
X196215000Y-113030000D02*
X198755000Y-110490000D01*
X201930000Y-128905000D02*
X214630000Y-128905000D01*
X201930000Y-110490000D02*
X214630000Y-110490000D01*
X190093600Y-123825000D02*
X190093600Y-125581400D01*
X190093600Y-125581400D02*
X188040000Y-127635000D01*
X183286400Y-114935000D02*
X183286400Y-116691400D01*
X183286400Y-116691400D02*
X185340000Y-118745000D01*
X175895000Y-115011200D02*
X183210200Y-115011200D01*
X183210200Y-115011200D02*
X183286400Y-114935000D01*
X188040000Y-118745000D02*
X190500000Y-118745000D01*
X201930000Y-105410000D02*
X197485000Y-105410000D01*
X194945000Y-110083600D02*
X194945000Y-107950000D01*
X194945000Y-107950000D02*
X197485000Y-105410000D01*
X194945000Y-110083600D02*
X190093600Y-114935000D01*
X201930000Y-123825000D02*
X214630000Y-123825000D01*
X201930000Y-105410000D02*
X214630000Y-105410000D01*
X190093600Y-114935000D02*
X190093600Y-116691400D01*
X190093600Y-116691400D02*
X188040000Y-118745000D01*
X183286400Y-106045000D02*
X183286400Y-107801400D01*
X183286400Y-107801400D02*
X185340000Y-109855000D01*
X175895000Y-106375200D02*
X182956200Y-106375200D01*
X182956200Y-106375200D02*
X183286400Y-106045000D01*
X189865000Y-109855000D02*
X188040000Y-109855000D01*
X201930000Y-100330000D02*
X195808600Y-100330000D01*
X195808600Y-100330000D02*
X190093600Y-106045000D01*
X214630000Y-118745000D02*
X201930000Y-118745000D01*
X201930000Y-100330000D02*
X214630000Y-100330000D01*
X190093600Y-106045000D02*
X190093600Y-107801400D01*
X190093600Y-107801400D02*
X188040000Y-109855000D01*
X183286400Y-88265000D02*
X183286400Y-90021400D01*
X183286400Y-90021400D02*
X185340000Y-92075000D01*
X175895000Y-88087200D02*
X183108600Y-88087200D01*
X183108600Y-88087200D02*
X183286400Y-88265000D01*
X201930000Y-92075000D02*
X193903600Y-92075000D01*
X193903600Y-92075000D02*
X190093600Y-88265000D01*
X195580000Y-82778600D02*
X195580000Y-78105000D01*
X195580000Y-78105000D02*
X200025000Y-73660000D01*
X200025000Y-73660000D02*
X201930000Y-73660000D01*
X190093600Y-88265000D02*
X195580000Y-82778600D01*
X214630000Y-73660000D02*
X201930000Y-73660000D01*
X214630000Y-92075000D02*
X201930000Y-92075000D01*
X190093600Y-88265000D02*
X190093600Y-90021400D01*
X190093600Y-90021400D02*
X188040000Y-92075000D01*
X183286400Y-79375000D02*
X183286400Y-82321400D01*
X184150000Y-83185000D02*
X185590000Y-83185000D01*
X183286400Y-82321400D02*
X184150000Y-83185000D01*
X175895000Y-79451200D02*
X183210200Y-79451200D01*
X183210200Y-79451200D02*
X183286400Y-79375000D01*
X187790000Y-83185000D02*
X188040000Y-83185000D01*
X188040000Y-83185000D02*
X189270000Y-81955000D01*
X194945000Y-74523600D02*
X194945000Y-69850000D01*
X194945000Y-69850000D02*
X196215000Y-68580000D01*
X196215000Y-68580000D02*
X201930000Y-68580000D01*
X190093600Y-79375000D02*
X194945000Y-74523600D01*
X214630000Y-68580000D02*
X201930000Y-68580000D01*
X214630000Y-86995000D02*
X201930000Y-86995000D01*
X190093600Y-79375000D02*
X190093600Y-81131400D01*
X190093600Y-81131400D02*
X189270000Y-81955000D01*
X183286400Y-70485000D02*
X183286400Y-72241400D01*
X183286400Y-72241400D02*
X185340000Y-74295000D01*
X175895000Y-70815200D02*
X182956200Y-70815200D01*
X182956200Y-70815200D02*
X183286400Y-70485000D01*
X190093600Y-70485000D02*
X191135000Y-70485000D01*
X191135000Y-70485000D02*
X196215000Y-65405000D01*
X199390000Y-65405000D02*
X201295000Y-63500000D01*
X196215000Y-65405000D02*
X199390000Y-65405000D01*
X201295000Y-63500000D02*
X201930000Y-63500000D01*
X190500000Y-74295000D02*
X188040000Y-74295000D01*
X214630000Y-63500000D02*
X201930000Y-63500000D01*
X214630000Y-81915000D02*
X201930000Y-81915000D01*
X190093600Y-70485000D02*
X190093600Y-72241400D01*
X190093600Y-72241400D02*
X188040000Y-74295000D01*
X122555000Y-97155000D02*
X122555000Y-70485000D01*
X126720600Y-66319400D02*
X122555000Y-70485000D01*
X128905000Y-66319400D02*
X126720600Y-66319400D01*
X127279400Y-101879400D02*
X122555000Y-97155000D01*
X127279400Y-101879400D02*
X128905000Y-101879400D01*
X140335000Y-66675000D02*
X129260600Y-66675000D01*
X129260600Y-66675000D02*
X128905000Y-66319400D01*
X153670000Y-63500000D02*
X140970000Y-63500000D01*
X155575000Y-65405000D02*
X153670000Y-63500000D01*
X155575000Y-82550000D02*
X155575000Y-65405000D01*
X140970000Y-63500000D02*
X140335000Y-64135000D01*
X151130000Y-88138000D02*
X154813000Y-88138000D01*
X157480000Y-117348000D02*
X151130000Y-123698000D01*
X157480000Y-90805000D02*
X157480000Y-117348000D01*
X154813000Y-88138000D02*
X157480000Y-90805000D01*
X140335000Y-69215000D02*
X140335000Y-71755000D01*
X140335000Y-69215000D02*
X140335000Y-66675000D01*
X140335000Y-64135000D02*
X140335000Y-66675000D01*
X128905000Y-105740200D02*
X126695200Y-105740200D01*
X120650000Y-99695000D02*
X120650000Y-71120000D01*
X126695200Y-105740200D02*
X120650000Y-99695000D01*
X128270000Y-113030000D02*
X128270000Y-106375200D01*
X128270000Y-106375200D02*
X128905000Y-105740200D01*
X125095000Y-124460000D02*
X125095000Y-116205000D01*
X127000000Y-126365000D02*
X125095000Y-124460000D01*
X137795000Y-126365000D02*
X127000000Y-126365000D01*
X125095000Y-116205000D02*
X128270000Y-113030000D01*
X140335000Y-74295000D02*
X130175000Y-74295000D01*
X130175000Y-74295000D02*
X128905000Y-73025000D01*
X128905000Y-70180200D02*
X128905000Y-73025000D01*
X128905000Y-73025000D02*
X128905000Y-76835000D01*
X128905000Y-76835000D02*
X128270000Y-77470000D01*
X151765000Y-76835000D02*
X151765000Y-83489800D01*
X151765000Y-83489800D02*
X151130000Y-84124800D01*
X154305000Y-66675000D02*
X154305000Y-80949800D01*
X154305000Y-66675000D02*
X152400000Y-64770000D01*
X152400000Y-64770000D02*
X149860000Y-64770000D01*
X149860000Y-64770000D02*
X143510000Y-71120000D01*
X140335000Y-74295000D02*
X142240000Y-74295000D01*
X143510000Y-71120000D02*
X143510000Y-73025000D01*
X143510000Y-73025000D02*
X142240000Y-74295000D01*
X154305000Y-80949800D02*
X151130000Y-84124800D01*
X151765000Y-112395000D02*
X151765000Y-119049800D01*
X151765000Y-119049800D02*
X151130000Y-119684800D01*
D26*
X145415000Y-97325000D02*
X145415000Y-93980000D01*
X144780000Y-86360000D02*
X140335000Y-81915000D01*
X144780000Y-93345000D02*
X144780000Y-86360000D01*
X145415000Y-93980000D02*
X144780000Y-93345000D01*
X139065000Y-97325000D02*
X139065000Y-94615000D01*
X139065000Y-94615000D02*
X138430000Y-93980000D01*
X134620000Y-97325000D02*
X134620000Y-93980000D01*
X134620000Y-93980000D02*
X133985000Y-93345000D01*
X143002000Y-105029000D02*
X143002000Y-104267000D01*
X143002000Y-104267000D02*
X142240000Y-103505000D01*
D25*
X146050000Y-119065000D02*
X150357800Y-119065000D01*
X150357800Y-119065000D02*
X151130000Y-119837200D01*
X141290000Y-126365000D02*
X141290000Y-128590000D01*
X141290000Y-128590000D02*
X142240000Y-129540000D01*
X138745000Y-117155000D02*
X138745000Y-114300000D01*
X139065000Y-117475000D02*
X138745000Y-117155000D01*
X138745000Y-114300000D02*
X142560000Y-114300000D01*
D26*
X142560000Y-114300000D02*
X138745000Y-114300000D01*
D25*
X142240000Y-118915000D02*
X142240000Y-117475000D01*
X136060000Y-123825000D02*
X136060000Y-124630000D01*
X137795000Y-126365000D02*
X141290000Y-126365000D01*
X136060000Y-124630000D02*
X137795000Y-126365000D01*
X136060000Y-123825000D02*
X136060000Y-123995000D01*
X154127200Y-84277200D02*
X151130000Y-84277200D01*
X159385000Y-89535000D02*
X154127200Y-84277200D01*
X159385000Y-113665000D02*
X159385000Y-89535000D01*
X140792200Y-79832200D02*
X140335000Y-79375000D01*
X140335000Y-79375000D02*
X140335000Y-81915000D01*
X140335000Y-76835000D02*
X140335000Y-79375000D01*
X140335000Y-74295000D02*
X140335000Y-76835000D01*
X150952200Y-84455000D02*
X151130000Y-84277200D01*
X150952200Y-120015000D02*
X151130000Y-119837200D01*
X201930000Y-107950000D02*
X198120000Y-107950000D01*
X198120000Y-107950000D02*
X196215000Y-109855000D01*
X196215000Y-111125000D02*
X196215000Y-109855000D01*
X194310000Y-113030000D02*
X196215000Y-111125000D01*
X194310000Y-117475000D02*
X194310000Y-113030000D01*
X191135000Y-120650000D02*
X194310000Y-117475000D01*
X190500000Y-120650000D02*
X191135000Y-120650000D01*
X176758600Y-120650000D02*
X190500000Y-120650000D01*
X176758600Y-120650000D02*
X175895000Y-119786400D01*
X201930000Y-107950000D02*
X214630000Y-107950000D01*
X214630000Y-126365000D02*
X201930000Y-126365000D01*
X201930000Y-102870000D02*
X196850000Y-102870000D01*
X196850000Y-102870000D02*
X193675000Y-106045000D01*
X193675000Y-107950000D02*
X193675000Y-106045000D01*
X189865000Y-111760000D02*
X193675000Y-107950000D01*
X176504600Y-111760000D02*
X189865000Y-111760000D01*
X176504600Y-111760000D02*
X175895000Y-111150400D01*
X201930000Y-102870000D02*
X214630000Y-102870000D01*
X214630000Y-121285000D02*
X201930000Y-121285000D01*
X175895000Y-102514400D02*
X178790600Y-102514400D01*
X178790600Y-102514400D02*
X183515000Y-97790000D01*
X183515000Y-97790000D02*
X201930000Y-97790000D01*
X214630000Y-97790000D02*
X201930000Y-97790000D01*
X214630000Y-116205000D02*
X201930000Y-116205000D01*
X90805000Y-70485000D02*
X103886000Y-70485000D01*
X103886000Y-70485000D02*
X104140000Y-70231000D01*
X90170000Y-70485000D02*
X90805000Y-70485000D01*
X78105000Y-81915000D02*
X83820000Y-81915000D01*
X90805000Y-70485000D02*
X88265000Y-70485000D01*
X88265000Y-70485000D02*
X84455000Y-74295000D01*
X84455000Y-74295000D02*
X84455000Y-81280000D01*
X83820000Y-81915000D02*
X84455000Y-81280000D01*
X65405000Y-63500000D02*
X78105000Y-63500000D01*
X65405000Y-81915000D02*
X78105000Y-81915000D01*
X90805000Y-79375000D02*
X103632000Y-79375000D01*
X103632000Y-79375000D02*
X104140000Y-78867000D01*
X78105000Y-86995000D02*
X85090000Y-86995000D01*
X85090000Y-86995000D02*
X86995000Y-85090000D01*
X86995000Y-81280000D02*
X86995000Y-85090000D01*
X88900000Y-79375000D02*
X86995000Y-81280000D01*
X90805000Y-79375000D02*
X88900000Y-79375000D01*
X78105000Y-86995000D02*
X65405000Y-86995000D01*
X78105000Y-68580000D02*
X65405000Y-68580000D01*
X78105000Y-92075000D02*
X99568000Y-92075000D01*
X99568000Y-92075000D02*
X104140000Y-87503000D01*
X78105000Y-92075000D02*
X65405000Y-92075000D01*
X78105000Y-73660000D02*
X65405000Y-73660000D01*
X90805000Y-106045000D02*
X103886000Y-106045000D01*
X103886000Y-106045000D02*
X104140000Y-105791000D01*
X78105000Y-118745000D02*
X81915000Y-118745000D01*
X81915000Y-118745000D02*
X86360000Y-114300000D01*
X86360000Y-108585000D02*
X86360000Y-114300000D01*
X88900000Y-106045000D02*
X86360000Y-108585000D01*
X90805000Y-106045000D02*
X88900000Y-106045000D01*
X78105000Y-118745000D02*
X65405000Y-118745000D01*
X78105000Y-100330000D02*
X65405000Y-100330000D01*
X138430000Y-121285000D02*
X136845000Y-119700000D01*
X134620000Y-116840000D02*
X134620000Y-116525000D01*
X134620000Y-116525000D02*
X136845000Y-114300000D01*
X143340000Y-123825000D02*
X145415000Y-123825000D01*
X136845000Y-119700000D02*
X136845000Y-114300000D01*
D26*
X136845000Y-114300000D02*
X136845000Y-111694000D01*
X136845000Y-111694000D02*
X137668000Y-110871000D01*
D25*
X143340000Y-123825000D02*
X143340000Y-126215000D01*
X143340000Y-126215000D02*
X143190000Y-126365000D01*
X143190000Y-121115000D02*
X143190000Y-123675000D01*
X143190000Y-123675000D02*
X143340000Y-123825000D01*
X147320000Y-114300000D02*
X144460000Y-114300000D01*
X147955000Y-114935000D02*
X147320000Y-114300000D01*
X146050000Y-120965000D02*
X147320000Y-122235000D01*
X146050000Y-120965000D02*
X145095000Y-120965000D01*
X144780000Y-120650000D02*
X144780000Y-116840000D01*
X145095000Y-120965000D02*
X144780000Y-120650000D01*
X147320000Y-122235000D02*
X147320000Y-127635000D01*
X144780000Y-116840000D02*
X144780000Y-116205000D01*
X141605000Y-116205000D02*
X144780000Y-116205000D01*
X141290000Y-116520000D02*
X141605000Y-116205000D01*
X147320000Y-127635000D02*
X145415000Y-129540000D01*
X141290000Y-118915000D02*
X141290000Y-116520000D01*
X143190000Y-118915000D02*
X143190000Y-118430000D01*
X143190000Y-118430000D02*
X144780000Y-116840000D01*
X144780000Y-116205000D02*
X144780000Y-114620000D01*
X144780000Y-114620000D02*
X144460000Y-114300000D01*
D26*
X144460000Y-114300000D02*
X144460000Y-112329000D01*
X144460000Y-112329000D02*
X143002000Y-110871000D01*
X143510000Y-97325000D02*
X143510000Y-95250000D01*
X143510000Y-95250000D02*
X140335000Y-92075000D01*
X140970000Y-97325000D02*
X140970000Y-95250000D01*
X139065000Y-89535000D02*
X140335000Y-89535000D01*
X137795000Y-90805000D02*
X139065000Y-89535000D01*
X137795000Y-92075000D02*
X137795000Y-90805000D01*
X140970000Y-95250000D02*
X137795000Y-92075000D01*
X140970000Y-89535000D02*
X140335000Y-89535000D01*
X136525000Y-97325000D02*
X136525000Y-88265000D01*
X137795000Y-86995000D02*
X140335000Y-86995000D01*
X136525000Y-88265000D02*
X137795000Y-86995000D01*
X140970000Y-86995000D02*
X140335000Y-86995000D01*
D25*
X91440000Y-114935000D02*
X103632000Y-114935000D01*
X103632000Y-114935000D02*
X104140000Y-114427000D01*
X86995000Y-117475000D02*
X86995000Y-119380000D01*
X91440000Y-114935000D02*
X89535000Y-114935000D01*
X89535000Y-114935000D02*
X86995000Y-117475000D01*
X79375000Y-122555000D02*
X78105000Y-123825000D01*
X83820000Y-122555000D02*
X79375000Y-122555000D01*
X86995000Y-119380000D02*
X83820000Y-122555000D01*
X65405000Y-123825000D02*
X78105000Y-123825000D01*
X78105000Y-105410000D02*
X65405000Y-105410000D01*
X85725000Y-123825000D02*
X103378000Y-123825000D01*
X103378000Y-123825000D02*
X104140000Y-123063000D01*
X78105000Y-128905000D02*
X81915000Y-125095000D01*
X84455000Y-125095000D02*
X81915000Y-125095000D01*
X85725000Y-123825000D02*
X84455000Y-125095000D01*
X78105000Y-128905000D02*
X65405000Y-128905000D01*
X78105000Y-110490000D02*
X65405000Y-110490000D01*
X194310000Y-76835000D02*
X196215000Y-74930000D01*
X191770000Y-83820000D02*
X194310000Y-81280000D01*
X194310000Y-81280000D02*
X194310000Y-76835000D01*
X197485000Y-71120000D02*
X201930000Y-71120000D01*
X196215000Y-72390000D02*
X197485000Y-71120000D01*
X196215000Y-74930000D02*
X196215000Y-72390000D01*
X190500000Y-85090000D02*
X191770000Y-83820000D01*
X175895000Y-84226400D02*
X176758600Y-85090000D01*
X176758600Y-85090000D02*
X190500000Y-85090000D01*
X214630000Y-71120000D02*
X201930000Y-71120000D01*
X214630000Y-89535000D02*
X201930000Y-89535000D01*
X193040000Y-74295000D02*
X193040000Y-70485000D01*
X189230000Y-76200000D02*
X191135000Y-76200000D01*
X191135000Y-76200000D02*
X193040000Y-74295000D01*
X200660000Y-67310000D02*
X201930000Y-66040000D01*
X196215000Y-67310000D02*
X200660000Y-67310000D01*
X193040000Y-70485000D02*
X196215000Y-67310000D01*
X176504600Y-76200000D02*
X189230000Y-76200000D01*
X175895000Y-75590400D02*
X176504600Y-76200000D01*
X214630000Y-66040000D02*
X201930000Y-66040000D01*
X214630000Y-84455000D02*
X201930000Y-84455000D01*
X214630000Y-60960000D02*
X201930000Y-60960000D01*
X214630000Y-79375000D02*
X201930000Y-79375000D01*
X141140000Y-123825000D02*
X138260000Y-123825000D01*
X141290000Y-121115000D02*
X141290000Y-123675000D01*
X141290000Y-123675000D02*
X141140000Y-123825000D01*
D26*
X128270000Y-80010000D02*
X130810000Y-80010000D01*
X130810000Y-80010000D02*
X132715000Y-81915000D01*
X137668000Y-105664000D02*
X134874000Y-105664000D01*
X132715000Y-103505000D02*
X132715000Y-81915000D01*
X134874000Y-105664000D02*
X132715000Y-103505000D01*
X143002000Y-105664000D02*
X141859000Y-105664000D01*
X140970000Y-104775000D02*
X141859000Y-105664000D01*
X140970000Y-106045000D02*
X141249400Y-106324400D01*
X141249400Y-106324400D02*
X143002000Y-106324400D01*
X132080000Y-109220000D02*
X132080000Y-113030000D01*
X133680200Y-107619800D02*
X132080000Y-109220000D01*
X137668000Y-107619800D02*
X133680200Y-107619800D01*
X132080000Y-113030000D02*
X132715000Y-113665000D01*
X137668000Y-107591202D02*
X137668000Y-107619800D01*
X131445000Y-119380000D02*
X131445000Y-108585000D01*
X131445000Y-119380000D02*
X132080000Y-120015000D01*
X137668000Y-106984800D02*
X133045200Y-106984800D01*
X133045200Y-106984800D02*
X131445000Y-108585000D01*
X128270000Y-123190000D02*
X130810000Y-123190000D01*
X132435600Y-106324400D02*
X130810000Y-107950000D01*
X132435600Y-106324400D02*
X137668000Y-106324400D01*
X130810000Y-123190000D02*
X130810000Y-107950000D01*
X137668000Y-109575600D02*
X136169400Y-109575600D01*
X133985000Y-111760000D02*
X136169400Y-109575600D01*
X137668000Y-108940600D02*
X135534400Y-108940600D01*
X133985000Y-110490000D02*
X135534400Y-108940600D01*
X134924800Y-108280200D02*
X133985000Y-109220000D01*
X137668000Y-108280200D02*
X134924800Y-108280200D01*
X151765000Y-66675000D02*
X149860000Y-66675000D01*
X146050000Y-89535000D02*
X146050000Y-70485000D01*
X139446000Y-110236000D02*
X139700000Y-110490000D01*
X139446000Y-110236000D02*
X137668000Y-110236000D01*
X149860000Y-66675000D02*
X146050000Y-70485000D01*
X147955000Y-109220000D02*
X147955000Y-80010000D01*
X143002000Y-110236000D02*
X146939000Y-110236000D01*
X146939000Y-110236000D02*
X147955000Y-109220000D01*
X149225000Y-71755000D02*
X151765000Y-69215000D01*
X149225000Y-78740000D02*
X149225000Y-71755000D01*
X147955000Y-80010000D02*
X149225000Y-78740000D01*
X147320000Y-108585000D02*
X147320000Y-76835000D01*
X143002000Y-109575600D02*
X146329400Y-109575600D01*
X146329400Y-109575600D02*
X147320000Y-108585000D01*
X144475200Y-107619800D02*
X145415000Y-106680000D01*
X143510000Y-99525000D02*
X143510000Y-101600000D01*
X143002000Y-107619800D02*
X144475200Y-107619800D01*
X145415000Y-106680000D02*
X145415000Y-99525000D01*
X145415000Y-99525000D02*
X143510000Y-99525000D01*
X134620000Y-99525000D02*
X134620000Y-101600000D01*
X136525000Y-99525000D02*
X136525000Y-100965000D01*
X140030200Y-108280200D02*
X143002000Y-108280200D01*
X139065000Y-107315000D02*
X140030200Y-108280200D01*
X139065000Y-103505000D02*
X139065000Y-107315000D01*
X136525000Y-100965000D02*
X139065000Y-103505000D01*
X136525000Y-99525000D02*
X134620000Y-99525000D01*
X139065000Y-99525000D02*
X139065000Y-101600000D01*
X140970000Y-99525000D02*
X140970000Y-101600000D01*
X140639800Y-106984800D02*
X143002000Y-106984800D01*
X139700000Y-106045000D02*
X140639800Y-106984800D01*
X139700000Y-102870000D02*
X139700000Y-106045000D01*
X140970000Y-101600000D02*
X139700000Y-102870000D01*
X140970000Y-99525000D02*
X139065000Y-99525000D01*
X143002000Y-107013398D02*
X143002000Y-106984800D01*
D27*
G36*
X217755000Y-132030000D02*
X62280000Y-132030000D01*
X62280000Y-130511517D01*
X141448088Y-130511517D01*
X141516077Y-130752460D01*
X142035171Y-130937201D01*
X142585448Y-130909230D01*
X142963923Y-130752460D01*
X143031912Y-130511517D01*
X142240000Y-129719605D01*
X141448088Y-130511517D01*
X62280000Y-130511517D01*
X62280000Y-100330000D01*
X63721655Y-100330000D01*
X63835729Y-100903489D01*
X64160585Y-101389670D01*
X64475366Y-101600000D01*
X64160585Y-101810330D01*
X63835729Y-102296511D01*
X63721655Y-102870000D01*
X63835729Y-103443489D01*
X64160585Y-103929670D01*
X64475366Y-104140000D01*
X64160585Y-104350330D01*
X63835729Y-104836511D01*
X63721655Y-105410000D01*
X63835729Y-105983489D01*
X64160585Y-106469670D01*
X64475366Y-106680000D01*
X64160585Y-106890330D01*
X63835729Y-107376511D01*
X63721655Y-107950000D01*
X63835729Y-108523489D01*
X64160585Y-109009670D01*
X64475366Y-109220000D01*
X64160585Y-109430330D01*
X63835729Y-109916511D01*
X63721655Y-110490000D01*
X63835729Y-111063489D01*
X64160585Y-111549670D01*
X64646766Y-111874526D01*
X65220255Y-111988600D01*
X65589745Y-111988600D01*
X66163234Y-111874526D01*
X66649415Y-111549670D01*
X66729510Y-111429800D01*
X76780490Y-111429800D01*
X76860585Y-111549670D01*
X77346766Y-111874526D01*
X77920255Y-111988600D01*
X78289745Y-111988600D01*
X78863234Y-111874526D01*
X79349415Y-111549670D01*
X79674271Y-111063489D01*
X79788345Y-110490000D01*
X79674271Y-109916511D01*
X79349415Y-109430330D01*
X79034634Y-109220000D01*
X79349415Y-109009670D01*
X79674271Y-108523489D01*
X79788345Y-107950000D01*
X79674271Y-107376511D01*
X79349415Y-106890330D01*
X79034634Y-106680000D01*
X79349415Y-106469670D01*
X79674271Y-105983489D01*
X79788345Y-105410000D01*
X79674271Y-104836511D01*
X79349415Y-104350330D01*
X79034634Y-104140000D01*
X79349415Y-103929670D01*
X79674271Y-103443489D01*
X79788345Y-102870000D01*
X79674271Y-102296511D01*
X79349415Y-101810330D01*
X79034634Y-101600000D01*
X79349415Y-101389670D01*
X79674271Y-100903489D01*
X79788345Y-100330000D01*
X79674271Y-99756511D01*
X79349415Y-99270330D01*
X79335087Y-99260757D01*
X79356317Y-99256762D01*
X79572441Y-99117690D01*
X79717431Y-98905490D01*
X79753009Y-98729800D01*
X90335722Y-98729800D01*
X90665922Y-99060000D01*
X89276861Y-100449061D01*
X89261159Y-100472560D01*
X88191400Y-100472560D01*
X87956083Y-100516838D01*
X87739959Y-100655910D01*
X87594969Y-100868110D01*
X87543960Y-101120000D01*
X87543960Y-104166962D01*
X84425461Y-107285461D01*
X84221738Y-107590354D01*
X84150200Y-107950000D01*
X84150200Y-113275722D01*
X82160722Y-115265200D01*
X79754102Y-115265200D01*
X79724162Y-115106083D01*
X79585090Y-114889959D01*
X79372890Y-114744969D01*
X79121000Y-114693960D01*
X77089000Y-114693960D01*
X76853683Y-114738238D01*
X76637559Y-114877310D01*
X76492569Y-115089510D01*
X76456991Y-115265200D01*
X67054102Y-115265200D01*
X67024162Y-115106083D01*
X66885090Y-114889959D01*
X66672890Y-114744969D01*
X66421000Y-114693960D01*
X64389000Y-114693960D01*
X64153683Y-114738238D01*
X63937559Y-114877310D01*
X63792569Y-115089510D01*
X63741560Y-115341400D01*
X63741560Y-117068600D01*
X63785838Y-117303917D01*
X63924910Y-117520041D01*
X64137110Y-117665031D01*
X64178439Y-117673400D01*
X64160585Y-117685330D01*
X63835729Y-118171511D01*
X63721655Y-118745000D01*
X63835729Y-119318489D01*
X64160585Y-119804670D01*
X64475366Y-120015000D01*
X64160585Y-120225330D01*
X63835729Y-120711511D01*
X63721655Y-121285000D01*
X63835729Y-121858489D01*
X64160585Y-122344670D01*
X64475366Y-122555000D01*
X64160585Y-122765330D01*
X63835729Y-123251511D01*
X63721655Y-123825000D01*
X63835729Y-124398489D01*
X64160585Y-124884670D01*
X64475366Y-125095000D01*
X64160585Y-125305330D01*
X63835729Y-125791511D01*
X63721655Y-126365000D01*
X63835729Y-126938489D01*
X64160585Y-127424670D01*
X64475366Y-127635000D01*
X64160585Y-127845330D01*
X63835729Y-128331511D01*
X63721655Y-128905000D01*
X63835729Y-129478489D01*
X64160585Y-129964670D01*
X64646766Y-130289526D01*
X65220255Y-130403600D01*
X65589745Y-130403600D01*
X66163234Y-130289526D01*
X66649415Y-129964670D01*
X66729510Y-129844800D01*
X76780490Y-129844800D01*
X76860585Y-129964670D01*
X77346766Y-130289526D01*
X77920255Y-130403600D01*
X78289745Y-130403600D01*
X78863234Y-130289526D01*
X79349415Y-129964670D01*
X79674271Y-129478489D01*
X79788345Y-128905000D01*
X79736291Y-128643305D01*
X83839674Y-128643305D01*
X84126043Y-129336372D01*
X84655839Y-129867093D01*
X85348405Y-130154672D01*
X86098305Y-130155326D01*
X86791372Y-129868957D01*
X87322093Y-129339161D01*
X87609672Y-128646595D01*
X87609715Y-128596963D01*
X102488714Y-128596963D01*
X102739534Y-129203995D01*
X103203563Y-129668834D01*
X103810155Y-129920713D01*
X104466963Y-129921286D01*
X105073995Y-129670466D01*
X105409875Y-129335171D01*
X140842799Y-129335171D01*
X140870770Y-129885448D01*
X141027540Y-130263923D01*
X141268483Y-130331912D01*
X142060395Y-129540000D01*
X142419605Y-129540000D01*
X143211517Y-130331912D01*
X143452460Y-130263923D01*
X143637201Y-129744829D01*
X143609230Y-129194552D01*
X143452460Y-128816077D01*
X143211517Y-128748088D01*
X142419605Y-129540000D01*
X142060395Y-129540000D01*
X141268483Y-128748088D01*
X141027540Y-128816077D01*
X140842799Y-129335171D01*
X105409875Y-129335171D01*
X105538834Y-129206437D01*
X105790713Y-128599845D01*
X105790740Y-128568483D01*
X141448088Y-128568483D01*
X142240000Y-129360395D01*
X143031912Y-128568483D01*
X142963923Y-128327540D01*
X142444829Y-128142799D01*
X141894552Y-128170770D01*
X141516077Y-128327540D01*
X141448088Y-128568483D01*
X105790740Y-128568483D01*
X105791286Y-127943037D01*
X105540466Y-127336005D01*
X105076437Y-126871166D01*
X104545617Y-126650750D01*
X140055000Y-126650750D01*
X140055000Y-126866310D01*
X140151673Y-127099699D01*
X140330302Y-127278327D01*
X140563691Y-127375000D01*
X141004250Y-127375000D01*
X141163000Y-127216250D01*
X141163000Y-126492000D01*
X140213750Y-126492000D01*
X140055000Y-126650750D01*
X104545617Y-126650750D01*
X104469845Y-126619287D01*
X103813037Y-126618714D01*
X103206005Y-126869534D01*
X102741166Y-127333563D01*
X102489287Y-127940155D01*
X102488714Y-128596963D01*
X87609715Y-128596963D01*
X87610326Y-127896695D01*
X87323957Y-127203628D01*
X86794161Y-126672907D01*
X86101595Y-126385328D01*
X85351695Y-126384674D01*
X84658628Y-126671043D01*
X84127907Y-127200839D01*
X83840328Y-127893405D01*
X83839674Y-128643305D01*
X79736291Y-128643305D01*
X79729568Y-128609510D01*
X82304278Y-126034800D01*
X84455000Y-126034800D01*
X84814646Y-125963262D01*
X84963666Y-125863690D01*
X140055000Y-125863690D01*
X140055000Y-126079250D01*
X140213750Y-126238000D01*
X141163000Y-126238000D01*
X141163000Y-125513750D01*
X141004250Y-125355000D01*
X140563691Y-125355000D01*
X140330302Y-125451673D01*
X140151673Y-125630301D01*
X140055000Y-125863690D01*
X84963666Y-125863690D01*
X85119539Y-125759539D01*
X86114278Y-124764800D01*
X103378000Y-124764800D01*
X103737646Y-124693262D01*
X104042539Y-124489539D01*
X104072137Y-124459941D01*
X104416661Y-124460242D01*
X104930303Y-124248010D01*
X105323629Y-123855370D01*
X105536757Y-123342100D01*
X105537242Y-122786339D01*
X105325010Y-122272697D01*
X104932370Y-121879371D01*
X104419100Y-121666243D01*
X103863339Y-121665758D01*
X103349697Y-121877990D01*
X102956371Y-122270630D01*
X102743243Y-122783900D01*
X102743155Y-122885200D01*
X98917235Y-122885200D01*
X98950041Y-122864090D01*
X99095031Y-122651890D01*
X99146040Y-122400000D01*
X99146040Y-121589800D01*
X102692200Y-121589800D01*
X103051846Y-121518262D01*
X103356739Y-121314539D01*
X104072137Y-120599141D01*
X104416661Y-120599442D01*
X104930303Y-120387210D01*
X105323629Y-119994570D01*
X105536757Y-119481300D01*
X105537242Y-118925539D01*
X105325010Y-118411897D01*
X104932370Y-118018571D01*
X104419100Y-117805443D01*
X103863339Y-117804958D01*
X103349697Y-118017190D01*
X102956371Y-118409830D01*
X102743243Y-118923100D01*
X102742940Y-119270182D01*
X102302922Y-119710200D01*
X99146040Y-119710200D01*
X99146040Y-118900000D01*
X99101762Y-118664683D01*
X98962690Y-118448559D01*
X98750490Y-118303569D01*
X98498600Y-118252560D01*
X97428841Y-118252560D01*
X97413139Y-118229061D01*
X95692440Y-116508362D01*
X95692440Y-116390000D01*
X95648162Y-116154683D01*
X95509090Y-115938559D01*
X95415776Y-115874800D01*
X103632000Y-115874800D01*
X103773464Y-115846661D01*
X126872758Y-115846661D01*
X127084990Y-116360303D01*
X127477630Y-116753629D01*
X127990900Y-116966757D01*
X128546661Y-116967242D01*
X129060303Y-116755010D01*
X129453629Y-116362370D01*
X129666757Y-115849100D01*
X129667242Y-115293339D01*
X129455010Y-114779697D01*
X129062370Y-114386371D01*
X128870273Y-114306605D01*
X129001143Y-114252397D01*
X129070608Y-114010213D01*
X128270000Y-113209605D01*
X127469392Y-114010213D01*
X127538857Y-114252397D01*
X127679318Y-114302509D01*
X127479697Y-114384990D01*
X127086371Y-114777630D01*
X126873243Y-115290900D01*
X126872758Y-115846661D01*
X103773464Y-115846661D01*
X103888490Y-115823781D01*
X104416661Y-115824242D01*
X104930303Y-115612010D01*
X105323629Y-115219370D01*
X105536757Y-114706100D01*
X105537242Y-114150339D01*
X105325010Y-113636697D01*
X104932370Y-113243371D01*
X104419100Y-113030243D01*
X103863339Y-113029758D01*
X103349697Y-113241990D01*
X102956371Y-113634630D01*
X102806649Y-113995200D01*
X98917235Y-113995200D01*
X98950041Y-113974090D01*
X99095031Y-113761890D01*
X99146040Y-113510000D01*
X99146040Y-112822302D01*
X126860856Y-112822302D01*
X126888638Y-113377368D01*
X127047603Y-113761143D01*
X127289787Y-113830608D01*
X128090395Y-113030000D01*
X128449605Y-113030000D01*
X129250213Y-113830608D01*
X129492397Y-113761143D01*
X129679144Y-113237698D01*
X129651362Y-112682632D01*
X129492397Y-112298857D01*
X129250213Y-112229392D01*
X128449605Y-113030000D01*
X128090395Y-113030000D01*
X127289787Y-112229392D01*
X127047603Y-112298857D01*
X126860856Y-112822302D01*
X99146040Y-112822302D01*
X99146040Y-112699800D01*
X102946200Y-112699800D01*
X103305846Y-112628262D01*
X103610739Y-112424539D01*
X103985491Y-112049787D01*
X127469392Y-112049787D01*
X128270000Y-112850395D01*
X129070608Y-112049787D01*
X129001143Y-111807603D01*
X128477698Y-111620856D01*
X127922632Y-111648638D01*
X127538857Y-111807603D01*
X127469392Y-112049787D01*
X103985491Y-112049787D01*
X104072137Y-111963141D01*
X104416661Y-111963442D01*
X104930303Y-111751210D01*
X105323629Y-111358570D01*
X105536757Y-110845300D01*
X105537242Y-110289539D01*
X105325010Y-109775897D01*
X104932370Y-109382571D01*
X104419100Y-109169443D01*
X103863339Y-109168958D01*
X103349697Y-109381190D01*
X102956371Y-109773830D01*
X102743243Y-110287100D01*
X102742940Y-110634182D01*
X102556922Y-110820200D01*
X99146040Y-110820200D01*
X99146040Y-110010000D01*
X99101762Y-109774683D01*
X98962690Y-109558559D01*
X98750490Y-109413569D01*
X98498600Y-109362560D01*
X97428841Y-109362560D01*
X97413139Y-109339061D01*
X95692440Y-107618362D01*
X95692440Y-107500000D01*
X95648162Y-107264683D01*
X95509090Y-107048559D01*
X95415776Y-106984800D01*
X103372125Y-106984800D01*
X103860900Y-107187757D01*
X104416661Y-107188242D01*
X104930303Y-106976010D01*
X105186346Y-106720413D01*
X128104392Y-106720413D01*
X128173857Y-106962597D01*
X128697302Y-107149344D01*
X129252368Y-107121562D01*
X129636143Y-106962597D01*
X129705608Y-106720413D01*
X128905000Y-105919805D01*
X128104392Y-106720413D01*
X105186346Y-106720413D01*
X105323629Y-106583370D01*
X105536757Y-106070100D01*
X105537226Y-105532502D01*
X127495856Y-105532502D01*
X127523638Y-106087568D01*
X127682603Y-106471343D01*
X127924787Y-106540808D01*
X128725395Y-105740200D01*
X129084605Y-105740200D01*
X129885213Y-106540808D01*
X130127397Y-106471343D01*
X130314144Y-105947898D01*
X130286362Y-105392832D01*
X130127397Y-105009057D01*
X129885213Y-104939592D01*
X129084605Y-105740200D01*
X128725395Y-105740200D01*
X127924787Y-104939592D01*
X127682603Y-105009057D01*
X127495856Y-105532502D01*
X105537226Y-105532502D01*
X105537242Y-105514339D01*
X105325010Y-105000697D01*
X105084720Y-104759987D01*
X128104392Y-104759987D01*
X128905000Y-105560595D01*
X129705608Y-104759987D01*
X129636143Y-104517803D01*
X129112698Y-104331056D01*
X128557632Y-104358838D01*
X128173857Y-104517803D01*
X128104392Y-104759987D01*
X105084720Y-104759987D01*
X104932370Y-104607371D01*
X104419100Y-104394243D01*
X103863339Y-104393758D01*
X103349697Y-104605990D01*
X102956371Y-104998630D01*
X102912119Y-105105200D01*
X98917235Y-105105200D01*
X98950041Y-105084090D01*
X99095031Y-104871890D01*
X99146040Y-104620000D01*
X99146040Y-103809800D01*
X103200200Y-103809800D01*
X103559846Y-103738262D01*
X103864739Y-103534539D01*
X104072137Y-103327141D01*
X104416661Y-103327442D01*
X104930303Y-103115210D01*
X105323629Y-102722570D01*
X105536757Y-102209300D01*
X105537242Y-101653539D01*
X105325010Y-101139897D01*
X104932370Y-100746571D01*
X104419100Y-100533443D01*
X103863339Y-100532958D01*
X103349697Y-100745190D01*
X102956371Y-101137830D01*
X102743243Y-101651100D01*
X102742999Y-101930200D01*
X99146040Y-101930200D01*
X99146040Y-101120000D01*
X99101762Y-100884683D01*
X98962690Y-100668559D01*
X98750490Y-100523569D01*
X98498600Y-100472560D01*
X97428841Y-100472560D01*
X97413139Y-100449061D01*
X95692440Y-98728362D01*
X95692440Y-98610000D01*
X95648162Y-98374683D01*
X95509090Y-98158559D01*
X95296890Y-98013569D01*
X95045000Y-97962560D01*
X93845000Y-97962560D01*
X93609683Y-98006838D01*
X93393559Y-98145910D01*
X93345866Y-98215711D01*
X93309090Y-98158559D01*
X93096890Y-98013569D01*
X92845000Y-97962560D01*
X92226638Y-97962560D01*
X91389539Y-97125461D01*
X91084646Y-96921738D01*
X90725000Y-96850200D01*
X79754102Y-96850200D01*
X79724162Y-96691083D01*
X79585090Y-96474959D01*
X79372890Y-96329969D01*
X79121000Y-96278960D01*
X77089000Y-96278960D01*
X76853683Y-96323238D01*
X76637559Y-96462310D01*
X76492569Y-96674510D01*
X76456991Y-96850200D01*
X67054102Y-96850200D01*
X67024162Y-96691083D01*
X66885090Y-96474959D01*
X66672890Y-96329969D01*
X66421000Y-96278960D01*
X64389000Y-96278960D01*
X64153683Y-96323238D01*
X63937559Y-96462310D01*
X63792569Y-96674510D01*
X63741560Y-96926400D01*
X63741560Y-98653600D01*
X63785838Y-98888917D01*
X63924910Y-99105041D01*
X64137110Y-99250031D01*
X64178439Y-99258400D01*
X64160585Y-99270330D01*
X63835729Y-99756511D01*
X63721655Y-100330000D01*
X62280000Y-100330000D01*
X62280000Y-63500000D01*
X63721655Y-63500000D01*
X63835729Y-64073489D01*
X64160585Y-64559670D01*
X64475366Y-64770000D01*
X64160585Y-64980330D01*
X63835729Y-65466511D01*
X63721655Y-66040000D01*
X63835729Y-66613489D01*
X64160585Y-67099670D01*
X64475366Y-67310000D01*
X64160585Y-67520330D01*
X63835729Y-68006511D01*
X63721655Y-68580000D01*
X63835729Y-69153489D01*
X64160585Y-69639670D01*
X64475366Y-69850000D01*
X64160585Y-70060330D01*
X63835729Y-70546511D01*
X63721655Y-71120000D01*
X63835729Y-71693489D01*
X64160585Y-72179670D01*
X64475366Y-72390000D01*
X64160585Y-72600330D01*
X63835729Y-73086511D01*
X63721655Y-73660000D01*
X63835729Y-74233489D01*
X64160585Y-74719670D01*
X64646766Y-75044526D01*
X65220255Y-75158600D01*
X65589745Y-75158600D01*
X66163234Y-75044526D01*
X66649415Y-74719670D01*
X66729510Y-74599800D01*
X76780490Y-74599800D01*
X76860585Y-74719670D01*
X77346766Y-75044526D01*
X77920255Y-75158600D01*
X78289745Y-75158600D01*
X78863234Y-75044526D01*
X79349415Y-74719670D01*
X79674271Y-74233489D01*
X79788345Y-73660000D01*
X79674271Y-73086511D01*
X79349415Y-72600330D01*
X79034634Y-72390000D01*
X79349415Y-72179670D01*
X79674271Y-71693489D01*
X79788345Y-71120000D01*
X79674271Y-70546511D01*
X79349415Y-70060330D01*
X79034634Y-69850000D01*
X79349415Y-69639670D01*
X79674271Y-69153489D01*
X79788345Y-68580000D01*
X79674271Y-68006511D01*
X79349415Y-67520330D01*
X79034634Y-67310000D01*
X79349415Y-67099670D01*
X79674271Y-66613489D01*
X79788345Y-66040000D01*
X79674271Y-65466511D01*
X79349415Y-64980330D01*
X79034634Y-64770000D01*
X79349415Y-64559670D01*
X79674271Y-64073489D01*
X79788345Y-63500000D01*
X79747977Y-63297055D01*
X80340200Y-63889278D01*
X80340200Y-65405000D01*
X80411738Y-65764646D01*
X80615461Y-66069539D01*
X82520461Y-67974539D01*
X82825354Y-68178262D01*
X83185000Y-68249800D01*
X87543960Y-68249800D01*
X87543960Y-68378362D01*
X82520461Y-73401861D01*
X82316738Y-73706754D01*
X82245200Y-74066400D01*
X82245200Y-77715722D01*
X81525722Y-78435200D01*
X79754102Y-78435200D01*
X79724162Y-78276083D01*
X79585090Y-78059959D01*
X79372890Y-77914969D01*
X79121000Y-77863960D01*
X77089000Y-77863960D01*
X76853683Y-77908238D01*
X76637559Y-78047310D01*
X76492569Y-78259510D01*
X76456991Y-78435200D01*
X67054102Y-78435200D01*
X67024162Y-78276083D01*
X66885090Y-78059959D01*
X66672890Y-77914969D01*
X66421000Y-77863960D01*
X64389000Y-77863960D01*
X64153683Y-77908238D01*
X63937559Y-78047310D01*
X63792569Y-78259510D01*
X63741560Y-78511400D01*
X63741560Y-80238600D01*
X63785838Y-80473917D01*
X63924910Y-80690041D01*
X64137110Y-80835031D01*
X64178439Y-80843400D01*
X64160585Y-80855330D01*
X63835729Y-81341511D01*
X63721655Y-81915000D01*
X63835729Y-82488489D01*
X64160585Y-82974670D01*
X64475366Y-83185000D01*
X64160585Y-83395330D01*
X63835729Y-83881511D01*
X63721655Y-84455000D01*
X63835729Y-85028489D01*
X64160585Y-85514670D01*
X64475366Y-85725000D01*
X64160585Y-85935330D01*
X63835729Y-86421511D01*
X63721655Y-86995000D01*
X63835729Y-87568489D01*
X64160585Y-88054670D01*
X64475366Y-88265000D01*
X64160585Y-88475330D01*
X63835729Y-88961511D01*
X63721655Y-89535000D01*
X63835729Y-90108489D01*
X64160585Y-90594670D01*
X64475366Y-90805000D01*
X64160585Y-91015330D01*
X63835729Y-91501511D01*
X63721655Y-92075000D01*
X63835729Y-92648489D01*
X64160585Y-93134670D01*
X64646766Y-93459526D01*
X65220255Y-93573600D01*
X65589745Y-93573600D01*
X66163234Y-93459526D01*
X66649415Y-93134670D01*
X66729510Y-93014800D01*
X76780490Y-93014800D01*
X76860585Y-93134670D01*
X77346766Y-93459526D01*
X77920255Y-93573600D01*
X78289745Y-93573600D01*
X78863234Y-93459526D01*
X79349415Y-93134670D01*
X79414701Y-93036963D01*
X102488714Y-93036963D01*
X102739534Y-93643995D01*
X103203563Y-94108834D01*
X103810155Y-94360713D01*
X104466963Y-94361286D01*
X105073995Y-94110466D01*
X105538834Y-93646437D01*
X105790713Y-93039845D01*
X105791286Y-92383037D01*
X105540466Y-91776005D01*
X105076437Y-91311166D01*
X104469845Y-91059287D01*
X103813037Y-91058714D01*
X103206005Y-91309534D01*
X102741166Y-91773563D01*
X102489287Y-92380155D01*
X102488714Y-93036963D01*
X79414701Y-93036963D01*
X79429510Y-93014800D01*
X99568000Y-93014800D01*
X99927646Y-92943262D01*
X100232539Y-92739539D01*
X104072137Y-88899941D01*
X104416661Y-88900242D01*
X104930303Y-88688010D01*
X105323629Y-88295370D01*
X105536757Y-87782100D01*
X105537242Y-87226339D01*
X105325010Y-86712697D01*
X104932370Y-86319371D01*
X104419100Y-86106243D01*
X103863339Y-86105758D01*
X103349697Y-86317990D01*
X102956371Y-86710630D01*
X102743243Y-87223900D01*
X102742940Y-87570982D01*
X99178722Y-91135200D01*
X79429510Y-91135200D01*
X79349415Y-91015330D01*
X79034634Y-90805000D01*
X79349415Y-90594670D01*
X79429510Y-90474800D01*
X86995000Y-90474800D01*
X87354646Y-90403262D01*
X87659539Y-90199539D01*
X90371638Y-87487440D01*
X91691400Y-87487440D01*
X91926717Y-87443162D01*
X92142841Y-87304090D01*
X92287831Y-87091890D01*
X92338840Y-86840000D01*
X92338840Y-83340000D01*
X92294562Y-83104683D01*
X92155490Y-82888559D01*
X91943290Y-82743569D01*
X91874450Y-82729628D01*
X92226638Y-82377440D01*
X92845000Y-82377440D01*
X93080317Y-82333162D01*
X93296441Y-82194090D01*
X93344134Y-82124289D01*
X93380910Y-82181441D01*
X93593110Y-82326431D01*
X93845000Y-82377440D01*
X94463362Y-82377440D01*
X94813341Y-82727419D01*
X94763283Y-82736838D01*
X94547159Y-82875910D01*
X94402169Y-83088110D01*
X94351160Y-83340000D01*
X94351160Y-86840000D01*
X94395438Y-87075317D01*
X94534510Y-87291441D01*
X94746710Y-87436431D01*
X94998600Y-87487440D01*
X98498600Y-87487440D01*
X98733917Y-87443162D01*
X98950041Y-87304090D01*
X99095031Y-87091890D01*
X99146040Y-86840000D01*
X99146040Y-86029800D01*
X102692200Y-86029800D01*
X103051846Y-85958262D01*
X103356739Y-85754539D01*
X104072137Y-85039141D01*
X104416661Y-85039442D01*
X104930303Y-84827210D01*
X105323629Y-84434570D01*
X105536757Y-83921300D01*
X105537242Y-83365539D01*
X105325010Y-82851897D01*
X104932370Y-82458571D01*
X104419100Y-82245443D01*
X103863339Y-82244958D01*
X103349697Y-82457190D01*
X102956371Y-82849830D01*
X102743243Y-83363100D01*
X102742940Y-83710182D01*
X102302922Y-84150200D01*
X99146040Y-84150200D01*
X99146040Y-83340000D01*
X99101762Y-83104683D01*
X98962690Y-82888559D01*
X98750490Y-82743569D01*
X98498600Y-82692560D01*
X97428841Y-82692560D01*
X97413139Y-82669061D01*
X95692440Y-80948362D01*
X95692440Y-80830000D01*
X95648162Y-80594683D01*
X95509090Y-80378559D01*
X95415776Y-80314800D01*
X103632000Y-80314800D01*
X103888490Y-80263781D01*
X104416661Y-80264242D01*
X104930303Y-80052010D01*
X105323629Y-79659370D01*
X105536757Y-79146100D01*
X105537242Y-78590339D01*
X105325010Y-78076697D01*
X104932370Y-77683371D01*
X104419100Y-77470243D01*
X103863339Y-77469758D01*
X103349697Y-77681990D01*
X102956371Y-78074630D01*
X102806649Y-78435200D01*
X98917235Y-78435200D01*
X98950041Y-78414090D01*
X99095031Y-78201890D01*
X99146040Y-77950000D01*
X99146040Y-77139800D01*
X102946200Y-77139800D01*
X103305846Y-77068262D01*
X103610739Y-76864539D01*
X104072137Y-76403141D01*
X104416661Y-76403442D01*
X104930303Y-76191210D01*
X105323629Y-75798570D01*
X105536757Y-75285300D01*
X105537242Y-74729539D01*
X105325010Y-74215897D01*
X104932370Y-73822571D01*
X104419100Y-73609443D01*
X103863339Y-73608958D01*
X103349697Y-73821190D01*
X102956371Y-74213830D01*
X102743243Y-74727100D01*
X102742940Y-75074182D01*
X102556922Y-75260200D01*
X99146040Y-75260200D01*
X99146040Y-74450000D01*
X99101762Y-74214683D01*
X98962690Y-73998559D01*
X98750490Y-73853569D01*
X98498600Y-73802560D01*
X97428841Y-73802560D01*
X97413139Y-73779061D01*
X95692440Y-72058362D01*
X95692440Y-71940000D01*
X95648162Y-71704683D01*
X95509090Y-71488559D01*
X95415776Y-71424800D01*
X103372125Y-71424800D01*
X103860900Y-71627757D01*
X104416661Y-71628242D01*
X104930303Y-71416010D01*
X105323629Y-71023370D01*
X105536757Y-70510100D01*
X105536778Y-70485000D01*
X121615200Y-70485000D01*
X121615200Y-97155000D01*
X121686738Y-97514646D01*
X121890461Y-97819539D01*
X126614861Y-102543939D01*
X126919754Y-102747662D01*
X127279400Y-102819200D01*
X127869226Y-102819200D01*
X128112630Y-103063029D01*
X128625900Y-103276157D01*
X129181661Y-103276642D01*
X129695303Y-103064410D01*
X130088629Y-102671770D01*
X130301757Y-102158500D01*
X130302242Y-101602739D01*
X130090010Y-101089097D01*
X129697370Y-100695771D01*
X129184100Y-100482643D01*
X128628339Y-100482158D01*
X128114697Y-100694390D01*
X127869059Y-100939600D01*
X127668678Y-100939600D01*
X124211041Y-97481963D01*
X127253714Y-97481963D01*
X127504534Y-98088995D01*
X127968563Y-98553834D01*
X128575155Y-98805713D01*
X129231963Y-98806286D01*
X129838995Y-98555466D01*
X130303834Y-98091437D01*
X130555713Y-97484845D01*
X130556286Y-96828037D01*
X130305466Y-96221005D01*
X129841437Y-95756166D01*
X129234845Y-95504287D01*
X128578037Y-95503714D01*
X127971005Y-95754534D01*
X127506166Y-96218563D01*
X127254287Y-96825155D01*
X127253714Y-97481963D01*
X124211041Y-97481963D01*
X123494800Y-96765722D01*
X123494800Y-85366661D01*
X126872758Y-85366661D01*
X127084990Y-85880303D01*
X127477630Y-86273629D01*
X127685512Y-86359949D01*
X127479697Y-86444990D01*
X127086371Y-86837630D01*
X126873243Y-87350900D01*
X126872758Y-87906661D01*
X127084990Y-88420303D01*
X127477630Y-88813629D01*
X127990900Y-89026757D01*
X128546661Y-89027242D01*
X129060303Y-88815010D01*
X129453629Y-88422370D01*
X129666757Y-87909100D01*
X129667242Y-87353339D01*
X129455010Y-86839697D01*
X129062370Y-86446371D01*
X128854488Y-86360051D01*
X129060303Y-86275010D01*
X129453629Y-85882370D01*
X129666757Y-85369100D01*
X129667242Y-84813339D01*
X129455010Y-84299697D01*
X129062370Y-83906371D01*
X128549100Y-83693243D01*
X127993339Y-83692758D01*
X127479697Y-83904990D01*
X127086371Y-84297630D01*
X126873243Y-84810900D01*
X126872758Y-85366661D01*
X123494800Y-85366661D01*
X123494800Y-80286661D01*
X126872758Y-80286661D01*
X127084990Y-80800303D01*
X127477630Y-81193629D01*
X127990900Y-81406757D01*
X128546661Y-81407242D01*
X129060303Y-81195010D01*
X129407719Y-80848200D01*
X130462806Y-80848200D01*
X131876800Y-82262194D01*
X131876800Y-103505000D01*
X131940604Y-103825766D01*
X132122303Y-104097697D01*
X133510806Y-105486200D01*
X132435600Y-105486200D01*
X132114835Y-105550004D01*
X131842903Y-105731703D01*
X130217303Y-107357303D01*
X130035604Y-107629234D01*
X129991373Y-107851598D01*
X129971800Y-107950000D01*
X129971800Y-122351800D01*
X129407197Y-122351800D01*
X129062370Y-122006371D01*
X128854488Y-121920051D01*
X129060303Y-121835010D01*
X129453629Y-121442370D01*
X129666757Y-120929100D01*
X129667242Y-120373339D01*
X129455010Y-119859697D01*
X129062370Y-119466371D01*
X128549100Y-119253243D01*
X127993339Y-119252758D01*
X127479697Y-119464990D01*
X127086371Y-119857630D01*
X126873243Y-120370900D01*
X126872758Y-120926661D01*
X127084990Y-121440303D01*
X127477630Y-121833629D01*
X127685512Y-121919949D01*
X127479697Y-122004990D01*
X127086371Y-122397630D01*
X126873243Y-122910900D01*
X126872758Y-123466661D01*
X127084990Y-123980303D01*
X127477630Y-124373629D01*
X127990900Y-124586757D01*
X128546661Y-124587242D01*
X129060303Y-124375010D01*
X129325024Y-124110750D01*
X134825000Y-124110750D01*
X134825000Y-124401310D01*
X134921673Y-124634699D01*
X135100302Y-124813327D01*
X135333691Y-124910000D01*
X135774250Y-124910000D01*
X135933000Y-124751250D01*
X135933000Y-123952000D01*
X134983750Y-123952000D01*
X134825000Y-124110750D01*
X129325024Y-124110750D01*
X129407719Y-124028200D01*
X130810000Y-124028200D01*
X131130765Y-123964396D01*
X131402697Y-123782697D01*
X131584396Y-123510765D01*
X131636525Y-123248690D01*
X134825000Y-123248690D01*
X134825000Y-123539250D01*
X134983750Y-123698000D01*
X135933000Y-123698000D01*
X135933000Y-122898750D01*
X135774250Y-122740000D01*
X135333691Y-122740000D01*
X135100302Y-122836673D01*
X134921673Y-123015301D01*
X134825000Y-123248690D01*
X131636525Y-123248690D01*
X131648200Y-123190000D01*
X131648200Y-120848104D01*
X131893201Y-120949838D01*
X132265167Y-120950162D01*
X132608943Y-120808117D01*
X132872192Y-120545327D01*
X133014838Y-120201799D01*
X133015162Y-119829833D01*
X132873117Y-119486057D01*
X132610327Y-119222808D01*
X132375830Y-119125436D01*
X132283200Y-119032806D01*
X132283200Y-114498104D01*
X132528201Y-114599838D01*
X132900167Y-114600162D01*
X133243943Y-114458117D01*
X133507192Y-114195327D01*
X133649838Y-113851799D01*
X133650162Y-113479833D01*
X133508117Y-113136057D01*
X133245327Y-112872808D01*
X133010830Y-112775436D01*
X132918200Y-112682806D01*
X132918200Y-109567194D01*
X133058723Y-109426671D01*
X133191883Y-109748943D01*
X133297710Y-109854954D01*
X133192808Y-109959673D01*
X133050162Y-110303201D01*
X133049838Y-110675167D01*
X133191883Y-111018943D01*
X133297710Y-111124954D01*
X133192808Y-111229673D01*
X133050162Y-111573201D01*
X133049838Y-111945167D01*
X133191883Y-112288943D01*
X133454673Y-112552192D01*
X133798201Y-112694838D01*
X134170167Y-112695162D01*
X134513943Y-112553117D01*
X134777192Y-112290327D01*
X134874564Y-112055830D01*
X136402289Y-110528105D01*
X136407857Y-110557696D01*
X136385560Y-110667800D01*
X136385560Y-110968046D01*
X136252303Y-111101303D01*
X136070604Y-111373234D01*
X136030828Y-111573201D01*
X136006800Y-111694000D01*
X136006800Y-113323693D01*
X135793559Y-113460910D01*
X135648569Y-113673110D01*
X135597560Y-113925000D01*
X135597560Y-114218362D01*
X134361149Y-115454773D01*
X134345715Y-115454760D01*
X133836485Y-115665169D01*
X133446539Y-116054436D01*
X133235241Y-116563298D01*
X133234760Y-117114285D01*
X133445169Y-117623515D01*
X133834436Y-118013461D01*
X134343298Y-118224759D01*
X134894285Y-118225240D01*
X135403515Y-118014831D01*
X135793461Y-117625564D01*
X135905200Y-117356467D01*
X135905200Y-119700000D01*
X135976738Y-120059646D01*
X136180461Y-120364539D01*
X137375385Y-121559463D01*
X137514311Y-121895689D01*
X137817714Y-122199622D01*
X138214332Y-122364313D01*
X138643784Y-122364687D01*
X139040689Y-122200689D01*
X139344622Y-121897286D01*
X139509313Y-121500668D01*
X139509687Y-121071216D01*
X139345689Y-120674311D01*
X139042286Y-120370378D01*
X138703977Y-120229899D01*
X137784800Y-119310722D01*
X137784800Y-115212825D01*
X137785302Y-115213327D01*
X138018691Y-115310000D01*
X138459250Y-115310000D01*
X138618000Y-115151250D01*
X138618000Y-114427000D01*
X138872000Y-114427000D01*
X138872000Y-115151250D01*
X139030750Y-115310000D01*
X139471309Y-115310000D01*
X139704698Y-115213327D01*
X139883327Y-115034699D01*
X139980000Y-114801310D01*
X139980000Y-114585750D01*
X139821250Y-114427000D01*
X138872000Y-114427000D01*
X138618000Y-114427000D01*
X138598000Y-114427000D01*
X138598000Y-114173000D01*
X138618000Y-114173000D01*
X138618000Y-113448750D01*
X138872000Y-113448750D01*
X138872000Y-114173000D01*
X139821250Y-114173000D01*
X139980000Y-114014250D01*
X139980000Y-113798690D01*
X141325000Y-113798690D01*
X141325000Y-114014250D01*
X141483750Y-114173000D01*
X142433000Y-114173000D01*
X142433000Y-113448750D01*
X142274250Y-113290000D01*
X141833691Y-113290000D01*
X141600302Y-113386673D01*
X141421673Y-113565301D01*
X141325000Y-113798690D01*
X139980000Y-113798690D01*
X139883327Y-113565301D01*
X139704698Y-113386673D01*
X139471309Y-113290000D01*
X139030750Y-113290000D01*
X138872000Y-113448750D01*
X138618000Y-113448750D01*
X138459250Y-113290000D01*
X138018691Y-113290000D01*
X137785302Y-113386673D01*
X137783932Y-113388043D01*
X137696890Y-113328569D01*
X137683200Y-113325797D01*
X137683200Y-112041194D01*
X138002754Y-111721640D01*
X138303000Y-111721640D01*
X138538317Y-111677362D01*
X138754441Y-111538290D01*
X138899431Y-111326090D01*
X138950440Y-111074200D01*
X138962044Y-111074200D01*
X139169673Y-111282192D01*
X139513201Y-111424838D01*
X139885167Y-111425162D01*
X140228943Y-111283117D01*
X140492192Y-111020327D01*
X140634838Y-110676799D01*
X140635162Y-110304833D01*
X140493117Y-109961057D01*
X140230327Y-109697808D01*
X139939595Y-109577085D01*
X139766766Y-109461604D01*
X139446000Y-109397800D01*
X138950440Y-109397800D01*
X138950440Y-109372400D01*
X138928143Y-109253904D01*
X138950440Y-109143800D01*
X138950440Y-108737400D01*
X138925666Y-108605738D01*
X138950440Y-108483400D01*
X138950440Y-108385834D01*
X139437503Y-108872897D01*
X139709434Y-109054596D01*
X140030200Y-109118400D01*
X141719560Y-109118400D01*
X141719560Y-109143800D01*
X141741857Y-109262296D01*
X141719560Y-109372400D01*
X141719560Y-109778800D01*
X141744334Y-109910462D01*
X141719560Y-110032800D01*
X141719560Y-110439200D01*
X141741857Y-110557696D01*
X141719560Y-110667800D01*
X141719560Y-111074200D01*
X141763838Y-111309517D01*
X141902910Y-111525641D01*
X142115110Y-111670631D01*
X142367000Y-111721640D01*
X142667246Y-111721640D01*
X143621800Y-112676194D01*
X143621800Y-113323693D01*
X143521354Y-113388329D01*
X143519698Y-113386673D01*
X143286309Y-113290000D01*
X142845750Y-113290000D01*
X142687000Y-113448750D01*
X142687000Y-114173000D01*
X142707000Y-114173000D01*
X142707000Y-114427000D01*
X142687000Y-114427000D01*
X142687000Y-114447000D01*
X142433000Y-114447000D01*
X142433000Y-114427000D01*
X141483750Y-114427000D01*
X141325000Y-114585750D01*
X141325000Y-114801310D01*
X141421673Y-115034699D01*
X141600302Y-115213327D01*
X141725534Y-115265200D01*
X141605000Y-115265200D01*
X141245354Y-115336738D01*
X140940461Y-115540461D01*
X140625461Y-115855461D01*
X140421738Y-116160354D01*
X140350200Y-116520000D01*
X140350200Y-118223819D01*
X140317560Y-118385000D01*
X140317560Y-119445000D01*
X140361838Y-119680317D01*
X140500910Y-119896441D01*
X140676232Y-120016233D01*
X140513559Y-120120910D01*
X140368569Y-120333110D01*
X140317560Y-120585000D01*
X140317560Y-121645000D01*
X140350200Y-121818466D01*
X140350200Y-122763273D01*
X140304683Y-122771838D01*
X140128513Y-122885200D01*
X139267950Y-122885200D01*
X139111890Y-122778569D01*
X138860000Y-122727560D01*
X137660000Y-122727560D01*
X137424683Y-122771838D01*
X137208559Y-122910910D01*
X137162031Y-122979006D01*
X137019698Y-122836673D01*
X136786309Y-122740000D01*
X136345750Y-122740000D01*
X136187000Y-122898750D01*
X136187000Y-123698000D01*
X136207000Y-123698000D01*
X136207000Y-123952000D01*
X136187000Y-123952000D01*
X136187000Y-124751250D01*
X136345750Y-124910000D01*
X136786309Y-124910000D01*
X137019698Y-124813327D01*
X137160936Y-124672090D01*
X137195910Y-124726441D01*
X137408110Y-124871431D01*
X137660000Y-124922440D01*
X138860000Y-124922440D01*
X139095317Y-124878162D01*
X139271487Y-124764800D01*
X140132050Y-124764800D01*
X140288110Y-124871431D01*
X140540000Y-124922440D01*
X141740000Y-124922440D01*
X141975317Y-124878162D01*
X142191441Y-124739090D01*
X142239134Y-124669289D01*
X142275910Y-124726441D01*
X142400200Y-124811365D01*
X142400200Y-125378273D01*
X142354683Y-125386838D01*
X142251354Y-125453329D01*
X142249698Y-125451673D01*
X142016309Y-125355000D01*
X141575750Y-125355000D01*
X141417000Y-125513750D01*
X141417000Y-126238000D01*
X141437000Y-126238000D01*
X141437000Y-126492000D01*
X141417000Y-126492000D01*
X141417000Y-127216250D01*
X141575750Y-127375000D01*
X142016309Y-127375000D01*
X142249698Y-127278327D01*
X142251068Y-127276957D01*
X142338110Y-127336431D01*
X142590000Y-127387440D01*
X143790000Y-127387440D01*
X144025317Y-127343162D01*
X144241441Y-127204090D01*
X144386431Y-126991890D01*
X144437440Y-126740000D01*
X144437440Y-125990000D01*
X144393162Y-125754683D01*
X144279800Y-125578513D01*
X144279800Y-124810929D01*
X144351487Y-124764800D01*
X144863349Y-124764800D01*
X145199332Y-124904313D01*
X145628784Y-124904687D01*
X146025689Y-124740689D01*
X146329622Y-124437286D01*
X146380200Y-124315481D01*
X146380200Y-127245722D01*
X145470874Y-128155048D01*
X145140715Y-128154760D01*
X144631485Y-128365169D01*
X144241539Y-128754436D01*
X144030241Y-129263298D01*
X144029760Y-129814285D01*
X144240169Y-130323515D01*
X144629436Y-130713461D01*
X145138298Y-130924759D01*
X145689285Y-130925240D01*
X146198515Y-130714831D01*
X146588461Y-130325564D01*
X146799759Y-129816702D01*
X146800049Y-129484029D01*
X147687115Y-128596963D01*
X149478714Y-128596963D01*
X149729534Y-129203995D01*
X150193563Y-129668834D01*
X150800155Y-129920713D01*
X151456963Y-129921286D01*
X152063995Y-129670466D01*
X152528834Y-129206437D01*
X152780713Y-128599845D01*
X152781286Y-127943037D01*
X152530466Y-127336005D01*
X152066437Y-126871166D01*
X151459845Y-126619287D01*
X150803037Y-126618714D01*
X150196005Y-126869534D01*
X149731166Y-127333563D01*
X149479287Y-127940155D01*
X149478714Y-128596963D01*
X147687115Y-128596963D01*
X147984539Y-128299539D01*
X148188262Y-127994646D01*
X148259800Y-127635000D01*
X148259800Y-122235000D01*
X148188262Y-121875354D01*
X147984539Y-121570461D01*
X147079091Y-120665013D01*
X150329392Y-120665013D01*
X150398857Y-120907197D01*
X150922302Y-121093944D01*
X151477368Y-121066162D01*
X151861143Y-120907197D01*
X151930608Y-120665013D01*
X151130000Y-119864405D01*
X150329392Y-120665013D01*
X147079091Y-120665013D01*
X147072440Y-120658362D01*
X147072440Y-120365000D01*
X147028162Y-120129683D01*
X146961671Y-120026354D01*
X146963327Y-120024698D01*
X147060000Y-119791309D01*
X147060000Y-119477102D01*
X149720856Y-119477102D01*
X149748638Y-120032168D01*
X149907603Y-120415943D01*
X150149787Y-120485408D01*
X150950395Y-119684800D01*
X151309605Y-119684800D01*
X152110213Y-120485408D01*
X152352397Y-120415943D01*
X152539144Y-119892498D01*
X152511362Y-119337432D01*
X152352397Y-118953657D01*
X152110213Y-118884192D01*
X151309605Y-119684800D01*
X150950395Y-119684800D01*
X150149787Y-118884192D01*
X149907603Y-118953657D01*
X149720856Y-119477102D01*
X147060000Y-119477102D01*
X147060000Y-119350750D01*
X146901250Y-119192000D01*
X146177000Y-119192000D01*
X146177000Y-119212000D01*
X145923000Y-119212000D01*
X145923000Y-119192000D01*
X145903000Y-119192000D01*
X145903000Y-118938000D01*
X145923000Y-118938000D01*
X145923000Y-117988750D01*
X146177000Y-117988750D01*
X146177000Y-118938000D01*
X146901250Y-118938000D01*
X147060000Y-118779250D01*
X147060000Y-118704587D01*
X150329392Y-118704587D01*
X151130000Y-119505195D01*
X151930608Y-118704587D01*
X151861143Y-118462403D01*
X151337698Y-118275656D01*
X150782632Y-118303438D01*
X150398857Y-118462403D01*
X150329392Y-118704587D01*
X147060000Y-118704587D01*
X147060000Y-118338691D01*
X146963327Y-118105302D01*
X146784699Y-117926673D01*
X146551310Y-117830000D01*
X146335750Y-117830000D01*
X146177000Y-117988750D01*
X145923000Y-117988750D01*
X145764250Y-117830000D01*
X145719800Y-117830000D01*
X145719800Y-115239800D01*
X146912920Y-115239800D01*
X147039311Y-115545689D01*
X147342714Y-115849622D01*
X147739332Y-116014313D01*
X148168784Y-116014687D01*
X148565689Y-115850689D01*
X148869622Y-115547286D01*
X149034313Y-115150668D01*
X149034687Y-114721216D01*
X148870689Y-114324311D01*
X148567286Y-114020378D01*
X148228977Y-113879899D01*
X147984539Y-113635461D01*
X147679646Y-113431738D01*
X147395476Y-113375213D01*
X150964392Y-113375213D01*
X151033857Y-113617397D01*
X151557302Y-113804144D01*
X152112368Y-113776362D01*
X152496143Y-113617397D01*
X152565608Y-113375213D01*
X151765000Y-112574605D01*
X150964392Y-113375213D01*
X147395476Y-113375213D01*
X147320000Y-113360200D01*
X145358184Y-113360200D01*
X145311890Y-113328569D01*
X145298200Y-113325797D01*
X145298200Y-112329000D01*
X145292204Y-112298857D01*
X145270015Y-112187302D01*
X150355856Y-112187302D01*
X150383638Y-112742368D01*
X150542603Y-113126143D01*
X150784787Y-113195608D01*
X151585395Y-112395000D01*
X151944605Y-112395000D01*
X152745213Y-113195608D01*
X152987397Y-113126143D01*
X153174144Y-112602698D01*
X153146362Y-112047632D01*
X152987397Y-111663857D01*
X152745213Y-111594392D01*
X151944605Y-112395000D01*
X151585395Y-112395000D01*
X150784787Y-111594392D01*
X150542603Y-111663857D01*
X150355856Y-112187302D01*
X145270015Y-112187302D01*
X145234396Y-112008234D01*
X145052697Y-111736303D01*
X144390594Y-111074200D01*
X146939000Y-111074200D01*
X147259766Y-111010396D01*
X147531697Y-110828697D01*
X148228733Y-110131661D01*
X150367758Y-110131661D01*
X150579990Y-110645303D01*
X150972630Y-111038629D01*
X151164727Y-111118395D01*
X151033857Y-111172603D01*
X150964392Y-111414787D01*
X151765000Y-112215395D01*
X152565608Y-111414787D01*
X152496143Y-111172603D01*
X152355682Y-111122491D01*
X152555303Y-111040010D01*
X152948629Y-110647370D01*
X153161757Y-110134100D01*
X153162242Y-109578339D01*
X152950010Y-109064697D01*
X152557370Y-108671371D01*
X152044100Y-108458243D01*
X151488339Y-108457758D01*
X150974697Y-108669990D01*
X150581371Y-109062630D01*
X150368243Y-109575900D01*
X150367758Y-110131661D01*
X148228733Y-110131661D01*
X148547697Y-109812697D01*
X148729396Y-109540766D01*
X148793200Y-109220000D01*
X148793200Y-102511661D01*
X150367758Y-102511661D01*
X150579990Y-103025303D01*
X150972630Y-103418629D01*
X151180512Y-103504949D01*
X150974697Y-103589990D01*
X150581371Y-103982630D01*
X150368243Y-104495900D01*
X150367758Y-105051661D01*
X150579990Y-105565303D01*
X150972630Y-105958629D01*
X151485900Y-106171757D01*
X152041661Y-106172242D01*
X152555303Y-105960010D01*
X152948629Y-105567370D01*
X153161757Y-105054100D01*
X153162242Y-104498339D01*
X152950010Y-103984697D01*
X152557370Y-103591371D01*
X152349488Y-103505051D01*
X152555303Y-103420010D01*
X152948629Y-103027370D01*
X153161757Y-102514100D01*
X153162242Y-101958339D01*
X152950010Y-101444697D01*
X152557370Y-101051371D01*
X152044100Y-100838243D01*
X151488339Y-100837758D01*
X150974697Y-101049990D01*
X150581371Y-101442630D01*
X150368243Y-101955900D01*
X150367758Y-102511661D01*
X148793200Y-102511661D01*
X148793200Y-93036963D01*
X149478714Y-93036963D01*
X149729534Y-93643995D01*
X150193563Y-94108834D01*
X150800155Y-94360713D01*
X151456963Y-94361286D01*
X152063995Y-94110466D01*
X152528834Y-93646437D01*
X152780713Y-93039845D01*
X152781286Y-92383037D01*
X152530466Y-91776005D01*
X152066437Y-91311166D01*
X151459845Y-91059287D01*
X150803037Y-91058714D01*
X150196005Y-91309534D01*
X149731166Y-91773563D01*
X149479287Y-92380155D01*
X149478714Y-93036963D01*
X148793200Y-93036963D01*
X148793200Y-88262261D01*
X149732758Y-88262261D01*
X149944990Y-88775903D01*
X150337630Y-89169229D01*
X150850900Y-89382357D01*
X151406661Y-89382842D01*
X151920303Y-89170610D01*
X152013275Y-89077800D01*
X154423722Y-89077800D01*
X156540200Y-91194278D01*
X156540200Y-116958722D01*
X151350130Y-122148792D01*
X150853339Y-122148358D01*
X150339697Y-122360590D01*
X149946371Y-122753230D01*
X149733243Y-123266500D01*
X149732758Y-123822261D01*
X149944990Y-124335903D01*
X150337630Y-124729229D01*
X150850900Y-124942357D01*
X151406661Y-124942842D01*
X151920303Y-124730610D01*
X152313629Y-124337970D01*
X152526757Y-123824700D01*
X152526927Y-123630151D01*
X158144539Y-118012539D01*
X158348262Y-117707646D01*
X158419800Y-117348000D01*
X158419800Y-102638661D01*
X174497758Y-102638661D01*
X174709990Y-103152303D01*
X175102630Y-103545629D01*
X175615900Y-103758757D01*
X176171661Y-103759242D01*
X176685303Y-103547010D01*
X176778275Y-103454200D01*
X178790600Y-103454200D01*
X179150246Y-103382662D01*
X179455139Y-103178939D01*
X183904278Y-98729800D01*
X200605490Y-98729800D01*
X200685585Y-98849670D01*
X201000366Y-99060000D01*
X200685585Y-99270330D01*
X200605490Y-99390200D01*
X195808600Y-99390200D01*
X195448954Y-99461738D01*
X195354276Y-99525000D01*
X195144061Y-99665461D01*
X191161962Y-103647560D01*
X188343600Y-103647560D01*
X188108283Y-103691838D01*
X187892159Y-103830910D01*
X187747169Y-104043110D01*
X187696160Y-104295000D01*
X187696160Y-107795000D01*
X187740438Y-108030317D01*
X187879510Y-108246441D01*
X188091710Y-108391431D01*
X188160550Y-108405372D01*
X187808362Y-108757560D01*
X187190000Y-108757560D01*
X186954683Y-108801838D01*
X186738559Y-108940910D01*
X186690866Y-109010711D01*
X186654090Y-108953559D01*
X186441890Y-108808569D01*
X186190000Y-108757560D01*
X185571638Y-108757560D01*
X185221659Y-108407581D01*
X185271717Y-108398162D01*
X185487841Y-108259090D01*
X185632831Y-108046890D01*
X185683840Y-107795000D01*
X185683840Y-104295000D01*
X185639562Y-104059683D01*
X185500490Y-103843559D01*
X185288290Y-103698569D01*
X185036400Y-103647560D01*
X181536400Y-103647560D01*
X181301083Y-103691838D01*
X181084959Y-103830910D01*
X180939969Y-104043110D01*
X180888960Y-104295000D01*
X180888960Y-105435400D01*
X177081209Y-105435400D01*
X177080010Y-105432497D01*
X176687370Y-105039171D01*
X176174100Y-104826043D01*
X175618339Y-104825558D01*
X175104697Y-105037790D01*
X174711371Y-105430430D01*
X174498243Y-105943700D01*
X174497758Y-106499461D01*
X174709990Y-107013103D01*
X175102630Y-107406429D01*
X175615900Y-107619557D01*
X176171661Y-107620042D01*
X176685303Y-107407810D01*
X176778275Y-107315000D01*
X180888960Y-107315000D01*
X180888960Y-107795000D01*
X180933238Y-108030317D01*
X181072310Y-108246441D01*
X181284510Y-108391431D01*
X181536400Y-108442440D01*
X182606159Y-108442440D01*
X182621861Y-108465939D01*
X184342560Y-110186638D01*
X184342560Y-110305000D01*
X184386838Y-110540317D01*
X184525910Y-110756441D01*
X184619224Y-110820200D01*
X177292156Y-110820200D01*
X177292242Y-110721339D01*
X177080010Y-110207697D01*
X176687370Y-109814371D01*
X176174100Y-109601243D01*
X175618339Y-109600758D01*
X175104697Y-109812990D01*
X174711371Y-110205630D01*
X174498243Y-110718900D01*
X174497758Y-111274661D01*
X174709990Y-111788303D01*
X175102630Y-112181629D01*
X175615900Y-112394757D01*
X175810449Y-112394927D01*
X175840061Y-112424539D01*
X176144954Y-112628262D01*
X176504600Y-112699800D01*
X181117765Y-112699800D01*
X181084959Y-112720910D01*
X180939969Y-112933110D01*
X180888960Y-113185000D01*
X180888960Y-114071400D01*
X177081209Y-114071400D01*
X177080010Y-114068497D01*
X176687370Y-113675171D01*
X176174100Y-113462043D01*
X175618339Y-113461558D01*
X175104697Y-113673790D01*
X174711371Y-114066430D01*
X174498243Y-114579700D01*
X174497758Y-115135461D01*
X174709990Y-115649103D01*
X175102630Y-116042429D01*
X175615900Y-116255557D01*
X176171661Y-116256042D01*
X176685303Y-116043810D01*
X176778275Y-115951000D01*
X180888960Y-115951000D01*
X180888960Y-116685000D01*
X180933238Y-116920317D01*
X181072310Y-117136441D01*
X181284510Y-117281431D01*
X181536400Y-117332440D01*
X182606159Y-117332440D01*
X182621861Y-117355939D01*
X184342560Y-119076638D01*
X184342560Y-119195000D01*
X184386838Y-119430317D01*
X184525910Y-119646441D01*
X184619224Y-119710200D01*
X177291934Y-119710200D01*
X177292242Y-119357339D01*
X177080010Y-118843697D01*
X176687370Y-118450371D01*
X176174100Y-118237243D01*
X175618339Y-118236758D01*
X175104697Y-118448990D01*
X174711371Y-118841630D01*
X174498243Y-119354900D01*
X174497758Y-119910661D01*
X174709990Y-120424303D01*
X175102630Y-120817629D01*
X175615900Y-121030757D01*
X175810449Y-121030927D01*
X176094061Y-121314539D01*
X176398954Y-121518262D01*
X176758600Y-121589800D01*
X181117765Y-121589800D01*
X181084959Y-121610910D01*
X180939969Y-121823110D01*
X180888960Y-122075000D01*
X180888960Y-122707400D01*
X177081209Y-122707400D01*
X177080010Y-122704497D01*
X176687370Y-122311171D01*
X176174100Y-122098043D01*
X175618339Y-122097558D01*
X175104697Y-122309790D01*
X174711371Y-122702430D01*
X174498243Y-123215700D01*
X174497758Y-123771461D01*
X174709990Y-124285103D01*
X175102630Y-124678429D01*
X175615900Y-124891557D01*
X176171661Y-124892042D01*
X176685303Y-124679810D01*
X176778275Y-124587000D01*
X180888960Y-124587000D01*
X180888960Y-125575000D01*
X180933238Y-125810317D01*
X181072310Y-126026441D01*
X181284510Y-126171431D01*
X181536400Y-126222440D01*
X182606159Y-126222440D01*
X182621861Y-126245939D01*
X184342560Y-127966638D01*
X184342560Y-128085000D01*
X184386838Y-128320317D01*
X184525910Y-128536441D01*
X184738110Y-128681431D01*
X184990000Y-128732440D01*
X186190000Y-128732440D01*
X186425317Y-128688162D01*
X186641441Y-128549090D01*
X186689134Y-128479289D01*
X186725910Y-128536441D01*
X186938110Y-128681431D01*
X187190000Y-128732440D01*
X188390000Y-128732440D01*
X188625317Y-128688162D01*
X188695026Y-128643305D01*
X193059674Y-128643305D01*
X193346043Y-129336372D01*
X193875839Y-129867093D01*
X194568405Y-130154672D01*
X195318305Y-130155326D01*
X196011372Y-129868957D01*
X196542093Y-129339161D01*
X196829672Y-128646595D01*
X196830326Y-127896695D01*
X196543957Y-127203628D01*
X196014161Y-126672907D01*
X195321595Y-126385328D01*
X194571695Y-126384674D01*
X193878628Y-126671043D01*
X193347907Y-127200839D01*
X193060328Y-127893405D01*
X193059674Y-128643305D01*
X188695026Y-128643305D01*
X188841441Y-128549090D01*
X188986431Y-128336890D01*
X189037440Y-128085000D01*
X189037440Y-127966638D01*
X190758139Y-126245939D01*
X190773841Y-126222440D01*
X191843600Y-126222440D01*
X192078917Y-126178162D01*
X192295041Y-126039090D01*
X192440031Y-125826890D01*
X192491040Y-125575000D01*
X192491040Y-124764800D01*
X197095722Y-124764800D01*
X198450200Y-126119278D01*
X198450200Y-127635000D01*
X198521738Y-127994646D01*
X198725461Y-128299539D01*
X199995461Y-129569539D01*
X200266560Y-129750682D01*
X200266560Y-129768600D01*
X200310838Y-130003917D01*
X200449910Y-130220041D01*
X200662110Y-130365031D01*
X200914000Y-130416040D01*
X202946000Y-130416040D01*
X203181317Y-130371762D01*
X203397441Y-130232690D01*
X203542431Y-130020490D01*
X203578009Y-129844800D01*
X212980898Y-129844800D01*
X213010838Y-130003917D01*
X213149910Y-130220041D01*
X213362110Y-130365031D01*
X213614000Y-130416040D01*
X215646000Y-130416040D01*
X215881317Y-130371762D01*
X216097441Y-130232690D01*
X216242431Y-130020490D01*
X216293440Y-129768600D01*
X216293440Y-128041400D01*
X216249162Y-127806083D01*
X216110090Y-127589959D01*
X215897890Y-127444969D01*
X215856561Y-127436600D01*
X215874415Y-127424670D01*
X216199271Y-126938489D01*
X216313345Y-126365000D01*
X216199271Y-125791511D01*
X215874415Y-125305330D01*
X215559634Y-125095000D01*
X215874415Y-124884670D01*
X216199271Y-124398489D01*
X216313345Y-123825000D01*
X216199271Y-123251511D01*
X215874415Y-122765330D01*
X215559634Y-122555000D01*
X215874415Y-122344670D01*
X216199271Y-121858489D01*
X216313345Y-121285000D01*
X216199271Y-120711511D01*
X215874415Y-120225330D01*
X215559634Y-120015000D01*
X215874415Y-119804670D01*
X216199271Y-119318489D01*
X216313345Y-118745000D01*
X216199271Y-118171511D01*
X215874415Y-117685330D01*
X215559634Y-117475000D01*
X215874415Y-117264670D01*
X216199271Y-116778489D01*
X216313345Y-116205000D01*
X216199271Y-115631511D01*
X215874415Y-115145330D01*
X215388234Y-114820474D01*
X214814745Y-114706400D01*
X214445255Y-114706400D01*
X213871766Y-114820474D01*
X213385585Y-115145330D01*
X213305490Y-115265200D01*
X203254510Y-115265200D01*
X203174415Y-115145330D01*
X202688234Y-114820474D01*
X202114745Y-114706400D01*
X201745255Y-114706400D01*
X201171766Y-114820474D01*
X200685585Y-115145330D01*
X200360729Y-115631511D01*
X200246655Y-116205000D01*
X200360729Y-116778489D01*
X200685585Y-117264670D01*
X201000366Y-117475000D01*
X200685585Y-117685330D01*
X200360729Y-118171511D01*
X200246655Y-118745000D01*
X200360729Y-119318489D01*
X200685585Y-119804670D01*
X201000366Y-120015000D01*
X200685585Y-120225330D01*
X200360729Y-120711511D01*
X200246655Y-121285000D01*
X200360729Y-121858489D01*
X200685585Y-122344670D01*
X201000366Y-122555000D01*
X200685585Y-122765330D01*
X200360729Y-123251511D01*
X200246655Y-123825000D01*
X200360729Y-124398489D01*
X200685585Y-124884670D01*
X201000366Y-125095000D01*
X200685585Y-125305330D01*
X200360729Y-125791511D01*
X200329800Y-125947002D01*
X200329800Y-125730000D01*
X200258262Y-125370354D01*
X200054539Y-125065461D01*
X198149539Y-123160461D01*
X197844646Y-122956738D01*
X197485000Y-122885200D01*
X195943878Y-122885200D01*
X196879539Y-121949539D01*
X197083262Y-121644646D01*
X197154800Y-121285000D01*
X197154800Y-113419278D01*
X199144278Y-111429800D01*
X200280898Y-111429800D01*
X200310838Y-111588917D01*
X200449910Y-111805041D01*
X200662110Y-111950031D01*
X200914000Y-112001040D01*
X202946000Y-112001040D01*
X203181317Y-111956762D01*
X203397441Y-111817690D01*
X203542431Y-111605490D01*
X203578009Y-111429800D01*
X212980898Y-111429800D01*
X213010838Y-111588917D01*
X213149910Y-111805041D01*
X213362110Y-111950031D01*
X213614000Y-112001040D01*
X215646000Y-112001040D01*
X215881317Y-111956762D01*
X216097441Y-111817690D01*
X216242431Y-111605490D01*
X216293440Y-111353600D01*
X216293440Y-109626400D01*
X216249162Y-109391083D01*
X216110090Y-109174959D01*
X215897890Y-109029969D01*
X215856561Y-109021600D01*
X215874415Y-109009670D01*
X216199271Y-108523489D01*
X216313345Y-107950000D01*
X216199271Y-107376511D01*
X215874415Y-106890330D01*
X215559634Y-106680000D01*
X215874415Y-106469670D01*
X216199271Y-105983489D01*
X216313345Y-105410000D01*
X216199271Y-104836511D01*
X215874415Y-104350330D01*
X215559634Y-104140000D01*
X215874415Y-103929670D01*
X216199271Y-103443489D01*
X216313345Y-102870000D01*
X216199271Y-102296511D01*
X215874415Y-101810330D01*
X215559634Y-101600000D01*
X215874415Y-101389670D01*
X216199271Y-100903489D01*
X216313345Y-100330000D01*
X216199271Y-99756511D01*
X215874415Y-99270330D01*
X215559634Y-99060000D01*
X215874415Y-98849670D01*
X216199271Y-98363489D01*
X216313345Y-97790000D01*
X216199271Y-97216511D01*
X215874415Y-96730330D01*
X215388234Y-96405474D01*
X214814745Y-96291400D01*
X214445255Y-96291400D01*
X213871766Y-96405474D01*
X213385585Y-96730330D01*
X213305490Y-96850200D01*
X203254510Y-96850200D01*
X203174415Y-96730330D01*
X202688234Y-96405474D01*
X202114745Y-96291400D01*
X201745255Y-96291400D01*
X201171766Y-96405474D01*
X200685585Y-96730330D01*
X200605490Y-96850200D01*
X183515000Y-96850200D01*
X183155354Y-96921738D01*
X182850461Y-97125461D01*
X178401322Y-101574600D01*
X177081209Y-101574600D01*
X177080010Y-101571697D01*
X176687370Y-101178371D01*
X176174100Y-100965243D01*
X175618339Y-100964758D01*
X175104697Y-101176990D01*
X174711371Y-101569630D01*
X174498243Y-102082900D01*
X174497758Y-102638661D01*
X158419800Y-102638661D01*
X158419800Y-97481963D01*
X174243714Y-97481963D01*
X174494534Y-98088995D01*
X174958563Y-98553834D01*
X175565155Y-98805713D01*
X176221963Y-98806286D01*
X176828995Y-98555466D01*
X177293834Y-98091437D01*
X177545713Y-97484845D01*
X177546286Y-96828037D01*
X177295466Y-96221005D01*
X176831437Y-95756166D01*
X176224845Y-95504287D01*
X175568037Y-95503714D01*
X174961005Y-95754534D01*
X174496166Y-96218563D01*
X174244287Y-96825155D01*
X174243714Y-97481963D01*
X158419800Y-97481963D01*
X158419800Y-90805000D01*
X158348262Y-90445354D01*
X158144539Y-90140461D01*
X155477539Y-87473461D01*
X155172646Y-87269738D01*
X154813000Y-87198200D01*
X152316209Y-87198200D01*
X152315010Y-87195297D01*
X151922370Y-86801971D01*
X151409100Y-86588843D01*
X150853339Y-86588358D01*
X150339697Y-86800590D01*
X149946371Y-87193230D01*
X149733243Y-87706500D01*
X149732758Y-88262261D01*
X148793200Y-88262261D01*
X148793200Y-85105013D01*
X150329392Y-85105013D01*
X150398857Y-85347197D01*
X150922302Y-85533944D01*
X151477368Y-85506162D01*
X151861143Y-85347197D01*
X151930608Y-85105013D01*
X151130000Y-84304405D01*
X150329392Y-85105013D01*
X148793200Y-85105013D01*
X148793200Y-83917102D01*
X149720856Y-83917102D01*
X149748638Y-84472168D01*
X149907603Y-84855943D01*
X150149787Y-84925408D01*
X150950395Y-84124800D01*
X151309605Y-84124800D01*
X152110213Y-84925408D01*
X152352397Y-84855943D01*
X152539144Y-84332498D01*
X152511362Y-83777432D01*
X152352397Y-83393657D01*
X152110213Y-83324192D01*
X151309605Y-84124800D01*
X150950395Y-84124800D01*
X150149787Y-83324192D01*
X149907603Y-83393657D01*
X149720856Y-83917102D01*
X148793200Y-83917102D01*
X148793200Y-83144587D01*
X150329392Y-83144587D01*
X151130000Y-83945195D01*
X151930608Y-83144587D01*
X151861143Y-82902403D01*
X151337698Y-82715656D01*
X150782632Y-82743438D01*
X150398857Y-82902403D01*
X150329392Y-83144587D01*
X148793200Y-83144587D01*
X148793200Y-80357194D01*
X149817697Y-79332697D01*
X149999396Y-79060766D01*
X150063200Y-78740000D01*
X150063200Y-77815213D01*
X150964392Y-77815213D01*
X151033857Y-78057397D01*
X151557302Y-78244144D01*
X152112368Y-78216362D01*
X152496143Y-78057397D01*
X152565608Y-77815213D01*
X151765000Y-77014605D01*
X150964392Y-77815213D01*
X150063200Y-77815213D01*
X150063200Y-76627302D01*
X150355856Y-76627302D01*
X150383638Y-77182368D01*
X150542603Y-77566143D01*
X150784787Y-77635608D01*
X151585395Y-76835000D01*
X151944605Y-76835000D01*
X152745213Y-77635608D01*
X152987397Y-77566143D01*
X153174144Y-77042698D01*
X153146362Y-76487632D01*
X152987397Y-76103857D01*
X152745213Y-76034392D01*
X151944605Y-76835000D01*
X151585395Y-76835000D01*
X150784787Y-76034392D01*
X150542603Y-76103857D01*
X150355856Y-76627302D01*
X150063200Y-76627302D01*
X150063200Y-74571661D01*
X150367758Y-74571661D01*
X150579990Y-75085303D01*
X150972630Y-75478629D01*
X151164727Y-75558395D01*
X151033857Y-75612603D01*
X150964392Y-75854787D01*
X151765000Y-76655395D01*
X152565608Y-75854787D01*
X152496143Y-75612603D01*
X152355682Y-75562491D01*
X152555303Y-75480010D01*
X152948629Y-75087370D01*
X153161757Y-74574100D01*
X153162242Y-74018339D01*
X152950010Y-73504697D01*
X152557370Y-73111371D01*
X152044100Y-72898243D01*
X151488339Y-72897758D01*
X150974697Y-73109990D01*
X150581371Y-73502630D01*
X150368243Y-74015900D01*
X150367758Y-74571661D01*
X150063200Y-74571661D01*
X150063200Y-72102194D01*
X151553578Y-70611816D01*
X152041661Y-70612242D01*
X152555303Y-70400010D01*
X152948629Y-70007370D01*
X153161757Y-69494100D01*
X153162242Y-68938339D01*
X152950010Y-68424697D01*
X152557370Y-68031371D01*
X152349488Y-67945051D01*
X152555303Y-67860010D01*
X152948629Y-67467370D01*
X153161757Y-66954100D01*
X153162242Y-66398339D01*
X152950010Y-65884697D01*
X152557370Y-65491371D01*
X152044100Y-65278243D01*
X151488339Y-65277758D01*
X150974697Y-65489990D01*
X150627281Y-65836800D01*
X149860000Y-65836800D01*
X149539235Y-65900604D01*
X149267303Y-66082303D01*
X145457303Y-69892303D01*
X145275604Y-70164234D01*
X145217676Y-70455461D01*
X145211800Y-70485000D01*
X145211800Y-89115472D01*
X145115162Y-89348201D01*
X145114838Y-89720167D01*
X145256883Y-90063943D01*
X145519673Y-90327192D01*
X145863201Y-90469838D01*
X146235167Y-90470162D01*
X146481800Y-90368256D01*
X146481800Y-96554752D01*
X146403327Y-96365302D01*
X146224699Y-96186673D01*
X145991310Y-96090000D01*
X145700750Y-96090000D01*
X145542000Y-96248750D01*
X145542000Y-97198000D01*
X145562000Y-97198000D01*
X145562000Y-97452000D01*
X145542000Y-97452000D01*
X145542000Y-97472000D01*
X145288000Y-97472000D01*
X145288000Y-97452000D01*
X145268000Y-97452000D01*
X145268000Y-97198000D01*
X145288000Y-97198000D01*
X145288000Y-96248750D01*
X145129250Y-96090000D01*
X144838690Y-96090000D01*
X144605301Y-96186673D01*
X144461022Y-96330953D01*
X144424090Y-96273559D01*
X144348200Y-96221706D01*
X144348200Y-95250000D01*
X144284396Y-94929235D01*
X144284396Y-94929234D01*
X144102697Y-94657303D01*
X141935730Y-92490336D01*
X142018345Y-92075000D01*
X141904271Y-91501511D01*
X141579415Y-91015330D01*
X141264634Y-90805000D01*
X141579415Y-90594670D01*
X141904271Y-90108489D01*
X142018345Y-89535000D01*
X141904271Y-88961511D01*
X141579415Y-88475330D01*
X141264634Y-88265000D01*
X141579415Y-88054670D01*
X141904271Y-87568489D01*
X142018345Y-86995000D01*
X141904271Y-86421511D01*
X141579415Y-85935330D01*
X141264634Y-85725000D01*
X141579415Y-85514670D01*
X141904271Y-85028489D01*
X142018345Y-84455000D01*
X141904271Y-83881511D01*
X141579415Y-83395330D01*
X141269931Y-83188539D01*
X141685732Y-82817036D01*
X141939709Y-82289791D01*
X141942358Y-82274026D01*
X141821217Y-82042000D01*
X140462000Y-82042000D01*
X140462000Y-82062000D01*
X140208000Y-82062000D01*
X140208000Y-82042000D01*
X138848783Y-82042000D01*
X138727642Y-82274026D01*
X138730291Y-82289791D01*
X138984268Y-82817036D01*
X139400069Y-83188539D01*
X139090585Y-83395330D01*
X138765729Y-83881511D01*
X138651655Y-84455000D01*
X138765729Y-85028489D01*
X139090585Y-85514670D01*
X139405366Y-85725000D01*
X139090585Y-85935330D01*
X138942603Y-86156800D01*
X137795000Y-86156800D01*
X137474234Y-86220604D01*
X137202303Y-86402303D01*
X135932303Y-87672303D01*
X135750604Y-87944234D01*
X135712062Y-88138000D01*
X135686800Y-88265000D01*
X135686800Y-96220216D01*
X135623559Y-96260910D01*
X135575001Y-96331976D01*
X135429699Y-96186673D01*
X135196310Y-96090000D01*
X134905750Y-96090000D01*
X134747000Y-96248750D01*
X134747000Y-97198000D01*
X134767000Y-97198000D01*
X134767000Y-97452000D01*
X134747000Y-97452000D01*
X134747000Y-97472000D01*
X134493000Y-97472000D01*
X134493000Y-97452000D01*
X134473000Y-97452000D01*
X134473000Y-97198000D01*
X134493000Y-97198000D01*
X134493000Y-96248750D01*
X134334250Y-96090000D01*
X134043690Y-96090000D01*
X133810301Y-96186673D01*
X133631673Y-96365302D01*
X133553200Y-96554752D01*
X133553200Y-81915000D01*
X133489396Y-81594235D01*
X133307697Y-81322303D01*
X131719420Y-79734026D01*
X138727642Y-79734026D01*
X138730291Y-79749791D01*
X138984268Y-80277036D01*
X139396108Y-80645000D01*
X138984268Y-81012964D01*
X138730291Y-81540209D01*
X138727642Y-81555974D01*
X138848783Y-81788000D01*
X140208000Y-81788000D01*
X140208000Y-79502000D01*
X140462000Y-79502000D01*
X140462000Y-81788000D01*
X141821217Y-81788000D01*
X141942358Y-81555974D01*
X141939709Y-81540209D01*
X141685732Y-81012964D01*
X141273892Y-80645000D01*
X141685732Y-80277036D01*
X141939709Y-79749791D01*
X141942358Y-79734026D01*
X141821217Y-79502000D01*
X140462000Y-79502000D01*
X140208000Y-79502000D01*
X138848783Y-79502000D01*
X138727642Y-79734026D01*
X131719420Y-79734026D01*
X131402697Y-79417303D01*
X131130766Y-79235604D01*
X130810000Y-79171800D01*
X129407197Y-79171800D01*
X129062370Y-78826371D01*
X128870273Y-78746605D01*
X129001143Y-78692397D01*
X129070608Y-78450213D01*
X128270000Y-77649605D01*
X127469392Y-78450213D01*
X127538857Y-78692397D01*
X127679318Y-78742509D01*
X127479697Y-78824990D01*
X127086371Y-79217630D01*
X126873243Y-79730900D01*
X126872758Y-80286661D01*
X123494800Y-80286661D01*
X123494800Y-77262302D01*
X126860856Y-77262302D01*
X126888638Y-77817368D01*
X127047603Y-78201143D01*
X127289787Y-78270608D01*
X128090395Y-77470000D01*
X128449605Y-77470000D01*
X129250213Y-78270608D01*
X129492397Y-78201143D01*
X129679144Y-77677698D01*
X129654936Y-77194026D01*
X138727642Y-77194026D01*
X138730291Y-77209791D01*
X138984268Y-77737036D01*
X139396108Y-78105000D01*
X138984268Y-78472964D01*
X138730291Y-79000209D01*
X138727642Y-79015974D01*
X138848783Y-79248000D01*
X140208000Y-79248000D01*
X140208000Y-76962000D01*
X140462000Y-76962000D01*
X140462000Y-79248000D01*
X141821217Y-79248000D01*
X141942358Y-79015974D01*
X141939709Y-79000209D01*
X141685732Y-78472964D01*
X141273892Y-78105000D01*
X141685732Y-77737036D01*
X141939709Y-77209791D01*
X141942358Y-77194026D01*
X141821217Y-76962000D01*
X140462000Y-76962000D01*
X140208000Y-76962000D01*
X138848783Y-76962000D01*
X138727642Y-77194026D01*
X129654936Y-77194026D01*
X129651362Y-77122632D01*
X129492397Y-76738857D01*
X129250213Y-76669392D01*
X128449605Y-77470000D01*
X128090395Y-77470000D01*
X127289787Y-76669392D01*
X127047603Y-76738857D01*
X126860856Y-77262302D01*
X123494800Y-77262302D01*
X123494800Y-76489787D01*
X127469392Y-76489787D01*
X128270000Y-77290395D01*
X129070608Y-76489787D01*
X129001143Y-76247603D01*
X128477698Y-76060856D01*
X127922632Y-76088638D01*
X127538857Y-76247603D01*
X127469392Y-76489787D01*
X123494800Y-76489787D01*
X123494800Y-74654026D01*
X138727642Y-74654026D01*
X138730291Y-74669791D01*
X138984268Y-75197036D01*
X139396108Y-75565000D01*
X138984268Y-75932964D01*
X138730291Y-76460209D01*
X138727642Y-76475974D01*
X138848783Y-76708000D01*
X140208000Y-76708000D01*
X140208000Y-74422000D01*
X140462000Y-74422000D01*
X140462000Y-76708000D01*
X141821217Y-76708000D01*
X141942358Y-76475974D01*
X141939709Y-76460209D01*
X141685732Y-75932964D01*
X141273892Y-75565000D01*
X141685732Y-75197036D01*
X141939709Y-74669791D01*
X141942358Y-74654026D01*
X141821217Y-74422000D01*
X140462000Y-74422000D01*
X140208000Y-74422000D01*
X138848783Y-74422000D01*
X138727642Y-74654026D01*
X123494800Y-74654026D01*
X123494800Y-71160413D01*
X128104392Y-71160413D01*
X128173857Y-71402597D01*
X128697302Y-71589344D01*
X129252368Y-71561562D01*
X129636143Y-71402597D01*
X129705608Y-71160413D01*
X128905000Y-70359805D01*
X128104392Y-71160413D01*
X123494800Y-71160413D01*
X123494800Y-70874278D01*
X124396576Y-69972502D01*
X127495856Y-69972502D01*
X127523638Y-70527568D01*
X127682603Y-70911343D01*
X127924787Y-70980808D01*
X128725395Y-70180200D01*
X129084605Y-70180200D01*
X129885213Y-70980808D01*
X130127397Y-70911343D01*
X130314144Y-70387898D01*
X130286362Y-69832832D01*
X130127397Y-69449057D01*
X129885213Y-69379592D01*
X129084605Y-70180200D01*
X128725395Y-70180200D01*
X127924787Y-69379592D01*
X127682603Y-69449057D01*
X127495856Y-69972502D01*
X124396576Y-69972502D01*
X125169091Y-69199987D01*
X128104392Y-69199987D01*
X128905000Y-70000595D01*
X129705608Y-69199987D01*
X129636143Y-68957803D01*
X129112698Y-68771056D01*
X128557632Y-68798838D01*
X128173857Y-68957803D01*
X128104392Y-69199987D01*
X125169091Y-69199987D01*
X127109878Y-67259200D01*
X127869226Y-67259200D01*
X128112630Y-67503029D01*
X128625900Y-67716157D01*
X129181661Y-67716642D01*
X129428138Y-67614800D01*
X139010490Y-67614800D01*
X139090585Y-67734670D01*
X139395200Y-67938207D01*
X139395200Y-67951793D01*
X139090585Y-68155330D01*
X138765729Y-68641511D01*
X138651655Y-69215000D01*
X138765729Y-69788489D01*
X139090585Y-70274670D01*
X139395200Y-70478207D01*
X139395200Y-70491793D01*
X139090585Y-70695330D01*
X138765729Y-71181511D01*
X138651655Y-71755000D01*
X138765729Y-72328489D01*
X139090585Y-72814670D01*
X139400069Y-73021461D01*
X138984268Y-73392964D01*
X138730291Y-73920209D01*
X138727642Y-73935974D01*
X138848783Y-74168000D01*
X140208000Y-74168000D01*
X140208000Y-74148000D01*
X140462000Y-74148000D01*
X140462000Y-74168000D01*
X141821217Y-74168000D01*
X141942358Y-73935974D01*
X141939709Y-73920209D01*
X141685732Y-73392964D01*
X141269931Y-73021461D01*
X141579415Y-72814670D01*
X141904271Y-72328489D01*
X142018345Y-71755000D01*
X141904271Y-71181511D01*
X141579415Y-70695330D01*
X141274800Y-70491793D01*
X141274800Y-70478207D01*
X141579415Y-70274670D01*
X141904271Y-69788489D01*
X142018345Y-69215000D01*
X141904271Y-68641511D01*
X141579415Y-68155330D01*
X141274800Y-67951793D01*
X141274800Y-67938207D01*
X141579415Y-67734670D01*
X141904271Y-67248489D01*
X142018345Y-66675000D01*
X141904271Y-66101511D01*
X141579415Y-65615330D01*
X141565087Y-65605757D01*
X141586317Y-65601762D01*
X141802441Y-65462690D01*
X141947431Y-65250490D01*
X141998440Y-64998600D01*
X141998440Y-64439800D01*
X153280722Y-64439800D01*
X154635200Y-65794278D01*
X154635200Y-82550000D01*
X154639978Y-82574022D01*
X154639838Y-82735167D01*
X154701917Y-82885411D01*
X154706738Y-82909646D01*
X154720346Y-82930012D01*
X154781883Y-83078943D01*
X154896733Y-83193994D01*
X154910461Y-83214539D01*
X154930827Y-83228147D01*
X155044673Y-83342192D01*
X155194809Y-83404534D01*
X155215354Y-83418262D01*
X155239377Y-83423040D01*
X155388201Y-83484838D01*
X155550766Y-83484980D01*
X155575000Y-83489800D01*
X155599022Y-83485022D01*
X155760167Y-83485162D01*
X155910411Y-83423083D01*
X155934646Y-83418262D01*
X155955012Y-83404654D01*
X156103943Y-83343117D01*
X156218994Y-83228267D01*
X156239539Y-83214539D01*
X156253147Y-83194173D01*
X156367192Y-83080327D01*
X156429534Y-82930191D01*
X156443262Y-82909646D01*
X156448040Y-82885623D01*
X156509838Y-82736799D01*
X156509980Y-82574234D01*
X156514800Y-82550000D01*
X156514800Y-70939461D01*
X174497758Y-70939461D01*
X174709990Y-71453103D01*
X175102630Y-71846429D01*
X175615900Y-72059557D01*
X176171661Y-72060042D01*
X176685303Y-71847810D01*
X176778275Y-71755000D01*
X180888960Y-71755000D01*
X180888960Y-72235000D01*
X180933238Y-72470317D01*
X181072310Y-72686441D01*
X181284510Y-72831431D01*
X181536400Y-72882440D01*
X182606159Y-72882440D01*
X182621861Y-72905939D01*
X184342560Y-74626638D01*
X184342560Y-74745000D01*
X184386838Y-74980317D01*
X184525910Y-75196441D01*
X184619224Y-75260200D01*
X177292156Y-75260200D01*
X177292242Y-75161339D01*
X177080010Y-74647697D01*
X176687370Y-74254371D01*
X176174100Y-74041243D01*
X175618339Y-74040758D01*
X175104697Y-74252990D01*
X174711371Y-74645630D01*
X174498243Y-75158900D01*
X174497758Y-75714661D01*
X174709990Y-76228303D01*
X175102630Y-76621629D01*
X175615900Y-76834757D01*
X175810449Y-76834927D01*
X175840061Y-76864539D01*
X176144954Y-77068262D01*
X176504600Y-77139800D01*
X181117765Y-77139800D01*
X181084959Y-77160910D01*
X180939969Y-77373110D01*
X180888960Y-77625000D01*
X180888960Y-78511400D01*
X177081209Y-78511400D01*
X177080010Y-78508497D01*
X176687370Y-78115171D01*
X176174100Y-77902043D01*
X175618339Y-77901558D01*
X175104697Y-78113790D01*
X174711371Y-78506430D01*
X174498243Y-79019700D01*
X174497758Y-79575461D01*
X174709990Y-80089103D01*
X175102630Y-80482429D01*
X175615900Y-80695557D01*
X176171661Y-80696042D01*
X176685303Y-80483810D01*
X176778275Y-80391000D01*
X180888960Y-80391000D01*
X180888960Y-81125000D01*
X180933238Y-81360317D01*
X181072310Y-81576441D01*
X181284510Y-81721431D01*
X181536400Y-81772440D01*
X182346600Y-81772440D01*
X182346600Y-82321400D01*
X182418138Y-82681046D01*
X182621861Y-82985939D01*
X183485461Y-83849539D01*
X183790354Y-84053262D01*
X184150000Y-84124800D01*
X184582050Y-84124800D01*
X184619224Y-84150200D01*
X177291934Y-84150200D01*
X177292242Y-83797339D01*
X177080010Y-83283697D01*
X176687370Y-82890371D01*
X176174100Y-82677243D01*
X175618339Y-82676758D01*
X175104697Y-82888990D01*
X174711371Y-83281630D01*
X174498243Y-83794900D01*
X174497758Y-84350661D01*
X174709990Y-84864303D01*
X175102630Y-85257629D01*
X175615900Y-85470757D01*
X175810449Y-85470927D01*
X176094061Y-85754539D01*
X176398954Y-85958262D01*
X176758600Y-86029800D01*
X181117765Y-86029800D01*
X181084959Y-86050910D01*
X180939969Y-86263110D01*
X180888960Y-86515000D01*
X180888960Y-87147400D01*
X177081209Y-87147400D01*
X177080010Y-87144497D01*
X176687370Y-86751171D01*
X176174100Y-86538043D01*
X175618339Y-86537558D01*
X175104697Y-86749790D01*
X174711371Y-87142430D01*
X174498243Y-87655700D01*
X174497758Y-88211461D01*
X174709990Y-88725103D01*
X175102630Y-89118429D01*
X175615900Y-89331557D01*
X176171661Y-89332042D01*
X176685303Y-89119810D01*
X176778275Y-89027000D01*
X180888960Y-89027000D01*
X180888960Y-90015000D01*
X180933238Y-90250317D01*
X181072310Y-90466441D01*
X181284510Y-90611431D01*
X181536400Y-90662440D01*
X182606159Y-90662440D01*
X182621861Y-90685939D01*
X184342560Y-92406638D01*
X184342560Y-92525000D01*
X184386838Y-92760317D01*
X184525910Y-92976441D01*
X184738110Y-93121431D01*
X184990000Y-93172440D01*
X186190000Y-93172440D01*
X186425317Y-93128162D01*
X186641441Y-92989090D01*
X186689134Y-92919289D01*
X186725910Y-92976441D01*
X186938110Y-93121431D01*
X187190000Y-93172440D01*
X188390000Y-93172440D01*
X188625317Y-93128162D01*
X188841441Y-92989090D01*
X188986431Y-92776890D01*
X189037440Y-92525000D01*
X189037440Y-92406638D01*
X190758139Y-90685939D01*
X190773841Y-90662440D01*
X191161962Y-90662440D01*
X193239061Y-92739539D01*
X193543954Y-92943262D01*
X193903600Y-93014800D01*
X200280898Y-93014800D01*
X200310838Y-93173917D01*
X200449910Y-93390041D01*
X200662110Y-93535031D01*
X200914000Y-93586040D01*
X202946000Y-93586040D01*
X203181317Y-93541762D01*
X203397441Y-93402690D01*
X203542431Y-93190490D01*
X203578009Y-93014800D01*
X212980898Y-93014800D01*
X213010838Y-93173917D01*
X213149910Y-93390041D01*
X213362110Y-93535031D01*
X213614000Y-93586040D01*
X215646000Y-93586040D01*
X215881317Y-93541762D01*
X216097441Y-93402690D01*
X216242431Y-93190490D01*
X216293440Y-92938600D01*
X216293440Y-91211400D01*
X216249162Y-90976083D01*
X216110090Y-90759959D01*
X215897890Y-90614969D01*
X215856561Y-90606600D01*
X215874415Y-90594670D01*
X216199271Y-90108489D01*
X216313345Y-89535000D01*
X216199271Y-88961511D01*
X215874415Y-88475330D01*
X215559634Y-88265000D01*
X215874415Y-88054670D01*
X216199271Y-87568489D01*
X216313345Y-86995000D01*
X216199271Y-86421511D01*
X215874415Y-85935330D01*
X215559634Y-85725000D01*
X215874415Y-85514670D01*
X216199271Y-85028489D01*
X216313345Y-84455000D01*
X216199271Y-83881511D01*
X215874415Y-83395330D01*
X215559634Y-83185000D01*
X215874415Y-82974670D01*
X216199271Y-82488489D01*
X216313345Y-81915000D01*
X216199271Y-81341511D01*
X215874415Y-80855330D01*
X215559634Y-80645000D01*
X215874415Y-80434670D01*
X216199271Y-79948489D01*
X216313345Y-79375000D01*
X216199271Y-78801511D01*
X215874415Y-78315330D01*
X215388234Y-77990474D01*
X214814745Y-77876400D01*
X214445255Y-77876400D01*
X213871766Y-77990474D01*
X213385585Y-78315330D01*
X213305490Y-78435200D01*
X203254510Y-78435200D01*
X203174415Y-78315330D01*
X202688234Y-77990474D01*
X202114745Y-77876400D01*
X201745255Y-77876400D01*
X201171766Y-77990474D01*
X200685585Y-78315330D01*
X200360729Y-78801511D01*
X200246655Y-79375000D01*
X200360729Y-79948489D01*
X200685585Y-80434670D01*
X201000366Y-80645000D01*
X200685585Y-80855330D01*
X200360729Y-81341511D01*
X200246655Y-81915000D01*
X200360729Y-82488489D01*
X200685585Y-82974670D01*
X201000366Y-83185000D01*
X200685585Y-83395330D01*
X200360729Y-83881511D01*
X200246655Y-84455000D01*
X200360729Y-85028489D01*
X200685585Y-85514670D01*
X201000366Y-85725000D01*
X200685585Y-85935330D01*
X200360729Y-86421511D01*
X200246655Y-86995000D01*
X200360729Y-87568489D01*
X200685585Y-88054670D01*
X201000366Y-88265000D01*
X200685585Y-88475330D01*
X200360729Y-88961511D01*
X200246655Y-89535000D01*
X200360729Y-90108489D01*
X200685585Y-90594670D01*
X200699913Y-90604243D01*
X200678683Y-90608238D01*
X200462559Y-90747310D01*
X200317569Y-90959510D01*
X200281991Y-91135200D01*
X194292878Y-91135200D01*
X192491040Y-89333362D01*
X192491040Y-87196638D01*
X196244539Y-83443139D01*
X196448262Y-83138246D01*
X196519800Y-82778600D01*
X196519800Y-78494278D01*
X200302021Y-74712057D01*
X200310838Y-74758917D01*
X200449910Y-74975041D01*
X200662110Y-75120031D01*
X200914000Y-75171040D01*
X202946000Y-75171040D01*
X203181317Y-75126762D01*
X203397441Y-74987690D01*
X203542431Y-74775490D01*
X203578009Y-74599800D01*
X212980898Y-74599800D01*
X213010838Y-74758917D01*
X213149910Y-74975041D01*
X213362110Y-75120031D01*
X213614000Y-75171040D01*
X215646000Y-75171040D01*
X215881317Y-75126762D01*
X216097441Y-74987690D01*
X216242431Y-74775490D01*
X216293440Y-74523600D01*
X216293440Y-72796400D01*
X216249162Y-72561083D01*
X216110090Y-72344959D01*
X215897890Y-72199969D01*
X215856561Y-72191600D01*
X215874415Y-72179670D01*
X216199271Y-71693489D01*
X216313345Y-71120000D01*
X216199271Y-70546511D01*
X215874415Y-70060330D01*
X215559634Y-69850000D01*
X215874415Y-69639670D01*
X216199271Y-69153489D01*
X216313345Y-68580000D01*
X216199271Y-68006511D01*
X215874415Y-67520330D01*
X215559634Y-67310000D01*
X215874415Y-67099670D01*
X216199271Y-66613489D01*
X216313345Y-66040000D01*
X216199271Y-65466511D01*
X215874415Y-64980330D01*
X215559634Y-64770000D01*
X215874415Y-64559670D01*
X216199271Y-64073489D01*
X216313345Y-63500000D01*
X216199271Y-62926511D01*
X215874415Y-62440330D01*
X215559634Y-62230000D01*
X215874415Y-62019670D01*
X216199271Y-61533489D01*
X216313345Y-60960000D01*
X216199271Y-60386511D01*
X215874415Y-59900330D01*
X215388234Y-59575474D01*
X214814745Y-59461400D01*
X214445255Y-59461400D01*
X213871766Y-59575474D01*
X213385585Y-59900330D01*
X213305490Y-60020200D01*
X203254510Y-60020200D01*
X203174415Y-59900330D01*
X202688234Y-59575474D01*
X202114745Y-59461400D01*
X201745255Y-59461400D01*
X201171766Y-59575474D01*
X200685585Y-59900330D01*
X200360729Y-60386511D01*
X200246655Y-60960000D01*
X200360729Y-61533489D01*
X200685585Y-62019670D01*
X201000366Y-62230000D01*
X200685585Y-62440330D01*
X200360729Y-62926511D01*
X200316362Y-63149560D01*
X199000722Y-64465200D01*
X196215000Y-64465200D01*
X195855354Y-64536738D01*
X195550461Y-64740461D01*
X192129271Y-68161651D01*
X192095490Y-68138569D01*
X191843600Y-68087560D01*
X188343600Y-68087560D01*
X188108283Y-68131838D01*
X187892159Y-68270910D01*
X187747169Y-68483110D01*
X187696160Y-68735000D01*
X187696160Y-72235000D01*
X187740438Y-72470317D01*
X187879510Y-72686441D01*
X188091710Y-72831431D01*
X188160550Y-72845372D01*
X187808362Y-73197560D01*
X187190000Y-73197560D01*
X186954683Y-73241838D01*
X186738559Y-73380910D01*
X186690866Y-73450711D01*
X186654090Y-73393559D01*
X186441890Y-73248569D01*
X186190000Y-73197560D01*
X185571638Y-73197560D01*
X185221659Y-72847581D01*
X185271717Y-72838162D01*
X185487841Y-72699090D01*
X185632831Y-72486890D01*
X185683840Y-72235000D01*
X185683840Y-68735000D01*
X185639562Y-68499683D01*
X185500490Y-68283559D01*
X185288290Y-68138569D01*
X185036400Y-68087560D01*
X181536400Y-68087560D01*
X181301083Y-68131838D01*
X181084959Y-68270910D01*
X180939969Y-68483110D01*
X180888960Y-68735000D01*
X180888960Y-69875400D01*
X177081209Y-69875400D01*
X177080010Y-69872497D01*
X176687370Y-69479171D01*
X176174100Y-69266043D01*
X175618339Y-69265558D01*
X175104697Y-69477790D01*
X174711371Y-69870430D01*
X174498243Y-70383700D01*
X174497758Y-70939461D01*
X156514800Y-70939461D01*
X156514800Y-67078661D01*
X174497758Y-67078661D01*
X174709990Y-67592303D01*
X175102630Y-67985629D01*
X175615900Y-68198757D01*
X176171661Y-68199242D01*
X176685303Y-67987010D01*
X177078629Y-67594370D01*
X177291757Y-67081100D01*
X177292242Y-66525339D01*
X177080010Y-66011697D01*
X176687370Y-65618371D01*
X176174100Y-65405243D01*
X175618339Y-65404758D01*
X175104697Y-65616990D01*
X174711371Y-66009630D01*
X174498243Y-66522900D01*
X174497758Y-67078661D01*
X156514800Y-67078661D01*
X156514800Y-65405000D01*
X156443262Y-65045354D01*
X156239539Y-64740461D01*
X154334539Y-62835461D01*
X154029646Y-62631738D01*
X153670000Y-62560200D01*
X140970000Y-62560200D01*
X140649457Y-62623960D01*
X139319000Y-62623960D01*
X139083683Y-62668238D01*
X138867559Y-62807310D01*
X138722569Y-63019510D01*
X138671560Y-63271400D01*
X138671560Y-64998600D01*
X138715838Y-65233917D01*
X138854910Y-65450041D01*
X139067110Y-65595031D01*
X139108439Y-65603400D01*
X139090585Y-65615330D01*
X139010490Y-65735200D01*
X130175170Y-65735200D01*
X130090010Y-65529097D01*
X129697370Y-65135771D01*
X129184100Y-64922643D01*
X128628339Y-64922158D01*
X128114697Y-65134390D01*
X127869059Y-65379600D01*
X126720600Y-65379600D01*
X126360954Y-65451138D01*
X126056061Y-65654861D01*
X121890461Y-69820461D01*
X121686738Y-70125354D01*
X121615200Y-70485000D01*
X105536778Y-70485000D01*
X105537242Y-69954339D01*
X105325010Y-69440697D01*
X104932370Y-69047371D01*
X104419100Y-68834243D01*
X103863339Y-68833758D01*
X103349697Y-69045990D01*
X102956371Y-69438630D01*
X102912119Y-69545200D01*
X98917235Y-69545200D01*
X98950041Y-69524090D01*
X99095031Y-69311890D01*
X99146040Y-69060000D01*
X99146040Y-68249800D01*
X103200200Y-68249800D01*
X103559846Y-68178262D01*
X103864739Y-67974539D01*
X104072137Y-67767141D01*
X104416661Y-67767442D01*
X104930303Y-67555210D01*
X105323629Y-67162570D01*
X105536757Y-66649300D01*
X105537242Y-66093539D01*
X105325010Y-65579897D01*
X104932370Y-65186571D01*
X104419100Y-64973443D01*
X103863339Y-64972958D01*
X103349697Y-65185190D01*
X102956371Y-65577830D01*
X102743243Y-66091100D01*
X102742999Y-66370200D01*
X99146040Y-66370200D01*
X99146040Y-65560000D01*
X99101762Y-65324683D01*
X98962690Y-65108559D01*
X98750490Y-64963569D01*
X98498600Y-64912560D01*
X97428841Y-64912560D01*
X97413139Y-64889061D01*
X95692440Y-63168362D01*
X95692440Y-63050000D01*
X95648162Y-62814683D01*
X95509090Y-62598559D01*
X95296890Y-62453569D01*
X95045000Y-62402560D01*
X93845000Y-62402560D01*
X93609683Y-62446838D01*
X93393559Y-62585910D01*
X93345866Y-62655711D01*
X93309090Y-62598559D01*
X93096890Y-62453569D01*
X92845000Y-62402560D01*
X91645000Y-62402560D01*
X91409683Y-62446838D01*
X91193559Y-62585910D01*
X91048569Y-62798110D01*
X90997560Y-63050000D01*
X90997560Y-63168362D01*
X89276861Y-64889061D01*
X89261159Y-64912560D01*
X88191400Y-64912560D01*
X87956083Y-64956838D01*
X87739959Y-65095910D01*
X87594969Y-65308110D01*
X87543960Y-65560000D01*
X87543960Y-66370200D01*
X83574278Y-66370200D01*
X82219800Y-65015722D01*
X82219800Y-63500000D01*
X82148262Y-63140354D01*
X81944539Y-62835461D01*
X81077383Y-61968305D01*
X83839674Y-61968305D01*
X84126043Y-62661372D01*
X84655839Y-63192093D01*
X85348405Y-63479672D01*
X86098305Y-63480326D01*
X86791372Y-63193957D01*
X87322093Y-62664161D01*
X87609672Y-61971595D01*
X87609715Y-61921963D01*
X127253714Y-61921963D01*
X127504534Y-62528995D01*
X127968563Y-62993834D01*
X128575155Y-63245713D01*
X129231963Y-63246286D01*
X129838995Y-62995466D01*
X130303834Y-62531437D01*
X130555713Y-61924845D01*
X130555715Y-61921963D01*
X174243714Y-61921963D01*
X174494534Y-62528995D01*
X174958563Y-62993834D01*
X175565155Y-63245713D01*
X176221963Y-63246286D01*
X176828995Y-62995466D01*
X177293834Y-62531437D01*
X177527666Y-61968305D01*
X193059674Y-61968305D01*
X193346043Y-62661372D01*
X193875839Y-63192093D01*
X194568405Y-63479672D01*
X195318305Y-63480326D01*
X196011372Y-63193957D01*
X196542093Y-62664161D01*
X196829672Y-61971595D01*
X196830326Y-61221695D01*
X196543957Y-60528628D01*
X196014161Y-59997907D01*
X195321595Y-59710328D01*
X194571695Y-59709674D01*
X193878628Y-59996043D01*
X193347907Y-60525839D01*
X193060328Y-61218405D01*
X193059674Y-61968305D01*
X177527666Y-61968305D01*
X177545713Y-61924845D01*
X177546286Y-61268037D01*
X177295466Y-60661005D01*
X176831437Y-60196166D01*
X176224845Y-59944287D01*
X175568037Y-59943714D01*
X174961005Y-60194534D01*
X174496166Y-60658563D01*
X174244287Y-61265155D01*
X174243714Y-61921963D01*
X130555715Y-61921963D01*
X130556286Y-61268037D01*
X130305466Y-60661005D01*
X129841437Y-60196166D01*
X129234845Y-59944287D01*
X128578037Y-59943714D01*
X127971005Y-60194534D01*
X127506166Y-60658563D01*
X127254287Y-61265155D01*
X127253714Y-61921963D01*
X87609715Y-61921963D01*
X87610326Y-61221695D01*
X87323957Y-60528628D01*
X86794161Y-59997907D01*
X86101595Y-59710328D01*
X85351695Y-59709674D01*
X84658628Y-59996043D01*
X84127907Y-60525839D01*
X83840328Y-61218405D01*
X83839674Y-61968305D01*
X81077383Y-61968305D01*
X79768440Y-60659362D01*
X79768440Y-60096400D01*
X79724162Y-59861083D01*
X79585090Y-59644959D01*
X79372890Y-59499969D01*
X79121000Y-59448960D01*
X77089000Y-59448960D01*
X76853683Y-59493238D01*
X76637559Y-59632310D01*
X76492569Y-59844510D01*
X76456991Y-60020200D01*
X67054102Y-60020200D01*
X67024162Y-59861083D01*
X66885090Y-59644959D01*
X66672890Y-59499969D01*
X66421000Y-59448960D01*
X64389000Y-59448960D01*
X64153683Y-59493238D01*
X63937559Y-59632310D01*
X63792569Y-59844510D01*
X63741560Y-60096400D01*
X63741560Y-61823600D01*
X63785838Y-62058917D01*
X63924910Y-62275041D01*
X64137110Y-62420031D01*
X64178439Y-62428400D01*
X64160585Y-62440330D01*
X63835729Y-62926511D01*
X63721655Y-63500000D01*
X62280000Y-63500000D01*
X62280000Y-57835000D01*
X217755000Y-57835000D01*
X217755000Y-132030000D01*
X217755000Y-132030000D01*
G37*
X217755000Y-132030000D02*
X62280000Y-132030000D01*
X62280000Y-130511517D01*
X141448088Y-130511517D01*
X141516077Y-130752460D01*
X142035171Y-130937201D01*
X142585448Y-130909230D01*
X142963923Y-130752460D01*
X143031912Y-130511517D01*
X142240000Y-129719605D01*
X141448088Y-130511517D01*
X62280000Y-130511517D01*
X62280000Y-100330000D01*
X63721655Y-100330000D01*
X63835729Y-100903489D01*
X64160585Y-101389670D01*
X64475366Y-101600000D01*
X64160585Y-101810330D01*
X63835729Y-102296511D01*
X63721655Y-102870000D01*
X63835729Y-103443489D01*
X64160585Y-103929670D01*
X64475366Y-104140000D01*
X64160585Y-104350330D01*
X63835729Y-104836511D01*
X63721655Y-105410000D01*
X63835729Y-105983489D01*
X64160585Y-106469670D01*
X64475366Y-106680000D01*
X64160585Y-106890330D01*
X63835729Y-107376511D01*
X63721655Y-107950000D01*
X63835729Y-108523489D01*
X64160585Y-109009670D01*
X64475366Y-109220000D01*
X64160585Y-109430330D01*
X63835729Y-109916511D01*
X63721655Y-110490000D01*
X63835729Y-111063489D01*
X64160585Y-111549670D01*
X64646766Y-111874526D01*
X65220255Y-111988600D01*
X65589745Y-111988600D01*
X66163234Y-111874526D01*
X66649415Y-111549670D01*
X66729510Y-111429800D01*
X76780490Y-111429800D01*
X76860585Y-111549670D01*
X77346766Y-111874526D01*
X77920255Y-111988600D01*
X78289745Y-111988600D01*
X78863234Y-111874526D01*
X79349415Y-111549670D01*
X79674271Y-111063489D01*
X79788345Y-110490000D01*
X79674271Y-109916511D01*
X79349415Y-109430330D01*
X79034634Y-109220000D01*
X79349415Y-109009670D01*
X79674271Y-108523489D01*
X79788345Y-107950000D01*
X79674271Y-107376511D01*
X79349415Y-106890330D01*
X79034634Y-106680000D01*
X79349415Y-106469670D01*
X79674271Y-105983489D01*
X79788345Y-105410000D01*
X79674271Y-104836511D01*
X79349415Y-104350330D01*
X79034634Y-104140000D01*
X79349415Y-103929670D01*
X79674271Y-103443489D01*
X79788345Y-102870000D01*
X79674271Y-102296511D01*
X79349415Y-101810330D01*
X79034634Y-101600000D01*
X79349415Y-101389670D01*
X79674271Y-100903489D01*
X79788345Y-100330000D01*
X79674271Y-99756511D01*
X79349415Y-99270330D01*
X79335087Y-99260757D01*
X79356317Y-99256762D01*
X79572441Y-99117690D01*
X79717431Y-98905490D01*
X79753009Y-98729800D01*
X90335722Y-98729800D01*
X90665922Y-99060000D01*
X89276861Y-100449061D01*
X89261159Y-100472560D01*
X88191400Y-100472560D01*
X87956083Y-100516838D01*
X87739959Y-100655910D01*
X87594969Y-100868110D01*
X87543960Y-101120000D01*
X87543960Y-104166962D01*
X84425461Y-107285461D01*
X84221738Y-107590354D01*
X84150200Y-107950000D01*
X84150200Y-113275722D01*
X82160722Y-115265200D01*
X79754102Y-115265200D01*
X79724162Y-115106083D01*
X79585090Y-114889959D01*
X79372890Y-114744969D01*
X79121000Y-114693960D01*
X77089000Y-114693960D01*
X76853683Y-114738238D01*
X76637559Y-114877310D01*
X76492569Y-115089510D01*
X76456991Y-115265200D01*
X67054102Y-115265200D01*
X67024162Y-115106083D01*
X66885090Y-114889959D01*
X66672890Y-114744969D01*
X66421000Y-114693960D01*
X64389000Y-114693960D01*
X64153683Y-114738238D01*
X63937559Y-114877310D01*
X63792569Y-115089510D01*
X63741560Y-115341400D01*
X63741560Y-117068600D01*
X63785838Y-117303917D01*
X63924910Y-117520041D01*
X64137110Y-117665031D01*
X64178439Y-117673400D01*
X64160585Y-117685330D01*
X63835729Y-118171511D01*
X63721655Y-118745000D01*
X63835729Y-119318489D01*
X64160585Y-119804670D01*
X64475366Y-120015000D01*
X64160585Y-120225330D01*
X63835729Y-120711511D01*
X63721655Y-121285000D01*
X63835729Y-121858489D01*
X64160585Y-122344670D01*
X64475366Y-122555000D01*
X64160585Y-122765330D01*
X63835729Y-123251511D01*
X63721655Y-123825000D01*
X63835729Y-124398489D01*
X64160585Y-124884670D01*
X64475366Y-125095000D01*
X64160585Y-125305330D01*
X63835729Y-125791511D01*
X63721655Y-126365000D01*
X63835729Y-126938489D01*
X64160585Y-127424670D01*
X64475366Y-127635000D01*
X64160585Y-127845330D01*
X63835729Y-128331511D01*
X63721655Y-128905000D01*
X63835729Y-129478489D01*
X64160585Y-129964670D01*
X64646766Y-130289526D01*
X65220255Y-130403600D01*
X65589745Y-130403600D01*
X66163234Y-130289526D01*
X66649415Y-129964670D01*
X66729510Y-129844800D01*
X76780490Y-129844800D01*
X76860585Y-129964670D01*
X77346766Y-130289526D01*
X77920255Y-130403600D01*
X78289745Y-130403600D01*
X78863234Y-130289526D01*
X79349415Y-129964670D01*
X79674271Y-129478489D01*
X79788345Y-128905000D01*
X79736291Y-128643305D01*
X83839674Y-128643305D01*
X84126043Y-129336372D01*
X84655839Y-129867093D01*
X85348405Y-130154672D01*
X86098305Y-130155326D01*
X86791372Y-129868957D01*
X87322093Y-129339161D01*
X87609672Y-128646595D01*
X87609715Y-128596963D01*
X102488714Y-128596963D01*
X102739534Y-129203995D01*
X103203563Y-129668834D01*
X103810155Y-129920713D01*
X104466963Y-129921286D01*
X105073995Y-129670466D01*
X105409875Y-129335171D01*
X140842799Y-129335171D01*
X140870770Y-129885448D01*
X141027540Y-130263923D01*
X141268483Y-130331912D01*
X142060395Y-129540000D01*
X142419605Y-129540000D01*
X143211517Y-130331912D01*
X143452460Y-130263923D01*
X143637201Y-129744829D01*
X143609230Y-129194552D01*
X143452460Y-128816077D01*
X143211517Y-128748088D01*
X142419605Y-129540000D01*
X142060395Y-129540000D01*
X141268483Y-128748088D01*
X141027540Y-128816077D01*
X140842799Y-129335171D01*
X105409875Y-129335171D01*
X105538834Y-129206437D01*
X105790713Y-128599845D01*
X105790740Y-128568483D01*
X141448088Y-128568483D01*
X142240000Y-129360395D01*
X143031912Y-128568483D01*
X142963923Y-128327540D01*
X142444829Y-128142799D01*
X141894552Y-128170770D01*
X141516077Y-128327540D01*
X141448088Y-128568483D01*
X105790740Y-128568483D01*
X105791286Y-127943037D01*
X105540466Y-127336005D01*
X105076437Y-126871166D01*
X104545617Y-126650750D01*
X140055000Y-126650750D01*
X140055000Y-126866310D01*
X140151673Y-127099699D01*
X140330302Y-127278327D01*
X140563691Y-127375000D01*
X141004250Y-127375000D01*
X141163000Y-127216250D01*
X141163000Y-126492000D01*
X140213750Y-126492000D01*
X140055000Y-126650750D01*
X104545617Y-126650750D01*
X104469845Y-126619287D01*
X103813037Y-126618714D01*
X103206005Y-126869534D01*
X102741166Y-127333563D01*
X102489287Y-127940155D01*
X102488714Y-128596963D01*
X87609715Y-128596963D01*
X87610326Y-127896695D01*
X87323957Y-127203628D01*
X86794161Y-126672907D01*
X86101595Y-126385328D01*
X85351695Y-126384674D01*
X84658628Y-126671043D01*
X84127907Y-127200839D01*
X83840328Y-127893405D01*
X83839674Y-128643305D01*
X79736291Y-128643305D01*
X79729568Y-128609510D01*
X82304278Y-126034800D01*
X84455000Y-126034800D01*
X84814646Y-125963262D01*
X84963666Y-125863690D01*
X140055000Y-125863690D01*
X140055000Y-126079250D01*
X140213750Y-126238000D01*
X141163000Y-126238000D01*
X141163000Y-125513750D01*
X141004250Y-125355000D01*
X140563691Y-125355000D01*
X140330302Y-125451673D01*
X140151673Y-125630301D01*
X140055000Y-125863690D01*
X84963666Y-125863690D01*
X85119539Y-125759539D01*
X86114278Y-124764800D01*
X103378000Y-124764800D01*
X103737646Y-124693262D01*
X104042539Y-124489539D01*
X104072137Y-124459941D01*
X104416661Y-124460242D01*
X104930303Y-124248010D01*
X105323629Y-123855370D01*
X105536757Y-123342100D01*
X105537242Y-122786339D01*
X105325010Y-122272697D01*
X104932370Y-121879371D01*
X104419100Y-121666243D01*
X103863339Y-121665758D01*
X103349697Y-121877990D01*
X102956371Y-122270630D01*
X102743243Y-122783900D01*
X102743155Y-122885200D01*
X98917235Y-122885200D01*
X98950041Y-122864090D01*
X99095031Y-122651890D01*
X99146040Y-122400000D01*
X99146040Y-121589800D01*
X102692200Y-121589800D01*
X103051846Y-121518262D01*
X103356739Y-121314539D01*
X104072137Y-120599141D01*
X104416661Y-120599442D01*
X104930303Y-120387210D01*
X105323629Y-119994570D01*
X105536757Y-119481300D01*
X105537242Y-118925539D01*
X105325010Y-118411897D01*
X104932370Y-118018571D01*
X104419100Y-117805443D01*
X103863339Y-117804958D01*
X103349697Y-118017190D01*
X102956371Y-118409830D01*
X102743243Y-118923100D01*
X102742940Y-119270182D01*
X102302922Y-119710200D01*
X99146040Y-119710200D01*
X99146040Y-118900000D01*
X99101762Y-118664683D01*
X98962690Y-118448559D01*
X98750490Y-118303569D01*
X98498600Y-118252560D01*
X97428841Y-118252560D01*
X97413139Y-118229061D01*
X95692440Y-116508362D01*
X95692440Y-116390000D01*
X95648162Y-116154683D01*
X95509090Y-115938559D01*
X95415776Y-115874800D01*
X103632000Y-115874800D01*
X103773464Y-115846661D01*
X126872758Y-115846661D01*
X127084990Y-116360303D01*
X127477630Y-116753629D01*
X127990900Y-116966757D01*
X128546661Y-116967242D01*
X129060303Y-116755010D01*
X129453629Y-116362370D01*
X129666757Y-115849100D01*
X129667242Y-115293339D01*
X129455010Y-114779697D01*
X129062370Y-114386371D01*
X128870273Y-114306605D01*
X129001143Y-114252397D01*
X129070608Y-114010213D01*
X128270000Y-113209605D01*
X127469392Y-114010213D01*
X127538857Y-114252397D01*
X127679318Y-114302509D01*
X127479697Y-114384990D01*
X127086371Y-114777630D01*
X126873243Y-115290900D01*
X126872758Y-115846661D01*
X103773464Y-115846661D01*
X103888490Y-115823781D01*
X104416661Y-115824242D01*
X104930303Y-115612010D01*
X105323629Y-115219370D01*
X105536757Y-114706100D01*
X105537242Y-114150339D01*
X105325010Y-113636697D01*
X104932370Y-113243371D01*
X104419100Y-113030243D01*
X103863339Y-113029758D01*
X103349697Y-113241990D01*
X102956371Y-113634630D01*
X102806649Y-113995200D01*
X98917235Y-113995200D01*
X98950041Y-113974090D01*
X99095031Y-113761890D01*
X99146040Y-113510000D01*
X99146040Y-112822302D01*
X126860856Y-112822302D01*
X126888638Y-113377368D01*
X127047603Y-113761143D01*
X127289787Y-113830608D01*
X128090395Y-113030000D01*
X128449605Y-113030000D01*
X129250213Y-113830608D01*
X129492397Y-113761143D01*
X129679144Y-113237698D01*
X129651362Y-112682632D01*
X129492397Y-112298857D01*
X129250213Y-112229392D01*
X128449605Y-113030000D01*
X128090395Y-113030000D01*
X127289787Y-112229392D01*
X127047603Y-112298857D01*
X126860856Y-112822302D01*
X99146040Y-112822302D01*
X99146040Y-112699800D01*
X102946200Y-112699800D01*
X103305846Y-112628262D01*
X103610739Y-112424539D01*
X103985491Y-112049787D01*
X127469392Y-112049787D01*
X128270000Y-112850395D01*
X129070608Y-112049787D01*
X129001143Y-111807603D01*
X128477698Y-111620856D01*
X127922632Y-111648638D01*
X127538857Y-111807603D01*
X127469392Y-112049787D01*
X103985491Y-112049787D01*
X104072137Y-111963141D01*
X104416661Y-111963442D01*
X104930303Y-111751210D01*
X105323629Y-111358570D01*
X105536757Y-110845300D01*
X105537242Y-110289539D01*
X105325010Y-109775897D01*
X104932370Y-109382571D01*
X104419100Y-109169443D01*
X103863339Y-109168958D01*
X103349697Y-109381190D01*
X102956371Y-109773830D01*
X102743243Y-110287100D01*
X102742940Y-110634182D01*
X102556922Y-110820200D01*
X99146040Y-110820200D01*
X99146040Y-110010000D01*
X99101762Y-109774683D01*
X98962690Y-109558559D01*
X98750490Y-109413569D01*
X98498600Y-109362560D01*
X97428841Y-109362560D01*
X97413139Y-109339061D01*
X95692440Y-107618362D01*
X95692440Y-107500000D01*
X95648162Y-107264683D01*
X95509090Y-107048559D01*
X95415776Y-106984800D01*
X103372125Y-106984800D01*
X103860900Y-107187757D01*
X104416661Y-107188242D01*
X104930303Y-106976010D01*
X105186346Y-106720413D01*
X128104392Y-106720413D01*
X128173857Y-106962597D01*
X128697302Y-107149344D01*
X129252368Y-107121562D01*
X129636143Y-106962597D01*
X129705608Y-106720413D01*
X128905000Y-105919805D01*
X128104392Y-106720413D01*
X105186346Y-106720413D01*
X105323629Y-106583370D01*
X105536757Y-106070100D01*
X105537226Y-105532502D01*
X127495856Y-105532502D01*
X127523638Y-106087568D01*
X127682603Y-106471343D01*
X127924787Y-106540808D01*
X128725395Y-105740200D01*
X129084605Y-105740200D01*
X129885213Y-106540808D01*
X130127397Y-106471343D01*
X130314144Y-105947898D01*
X130286362Y-105392832D01*
X130127397Y-105009057D01*
X129885213Y-104939592D01*
X129084605Y-105740200D01*
X128725395Y-105740200D01*
X127924787Y-104939592D01*
X127682603Y-105009057D01*
X127495856Y-105532502D01*
X105537226Y-105532502D01*
X105537242Y-105514339D01*
X105325010Y-105000697D01*
X105084720Y-104759987D01*
X128104392Y-104759987D01*
X128905000Y-105560595D01*
X129705608Y-104759987D01*
X129636143Y-104517803D01*
X129112698Y-104331056D01*
X128557632Y-104358838D01*
X128173857Y-104517803D01*
X128104392Y-104759987D01*
X105084720Y-104759987D01*
X104932370Y-104607371D01*
X104419100Y-104394243D01*
X103863339Y-104393758D01*
X103349697Y-104605990D01*
X102956371Y-104998630D01*
X102912119Y-105105200D01*
X98917235Y-105105200D01*
X98950041Y-105084090D01*
X99095031Y-104871890D01*
X99146040Y-104620000D01*
X99146040Y-103809800D01*
X103200200Y-103809800D01*
X103559846Y-103738262D01*
X103864739Y-103534539D01*
X104072137Y-103327141D01*
X104416661Y-103327442D01*
X104930303Y-103115210D01*
X105323629Y-102722570D01*
X105536757Y-102209300D01*
X105537242Y-101653539D01*
X105325010Y-101139897D01*
X104932370Y-100746571D01*
X104419100Y-100533443D01*
X103863339Y-100532958D01*
X103349697Y-100745190D01*
X102956371Y-101137830D01*
X102743243Y-101651100D01*
X102742999Y-101930200D01*
X99146040Y-101930200D01*
X99146040Y-101120000D01*
X99101762Y-100884683D01*
X98962690Y-100668559D01*
X98750490Y-100523569D01*
X98498600Y-100472560D01*
X97428841Y-100472560D01*
X97413139Y-100449061D01*
X95692440Y-98728362D01*
X95692440Y-98610000D01*
X95648162Y-98374683D01*
X95509090Y-98158559D01*
X95296890Y-98013569D01*
X95045000Y-97962560D01*
X93845000Y-97962560D01*
X93609683Y-98006838D01*
X93393559Y-98145910D01*
X93345866Y-98215711D01*
X93309090Y-98158559D01*
X93096890Y-98013569D01*
X92845000Y-97962560D01*
X92226638Y-97962560D01*
X91389539Y-97125461D01*
X91084646Y-96921738D01*
X90725000Y-96850200D01*
X79754102Y-96850200D01*
X79724162Y-96691083D01*
X79585090Y-96474959D01*
X79372890Y-96329969D01*
X79121000Y-96278960D01*
X77089000Y-96278960D01*
X76853683Y-96323238D01*
X76637559Y-96462310D01*
X76492569Y-96674510D01*
X76456991Y-96850200D01*
X67054102Y-96850200D01*
X67024162Y-96691083D01*
X66885090Y-96474959D01*
X66672890Y-96329969D01*
X66421000Y-96278960D01*
X64389000Y-96278960D01*
X64153683Y-96323238D01*
X63937559Y-96462310D01*
X63792569Y-96674510D01*
X63741560Y-96926400D01*
X63741560Y-98653600D01*
X63785838Y-98888917D01*
X63924910Y-99105041D01*
X64137110Y-99250031D01*
X64178439Y-99258400D01*
X64160585Y-99270330D01*
X63835729Y-99756511D01*
X63721655Y-100330000D01*
X62280000Y-100330000D01*
X62280000Y-63500000D01*
X63721655Y-63500000D01*
X63835729Y-64073489D01*
X64160585Y-64559670D01*
X64475366Y-64770000D01*
X64160585Y-64980330D01*
X63835729Y-65466511D01*
X63721655Y-66040000D01*
X63835729Y-66613489D01*
X64160585Y-67099670D01*
X64475366Y-67310000D01*
X64160585Y-67520330D01*
X63835729Y-68006511D01*
X63721655Y-68580000D01*
X63835729Y-69153489D01*
X64160585Y-69639670D01*
X64475366Y-69850000D01*
X64160585Y-70060330D01*
X63835729Y-70546511D01*
X63721655Y-71120000D01*
X63835729Y-71693489D01*
X64160585Y-72179670D01*
X64475366Y-72390000D01*
X64160585Y-72600330D01*
X63835729Y-73086511D01*
X63721655Y-73660000D01*
X63835729Y-74233489D01*
X64160585Y-74719670D01*
X64646766Y-75044526D01*
X65220255Y-75158600D01*
X65589745Y-75158600D01*
X66163234Y-75044526D01*
X66649415Y-74719670D01*
X66729510Y-74599800D01*
X76780490Y-74599800D01*
X76860585Y-74719670D01*
X77346766Y-75044526D01*
X77920255Y-75158600D01*
X78289745Y-75158600D01*
X78863234Y-75044526D01*
X79349415Y-74719670D01*
X79674271Y-74233489D01*
X79788345Y-73660000D01*
X79674271Y-73086511D01*
X79349415Y-72600330D01*
X79034634Y-72390000D01*
X79349415Y-72179670D01*
X79674271Y-71693489D01*
X79788345Y-71120000D01*
X79674271Y-70546511D01*
X79349415Y-70060330D01*
X79034634Y-69850000D01*
X79349415Y-69639670D01*
X79674271Y-69153489D01*
X79788345Y-68580000D01*
X79674271Y-68006511D01*
X79349415Y-67520330D01*
X79034634Y-67310000D01*
X79349415Y-67099670D01*
X79674271Y-66613489D01*
X79788345Y-66040000D01*
X79674271Y-65466511D01*
X79349415Y-64980330D01*
X79034634Y-64770000D01*
X79349415Y-64559670D01*
X79674271Y-64073489D01*
X79788345Y-63500000D01*
X79747977Y-63297055D01*
X80340200Y-63889278D01*
X80340200Y-65405000D01*
X80411738Y-65764646D01*
X80615461Y-66069539D01*
X82520461Y-67974539D01*
X82825354Y-68178262D01*
X83185000Y-68249800D01*
X87543960Y-68249800D01*
X87543960Y-68378362D01*
X82520461Y-73401861D01*
X82316738Y-73706754D01*
X82245200Y-74066400D01*
X82245200Y-77715722D01*
X81525722Y-78435200D01*
X79754102Y-78435200D01*
X79724162Y-78276083D01*
X79585090Y-78059959D01*
X79372890Y-77914969D01*
X79121000Y-77863960D01*
X77089000Y-77863960D01*
X76853683Y-77908238D01*
X76637559Y-78047310D01*
X76492569Y-78259510D01*
X76456991Y-78435200D01*
X67054102Y-78435200D01*
X67024162Y-78276083D01*
X66885090Y-78059959D01*
X66672890Y-77914969D01*
X66421000Y-77863960D01*
X64389000Y-77863960D01*
X64153683Y-77908238D01*
X63937559Y-78047310D01*
X63792569Y-78259510D01*
X63741560Y-78511400D01*
X63741560Y-80238600D01*
X63785838Y-80473917D01*
X63924910Y-80690041D01*
X64137110Y-80835031D01*
X64178439Y-80843400D01*
X64160585Y-80855330D01*
X63835729Y-81341511D01*
X63721655Y-81915000D01*
X63835729Y-82488489D01*
X64160585Y-82974670D01*
X64475366Y-83185000D01*
X64160585Y-83395330D01*
X63835729Y-83881511D01*
X63721655Y-84455000D01*
X63835729Y-85028489D01*
X64160585Y-85514670D01*
X64475366Y-85725000D01*
X64160585Y-85935330D01*
X63835729Y-86421511D01*
X63721655Y-86995000D01*
X63835729Y-87568489D01*
X64160585Y-88054670D01*
X64475366Y-88265000D01*
X64160585Y-88475330D01*
X63835729Y-88961511D01*
X63721655Y-89535000D01*
X63835729Y-90108489D01*
X64160585Y-90594670D01*
X64475366Y-90805000D01*
X64160585Y-91015330D01*
X63835729Y-91501511D01*
X63721655Y-92075000D01*
X63835729Y-92648489D01*
X64160585Y-93134670D01*
X64646766Y-93459526D01*
X65220255Y-93573600D01*
X65589745Y-93573600D01*
X66163234Y-93459526D01*
X66649415Y-93134670D01*
X66729510Y-93014800D01*
X76780490Y-93014800D01*
X76860585Y-93134670D01*
X77346766Y-93459526D01*
X77920255Y-93573600D01*
X78289745Y-93573600D01*
X78863234Y-93459526D01*
X79349415Y-93134670D01*
X79414701Y-93036963D01*
X102488714Y-93036963D01*
X102739534Y-93643995D01*
X103203563Y-94108834D01*
X103810155Y-94360713D01*
X104466963Y-94361286D01*
X105073995Y-94110466D01*
X105538834Y-93646437D01*
X105790713Y-93039845D01*
X105791286Y-92383037D01*
X105540466Y-91776005D01*
X105076437Y-91311166D01*
X104469845Y-91059287D01*
X103813037Y-91058714D01*
X103206005Y-91309534D01*
X102741166Y-91773563D01*
X102489287Y-92380155D01*
X102488714Y-93036963D01*
X79414701Y-93036963D01*
X79429510Y-93014800D01*
X99568000Y-93014800D01*
X99927646Y-92943262D01*
X100232539Y-92739539D01*
X104072137Y-88899941D01*
X104416661Y-88900242D01*
X104930303Y-88688010D01*
X105323629Y-88295370D01*
X105536757Y-87782100D01*
X105537242Y-87226339D01*
X105325010Y-86712697D01*
X104932370Y-86319371D01*
X104419100Y-86106243D01*
X103863339Y-86105758D01*
X103349697Y-86317990D01*
X102956371Y-86710630D01*
X102743243Y-87223900D01*
X102742940Y-87570982D01*
X99178722Y-91135200D01*
X79429510Y-91135200D01*
X79349415Y-91015330D01*
X79034634Y-90805000D01*
X79349415Y-90594670D01*
X79429510Y-90474800D01*
X86995000Y-90474800D01*
X87354646Y-90403262D01*
X87659539Y-90199539D01*
X90371638Y-87487440D01*
X91691400Y-87487440D01*
X91926717Y-87443162D01*
X92142841Y-87304090D01*
X92287831Y-87091890D01*
X92338840Y-86840000D01*
X92338840Y-83340000D01*
X92294562Y-83104683D01*
X92155490Y-82888559D01*
X91943290Y-82743569D01*
X91874450Y-82729628D01*
X92226638Y-82377440D01*
X92845000Y-82377440D01*
X93080317Y-82333162D01*
X93296441Y-82194090D01*
X93344134Y-82124289D01*
X93380910Y-82181441D01*
X93593110Y-82326431D01*
X93845000Y-82377440D01*
X94463362Y-82377440D01*
X94813341Y-82727419D01*
X94763283Y-82736838D01*
X94547159Y-82875910D01*
X94402169Y-83088110D01*
X94351160Y-83340000D01*
X94351160Y-86840000D01*
X94395438Y-87075317D01*
X94534510Y-87291441D01*
X94746710Y-87436431D01*
X94998600Y-87487440D01*
X98498600Y-87487440D01*
X98733917Y-87443162D01*
X98950041Y-87304090D01*
X99095031Y-87091890D01*
X99146040Y-86840000D01*
X99146040Y-86029800D01*
X102692200Y-86029800D01*
X103051846Y-85958262D01*
X103356739Y-85754539D01*
X104072137Y-85039141D01*
X104416661Y-85039442D01*
X104930303Y-84827210D01*
X105323629Y-84434570D01*
X105536757Y-83921300D01*
X105537242Y-83365539D01*
X105325010Y-82851897D01*
X104932370Y-82458571D01*
X104419100Y-82245443D01*
X103863339Y-82244958D01*
X103349697Y-82457190D01*
X102956371Y-82849830D01*
X102743243Y-83363100D01*
X102742940Y-83710182D01*
X102302922Y-84150200D01*
X99146040Y-84150200D01*
X99146040Y-83340000D01*
X99101762Y-83104683D01*
X98962690Y-82888559D01*
X98750490Y-82743569D01*
X98498600Y-82692560D01*
X97428841Y-82692560D01*
X97413139Y-82669061D01*
X95692440Y-80948362D01*
X95692440Y-80830000D01*
X95648162Y-80594683D01*
X95509090Y-80378559D01*
X95415776Y-80314800D01*
X103632000Y-80314800D01*
X103888490Y-80263781D01*
X104416661Y-80264242D01*
X104930303Y-80052010D01*
X105323629Y-79659370D01*
X105536757Y-79146100D01*
X105537242Y-78590339D01*
X105325010Y-78076697D01*
X104932370Y-77683371D01*
X104419100Y-77470243D01*
X103863339Y-77469758D01*
X103349697Y-77681990D01*
X102956371Y-78074630D01*
X102806649Y-78435200D01*
X98917235Y-78435200D01*
X98950041Y-78414090D01*
X99095031Y-78201890D01*
X99146040Y-77950000D01*
X99146040Y-77139800D01*
X102946200Y-77139800D01*
X103305846Y-77068262D01*
X103610739Y-76864539D01*
X104072137Y-76403141D01*
X104416661Y-76403442D01*
X104930303Y-76191210D01*
X105323629Y-75798570D01*
X105536757Y-75285300D01*
X105537242Y-74729539D01*
X105325010Y-74215897D01*
X104932370Y-73822571D01*
X104419100Y-73609443D01*
X103863339Y-73608958D01*
X103349697Y-73821190D01*
X102956371Y-74213830D01*
X102743243Y-74727100D01*
X102742940Y-75074182D01*
X102556922Y-75260200D01*
X99146040Y-75260200D01*
X99146040Y-74450000D01*
X99101762Y-74214683D01*
X98962690Y-73998559D01*
X98750490Y-73853569D01*
X98498600Y-73802560D01*
X97428841Y-73802560D01*
X97413139Y-73779061D01*
X95692440Y-72058362D01*
X95692440Y-71940000D01*
X95648162Y-71704683D01*
X95509090Y-71488559D01*
X95415776Y-71424800D01*
X103372125Y-71424800D01*
X103860900Y-71627757D01*
X104416661Y-71628242D01*
X104930303Y-71416010D01*
X105323629Y-71023370D01*
X105536757Y-70510100D01*
X105536778Y-70485000D01*
X121615200Y-70485000D01*
X121615200Y-97155000D01*
X121686738Y-97514646D01*
X121890461Y-97819539D01*
X126614861Y-102543939D01*
X126919754Y-102747662D01*
X127279400Y-102819200D01*
X127869226Y-102819200D01*
X128112630Y-103063029D01*
X128625900Y-103276157D01*
X129181661Y-103276642D01*
X129695303Y-103064410D01*
X130088629Y-102671770D01*
X130301757Y-102158500D01*
X130302242Y-101602739D01*
X130090010Y-101089097D01*
X129697370Y-100695771D01*
X129184100Y-100482643D01*
X128628339Y-100482158D01*
X128114697Y-100694390D01*
X127869059Y-100939600D01*
X127668678Y-100939600D01*
X124211041Y-97481963D01*
X127253714Y-97481963D01*
X127504534Y-98088995D01*
X127968563Y-98553834D01*
X128575155Y-98805713D01*
X129231963Y-98806286D01*
X129838995Y-98555466D01*
X130303834Y-98091437D01*
X130555713Y-97484845D01*
X130556286Y-96828037D01*
X130305466Y-96221005D01*
X129841437Y-95756166D01*
X129234845Y-95504287D01*
X128578037Y-95503714D01*
X127971005Y-95754534D01*
X127506166Y-96218563D01*
X127254287Y-96825155D01*
X127253714Y-97481963D01*
X124211041Y-97481963D01*
X123494800Y-96765722D01*
X123494800Y-85366661D01*
X126872758Y-85366661D01*
X127084990Y-85880303D01*
X127477630Y-86273629D01*
X127685512Y-86359949D01*
X127479697Y-86444990D01*
X127086371Y-86837630D01*
X126873243Y-87350900D01*
X126872758Y-87906661D01*
X127084990Y-88420303D01*
X127477630Y-88813629D01*
X127990900Y-89026757D01*
X128546661Y-89027242D01*
X129060303Y-88815010D01*
X129453629Y-88422370D01*
X129666757Y-87909100D01*
X129667242Y-87353339D01*
X129455010Y-86839697D01*
X129062370Y-86446371D01*
X128854488Y-86360051D01*
X129060303Y-86275010D01*
X129453629Y-85882370D01*
X129666757Y-85369100D01*
X129667242Y-84813339D01*
X129455010Y-84299697D01*
X129062370Y-83906371D01*
X128549100Y-83693243D01*
X127993339Y-83692758D01*
X127479697Y-83904990D01*
X127086371Y-84297630D01*
X126873243Y-84810900D01*
X126872758Y-85366661D01*
X123494800Y-85366661D01*
X123494800Y-80286661D01*
X126872758Y-80286661D01*
X127084990Y-80800303D01*
X127477630Y-81193629D01*
X127990900Y-81406757D01*
X128546661Y-81407242D01*
X129060303Y-81195010D01*
X129407719Y-80848200D01*
X130462806Y-80848200D01*
X131876800Y-82262194D01*
X131876800Y-103505000D01*
X131940604Y-103825766D01*
X132122303Y-104097697D01*
X133510806Y-105486200D01*
X132435600Y-105486200D01*
X132114835Y-105550004D01*
X131842903Y-105731703D01*
X130217303Y-107357303D01*
X130035604Y-107629234D01*
X129991373Y-107851598D01*
X129971800Y-107950000D01*
X129971800Y-122351800D01*
X129407197Y-122351800D01*
X129062370Y-122006371D01*
X128854488Y-121920051D01*
X129060303Y-121835010D01*
X129453629Y-121442370D01*
X129666757Y-120929100D01*
X129667242Y-120373339D01*
X129455010Y-119859697D01*
X129062370Y-119466371D01*
X128549100Y-119253243D01*
X127993339Y-119252758D01*
X127479697Y-119464990D01*
X127086371Y-119857630D01*
X126873243Y-120370900D01*
X126872758Y-120926661D01*
X127084990Y-121440303D01*
X127477630Y-121833629D01*
X127685512Y-121919949D01*
X127479697Y-122004990D01*
X127086371Y-122397630D01*
X126873243Y-122910900D01*
X126872758Y-123466661D01*
X127084990Y-123980303D01*
X127477630Y-124373629D01*
X127990900Y-124586757D01*
X128546661Y-124587242D01*
X129060303Y-124375010D01*
X129325024Y-124110750D01*
X134825000Y-124110750D01*
X134825000Y-124401310D01*
X134921673Y-124634699D01*
X135100302Y-124813327D01*
X135333691Y-124910000D01*
X135774250Y-124910000D01*
X135933000Y-124751250D01*
X135933000Y-123952000D01*
X134983750Y-123952000D01*
X134825000Y-124110750D01*
X129325024Y-124110750D01*
X129407719Y-124028200D01*
X130810000Y-124028200D01*
X131130765Y-123964396D01*
X131402697Y-123782697D01*
X131584396Y-123510765D01*
X131636525Y-123248690D01*
X134825000Y-123248690D01*
X134825000Y-123539250D01*
X134983750Y-123698000D01*
X135933000Y-123698000D01*
X135933000Y-122898750D01*
X135774250Y-122740000D01*
X135333691Y-122740000D01*
X135100302Y-122836673D01*
X134921673Y-123015301D01*
X134825000Y-123248690D01*
X131636525Y-123248690D01*
X131648200Y-123190000D01*
X131648200Y-120848104D01*
X131893201Y-120949838D01*
X132265167Y-120950162D01*
X132608943Y-120808117D01*
X132872192Y-120545327D01*
X133014838Y-120201799D01*
X133015162Y-119829833D01*
X132873117Y-119486057D01*
X132610327Y-119222808D01*
X132375830Y-119125436D01*
X132283200Y-119032806D01*
X132283200Y-114498104D01*
X132528201Y-114599838D01*
X132900167Y-114600162D01*
X133243943Y-114458117D01*
X133507192Y-114195327D01*
X133649838Y-113851799D01*
X133650162Y-113479833D01*
X133508117Y-113136057D01*
X133245327Y-112872808D01*
X133010830Y-112775436D01*
X132918200Y-112682806D01*
X132918200Y-109567194D01*
X133058723Y-109426671D01*
X133191883Y-109748943D01*
X133297710Y-109854954D01*
X133192808Y-109959673D01*
X133050162Y-110303201D01*
X133049838Y-110675167D01*
X133191883Y-111018943D01*
X133297710Y-111124954D01*
X133192808Y-111229673D01*
X133050162Y-111573201D01*
X133049838Y-111945167D01*
X133191883Y-112288943D01*
X133454673Y-112552192D01*
X133798201Y-112694838D01*
X134170167Y-112695162D01*
X134513943Y-112553117D01*
X134777192Y-112290327D01*
X134874564Y-112055830D01*
X136402289Y-110528105D01*
X136407857Y-110557696D01*
X136385560Y-110667800D01*
X136385560Y-110968046D01*
X136252303Y-111101303D01*
X136070604Y-111373234D01*
X136030828Y-111573201D01*
X136006800Y-111694000D01*
X136006800Y-113323693D01*
X135793559Y-113460910D01*
X135648569Y-113673110D01*
X135597560Y-113925000D01*
X135597560Y-114218362D01*
X134361149Y-115454773D01*
X134345715Y-115454760D01*
X133836485Y-115665169D01*
X133446539Y-116054436D01*
X133235241Y-116563298D01*
X133234760Y-117114285D01*
X133445169Y-117623515D01*
X133834436Y-118013461D01*
X134343298Y-118224759D01*
X134894285Y-118225240D01*
X135403515Y-118014831D01*
X135793461Y-117625564D01*
X135905200Y-117356467D01*
X135905200Y-119700000D01*
X135976738Y-120059646D01*
X136180461Y-120364539D01*
X137375385Y-121559463D01*
X137514311Y-121895689D01*
X137817714Y-122199622D01*
X138214332Y-122364313D01*
X138643784Y-122364687D01*
X139040689Y-122200689D01*
X139344622Y-121897286D01*
X139509313Y-121500668D01*
X139509687Y-121071216D01*
X139345689Y-120674311D01*
X139042286Y-120370378D01*
X138703977Y-120229899D01*
X137784800Y-119310722D01*
X137784800Y-115212825D01*
X137785302Y-115213327D01*
X138018691Y-115310000D01*
X138459250Y-115310000D01*
X138618000Y-115151250D01*
X138618000Y-114427000D01*
X138872000Y-114427000D01*
X138872000Y-115151250D01*
X139030750Y-115310000D01*
X139471309Y-115310000D01*
X139704698Y-115213327D01*
X139883327Y-115034699D01*
X139980000Y-114801310D01*
X139980000Y-114585750D01*
X139821250Y-114427000D01*
X138872000Y-114427000D01*
X138618000Y-114427000D01*
X138598000Y-114427000D01*
X138598000Y-114173000D01*
X138618000Y-114173000D01*
X138618000Y-113448750D01*
X138872000Y-113448750D01*
X138872000Y-114173000D01*
X139821250Y-114173000D01*
X139980000Y-114014250D01*
X139980000Y-113798690D01*
X141325000Y-113798690D01*
X141325000Y-114014250D01*
X141483750Y-114173000D01*
X142433000Y-114173000D01*
X142433000Y-113448750D01*
X142274250Y-113290000D01*
X141833691Y-113290000D01*
X141600302Y-113386673D01*
X141421673Y-113565301D01*
X141325000Y-113798690D01*
X139980000Y-113798690D01*
X139883327Y-113565301D01*
X139704698Y-113386673D01*
X139471309Y-113290000D01*
X139030750Y-113290000D01*
X138872000Y-113448750D01*
X138618000Y-113448750D01*
X138459250Y-113290000D01*
X138018691Y-113290000D01*
X137785302Y-113386673D01*
X137783932Y-113388043D01*
X137696890Y-113328569D01*
X137683200Y-113325797D01*
X137683200Y-112041194D01*
X138002754Y-111721640D01*
X138303000Y-111721640D01*
X138538317Y-111677362D01*
X138754441Y-111538290D01*
X138899431Y-111326090D01*
X138950440Y-111074200D01*
X138962044Y-111074200D01*
X139169673Y-111282192D01*
X139513201Y-111424838D01*
X139885167Y-111425162D01*
X140228943Y-111283117D01*
X140492192Y-111020327D01*
X140634838Y-110676799D01*
X140635162Y-110304833D01*
X140493117Y-109961057D01*
X140230327Y-109697808D01*
X139939595Y-109577085D01*
X139766766Y-109461604D01*
X139446000Y-109397800D01*
X138950440Y-109397800D01*
X138950440Y-109372400D01*
X138928143Y-109253904D01*
X138950440Y-109143800D01*
X138950440Y-108737400D01*
X138925666Y-108605738D01*
X138950440Y-108483400D01*
X138950440Y-108385834D01*
X139437503Y-108872897D01*
X139709434Y-109054596D01*
X140030200Y-109118400D01*
X141719560Y-109118400D01*
X141719560Y-109143800D01*
X141741857Y-109262296D01*
X141719560Y-109372400D01*
X141719560Y-109778800D01*
X141744334Y-109910462D01*
X141719560Y-110032800D01*
X141719560Y-110439200D01*
X141741857Y-110557696D01*
X141719560Y-110667800D01*
X141719560Y-111074200D01*
X141763838Y-111309517D01*
X141902910Y-111525641D01*
X142115110Y-111670631D01*
X142367000Y-111721640D01*
X142667246Y-111721640D01*
X143621800Y-112676194D01*
X143621800Y-113323693D01*
X143521354Y-113388329D01*
X143519698Y-113386673D01*
X143286309Y-113290000D01*
X142845750Y-113290000D01*
X142687000Y-113448750D01*
X142687000Y-114173000D01*
X142707000Y-114173000D01*
X142707000Y-114427000D01*
X142687000Y-114427000D01*
X142687000Y-114447000D01*
X142433000Y-114447000D01*
X142433000Y-114427000D01*
X141483750Y-114427000D01*
X141325000Y-114585750D01*
X141325000Y-114801310D01*
X141421673Y-115034699D01*
X141600302Y-115213327D01*
X141725534Y-115265200D01*
X141605000Y-115265200D01*
X141245354Y-115336738D01*
X140940461Y-115540461D01*
X140625461Y-115855461D01*
X140421738Y-116160354D01*
X140350200Y-116520000D01*
X140350200Y-118223819D01*
X140317560Y-118385000D01*
X140317560Y-119445000D01*
X140361838Y-119680317D01*
X140500910Y-119896441D01*
X140676232Y-120016233D01*
X140513559Y-120120910D01*
X140368569Y-120333110D01*
X140317560Y-120585000D01*
X140317560Y-121645000D01*
X140350200Y-121818466D01*
X140350200Y-122763273D01*
X140304683Y-122771838D01*
X140128513Y-122885200D01*
X139267950Y-122885200D01*
X139111890Y-122778569D01*
X138860000Y-122727560D01*
X137660000Y-122727560D01*
X137424683Y-122771838D01*
X137208559Y-122910910D01*
X137162031Y-122979006D01*
X137019698Y-122836673D01*
X136786309Y-122740000D01*
X136345750Y-122740000D01*
X136187000Y-122898750D01*
X136187000Y-123698000D01*
X136207000Y-123698000D01*
X136207000Y-123952000D01*
X136187000Y-123952000D01*
X136187000Y-124751250D01*
X136345750Y-124910000D01*
X136786309Y-124910000D01*
X137019698Y-124813327D01*
X137160936Y-124672090D01*
X137195910Y-124726441D01*
X137408110Y-124871431D01*
X137660000Y-124922440D01*
X138860000Y-124922440D01*
X139095317Y-124878162D01*
X139271487Y-124764800D01*
X140132050Y-124764800D01*
X140288110Y-124871431D01*
X140540000Y-124922440D01*
X141740000Y-124922440D01*
X141975317Y-124878162D01*
X142191441Y-124739090D01*
X142239134Y-124669289D01*
X142275910Y-124726441D01*
X142400200Y-124811365D01*
X142400200Y-125378273D01*
X142354683Y-125386838D01*
X142251354Y-125453329D01*
X142249698Y-125451673D01*
X142016309Y-125355000D01*
X141575750Y-125355000D01*
X141417000Y-125513750D01*
X141417000Y-126238000D01*
X141437000Y-126238000D01*
X141437000Y-126492000D01*
X141417000Y-126492000D01*
X141417000Y-127216250D01*
X141575750Y-127375000D01*
X142016309Y-127375000D01*
X142249698Y-127278327D01*
X142251068Y-127276957D01*
X142338110Y-127336431D01*
X142590000Y-127387440D01*
X143790000Y-127387440D01*
X144025317Y-127343162D01*
X144241441Y-127204090D01*
X144386431Y-126991890D01*
X144437440Y-126740000D01*
X144437440Y-125990000D01*
X144393162Y-125754683D01*
X144279800Y-125578513D01*
X144279800Y-124810929D01*
X144351487Y-124764800D01*
X144863349Y-124764800D01*
X145199332Y-124904313D01*
X145628784Y-124904687D01*
X146025689Y-124740689D01*
X146329622Y-124437286D01*
X146380200Y-124315481D01*
X146380200Y-127245722D01*
X145470874Y-128155048D01*
X145140715Y-128154760D01*
X144631485Y-128365169D01*
X144241539Y-128754436D01*
X144030241Y-129263298D01*
X144029760Y-129814285D01*
X144240169Y-130323515D01*
X144629436Y-130713461D01*
X145138298Y-130924759D01*
X145689285Y-130925240D01*
X146198515Y-130714831D01*
X146588461Y-130325564D01*
X146799759Y-129816702D01*
X146800049Y-129484029D01*
X147687115Y-128596963D01*
X149478714Y-128596963D01*
X149729534Y-129203995D01*
X150193563Y-129668834D01*
X150800155Y-129920713D01*
X151456963Y-129921286D01*
X152063995Y-129670466D01*
X152528834Y-129206437D01*
X152780713Y-128599845D01*
X152781286Y-127943037D01*
X152530466Y-127336005D01*
X152066437Y-126871166D01*
X151459845Y-126619287D01*
X150803037Y-126618714D01*
X150196005Y-126869534D01*
X149731166Y-127333563D01*
X149479287Y-127940155D01*
X149478714Y-128596963D01*
X147687115Y-128596963D01*
X147984539Y-128299539D01*
X148188262Y-127994646D01*
X148259800Y-127635000D01*
X148259800Y-122235000D01*
X148188262Y-121875354D01*
X147984539Y-121570461D01*
X147079091Y-120665013D01*
X150329392Y-120665013D01*
X150398857Y-120907197D01*
X150922302Y-121093944D01*
X151477368Y-121066162D01*
X151861143Y-120907197D01*
X151930608Y-120665013D01*
X151130000Y-119864405D01*
X150329392Y-120665013D01*
X147079091Y-120665013D01*
X147072440Y-120658362D01*
X147072440Y-120365000D01*
X147028162Y-120129683D01*
X146961671Y-120026354D01*
X146963327Y-120024698D01*
X147060000Y-119791309D01*
X147060000Y-119477102D01*
X149720856Y-119477102D01*
X149748638Y-120032168D01*
X149907603Y-120415943D01*
X150149787Y-120485408D01*
X150950395Y-119684800D01*
X151309605Y-119684800D01*
X152110213Y-120485408D01*
X152352397Y-120415943D01*
X152539144Y-119892498D01*
X152511362Y-119337432D01*
X152352397Y-118953657D01*
X152110213Y-118884192D01*
X151309605Y-119684800D01*
X150950395Y-119684800D01*
X150149787Y-118884192D01*
X149907603Y-118953657D01*
X149720856Y-119477102D01*
X147060000Y-119477102D01*
X147060000Y-119350750D01*
X146901250Y-119192000D01*
X146177000Y-119192000D01*
X146177000Y-119212000D01*
X145923000Y-119212000D01*
X145923000Y-119192000D01*
X145903000Y-119192000D01*
X145903000Y-118938000D01*
X145923000Y-118938000D01*
X145923000Y-117988750D01*
X146177000Y-117988750D01*
X146177000Y-118938000D01*
X146901250Y-118938000D01*
X147060000Y-118779250D01*
X147060000Y-118704587D01*
X150329392Y-118704587D01*
X151130000Y-119505195D01*
X151930608Y-118704587D01*
X151861143Y-118462403D01*
X151337698Y-118275656D01*
X150782632Y-118303438D01*
X150398857Y-118462403D01*
X150329392Y-118704587D01*
X147060000Y-118704587D01*
X147060000Y-118338691D01*
X146963327Y-118105302D01*
X146784699Y-117926673D01*
X146551310Y-117830000D01*
X146335750Y-117830000D01*
X146177000Y-117988750D01*
X145923000Y-117988750D01*
X145764250Y-117830000D01*
X145719800Y-117830000D01*
X145719800Y-115239800D01*
X146912920Y-115239800D01*
X147039311Y-115545689D01*
X147342714Y-115849622D01*
X147739332Y-116014313D01*
X148168784Y-116014687D01*
X148565689Y-115850689D01*
X148869622Y-115547286D01*
X149034313Y-115150668D01*
X149034687Y-114721216D01*
X148870689Y-114324311D01*
X148567286Y-114020378D01*
X148228977Y-113879899D01*
X147984539Y-113635461D01*
X147679646Y-113431738D01*
X147395476Y-113375213D01*
X150964392Y-113375213D01*
X151033857Y-113617397D01*
X151557302Y-113804144D01*
X152112368Y-113776362D01*
X152496143Y-113617397D01*
X152565608Y-113375213D01*
X151765000Y-112574605D01*
X150964392Y-113375213D01*
X147395476Y-113375213D01*
X147320000Y-113360200D01*
X145358184Y-113360200D01*
X145311890Y-113328569D01*
X145298200Y-113325797D01*
X145298200Y-112329000D01*
X145292204Y-112298857D01*
X145270015Y-112187302D01*
X150355856Y-112187302D01*
X150383638Y-112742368D01*
X150542603Y-113126143D01*
X150784787Y-113195608D01*
X151585395Y-112395000D01*
X151944605Y-112395000D01*
X152745213Y-113195608D01*
X152987397Y-113126143D01*
X153174144Y-112602698D01*
X153146362Y-112047632D01*
X152987397Y-111663857D01*
X152745213Y-111594392D01*
X151944605Y-112395000D01*
X151585395Y-112395000D01*
X150784787Y-111594392D01*
X150542603Y-111663857D01*
X150355856Y-112187302D01*
X145270015Y-112187302D01*
X145234396Y-112008234D01*
X145052697Y-111736303D01*
X144390594Y-111074200D01*
X146939000Y-111074200D01*
X147259766Y-111010396D01*
X147531697Y-110828697D01*
X148228733Y-110131661D01*
X150367758Y-110131661D01*
X150579990Y-110645303D01*
X150972630Y-111038629D01*
X151164727Y-111118395D01*
X151033857Y-111172603D01*
X150964392Y-111414787D01*
X151765000Y-112215395D01*
X152565608Y-111414787D01*
X152496143Y-111172603D01*
X152355682Y-111122491D01*
X152555303Y-111040010D01*
X152948629Y-110647370D01*
X153161757Y-110134100D01*
X153162242Y-109578339D01*
X152950010Y-109064697D01*
X152557370Y-108671371D01*
X152044100Y-108458243D01*
X151488339Y-108457758D01*
X150974697Y-108669990D01*
X150581371Y-109062630D01*
X150368243Y-109575900D01*
X150367758Y-110131661D01*
X148228733Y-110131661D01*
X148547697Y-109812697D01*
X148729396Y-109540766D01*
X148793200Y-109220000D01*
X148793200Y-102511661D01*
X150367758Y-102511661D01*
X150579990Y-103025303D01*
X150972630Y-103418629D01*
X151180512Y-103504949D01*
X150974697Y-103589990D01*
X150581371Y-103982630D01*
X150368243Y-104495900D01*
X150367758Y-105051661D01*
X150579990Y-105565303D01*
X150972630Y-105958629D01*
X151485900Y-106171757D01*
X152041661Y-106172242D01*
X152555303Y-105960010D01*
X152948629Y-105567370D01*
X153161757Y-105054100D01*
X153162242Y-104498339D01*
X152950010Y-103984697D01*
X152557370Y-103591371D01*
X152349488Y-103505051D01*
X152555303Y-103420010D01*
X152948629Y-103027370D01*
X153161757Y-102514100D01*
X153162242Y-101958339D01*
X152950010Y-101444697D01*
X152557370Y-101051371D01*
X152044100Y-100838243D01*
X151488339Y-100837758D01*
X150974697Y-101049990D01*
X150581371Y-101442630D01*
X150368243Y-101955900D01*
X150367758Y-102511661D01*
X148793200Y-102511661D01*
X148793200Y-93036963D01*
X149478714Y-93036963D01*
X149729534Y-93643995D01*
X150193563Y-94108834D01*
X150800155Y-94360713D01*
X151456963Y-94361286D01*
X152063995Y-94110466D01*
X152528834Y-93646437D01*
X152780713Y-93039845D01*
X152781286Y-92383037D01*
X152530466Y-91776005D01*
X152066437Y-91311166D01*
X151459845Y-91059287D01*
X150803037Y-91058714D01*
X150196005Y-91309534D01*
X149731166Y-91773563D01*
X149479287Y-92380155D01*
X149478714Y-93036963D01*
X148793200Y-93036963D01*
X148793200Y-88262261D01*
X149732758Y-88262261D01*
X149944990Y-88775903D01*
X150337630Y-89169229D01*
X150850900Y-89382357D01*
X151406661Y-89382842D01*
X151920303Y-89170610D01*
X152013275Y-89077800D01*
X154423722Y-89077800D01*
X156540200Y-91194278D01*
X156540200Y-116958722D01*
X151350130Y-122148792D01*
X150853339Y-122148358D01*
X150339697Y-122360590D01*
X149946371Y-122753230D01*
X149733243Y-123266500D01*
X149732758Y-123822261D01*
X149944990Y-124335903D01*
X150337630Y-124729229D01*
X150850900Y-124942357D01*
X151406661Y-124942842D01*
X151920303Y-124730610D01*
X152313629Y-124337970D01*
X152526757Y-123824700D01*
X152526927Y-123630151D01*
X158144539Y-118012539D01*
X158348262Y-117707646D01*
X158419800Y-117348000D01*
X158419800Y-102638661D01*
X174497758Y-102638661D01*
X174709990Y-103152303D01*
X175102630Y-103545629D01*
X175615900Y-103758757D01*
X176171661Y-103759242D01*
X176685303Y-103547010D01*
X176778275Y-103454200D01*
X178790600Y-103454200D01*
X179150246Y-103382662D01*
X179455139Y-103178939D01*
X183904278Y-98729800D01*
X200605490Y-98729800D01*
X200685585Y-98849670D01*
X201000366Y-99060000D01*
X200685585Y-99270330D01*
X200605490Y-99390200D01*
X195808600Y-99390200D01*
X195448954Y-99461738D01*
X195354276Y-99525000D01*
X195144061Y-99665461D01*
X191161962Y-103647560D01*
X188343600Y-103647560D01*
X188108283Y-103691838D01*
X187892159Y-103830910D01*
X187747169Y-104043110D01*
X187696160Y-104295000D01*
X187696160Y-107795000D01*
X187740438Y-108030317D01*
X187879510Y-108246441D01*
X188091710Y-108391431D01*
X188160550Y-108405372D01*
X187808362Y-108757560D01*
X187190000Y-108757560D01*
X186954683Y-108801838D01*
X186738559Y-108940910D01*
X186690866Y-109010711D01*
X186654090Y-108953559D01*
X186441890Y-108808569D01*
X186190000Y-108757560D01*
X185571638Y-108757560D01*
X185221659Y-108407581D01*
X185271717Y-108398162D01*
X185487841Y-108259090D01*
X185632831Y-108046890D01*
X185683840Y-107795000D01*
X185683840Y-104295000D01*
X185639562Y-104059683D01*
X185500490Y-103843559D01*
X185288290Y-103698569D01*
X185036400Y-103647560D01*
X181536400Y-103647560D01*
X181301083Y-103691838D01*
X181084959Y-103830910D01*
X180939969Y-104043110D01*
X180888960Y-104295000D01*
X180888960Y-105435400D01*
X177081209Y-105435400D01*
X177080010Y-105432497D01*
X176687370Y-105039171D01*
X176174100Y-104826043D01*
X175618339Y-104825558D01*
X175104697Y-105037790D01*
X174711371Y-105430430D01*
X174498243Y-105943700D01*
X174497758Y-106499461D01*
X174709990Y-107013103D01*
X175102630Y-107406429D01*
X175615900Y-107619557D01*
X176171661Y-107620042D01*
X176685303Y-107407810D01*
X176778275Y-107315000D01*
X180888960Y-107315000D01*
X180888960Y-107795000D01*
X180933238Y-108030317D01*
X181072310Y-108246441D01*
X181284510Y-108391431D01*
X181536400Y-108442440D01*
X182606159Y-108442440D01*
X182621861Y-108465939D01*
X184342560Y-110186638D01*
X184342560Y-110305000D01*
X184386838Y-110540317D01*
X184525910Y-110756441D01*
X184619224Y-110820200D01*
X177292156Y-110820200D01*
X177292242Y-110721339D01*
X177080010Y-110207697D01*
X176687370Y-109814371D01*
X176174100Y-109601243D01*
X175618339Y-109600758D01*
X175104697Y-109812990D01*
X174711371Y-110205630D01*
X174498243Y-110718900D01*
X174497758Y-111274661D01*
X174709990Y-111788303D01*
X175102630Y-112181629D01*
X175615900Y-112394757D01*
X175810449Y-112394927D01*
X175840061Y-112424539D01*
X176144954Y-112628262D01*
X176504600Y-112699800D01*
X181117765Y-112699800D01*
X181084959Y-112720910D01*
X180939969Y-112933110D01*
X180888960Y-113185000D01*
X180888960Y-114071400D01*
X177081209Y-114071400D01*
X177080010Y-114068497D01*
X176687370Y-113675171D01*
X176174100Y-113462043D01*
X175618339Y-113461558D01*
X175104697Y-113673790D01*
X174711371Y-114066430D01*
X174498243Y-114579700D01*
X174497758Y-115135461D01*
X174709990Y-115649103D01*
X175102630Y-116042429D01*
X175615900Y-116255557D01*
X176171661Y-116256042D01*
X176685303Y-116043810D01*
X176778275Y-115951000D01*
X180888960Y-115951000D01*
X180888960Y-116685000D01*
X180933238Y-116920317D01*
X181072310Y-117136441D01*
X181284510Y-117281431D01*
X181536400Y-117332440D01*
X182606159Y-117332440D01*
X182621861Y-117355939D01*
X184342560Y-119076638D01*
X184342560Y-119195000D01*
X184386838Y-119430317D01*
X184525910Y-119646441D01*
X184619224Y-119710200D01*
X177291934Y-119710200D01*
X177292242Y-119357339D01*
X177080010Y-118843697D01*
X176687370Y-118450371D01*
X176174100Y-118237243D01*
X175618339Y-118236758D01*
X175104697Y-118448990D01*
X174711371Y-118841630D01*
X174498243Y-119354900D01*
X174497758Y-119910661D01*
X174709990Y-120424303D01*
X175102630Y-120817629D01*
X175615900Y-121030757D01*
X175810449Y-121030927D01*
X176094061Y-121314539D01*
X176398954Y-121518262D01*
X176758600Y-121589800D01*
X181117765Y-121589800D01*
X181084959Y-121610910D01*
X180939969Y-121823110D01*
X180888960Y-122075000D01*
X180888960Y-122707400D01*
X177081209Y-122707400D01*
X177080010Y-122704497D01*
X176687370Y-122311171D01*
X176174100Y-122098043D01*
X175618339Y-122097558D01*
X175104697Y-122309790D01*
X174711371Y-122702430D01*
X174498243Y-123215700D01*
X174497758Y-123771461D01*
X174709990Y-124285103D01*
X175102630Y-124678429D01*
X175615900Y-124891557D01*
X176171661Y-124892042D01*
X176685303Y-124679810D01*
X176778275Y-124587000D01*
X180888960Y-124587000D01*
X180888960Y-125575000D01*
X180933238Y-125810317D01*
X181072310Y-126026441D01*
X181284510Y-126171431D01*
X181536400Y-126222440D01*
X182606159Y-126222440D01*
X182621861Y-126245939D01*
X184342560Y-127966638D01*
X184342560Y-128085000D01*
X184386838Y-128320317D01*
X184525910Y-128536441D01*
X184738110Y-128681431D01*
X184990000Y-128732440D01*
X186190000Y-128732440D01*
X186425317Y-128688162D01*
X186641441Y-128549090D01*
X186689134Y-128479289D01*
X186725910Y-128536441D01*
X186938110Y-128681431D01*
X187190000Y-128732440D01*
X188390000Y-128732440D01*
X188625317Y-128688162D01*
X188695026Y-128643305D01*
X193059674Y-128643305D01*
X193346043Y-129336372D01*
X193875839Y-129867093D01*
X194568405Y-130154672D01*
X195318305Y-130155326D01*
X196011372Y-129868957D01*
X196542093Y-129339161D01*
X196829672Y-128646595D01*
X196830326Y-127896695D01*
X196543957Y-127203628D01*
X196014161Y-126672907D01*
X195321595Y-126385328D01*
X194571695Y-126384674D01*
X193878628Y-126671043D01*
X193347907Y-127200839D01*
X193060328Y-127893405D01*
X193059674Y-128643305D01*
X188695026Y-128643305D01*
X188841441Y-128549090D01*
X188986431Y-128336890D01*
X189037440Y-128085000D01*
X189037440Y-127966638D01*
X190758139Y-126245939D01*
X190773841Y-126222440D01*
X191843600Y-126222440D01*
X192078917Y-126178162D01*
X192295041Y-126039090D01*
X192440031Y-125826890D01*
X192491040Y-125575000D01*
X192491040Y-124764800D01*
X197095722Y-124764800D01*
X198450200Y-126119278D01*
X198450200Y-127635000D01*
X198521738Y-127994646D01*
X198725461Y-128299539D01*
X199995461Y-129569539D01*
X200266560Y-129750682D01*
X200266560Y-129768600D01*
X200310838Y-130003917D01*
X200449910Y-130220041D01*
X200662110Y-130365031D01*
X200914000Y-130416040D01*
X202946000Y-130416040D01*
X203181317Y-130371762D01*
X203397441Y-130232690D01*
X203542431Y-130020490D01*
X203578009Y-129844800D01*
X212980898Y-129844800D01*
X213010838Y-130003917D01*
X213149910Y-130220041D01*
X213362110Y-130365031D01*
X213614000Y-130416040D01*
X215646000Y-130416040D01*
X215881317Y-130371762D01*
X216097441Y-130232690D01*
X216242431Y-130020490D01*
X216293440Y-129768600D01*
X216293440Y-128041400D01*
X216249162Y-127806083D01*
X216110090Y-127589959D01*
X215897890Y-127444969D01*
X215856561Y-127436600D01*
X215874415Y-127424670D01*
X216199271Y-126938489D01*
X216313345Y-126365000D01*
X216199271Y-125791511D01*
X215874415Y-125305330D01*
X215559634Y-125095000D01*
X215874415Y-124884670D01*
X216199271Y-124398489D01*
X216313345Y-123825000D01*
X216199271Y-123251511D01*
X215874415Y-122765330D01*
X215559634Y-122555000D01*
X215874415Y-122344670D01*
X216199271Y-121858489D01*
X216313345Y-121285000D01*
X216199271Y-120711511D01*
X215874415Y-120225330D01*
X215559634Y-120015000D01*
X215874415Y-119804670D01*
X216199271Y-119318489D01*
X216313345Y-118745000D01*
X216199271Y-118171511D01*
X215874415Y-117685330D01*
X215559634Y-117475000D01*
X215874415Y-117264670D01*
X216199271Y-116778489D01*
X216313345Y-116205000D01*
X216199271Y-115631511D01*
X215874415Y-115145330D01*
X215388234Y-114820474D01*
X214814745Y-114706400D01*
X214445255Y-114706400D01*
X213871766Y-114820474D01*
X213385585Y-115145330D01*
X213305490Y-115265200D01*
X203254510Y-115265200D01*
X203174415Y-115145330D01*
X202688234Y-114820474D01*
X202114745Y-114706400D01*
X201745255Y-114706400D01*
X201171766Y-114820474D01*
X200685585Y-115145330D01*
X200360729Y-115631511D01*
X200246655Y-116205000D01*
X200360729Y-116778489D01*
X200685585Y-117264670D01*
X201000366Y-117475000D01*
X200685585Y-117685330D01*
X200360729Y-118171511D01*
X200246655Y-118745000D01*
X200360729Y-119318489D01*
X200685585Y-119804670D01*
X201000366Y-120015000D01*
X200685585Y-120225330D01*
X200360729Y-120711511D01*
X200246655Y-121285000D01*
X200360729Y-121858489D01*
X200685585Y-122344670D01*
X201000366Y-122555000D01*
X200685585Y-122765330D01*
X200360729Y-123251511D01*
X200246655Y-123825000D01*
X200360729Y-124398489D01*
X200685585Y-124884670D01*
X201000366Y-125095000D01*
X200685585Y-125305330D01*
X200360729Y-125791511D01*
X200329800Y-125947002D01*
X200329800Y-125730000D01*
X200258262Y-125370354D01*
X200054539Y-125065461D01*
X198149539Y-123160461D01*
X197844646Y-122956738D01*
X197485000Y-122885200D01*
X195943878Y-122885200D01*
X196879539Y-121949539D01*
X197083262Y-121644646D01*
X197154800Y-121285000D01*
X197154800Y-113419278D01*
X199144278Y-111429800D01*
X200280898Y-111429800D01*
X200310838Y-111588917D01*
X200449910Y-111805041D01*
X200662110Y-111950031D01*
X200914000Y-112001040D01*
X202946000Y-112001040D01*
X203181317Y-111956762D01*
X203397441Y-111817690D01*
X203542431Y-111605490D01*
X203578009Y-111429800D01*
X212980898Y-111429800D01*
X213010838Y-111588917D01*
X213149910Y-111805041D01*
X213362110Y-111950031D01*
X213614000Y-112001040D01*
X215646000Y-112001040D01*
X215881317Y-111956762D01*
X216097441Y-111817690D01*
X216242431Y-111605490D01*
X216293440Y-111353600D01*
X216293440Y-109626400D01*
X216249162Y-109391083D01*
X216110090Y-109174959D01*
X215897890Y-109029969D01*
X215856561Y-109021600D01*
X215874415Y-109009670D01*
X216199271Y-108523489D01*
X216313345Y-107950000D01*
X216199271Y-107376511D01*
X215874415Y-106890330D01*
X215559634Y-106680000D01*
X215874415Y-106469670D01*
X216199271Y-105983489D01*
X216313345Y-105410000D01*
X216199271Y-104836511D01*
X215874415Y-104350330D01*
X215559634Y-104140000D01*
X215874415Y-103929670D01*
X216199271Y-103443489D01*
X216313345Y-102870000D01*
X216199271Y-102296511D01*
X215874415Y-101810330D01*
X215559634Y-101600000D01*
X215874415Y-101389670D01*
X216199271Y-100903489D01*
X216313345Y-100330000D01*
X216199271Y-99756511D01*
X215874415Y-99270330D01*
X215559634Y-99060000D01*
X215874415Y-98849670D01*
X216199271Y-98363489D01*
X216313345Y-97790000D01*
X216199271Y-97216511D01*
X215874415Y-96730330D01*
X215388234Y-96405474D01*
X214814745Y-96291400D01*
X214445255Y-96291400D01*
X213871766Y-96405474D01*
X213385585Y-96730330D01*
X213305490Y-96850200D01*
X203254510Y-96850200D01*
X203174415Y-96730330D01*
X202688234Y-96405474D01*
X202114745Y-96291400D01*
X201745255Y-96291400D01*
X201171766Y-96405474D01*
X200685585Y-96730330D01*
X200605490Y-96850200D01*
X183515000Y-96850200D01*
X183155354Y-96921738D01*
X182850461Y-97125461D01*
X178401322Y-101574600D01*
X177081209Y-101574600D01*
X177080010Y-101571697D01*
X176687370Y-101178371D01*
X176174100Y-100965243D01*
X175618339Y-100964758D01*
X175104697Y-101176990D01*
X174711371Y-101569630D01*
X174498243Y-102082900D01*
X174497758Y-102638661D01*
X158419800Y-102638661D01*
X158419800Y-97481963D01*
X174243714Y-97481963D01*
X174494534Y-98088995D01*
X174958563Y-98553834D01*
X175565155Y-98805713D01*
X176221963Y-98806286D01*
X176828995Y-98555466D01*
X177293834Y-98091437D01*
X177545713Y-97484845D01*
X177546286Y-96828037D01*
X177295466Y-96221005D01*
X176831437Y-95756166D01*
X176224845Y-95504287D01*
X175568037Y-95503714D01*
X174961005Y-95754534D01*
X174496166Y-96218563D01*
X174244287Y-96825155D01*
X174243714Y-97481963D01*
X158419800Y-97481963D01*
X158419800Y-90805000D01*
X158348262Y-90445354D01*
X158144539Y-90140461D01*
X155477539Y-87473461D01*
X155172646Y-87269738D01*
X154813000Y-87198200D01*
X152316209Y-87198200D01*
X152315010Y-87195297D01*
X151922370Y-86801971D01*
X151409100Y-86588843D01*
X150853339Y-86588358D01*
X150339697Y-86800590D01*
X149946371Y-87193230D01*
X149733243Y-87706500D01*
X149732758Y-88262261D01*
X148793200Y-88262261D01*
X148793200Y-85105013D01*
X150329392Y-85105013D01*
X150398857Y-85347197D01*
X150922302Y-85533944D01*
X151477368Y-85506162D01*
X151861143Y-85347197D01*
X151930608Y-85105013D01*
X151130000Y-84304405D01*
X150329392Y-85105013D01*
X148793200Y-85105013D01*
X148793200Y-83917102D01*
X149720856Y-83917102D01*
X149748638Y-84472168D01*
X149907603Y-84855943D01*
X150149787Y-84925408D01*
X150950395Y-84124800D01*
X151309605Y-84124800D01*
X152110213Y-84925408D01*
X152352397Y-84855943D01*
X152539144Y-84332498D01*
X152511362Y-83777432D01*
X152352397Y-83393657D01*
X152110213Y-83324192D01*
X151309605Y-84124800D01*
X150950395Y-84124800D01*
X150149787Y-83324192D01*
X149907603Y-83393657D01*
X149720856Y-83917102D01*
X148793200Y-83917102D01*
X148793200Y-83144587D01*
X150329392Y-83144587D01*
X151130000Y-83945195D01*
X151930608Y-83144587D01*
X151861143Y-82902403D01*
X151337698Y-82715656D01*
X150782632Y-82743438D01*
X150398857Y-82902403D01*
X150329392Y-83144587D01*
X148793200Y-83144587D01*
X148793200Y-80357194D01*
X149817697Y-79332697D01*
X149999396Y-79060766D01*
X150063200Y-78740000D01*
X150063200Y-77815213D01*
X150964392Y-77815213D01*
X151033857Y-78057397D01*
X151557302Y-78244144D01*
X152112368Y-78216362D01*
X152496143Y-78057397D01*
X152565608Y-77815213D01*
X151765000Y-77014605D01*
X150964392Y-77815213D01*
X150063200Y-77815213D01*
X150063200Y-76627302D01*
X150355856Y-76627302D01*
X150383638Y-77182368D01*
X150542603Y-77566143D01*
X150784787Y-77635608D01*
X151585395Y-76835000D01*
X151944605Y-76835000D01*
X152745213Y-77635608D01*
X152987397Y-77566143D01*
X153174144Y-77042698D01*
X153146362Y-76487632D01*
X152987397Y-76103857D01*
X152745213Y-76034392D01*
X151944605Y-76835000D01*
X151585395Y-76835000D01*
X150784787Y-76034392D01*
X150542603Y-76103857D01*
X150355856Y-76627302D01*
X150063200Y-76627302D01*
X150063200Y-74571661D01*
X150367758Y-74571661D01*
X150579990Y-75085303D01*
X150972630Y-75478629D01*
X151164727Y-75558395D01*
X151033857Y-75612603D01*
X150964392Y-75854787D01*
X151765000Y-76655395D01*
X152565608Y-75854787D01*
X152496143Y-75612603D01*
X152355682Y-75562491D01*
X152555303Y-75480010D01*
X152948629Y-75087370D01*
X153161757Y-74574100D01*
X153162242Y-74018339D01*
X152950010Y-73504697D01*
X152557370Y-73111371D01*
X152044100Y-72898243D01*
X151488339Y-72897758D01*
X150974697Y-73109990D01*
X150581371Y-73502630D01*
X150368243Y-74015900D01*
X150367758Y-74571661D01*
X150063200Y-74571661D01*
X150063200Y-72102194D01*
X151553578Y-70611816D01*
X152041661Y-70612242D01*
X152555303Y-70400010D01*
X152948629Y-70007370D01*
X153161757Y-69494100D01*
X153162242Y-68938339D01*
X152950010Y-68424697D01*
X152557370Y-68031371D01*
X152349488Y-67945051D01*
X152555303Y-67860010D01*
X152948629Y-67467370D01*
X153161757Y-66954100D01*
X153162242Y-66398339D01*
X152950010Y-65884697D01*
X152557370Y-65491371D01*
X152044100Y-65278243D01*
X151488339Y-65277758D01*
X150974697Y-65489990D01*
X150627281Y-65836800D01*
X149860000Y-65836800D01*
X149539235Y-65900604D01*
X149267303Y-66082303D01*
X145457303Y-69892303D01*
X145275604Y-70164234D01*
X145217676Y-70455461D01*
X145211800Y-70485000D01*
X145211800Y-89115472D01*
X145115162Y-89348201D01*
X145114838Y-89720167D01*
X145256883Y-90063943D01*
X145519673Y-90327192D01*
X145863201Y-90469838D01*
X146235167Y-90470162D01*
X146481800Y-90368256D01*
X146481800Y-96554752D01*
X146403327Y-96365302D01*
X146224699Y-96186673D01*
X145991310Y-96090000D01*
X145700750Y-96090000D01*
X145542000Y-96248750D01*
X145542000Y-97198000D01*
X145562000Y-97198000D01*
X145562000Y-97452000D01*
X145542000Y-97452000D01*
X145542000Y-97472000D01*
X145288000Y-97472000D01*
X145288000Y-97452000D01*
X145268000Y-97452000D01*
X145268000Y-97198000D01*
X145288000Y-97198000D01*
X145288000Y-96248750D01*
X145129250Y-96090000D01*
X144838690Y-96090000D01*
X144605301Y-96186673D01*
X144461022Y-96330953D01*
X144424090Y-96273559D01*
X144348200Y-96221706D01*
X144348200Y-95250000D01*
X144284396Y-94929235D01*
X144284396Y-94929234D01*
X144102697Y-94657303D01*
X141935730Y-92490336D01*
X142018345Y-92075000D01*
X141904271Y-91501511D01*
X141579415Y-91015330D01*
X141264634Y-90805000D01*
X141579415Y-90594670D01*
X141904271Y-90108489D01*
X142018345Y-89535000D01*
X141904271Y-88961511D01*
X141579415Y-88475330D01*
X141264634Y-88265000D01*
X141579415Y-88054670D01*
X141904271Y-87568489D01*
X142018345Y-86995000D01*
X141904271Y-86421511D01*
X141579415Y-85935330D01*
X141264634Y-85725000D01*
X141579415Y-85514670D01*
X141904271Y-85028489D01*
X142018345Y-84455000D01*
X141904271Y-83881511D01*
X141579415Y-83395330D01*
X141269931Y-83188539D01*
X141685732Y-82817036D01*
X141939709Y-82289791D01*
X141942358Y-82274026D01*
X141821217Y-82042000D01*
X140462000Y-82042000D01*
X140462000Y-82062000D01*
X140208000Y-82062000D01*
X140208000Y-82042000D01*
X138848783Y-82042000D01*
X138727642Y-82274026D01*
X138730291Y-82289791D01*
X138984268Y-82817036D01*
X139400069Y-83188539D01*
X139090585Y-83395330D01*
X138765729Y-83881511D01*
X138651655Y-84455000D01*
X138765729Y-85028489D01*
X139090585Y-85514670D01*
X139405366Y-85725000D01*
X139090585Y-85935330D01*
X138942603Y-86156800D01*
X137795000Y-86156800D01*
X137474234Y-86220604D01*
X137202303Y-86402303D01*
X135932303Y-87672303D01*
X135750604Y-87944234D01*
X135712062Y-88138000D01*
X135686800Y-88265000D01*
X135686800Y-96220216D01*
X135623559Y-96260910D01*
X135575001Y-96331976D01*
X135429699Y-96186673D01*
X135196310Y-96090000D01*
X134905750Y-96090000D01*
X134747000Y-96248750D01*
X134747000Y-97198000D01*
X134767000Y-97198000D01*
X134767000Y-97452000D01*
X134747000Y-97452000D01*
X134747000Y-97472000D01*
X134493000Y-97472000D01*
X134493000Y-97452000D01*
X134473000Y-97452000D01*
X134473000Y-97198000D01*
X134493000Y-97198000D01*
X134493000Y-96248750D01*
X134334250Y-96090000D01*
X134043690Y-96090000D01*
X133810301Y-96186673D01*
X133631673Y-96365302D01*
X133553200Y-96554752D01*
X133553200Y-81915000D01*
X133489396Y-81594235D01*
X133307697Y-81322303D01*
X131719420Y-79734026D01*
X138727642Y-79734026D01*
X138730291Y-79749791D01*
X138984268Y-80277036D01*
X139396108Y-80645000D01*
X138984268Y-81012964D01*
X138730291Y-81540209D01*
X138727642Y-81555974D01*
X138848783Y-81788000D01*
X140208000Y-81788000D01*
X140208000Y-79502000D01*
X140462000Y-79502000D01*
X140462000Y-81788000D01*
X141821217Y-81788000D01*
X141942358Y-81555974D01*
X141939709Y-81540209D01*
X141685732Y-81012964D01*
X141273892Y-80645000D01*
X141685732Y-80277036D01*
X141939709Y-79749791D01*
X141942358Y-79734026D01*
X141821217Y-79502000D01*
X140462000Y-79502000D01*
X140208000Y-79502000D01*
X138848783Y-79502000D01*
X138727642Y-79734026D01*
X131719420Y-79734026D01*
X131402697Y-79417303D01*
X131130766Y-79235604D01*
X130810000Y-79171800D01*
X129407197Y-79171800D01*
X129062370Y-78826371D01*
X128870273Y-78746605D01*
X129001143Y-78692397D01*
X129070608Y-78450213D01*
X128270000Y-77649605D01*
X127469392Y-78450213D01*
X127538857Y-78692397D01*
X127679318Y-78742509D01*
X127479697Y-78824990D01*
X127086371Y-79217630D01*
X126873243Y-79730900D01*
X126872758Y-80286661D01*
X123494800Y-80286661D01*
X123494800Y-77262302D01*
X126860856Y-77262302D01*
X126888638Y-77817368D01*
X127047603Y-78201143D01*
X127289787Y-78270608D01*
X128090395Y-77470000D01*
X128449605Y-77470000D01*
X129250213Y-78270608D01*
X129492397Y-78201143D01*
X129679144Y-77677698D01*
X129654936Y-77194026D01*
X138727642Y-77194026D01*
X138730291Y-77209791D01*
X138984268Y-77737036D01*
X139396108Y-78105000D01*
X138984268Y-78472964D01*
X138730291Y-79000209D01*
X138727642Y-79015974D01*
X138848783Y-79248000D01*
X140208000Y-79248000D01*
X140208000Y-76962000D01*
X140462000Y-76962000D01*
X140462000Y-79248000D01*
X141821217Y-79248000D01*
X141942358Y-79015974D01*
X141939709Y-79000209D01*
X141685732Y-78472964D01*
X141273892Y-78105000D01*
X141685732Y-77737036D01*
X141939709Y-77209791D01*
X141942358Y-77194026D01*
X141821217Y-76962000D01*
X140462000Y-76962000D01*
X140208000Y-76962000D01*
X138848783Y-76962000D01*
X138727642Y-77194026D01*
X129654936Y-77194026D01*
X129651362Y-77122632D01*
X129492397Y-76738857D01*
X129250213Y-76669392D01*
X128449605Y-77470000D01*
X128090395Y-77470000D01*
X127289787Y-76669392D01*
X127047603Y-76738857D01*
X126860856Y-77262302D01*
X123494800Y-77262302D01*
X123494800Y-76489787D01*
X127469392Y-76489787D01*
X128270000Y-77290395D01*
X129070608Y-76489787D01*
X129001143Y-76247603D01*
X128477698Y-76060856D01*
X127922632Y-76088638D01*
X127538857Y-76247603D01*
X127469392Y-76489787D01*
X123494800Y-76489787D01*
X123494800Y-74654026D01*
X138727642Y-74654026D01*
X138730291Y-74669791D01*
X138984268Y-75197036D01*
X139396108Y-75565000D01*
X138984268Y-75932964D01*
X138730291Y-76460209D01*
X138727642Y-76475974D01*
X138848783Y-76708000D01*
X140208000Y-76708000D01*
X140208000Y-74422000D01*
X140462000Y-74422000D01*
X140462000Y-76708000D01*
X141821217Y-76708000D01*
X141942358Y-76475974D01*
X141939709Y-76460209D01*
X141685732Y-75932964D01*
X141273892Y-75565000D01*
X141685732Y-75197036D01*
X141939709Y-74669791D01*
X141942358Y-74654026D01*
X141821217Y-74422000D01*
X140462000Y-74422000D01*
X140208000Y-74422000D01*
X138848783Y-74422000D01*
X138727642Y-74654026D01*
X123494800Y-74654026D01*
X123494800Y-71160413D01*
X128104392Y-71160413D01*
X128173857Y-71402597D01*
X128697302Y-71589344D01*
X129252368Y-71561562D01*
X129636143Y-71402597D01*
X129705608Y-71160413D01*
X128905000Y-70359805D01*
X128104392Y-71160413D01*
X123494800Y-71160413D01*
X123494800Y-70874278D01*
X124396576Y-69972502D01*
X127495856Y-69972502D01*
X127523638Y-70527568D01*
X127682603Y-70911343D01*
X127924787Y-70980808D01*
X128725395Y-70180200D01*
X129084605Y-70180200D01*
X129885213Y-70980808D01*
X130127397Y-70911343D01*
X130314144Y-70387898D01*
X130286362Y-69832832D01*
X130127397Y-69449057D01*
X129885213Y-69379592D01*
X129084605Y-70180200D01*
X128725395Y-70180200D01*
X127924787Y-69379592D01*
X127682603Y-69449057D01*
X127495856Y-69972502D01*
X124396576Y-69972502D01*
X125169091Y-69199987D01*
X128104392Y-69199987D01*
X128905000Y-70000595D01*
X129705608Y-69199987D01*
X129636143Y-68957803D01*
X129112698Y-68771056D01*
X128557632Y-68798838D01*
X128173857Y-68957803D01*
X128104392Y-69199987D01*
X125169091Y-69199987D01*
X127109878Y-67259200D01*
X127869226Y-67259200D01*
X128112630Y-67503029D01*
X128625900Y-67716157D01*
X129181661Y-67716642D01*
X129428138Y-67614800D01*
X139010490Y-67614800D01*
X139090585Y-67734670D01*
X139395200Y-67938207D01*
X139395200Y-67951793D01*
X139090585Y-68155330D01*
X138765729Y-68641511D01*
X138651655Y-69215000D01*
X138765729Y-69788489D01*
X139090585Y-70274670D01*
X139395200Y-70478207D01*
X139395200Y-70491793D01*
X139090585Y-70695330D01*
X138765729Y-71181511D01*
X138651655Y-71755000D01*
X138765729Y-72328489D01*
X139090585Y-72814670D01*
X139400069Y-73021461D01*
X138984268Y-73392964D01*
X138730291Y-73920209D01*
X138727642Y-73935974D01*
X138848783Y-74168000D01*
X140208000Y-74168000D01*
X140208000Y-74148000D01*
X140462000Y-74148000D01*
X140462000Y-74168000D01*
X141821217Y-74168000D01*
X141942358Y-73935974D01*
X141939709Y-73920209D01*
X141685732Y-73392964D01*
X141269931Y-73021461D01*
X141579415Y-72814670D01*
X141904271Y-72328489D01*
X142018345Y-71755000D01*
X141904271Y-71181511D01*
X141579415Y-70695330D01*
X141274800Y-70491793D01*
X141274800Y-70478207D01*
X141579415Y-70274670D01*
X141904271Y-69788489D01*
X142018345Y-69215000D01*
X141904271Y-68641511D01*
X141579415Y-68155330D01*
X141274800Y-67951793D01*
X141274800Y-67938207D01*
X141579415Y-67734670D01*
X141904271Y-67248489D01*
X142018345Y-66675000D01*
X141904271Y-66101511D01*
X141579415Y-65615330D01*
X141565087Y-65605757D01*
X141586317Y-65601762D01*
X141802441Y-65462690D01*
X141947431Y-65250490D01*
X141998440Y-64998600D01*
X141998440Y-64439800D01*
X153280722Y-64439800D01*
X154635200Y-65794278D01*
X154635200Y-82550000D01*
X154639978Y-82574022D01*
X154639838Y-82735167D01*
X154701917Y-82885411D01*
X154706738Y-82909646D01*
X154720346Y-82930012D01*
X154781883Y-83078943D01*
X154896733Y-83193994D01*
X154910461Y-83214539D01*
X154930827Y-83228147D01*
X155044673Y-83342192D01*
X155194809Y-83404534D01*
X155215354Y-83418262D01*
X155239377Y-83423040D01*
X155388201Y-83484838D01*
X155550766Y-83484980D01*
X155575000Y-83489800D01*
X155599022Y-83485022D01*
X155760167Y-83485162D01*
X155910411Y-83423083D01*
X155934646Y-83418262D01*
X155955012Y-83404654D01*
X156103943Y-83343117D01*
X156218994Y-83228267D01*
X156239539Y-83214539D01*
X156253147Y-83194173D01*
X156367192Y-83080327D01*
X156429534Y-82930191D01*
X156443262Y-82909646D01*
X156448040Y-82885623D01*
X156509838Y-82736799D01*
X156509980Y-82574234D01*
X156514800Y-82550000D01*
X156514800Y-70939461D01*
X174497758Y-70939461D01*
X174709990Y-71453103D01*
X175102630Y-71846429D01*
X175615900Y-72059557D01*
X176171661Y-72060042D01*
X176685303Y-71847810D01*
X176778275Y-71755000D01*
X180888960Y-71755000D01*
X180888960Y-72235000D01*
X180933238Y-72470317D01*
X181072310Y-72686441D01*
X181284510Y-72831431D01*
X181536400Y-72882440D01*
X182606159Y-72882440D01*
X182621861Y-72905939D01*
X184342560Y-74626638D01*
X184342560Y-74745000D01*
X184386838Y-74980317D01*
X184525910Y-75196441D01*
X184619224Y-75260200D01*
X177292156Y-75260200D01*
X177292242Y-75161339D01*
X177080010Y-74647697D01*
X176687370Y-74254371D01*
X176174100Y-74041243D01*
X175618339Y-74040758D01*
X175104697Y-74252990D01*
X174711371Y-74645630D01*
X174498243Y-75158900D01*
X174497758Y-75714661D01*
X174709990Y-76228303D01*
X175102630Y-76621629D01*
X175615900Y-76834757D01*
X175810449Y-76834927D01*
X175840061Y-76864539D01*
X176144954Y-77068262D01*
X176504600Y-77139800D01*
X181117765Y-77139800D01*
X181084959Y-77160910D01*
X180939969Y-77373110D01*
X180888960Y-77625000D01*
X180888960Y-78511400D01*
X177081209Y-78511400D01*
X177080010Y-78508497D01*
X176687370Y-78115171D01*
X176174100Y-77902043D01*
X175618339Y-77901558D01*
X175104697Y-78113790D01*
X174711371Y-78506430D01*
X174498243Y-79019700D01*
X174497758Y-79575461D01*
X174709990Y-80089103D01*
X175102630Y-80482429D01*
X175615900Y-80695557D01*
X176171661Y-80696042D01*
X176685303Y-80483810D01*
X176778275Y-80391000D01*
X180888960Y-80391000D01*
X180888960Y-81125000D01*
X180933238Y-81360317D01*
X181072310Y-81576441D01*
X181284510Y-81721431D01*
X181536400Y-81772440D01*
X182346600Y-81772440D01*
X182346600Y-82321400D01*
X182418138Y-82681046D01*
X182621861Y-82985939D01*
X183485461Y-83849539D01*
X183790354Y-84053262D01*
X184150000Y-84124800D01*
X184582050Y-84124800D01*
X184619224Y-84150200D01*
X177291934Y-84150200D01*
X177292242Y-83797339D01*
X177080010Y-83283697D01*
X176687370Y-82890371D01*
X176174100Y-82677243D01*
X175618339Y-82676758D01*
X175104697Y-82888990D01*
X174711371Y-83281630D01*
X174498243Y-83794900D01*
X174497758Y-84350661D01*
X174709990Y-84864303D01*
X175102630Y-85257629D01*
X175615900Y-85470757D01*
X175810449Y-85470927D01*
X176094061Y-85754539D01*
X176398954Y-85958262D01*
X176758600Y-86029800D01*
X181117765Y-86029800D01*
X181084959Y-86050910D01*
X180939969Y-86263110D01*
X180888960Y-86515000D01*
X180888960Y-87147400D01*
X177081209Y-87147400D01*
X177080010Y-87144497D01*
X176687370Y-86751171D01*
X176174100Y-86538043D01*
X175618339Y-86537558D01*
X175104697Y-86749790D01*
X174711371Y-87142430D01*
X174498243Y-87655700D01*
X174497758Y-88211461D01*
X174709990Y-88725103D01*
X175102630Y-89118429D01*
X175615900Y-89331557D01*
X176171661Y-89332042D01*
X176685303Y-89119810D01*
X176778275Y-89027000D01*
X180888960Y-89027000D01*
X180888960Y-90015000D01*
X180933238Y-90250317D01*
X181072310Y-90466441D01*
X181284510Y-90611431D01*
X181536400Y-90662440D01*
X182606159Y-90662440D01*
X182621861Y-90685939D01*
X184342560Y-92406638D01*
X184342560Y-92525000D01*
X184386838Y-92760317D01*
X184525910Y-92976441D01*
X184738110Y-93121431D01*
X184990000Y-93172440D01*
X186190000Y-93172440D01*
X186425317Y-93128162D01*
X186641441Y-92989090D01*
X186689134Y-92919289D01*
X186725910Y-92976441D01*
X186938110Y-93121431D01*
X187190000Y-93172440D01*
X188390000Y-93172440D01*
X188625317Y-93128162D01*
X188841441Y-92989090D01*
X188986431Y-92776890D01*
X189037440Y-92525000D01*
X189037440Y-92406638D01*
X190758139Y-90685939D01*
X190773841Y-90662440D01*
X191161962Y-90662440D01*
X193239061Y-92739539D01*
X193543954Y-92943262D01*
X193903600Y-93014800D01*
X200280898Y-93014800D01*
X200310838Y-93173917D01*
X200449910Y-93390041D01*
X200662110Y-93535031D01*
X200914000Y-93586040D01*
X202946000Y-93586040D01*
X203181317Y-93541762D01*
X203397441Y-93402690D01*
X203542431Y-93190490D01*
X203578009Y-93014800D01*
X212980898Y-93014800D01*
X213010838Y-93173917D01*
X213149910Y-93390041D01*
X213362110Y-93535031D01*
X213614000Y-93586040D01*
X215646000Y-93586040D01*
X215881317Y-93541762D01*
X216097441Y-93402690D01*
X216242431Y-93190490D01*
X216293440Y-92938600D01*
X216293440Y-91211400D01*
X216249162Y-90976083D01*
X216110090Y-90759959D01*
X215897890Y-90614969D01*
X215856561Y-90606600D01*
X215874415Y-90594670D01*
X216199271Y-90108489D01*
X216313345Y-89535000D01*
X216199271Y-88961511D01*
X215874415Y-88475330D01*
X215559634Y-88265000D01*
X215874415Y-88054670D01*
X216199271Y-87568489D01*
X216313345Y-86995000D01*
X216199271Y-86421511D01*
X215874415Y-85935330D01*
X215559634Y-85725000D01*
X215874415Y-85514670D01*
X216199271Y-85028489D01*
X216313345Y-84455000D01*
X216199271Y-83881511D01*
X215874415Y-83395330D01*
X215559634Y-83185000D01*
X215874415Y-82974670D01*
X216199271Y-82488489D01*
X216313345Y-81915000D01*
X216199271Y-81341511D01*
X215874415Y-80855330D01*
X215559634Y-80645000D01*
X215874415Y-80434670D01*
X216199271Y-79948489D01*
X216313345Y-79375000D01*
X216199271Y-78801511D01*
X215874415Y-78315330D01*
X215388234Y-77990474D01*
X214814745Y-77876400D01*
X214445255Y-77876400D01*
X213871766Y-77990474D01*
X213385585Y-78315330D01*
X213305490Y-78435200D01*
X203254510Y-78435200D01*
X203174415Y-78315330D01*
X202688234Y-77990474D01*
X202114745Y-77876400D01*
X201745255Y-77876400D01*
X201171766Y-77990474D01*
X200685585Y-78315330D01*
X200360729Y-78801511D01*
X200246655Y-79375000D01*
X200360729Y-79948489D01*
X200685585Y-80434670D01*
X201000366Y-80645000D01*
X200685585Y-80855330D01*
X200360729Y-81341511D01*
X200246655Y-81915000D01*
X200360729Y-82488489D01*
X200685585Y-82974670D01*
X201000366Y-83185000D01*
X200685585Y-83395330D01*
X200360729Y-83881511D01*
X200246655Y-84455000D01*
X200360729Y-85028489D01*
X200685585Y-85514670D01*
X201000366Y-85725000D01*
X200685585Y-85935330D01*
X200360729Y-86421511D01*
X200246655Y-86995000D01*
X200360729Y-87568489D01*
X200685585Y-88054670D01*
X201000366Y-88265000D01*
X200685585Y-88475330D01*
X200360729Y-88961511D01*
X200246655Y-89535000D01*
X200360729Y-90108489D01*
X200685585Y-90594670D01*
X200699913Y-90604243D01*
X200678683Y-90608238D01*
X200462559Y-90747310D01*
X200317569Y-90959510D01*
X200281991Y-91135200D01*
X194292878Y-91135200D01*
X192491040Y-89333362D01*
X192491040Y-87196638D01*
X196244539Y-83443139D01*
X196448262Y-83138246D01*
X196519800Y-82778600D01*
X196519800Y-78494278D01*
X200302021Y-74712057D01*
X200310838Y-74758917D01*
X200449910Y-74975041D01*
X200662110Y-75120031D01*
X200914000Y-75171040D01*
X202946000Y-75171040D01*
X203181317Y-75126762D01*
X203397441Y-74987690D01*
X203542431Y-74775490D01*
X203578009Y-74599800D01*
X212980898Y-74599800D01*
X213010838Y-74758917D01*
X213149910Y-74975041D01*
X213362110Y-75120031D01*
X213614000Y-75171040D01*
X215646000Y-75171040D01*
X215881317Y-75126762D01*
X216097441Y-74987690D01*
X216242431Y-74775490D01*
X216293440Y-74523600D01*
X216293440Y-72796400D01*
X216249162Y-72561083D01*
X216110090Y-72344959D01*
X215897890Y-72199969D01*
X215856561Y-72191600D01*
X215874415Y-72179670D01*
X216199271Y-71693489D01*
X216313345Y-71120000D01*
X216199271Y-70546511D01*
X215874415Y-70060330D01*
X215559634Y-69850000D01*
X215874415Y-69639670D01*
X216199271Y-69153489D01*
X216313345Y-68580000D01*
X216199271Y-68006511D01*
X215874415Y-67520330D01*
X215559634Y-67310000D01*
X215874415Y-67099670D01*
X216199271Y-66613489D01*
X216313345Y-66040000D01*
X216199271Y-65466511D01*
X215874415Y-64980330D01*
X215559634Y-64770000D01*
X215874415Y-64559670D01*
X216199271Y-64073489D01*
X216313345Y-63500000D01*
X216199271Y-62926511D01*
X215874415Y-62440330D01*
X215559634Y-62230000D01*
X215874415Y-62019670D01*
X216199271Y-61533489D01*
X216313345Y-60960000D01*
X216199271Y-60386511D01*
X215874415Y-59900330D01*
X215388234Y-59575474D01*
X214814745Y-59461400D01*
X214445255Y-59461400D01*
X213871766Y-59575474D01*
X213385585Y-59900330D01*
X213305490Y-60020200D01*
X203254510Y-60020200D01*
X203174415Y-59900330D01*
X202688234Y-59575474D01*
X202114745Y-59461400D01*
X201745255Y-59461400D01*
X201171766Y-59575474D01*
X200685585Y-59900330D01*
X200360729Y-60386511D01*
X200246655Y-60960000D01*
X200360729Y-61533489D01*
X200685585Y-62019670D01*
X201000366Y-62230000D01*
X200685585Y-62440330D01*
X200360729Y-62926511D01*
X200316362Y-63149560D01*
X199000722Y-64465200D01*
X196215000Y-64465200D01*
X195855354Y-64536738D01*
X195550461Y-64740461D01*
X192129271Y-68161651D01*
X192095490Y-68138569D01*
X191843600Y-68087560D01*
X188343600Y-68087560D01*
X188108283Y-68131838D01*
X187892159Y-68270910D01*
X187747169Y-68483110D01*
X187696160Y-68735000D01*
X187696160Y-72235000D01*
X187740438Y-72470317D01*
X187879510Y-72686441D01*
X188091710Y-72831431D01*
X188160550Y-72845372D01*
X187808362Y-73197560D01*
X187190000Y-73197560D01*
X186954683Y-73241838D01*
X186738559Y-73380910D01*
X186690866Y-73450711D01*
X186654090Y-73393559D01*
X186441890Y-73248569D01*
X186190000Y-73197560D01*
X185571638Y-73197560D01*
X185221659Y-72847581D01*
X185271717Y-72838162D01*
X185487841Y-72699090D01*
X185632831Y-72486890D01*
X185683840Y-72235000D01*
X185683840Y-68735000D01*
X185639562Y-68499683D01*
X185500490Y-68283559D01*
X185288290Y-68138569D01*
X185036400Y-68087560D01*
X181536400Y-68087560D01*
X181301083Y-68131838D01*
X181084959Y-68270910D01*
X180939969Y-68483110D01*
X180888960Y-68735000D01*
X180888960Y-69875400D01*
X177081209Y-69875400D01*
X177080010Y-69872497D01*
X176687370Y-69479171D01*
X176174100Y-69266043D01*
X175618339Y-69265558D01*
X175104697Y-69477790D01*
X174711371Y-69870430D01*
X174498243Y-70383700D01*
X174497758Y-70939461D01*
X156514800Y-70939461D01*
X156514800Y-67078661D01*
X174497758Y-67078661D01*
X174709990Y-67592303D01*
X175102630Y-67985629D01*
X175615900Y-68198757D01*
X176171661Y-68199242D01*
X176685303Y-67987010D01*
X177078629Y-67594370D01*
X177291757Y-67081100D01*
X177292242Y-66525339D01*
X177080010Y-66011697D01*
X176687370Y-65618371D01*
X176174100Y-65405243D01*
X175618339Y-65404758D01*
X175104697Y-65616990D01*
X174711371Y-66009630D01*
X174498243Y-66522900D01*
X174497758Y-67078661D01*
X156514800Y-67078661D01*
X156514800Y-65405000D01*
X156443262Y-65045354D01*
X156239539Y-64740461D01*
X154334539Y-62835461D01*
X154029646Y-62631738D01*
X153670000Y-62560200D01*
X140970000Y-62560200D01*
X140649457Y-62623960D01*
X139319000Y-62623960D01*
X139083683Y-62668238D01*
X138867559Y-62807310D01*
X138722569Y-63019510D01*
X138671560Y-63271400D01*
X138671560Y-64998600D01*
X138715838Y-65233917D01*
X138854910Y-65450041D01*
X139067110Y-65595031D01*
X139108439Y-65603400D01*
X139090585Y-65615330D01*
X139010490Y-65735200D01*
X130175170Y-65735200D01*
X130090010Y-65529097D01*
X129697370Y-65135771D01*
X129184100Y-64922643D01*
X128628339Y-64922158D01*
X128114697Y-65134390D01*
X127869059Y-65379600D01*
X126720600Y-65379600D01*
X126360954Y-65451138D01*
X126056061Y-65654861D01*
X121890461Y-69820461D01*
X121686738Y-70125354D01*
X121615200Y-70485000D01*
X105536778Y-70485000D01*
X105537242Y-69954339D01*
X105325010Y-69440697D01*
X104932370Y-69047371D01*
X104419100Y-68834243D01*
X103863339Y-68833758D01*
X103349697Y-69045990D01*
X102956371Y-69438630D01*
X102912119Y-69545200D01*
X98917235Y-69545200D01*
X98950041Y-69524090D01*
X99095031Y-69311890D01*
X99146040Y-69060000D01*
X99146040Y-68249800D01*
X103200200Y-68249800D01*
X103559846Y-68178262D01*
X103864739Y-67974539D01*
X104072137Y-67767141D01*
X104416661Y-67767442D01*
X104930303Y-67555210D01*
X105323629Y-67162570D01*
X105536757Y-66649300D01*
X105537242Y-66093539D01*
X105325010Y-65579897D01*
X104932370Y-65186571D01*
X104419100Y-64973443D01*
X103863339Y-64972958D01*
X103349697Y-65185190D01*
X102956371Y-65577830D01*
X102743243Y-66091100D01*
X102742999Y-66370200D01*
X99146040Y-66370200D01*
X99146040Y-65560000D01*
X99101762Y-65324683D01*
X98962690Y-65108559D01*
X98750490Y-64963569D01*
X98498600Y-64912560D01*
X97428841Y-64912560D01*
X97413139Y-64889061D01*
X95692440Y-63168362D01*
X95692440Y-63050000D01*
X95648162Y-62814683D01*
X95509090Y-62598559D01*
X95296890Y-62453569D01*
X95045000Y-62402560D01*
X93845000Y-62402560D01*
X93609683Y-62446838D01*
X93393559Y-62585910D01*
X93345866Y-62655711D01*
X93309090Y-62598559D01*
X93096890Y-62453569D01*
X92845000Y-62402560D01*
X91645000Y-62402560D01*
X91409683Y-62446838D01*
X91193559Y-62585910D01*
X91048569Y-62798110D01*
X90997560Y-63050000D01*
X90997560Y-63168362D01*
X89276861Y-64889061D01*
X89261159Y-64912560D01*
X88191400Y-64912560D01*
X87956083Y-64956838D01*
X87739959Y-65095910D01*
X87594969Y-65308110D01*
X87543960Y-65560000D01*
X87543960Y-66370200D01*
X83574278Y-66370200D01*
X82219800Y-65015722D01*
X82219800Y-63500000D01*
X82148262Y-63140354D01*
X81944539Y-62835461D01*
X81077383Y-61968305D01*
X83839674Y-61968305D01*
X84126043Y-62661372D01*
X84655839Y-63192093D01*
X85348405Y-63479672D01*
X86098305Y-63480326D01*
X86791372Y-63193957D01*
X87322093Y-62664161D01*
X87609672Y-61971595D01*
X87609715Y-61921963D01*
X127253714Y-61921963D01*
X127504534Y-62528995D01*
X127968563Y-62993834D01*
X128575155Y-63245713D01*
X129231963Y-63246286D01*
X129838995Y-62995466D01*
X130303834Y-62531437D01*
X130555713Y-61924845D01*
X130555715Y-61921963D01*
X174243714Y-61921963D01*
X174494534Y-62528995D01*
X174958563Y-62993834D01*
X175565155Y-63245713D01*
X176221963Y-63246286D01*
X176828995Y-62995466D01*
X177293834Y-62531437D01*
X177527666Y-61968305D01*
X193059674Y-61968305D01*
X193346043Y-62661372D01*
X193875839Y-63192093D01*
X194568405Y-63479672D01*
X195318305Y-63480326D01*
X196011372Y-63193957D01*
X196542093Y-62664161D01*
X196829672Y-61971595D01*
X196830326Y-61221695D01*
X196543957Y-60528628D01*
X196014161Y-59997907D01*
X195321595Y-59710328D01*
X194571695Y-59709674D01*
X193878628Y-59996043D01*
X193347907Y-60525839D01*
X193060328Y-61218405D01*
X193059674Y-61968305D01*
X177527666Y-61968305D01*
X177545713Y-61924845D01*
X177546286Y-61268037D01*
X177295466Y-60661005D01*
X176831437Y-60196166D01*
X176224845Y-59944287D01*
X175568037Y-59943714D01*
X174961005Y-60194534D01*
X174496166Y-60658563D01*
X174244287Y-61265155D01*
X174243714Y-61921963D01*
X130555715Y-61921963D01*
X130556286Y-61268037D01*
X130305466Y-60661005D01*
X129841437Y-60196166D01*
X129234845Y-59944287D01*
X128578037Y-59943714D01*
X127971005Y-60194534D01*
X127506166Y-60658563D01*
X127254287Y-61265155D01*
X127253714Y-61921963D01*
X87609715Y-61921963D01*
X87610326Y-61221695D01*
X87323957Y-60528628D01*
X86794161Y-59997907D01*
X86101595Y-59710328D01*
X85351695Y-59709674D01*
X84658628Y-59996043D01*
X84127907Y-60525839D01*
X83840328Y-61218405D01*
X83839674Y-61968305D01*
X81077383Y-61968305D01*
X79768440Y-60659362D01*
X79768440Y-60096400D01*
X79724162Y-59861083D01*
X79585090Y-59644959D01*
X79372890Y-59499969D01*
X79121000Y-59448960D01*
X77089000Y-59448960D01*
X76853683Y-59493238D01*
X76637559Y-59632310D01*
X76492569Y-59844510D01*
X76456991Y-60020200D01*
X67054102Y-60020200D01*
X67024162Y-59861083D01*
X66885090Y-59644959D01*
X66672890Y-59499969D01*
X66421000Y-59448960D01*
X64389000Y-59448960D01*
X64153683Y-59493238D01*
X63937559Y-59632310D01*
X63792569Y-59844510D01*
X63741560Y-60096400D01*
X63741560Y-61823600D01*
X63785838Y-62058917D01*
X63924910Y-62275041D01*
X64137110Y-62420031D01*
X64178439Y-62428400D01*
X64160585Y-62440330D01*
X63835729Y-62926511D01*
X63721655Y-63500000D01*
X62280000Y-63500000D01*
X62280000Y-57835000D01*
X217755000Y-57835000D01*
X217755000Y-132030000D01*
G36*
X142540922Y-117750000D02*
X142525750Y-117750000D01*
X142367000Y-117908750D01*
X142367000Y-117989051D01*
X142268569Y-118133110D01*
X142240824Y-118270120D01*
X142229800Y-118211534D01*
X142229800Y-117144800D01*
X143146122Y-117144800D01*
X142540922Y-117750000D01*
X142540922Y-117750000D01*
G37*
X142540922Y-117750000D02*
X142525750Y-117750000D01*
X142367000Y-117908750D01*
X142367000Y-117989051D01*
X142268569Y-118133110D01*
X142240824Y-118270120D01*
X142229800Y-118211534D01*
X142229800Y-117144800D01*
X143146122Y-117144800D01*
X142540922Y-117750000D01*
G36*
X142671800Y-95597194D02*
X142671800Y-96220216D01*
X142608559Y-96260910D01*
X142463569Y-96473110D01*
X142412560Y-96725000D01*
X142412560Y-97925000D01*
X142456838Y-98160317D01*
X142595910Y-98376441D01*
X142665711Y-98424134D01*
X142608559Y-98460910D01*
X142463569Y-98673110D01*
X142412560Y-98925000D01*
X142412560Y-100125000D01*
X142456838Y-100360317D01*
X142587712Y-100563701D01*
X142336539Y-100814436D01*
X142125241Y-101323298D01*
X142124760Y-101874285D01*
X142335169Y-102383515D01*
X142724436Y-102773461D01*
X143233298Y-102984759D01*
X143784285Y-102985240D01*
X144293515Y-102774831D01*
X144576800Y-102492039D01*
X144576800Y-106332806D01*
X144259666Y-106649940D01*
X144259666Y-106649938D01*
X144284440Y-106527600D01*
X144284440Y-106121200D01*
X144259666Y-105989538D01*
X144284440Y-105867200D01*
X144284440Y-105460800D01*
X144267319Y-105369810D01*
X144272000Y-105358509D01*
X144272000Y-105289350D01*
X144247586Y-105264936D01*
X144240162Y-105225483D01*
X144101090Y-105009359D01*
X143981139Y-104927400D01*
X144113250Y-104927400D01*
X144272000Y-104768650D01*
X144272000Y-104699491D01*
X144175327Y-104466102D01*
X143996699Y-104287473D01*
X143763310Y-104190800D01*
X143287750Y-104190800D01*
X143129000Y-104349550D01*
X143129000Y-104813360D01*
X142875000Y-104813360D01*
X142875000Y-104349550D01*
X142716250Y-104190800D01*
X142240690Y-104190800D01*
X142007301Y-104287473D01*
X141846621Y-104448154D01*
X141763117Y-104246057D01*
X141500327Y-103982808D01*
X141156799Y-103840162D01*
X140784833Y-103839838D01*
X140538200Y-103941744D01*
X140538200Y-103217194D01*
X141562697Y-102192697D01*
X141744396Y-101920766D01*
X141808200Y-101600000D01*
X141808200Y-100629784D01*
X141871441Y-100589090D01*
X142016431Y-100376890D01*
X142067440Y-100125000D01*
X142067440Y-98925000D01*
X142023162Y-98689683D01*
X141884090Y-98473559D01*
X141814289Y-98425866D01*
X141871441Y-98389090D01*
X142016431Y-98176890D01*
X142067440Y-97925000D01*
X142067440Y-96725000D01*
X142023162Y-96489683D01*
X141884090Y-96273559D01*
X141808200Y-96221706D01*
X141808200Y-95250000D01*
X141744396Y-94929235D01*
X141744396Y-94929234D01*
X141562697Y-94657303D01*
X140478994Y-93573600D01*
X140519745Y-93573600D01*
X140626893Y-93552287D01*
X142671800Y-95597194D01*
X142671800Y-95597194D01*
G37*
X142671800Y-95597194D02*
X142671800Y-96220216D01*
X142608559Y-96260910D01*
X142463569Y-96473110D01*
X142412560Y-96725000D01*
X142412560Y-97925000D01*
X142456838Y-98160317D01*
X142595910Y-98376441D01*
X142665711Y-98424134D01*
X142608559Y-98460910D01*
X142463569Y-98673110D01*
X142412560Y-98925000D01*
X142412560Y-100125000D01*
X142456838Y-100360317D01*
X142587712Y-100563701D01*
X142336539Y-100814436D01*
X142125241Y-101323298D01*
X142124760Y-101874285D01*
X142335169Y-102383515D01*
X142724436Y-102773461D01*
X143233298Y-102984759D01*
X143784285Y-102985240D01*
X144293515Y-102774831D01*
X144576800Y-102492039D01*
X144576800Y-106332806D01*
X144259666Y-106649940D01*
X144259666Y-106649938D01*
X144284440Y-106527600D01*
X144284440Y-106121200D01*
X144259666Y-105989538D01*
X144284440Y-105867200D01*
X144284440Y-105460800D01*
X144267319Y-105369810D01*
X144272000Y-105358509D01*
X144272000Y-105289350D01*
X144247586Y-105264936D01*
X144240162Y-105225483D01*
X144101090Y-105009359D01*
X143981139Y-104927400D01*
X144113250Y-104927400D01*
X144272000Y-104768650D01*
X144272000Y-104699491D01*
X144175327Y-104466102D01*
X143996699Y-104287473D01*
X143763310Y-104190800D01*
X143287750Y-104190800D01*
X143129000Y-104349550D01*
X143129000Y-104813360D01*
X142875000Y-104813360D01*
X142875000Y-104349550D01*
X142716250Y-104190800D01*
X142240690Y-104190800D01*
X142007301Y-104287473D01*
X141846621Y-104448154D01*
X141763117Y-104246057D01*
X141500327Y-103982808D01*
X141156799Y-103840162D01*
X140784833Y-103839838D01*
X140538200Y-103941744D01*
X140538200Y-103217194D01*
X141562697Y-102192697D01*
X141744396Y-101920766D01*
X141808200Y-101600000D01*
X141808200Y-100629784D01*
X141871441Y-100589090D01*
X142016431Y-100376890D01*
X142067440Y-100125000D01*
X142067440Y-98925000D01*
X142023162Y-98689683D01*
X141884090Y-98473559D01*
X141814289Y-98425866D01*
X141871441Y-98389090D01*
X142016431Y-98176890D01*
X142067440Y-97925000D01*
X142067440Y-96725000D01*
X142023162Y-96489683D01*
X141884090Y-96273559D01*
X141808200Y-96221706D01*
X141808200Y-95250000D01*
X141744396Y-94929235D01*
X141744396Y-94929234D01*
X141562697Y-94657303D01*
X140478994Y-93573600D01*
X140519745Y-93573600D01*
X140626893Y-93552287D01*
X142671800Y-95597194D01*
G36*
X140131800Y-95597194D02*
X140131800Y-96220216D01*
X140068559Y-96260910D01*
X140020001Y-96331976D01*
X139874699Y-96186673D01*
X139641310Y-96090000D01*
X139350750Y-96090000D01*
X139192000Y-96248750D01*
X139192000Y-97198000D01*
X139212000Y-97198000D01*
X139212000Y-97452000D01*
X139192000Y-97452000D01*
X139192000Y-97472000D01*
X138938000Y-97472000D01*
X138938000Y-97452000D01*
X138138750Y-97452000D01*
X137980000Y-97610750D01*
X137980000Y-98051309D01*
X138076673Y-98284698D01*
X138217910Y-98425936D01*
X138163559Y-98460910D01*
X138018569Y-98673110D01*
X137967560Y-98925000D01*
X137967560Y-100125000D01*
X138011838Y-100360317D01*
X138142712Y-100563701D01*
X137891539Y-100814436D01*
X137794214Y-101048820D01*
X137370488Y-100625094D01*
X137426441Y-100589090D01*
X137571431Y-100376890D01*
X137622440Y-100125000D01*
X137622440Y-98925000D01*
X137578162Y-98689683D01*
X137439090Y-98473559D01*
X137369289Y-98425866D01*
X137426441Y-98389090D01*
X137571431Y-98176890D01*
X137622440Y-97925000D01*
X137622440Y-96725000D01*
X137598674Y-96598691D01*
X137980000Y-96598691D01*
X137980000Y-97039250D01*
X138138750Y-97198000D01*
X138938000Y-97198000D01*
X138938000Y-96248750D01*
X138779250Y-96090000D01*
X138488690Y-96090000D01*
X138255301Y-96186673D01*
X138076673Y-96365302D01*
X137980000Y-96598691D01*
X137598674Y-96598691D01*
X137578162Y-96489683D01*
X137439090Y-96273559D01*
X137363200Y-96221706D01*
X137363200Y-92828594D01*
X140131800Y-95597194D01*
X140131800Y-95597194D01*
G37*
X140131800Y-95597194D02*
X140131800Y-96220216D01*
X140068559Y-96260910D01*
X140020001Y-96331976D01*
X139874699Y-96186673D01*
X139641310Y-96090000D01*
X139350750Y-96090000D01*
X139192000Y-96248750D01*
X139192000Y-97198000D01*
X139212000Y-97198000D01*
X139212000Y-97452000D01*
X139192000Y-97452000D01*
X139192000Y-97472000D01*
X138938000Y-97472000D01*
X138938000Y-97452000D01*
X138138750Y-97452000D01*
X137980000Y-97610750D01*
X137980000Y-98051309D01*
X138076673Y-98284698D01*
X138217910Y-98425936D01*
X138163559Y-98460910D01*
X138018569Y-98673110D01*
X137967560Y-98925000D01*
X137967560Y-100125000D01*
X138011838Y-100360317D01*
X138142712Y-100563701D01*
X137891539Y-100814436D01*
X137794214Y-101048820D01*
X137370488Y-100625094D01*
X137426441Y-100589090D01*
X137571431Y-100376890D01*
X137622440Y-100125000D01*
X137622440Y-98925000D01*
X137578162Y-98689683D01*
X137439090Y-98473559D01*
X137369289Y-98425866D01*
X137426441Y-98389090D01*
X137571431Y-98176890D01*
X137622440Y-97925000D01*
X137622440Y-96725000D01*
X137598674Y-96598691D01*
X137980000Y-96598691D01*
X137980000Y-97039250D01*
X138138750Y-97198000D01*
X138938000Y-97198000D01*
X138938000Y-96248750D01*
X138779250Y-96090000D01*
X138488690Y-96090000D01*
X138255301Y-96186673D01*
X138076673Y-96365302D01*
X137980000Y-96598691D01*
X137598674Y-96598691D01*
X137578162Y-96489683D01*
X137439090Y-96273559D01*
X137363200Y-96221706D01*
X137363200Y-92828594D01*
X140131800Y-95597194D01*
M02*
